%FSTAX23Y23*%
%MOIN*%
%SFA1B1*%

%IPPOS*%
%AMD50*
4,1,4,-0.040300,0.012600,0.012600,-0.040300,0.040300,-0.012600,-0.012600,0.040300,-0.040300,0.012600,0.0*
%
%AMD51*
4,1,4,-0.002800,-0.038900,0.038900,0.002800,0.002800,0.038900,-0.038900,-0.002800,-0.002800,-0.038900,0.0*
%
%AMD52*
4,1,4,-0.012500,-0.029200,0.029200,0.012500,0.012500,0.029200,-0.029200,-0.012500,-0.012500,-0.029200,0.0*
%
%AMD53*
4,1,4,0.012600,0.040300,-0.040300,-0.012600,-0.012600,-0.040300,0.040300,0.012600,0.012600,0.040300,0.0*
%
%AMD54*
4,1,4,-0.038900,0.002800,0.002800,-0.038900,0.038900,-0.002800,-0.002800,0.038900,-0.038900,0.002800,0.0*
%
%AMD55*
4,1,4,-0.029200,0.012500,0.012500,-0.029200,0.029200,-0.012500,-0.012500,0.029200,-0.029200,0.012500,0.0*
%
%ADD36C,0.010000*%
%ADD37C,0.055120*%
%ADD38C,0.024000*%
%ADD39C,0.070000*%
%ADD40R,0.037010X0.029530*%
%ADD41R,0.025200X0.016540*%
%ADD42R,0.016540X0.025200*%
%ADD43R,0.018700X0.019680*%
%ADD44R,0.029530X0.037010*%
%ADD45R,0.059060X0.023620*%
%ADD46R,0.023620X0.059060*%
%ADD47R,0.133070X0.094490*%
%ADD48R,0.017720X0.058070*%
%ADD49R,0.047240X0.098430*%
G04~CAMADD=50~9~0.0~0.0~748.0~393.7~0.0~0.0~0~0.0~0.0~0.0~0.0~0~0.0~0.0~0.0~0.0~0~0.0~0.0~0.0~135.0~806.0~805.0*
%ADD50D50*%
G04~CAMADD=51~9~0.0~0.0~590.6~511.8~0.0~0.0~0~0.0~0.0~0.0~0.0~0~0.0~0.0~0.0~0.0~0~0.0~0.0~0.0~225.0~778.0~777.0*
%ADD51D51*%
G04~CAMADD=52~9~0.0~0.0~590.6~236.2~0.0~0.0~0~0.0~0.0~0.0~0.0~0~0.0~0.0~0.0~0.0~0~0.0~0.0~0.0~225.0~584.0~583.0*
%ADD52D52*%
G04~CAMADD=53~9~0.0~0.0~748.0~393.7~0.0~0.0~0~0.0~0.0~0.0~0.0~0~0.0~0.0~0.0~0.0~0~0.0~0.0~0.0~45.0~806.0~805.0*
%ADD53D53*%
G04~CAMADD=54~9~0.0~0.0~590.6~511.8~0.0~0.0~0~0.0~0.0~0.0~0.0~0~0.0~0.0~0.0~0.0~0~0.0~0.0~0.0~135.0~778.0~777.0*
%ADD54D54*%
G04~CAMADD=55~9~0.0~0.0~590.6~236.2~0.0~0.0~0~0.0~0.0~0.0~0.0~0~0.0~0.0~0.0~0.0~0~0.0~0.0~0.0~135.0~584.0~583.0*
%ADD55D55*%
%ADD56R,0.200000X0.120000*%
%ADD57R,0.038190X0.057870*%
%ADD58R,0.019680X0.018700*%
%LNpcb1-1*%
%LPD*%
G36*
X03167Y03381D02*
X03211Y03375D01*
X03255Y03367*
X03298Y03355*
X03341Y03341*
X03382Y03324*
X03422Y03304*
X03461Y03281*
X03499Y03256*
X03534Y03229*
X03568Y032*
X036Y03168*
X03629Y03134*
X03656Y03099*
X03681Y03061*
X03704Y03022*
X03724Y02982*
X03741Y02941*
X03755Y02898*
X03767Y02855*
X03775Y02811*
X03781Y02767*
X03784Y02722*
Y02677*
X03781Y02632*
X03775Y02588*
X03767Y02544*
X03755Y02501*
X03741Y02458*
X03724Y02417*
X03704Y02377*
X03681Y02338*
X03656Y023*
X03629Y02265*
X036Y02231*
X03568Y02199*
X03534Y0217*
X03499Y02143*
X03461Y02118*
X03422Y02095*
X03382Y02075*
X03341Y02058*
X03298Y02044*
X03255Y02032*
X03211Y02024*
X03167Y02018*
X03122Y02015*
X03077*
X03032Y02018*
X02988Y02024*
X02944Y02032*
X02901Y02044*
X02858Y02058*
X02817Y02075*
X02777Y02095*
X02738Y02118*
X027Y02143*
X02665Y0217*
X02631Y02199*
X02599Y02231*
X0257Y02265*
X02543Y023*
X02518Y02338*
X02495Y02377*
X02475Y02417*
X02458Y02458*
X02444Y02501*
X02432Y02544*
X02424Y02588*
X02418Y02632*
X02415Y02677*
Y02722*
X02418Y02767*
X02424Y02811*
X02432Y02855*
X02444Y02898*
X02458Y02941*
X02475Y02982*
X02495Y03022*
X02518Y03061*
X02543Y03099*
X0257Y03134*
X02599Y03168*
X02631Y032*
X02665Y03229*
X027Y03256*
X02738Y03281*
X02777Y03304*
X02817Y03324*
X02858Y03341*
X02901Y03355*
X02944Y03367*
X02988Y03375*
X03032Y03381*
X03077Y03384*
X03122*
X03167Y03381*
G37*
%LNpcb1-2*%
%LPC*%
G36*
X03238Y03362D02*
X03229D01*
X0322Y0336*
X03213Y03355*
X03207Y03349*
X03202Y03341*
X032Y03333*
Y03324*
X03202Y03315*
X03207Y03308*
X03213Y03302*
X0322Y03297*
X03229Y03295*
X03238*
X03246Y03297*
X03254Y03302*
X0326Y03308*
X03265Y03315*
X03267Y03324*
Y03333*
X03265Y03341*
X0326Y03349*
X03254Y03355*
X03246Y0336*
X03238Y03362*
G37*
G36*
X0297D02*
X02961D01*
X02953Y0336*
X02945Y03355*
X02939Y03349*
X02934Y03341*
X02932Y03333*
Y03324*
X02934Y03315*
X02939Y03308*
X02945Y03302*
X02953Y03297*
X02961Y03295*
X0297*
X02979Y03297*
X02986Y03302*
X02993Y03308*
X02997Y03315*
X02999Y03324*
Y03333*
X02997Y03341*
X02993Y03349*
X02986Y03355*
X02979Y0336*
X0297Y03362*
G37*
G36*
X02778Y03275D02*
X02728Y03225D01*
X02773Y03181*
X02823Y03231*
X02778Y03275*
G37*
G36*
X03412Y03272D02*
X03367Y03227D01*
X03418Y03177*
X03462Y03222*
X03412Y03272*
G37*
G36*
X03103Y03323D02*
X03096D01*
X03089Y0332*
X03084Y03315*
X03082Y03308*
Y03301*
X03084Y03294*
X03088Y0329*
Y03275*
X0307*
Y03165*
X03129*
Y03275*
X03111*
Y0329*
X03115Y03294*
X03118Y03301*
Y03308*
X03115Y03315*
X0311Y0332*
X03103Y03323*
G37*
G36*
X02632Y03182D02*
X02582Y03132D01*
X02607Y03107*
X02657Y03157*
X02632Y03182*
G37*
G36*
X03558Y03179D02*
X03533Y03153D01*
X03583Y03103*
X03609Y03128*
X03558Y03179*
G37*
G36*
X03422Y03153D02*
X0336Y03092D01*
X03397Y03056*
X03432Y03091*
X03442Y03082*
Y03076*
X03444Y03069*
X03449Y03064*
X03456Y03062*
X03463*
X0347Y03064*
X03475Y03069*
X03478Y03076*
Y03083*
X03475Y0309*
X0347Y03095*
X03463Y03098*
X03457*
X03448Y03107*
X03458Y03117*
X03422Y03153*
G37*
G36*
X02906Y03147D02*
X02856Y03097D01*
X02901Y03053*
X02951Y03103*
X02906Y03147*
G37*
G36*
X03284Y03144D02*
X03239Y03099D01*
X0329Y03049*
X03334Y03093*
X03284Y03144*
G37*
G36*
X02688Y03038D02*
X02681D01*
X02674Y03035*
X02669Y0303*
X02667Y03023*
Y03017*
X02662Y03013*
X02643Y03032*
X02607Y02996*
X02668Y02934*
X02705Y02971*
X02678Y02997*
X02682Y03002*
X02688*
X02695Y03004*
X027Y03009*
X02703Y03016*
Y03023*
X027Y0303*
X02695Y03035*
X02688Y03038*
G37*
G36*
X02539Y03036D02*
X02489Y02986D01*
X02533Y02941*
X02583Y02991*
X02539Y03036*
G37*
G36*
X03652Y03032D02*
X03607Y02988D01*
X03657Y02937*
X03702Y02982*
X03652Y03032*
G37*
G36*
X03025Y03276D02*
X02977D01*
X02976Y03275*
X02971*
Y03271*
X02971Y03269*
Y03014*
X02848*
X02843Y03012*
X0275Y02919*
X02748Y02915*
Y02845*
X0275Y0284*
X02755Y02838*
X02776*
Y02821*
X02728*
Y02821*
X02724Y0282*
X0272Y02817*
X02643Y0274*
X02641Y02737*
X0264Y02734*
X02601*
Y02685*
X02611*
Y02673*
X02612Y02668*
X02614Y02665*
X02629Y0265*
X02628Y02645*
X02626*
Y02575*
X02724*
X02727Y0257*
X02727Y02568*
Y02561*
X02729Y02554*
X02734Y02549*
X02741Y02547*
X02748*
X02755Y02549*
X0276Y02554*
X02763Y02561*
Y02568*
X02762Y0257*
X02765Y02575*
X02784*
Y02645*
X0278*
Y0266*
X02805Y02684*
X0282*
Y02685*
X02824Y02688*
X02829Y02689*
X02832Y02691*
X02865Y02724*
X0288*
Y02755*
X02849*
Y0274*
X02825Y02716*
X0282Y02715*
X02789*
Y027*
X02761Y02672*
X0276Y02671*
X02755Y02672*
Y02684*
X0276*
Y02715*
X02741*
X0274Y02719*
X02745Y02724*
X0276*
Y02755*
X0276Y0276*
X02763Y02766*
Y02773*
X0276Y0278*
X02755Y02785*
X02748Y02788*
X02741*
X02734Y02785*
X02729Y0278*
X02727Y02773*
Y02766*
X02729Y0276*
X02729Y02755*
Y0274*
X0271Y02721*
X02707Y02718*
X02706Y02713*
Y02663*
X02701Y02661*
X027Y02664*
X02688Y02675*
Y02685*
X02698*
Y02734*
X02675*
X02673Y02739*
X02733Y02798*
X02777*
Y02775*
X02793*
Y02755*
X02789*
Y02724*
X0282*
Y02755*
X02816*
Y02774*
X02821*
X02822Y02775*
X02827*
Y02779*
X02827Y02781*
Y02893*
X02872Y02938*
X03031*
X03033Y02939*
X03192*
Y03071*
X03031*
Y03269*
X03031Y03271*
Y03275*
X03026*
X03025Y03276*
G37*
G36*
X02667Y02908D02*
X02617Y02858D01*
X02661Y02813*
X02712Y02863*
X02667Y02908*
G37*
G36*
X03523Y02904D02*
X03479Y0286D01*
X03529Y02809*
X03574Y02854*
X03523Y02904*
G37*
G36*
X03349Y02727D02*
D01*
X03308*
X03304Y02726*
X033Y02723*
X02984Y02407*
X02981Y02403*
X0298Y02399*
Y02304*
X02981Y023*
X02984Y02296*
X03018Y02262*
Y02184*
X02983Y02149*
X02981Y02145*
X0298Y02141*
Y02136*
X02974*
X02964Y02133*
X02954Y02127*
X02947Y0212*
X02941Y0211*
X02939Y021*
Y02089*
X02941Y02079*
X02947Y02069*
X02954Y02062*
X02964Y02056*
X02974Y02054*
X02985*
X02995Y02056*
X03005Y02062*
X03012Y02069*
X03013Y02071*
X03018Y0207*
Y0207*
X03019Y02065*
X03022Y02062*
X03043Y02041*
X03046Y02038*
X03051Y02037*
X03204*
X03208Y02038*
X03211Y02041*
X03354Y02183*
X03356Y02186*
X03357Y02191*
Y02195*
X03362Y02197*
X03364Y02194*
X03371Y02192*
X03378*
X03385Y02194*
X03389Y02199*
X03392Y02199*
X03395Y02199*
X03399Y02194*
X03406Y02192*
X03413*
X0342Y02194*
X03425Y02199*
X03428Y02206*
Y02213*
X03425Y0222*
X0342Y02224*
Y02232*
X0349*
Y02225*
X03489Y02225*
X03484Y0222*
X03482Y02213*
Y02206*
X03484Y02199*
X03489Y02194*
X03496Y02192*
X03503*
X0351Y02194*
X03514Y02199*
X03517Y02199*
X0352Y02199*
X03524Y02194*
X03531Y02192*
X03538*
X03545Y02194*
X0355Y02199*
X03553Y02206*
Y02213*
X0355Y0222*
X03546Y02224*
Y02232*
X03553*
Y02303*
X03296*
Y02261*
X03296Y02261*
Y02227*
X03248Y02179*
X03244Y02182*
X03244Y02183*
Y02306*
X03293*
Y02345*
X03381*
X03385Y02345*
X03389Y02348*
X0348Y02439*
X03556*
Y02432*
X03627*
Y02464*
Y02494*
X0363Y02496*
X03632Y02496*
X03634Y02494*
X03641Y02492*
X03648*
X03655Y02494*
X0366Y02499*
X03663Y02506*
Y02513*
X0366Y0252*
X03655Y02524*
X03655Y02527*
X03655Y0253*
X0366Y02534*
X03663Y02541*
Y02548*
X0366Y02555*
X03655Y0256*
X03648Y02563*
X03641*
X03634Y0256*
X03632Y02558*
X03627Y0256*
Y02563*
X03556*
Y02527*
Y02495*
Y02461*
X03475*
X03471Y02461*
X03467Y02458*
X03376Y02367*
X03293*
Y02401*
Y02437*
X03222*
Y02401*
Y02371*
X03217Y02371*
X032Y02387*
X03196Y0239*
X03192Y02391*
X03179*
Y024*
X03146*
X03136Y0241*
Y02485*
X0333Y02679*
X03345*
Y02698*
X03349Y02699*
X03354Y02694*
Y02679*
X03385*
Y02683*
X03421*
Y0267*
X03429*
Y02637*
X03296*
Y02566*
X03437*
X03438Y02561*
X03434Y0256*
X0343Y02556*
X03293*
Y02563*
X03222*
Y02527*
Y02495*
Y02464*
X03293*
Y02495*
Y02533*
X0343*
X03434Y02529*
X03441Y02527*
X03448*
X03455Y02529*
X0346Y02534*
X03463Y02541*
Y02548*
X0346Y02555*
X03455Y0256*
X03451Y02561*
X03452Y02566*
X03553*
Y02637*
X03451*
Y0267*
X03463*
Y02719*
X03421*
Y02706*
X03385*
Y0271*
X0337*
X03357Y02723*
X03354Y02726*
X03349Y02727*
G37*
G36*
X02773Y02443D02*
X02766D01*
X02759Y0244*
X02754Y02435*
X02752Y02428*
Y02421*
X02752Y02419*
X02749Y02414*
X02709*
X02708Y02414*
X02685*
X02682Y02419*
X02683Y02421*
Y02428*
X0268Y02435*
X02675Y0244*
X02668Y02443*
X02661*
X02654Y0244*
X02649Y02435*
X02647Y02428*
Y02421*
X02647Y02419*
X02644Y02414*
X02626*
Y02376*
X02626Y02375*
Y02352*
X02612Y02337*
X02609Y02334*
X02608Y0233*
Y02319*
X02591*
Y0227*
X02633*
Y02319*
X02631*
Y02325*
X02645Y02339*
X02647Y02343*
X02648Y02344*
X02681*
Y02328*
X02672Y02319*
X02646*
Y0227*
X02679*
X02681Y02265*
X02675Y02259*
X02673Y02255*
Y0218*
X02675Y02175*
X02685Y02165*
X0269Y02163*
X02766*
X02771Y02165*
X02772Y0217*
Y02312*
X02772Y02313*
Y02324*
X02763*
X02759Y02329*
Y02344*
X02784*
Y02413*
X02785Y02414*
X02788Y02421*
Y02428*
X02785Y02435*
X0278Y0244*
X02773Y02443*
G37*
G36*
X03627Y02405D02*
X03556D01*
Y02369*
Y02338*
Y02306*
X03627*
Y02338*
Y02369*
Y02405*
G37*
%LNpcb1-3*%
%LPD*%
G36*
X03025Y03008D02*
X03032D01*
Y02945*
X03031Y02945*
X0287*
X02821Y02896*
Y02781*
X02816*
Y02807*
X02815Y02811*
X02813Y02814*
Y02819*
X02812Y02824*
X0281Y02827*
X02806Y0283*
X02802Y02831*
X02798Y0283*
X02794Y02827*
X02791Y02824*
X02791Y02821*
X02783*
Y02845*
X02755*
Y02915*
X02848Y03008*
X02977*
Y03269*
X03025*
Y03008*
G37*
G36*
X03313Y02698D02*
X03313Y02694D01*
X03117Y02498*
X03115Y02494*
X03114Y0249*
Y02405*
X03115Y02401*
X03117Y02397*
X0312Y02394*
X03118Y0239*
X03089*
Y02396*
X03062*
X03059Y024*
X03076Y02418*
X03089*
Y02455*
X0307*
X03068Y0246*
X03308Y027*
X03313Y02698*
G37*
G36*
X0306Y02395D02*
Y02359D01*
X03064*
Y02321*
X03056*
Y02293*
X03094*
Y02321*
X03086*
Y02359*
X03089*
Y02367*
X0313*
Y02359*
X03179*
Y02368*
X03187*
X03205Y02351*
X03208Y02348*
X03213Y02348*
X03222*
Y02319*
X03221Y02317*
Y02214*
X03216Y02213*
X03212Y0222*
X03205Y02227*
X03195Y02233*
X03191Y02234*
Y02262*
X0319Y02266*
X03187Y0227*
X03153Y02304*
X03153Y02305*
Y02321*
X03115*
Y02293*
X03133*
X03134Y02292*
X03168Y02257*
Y02234*
X03164Y02233*
X03154Y02227*
X03147Y0222*
X03141Y0221*
X03139Y022*
Y02189*
X03141Y02179*
X03147Y02169*
X03154Y02162*
X03156Y02161*
X03155Y02156*
X03129*
X03125Y02155*
X03121Y02152*
X03099Y0213*
X03095Y02133*
X03085Y02136*
X03074*
X03064Y02133*
X03054Y02127*
X03047Y0212*
X03046Y02118*
X03041Y02119*
Y0214*
X0306Y02159*
X03064Y02156*
X03074Y02154*
X03085*
X03095Y02156*
X03105Y02162*
X03112Y02169*
X03118Y02179*
X03121Y02189*
Y022*
X03118Y0221*
X03112Y0222*
X03105Y02227*
X03095Y02233*
X03085Y02236*
X03074*
X03064Y02233*
X03054Y02227*
X03047Y0222*
X03046Y02218*
X03041Y02219*
Y02266*
X03041*
X0304Y02271*
X03037Y02274*
X03003Y02309*
Y02369*
X03008Y02373*
X03011Y02372*
X03018*
X03025Y02374*
X0303Y02379*
X0303Y02381*
X03035*
X03039Y02382*
X03043Y02384*
X03056Y02398*
X0306Y02395*
G37*
G36*
X03335Y02195D02*
X03225Y02086D01*
X0322Y02088*
X03221Y02089*
Y021*
X03218Y0211*
X03215Y02114*
X03316Y02215*
X03318Y02218*
X03319Y02223*
Y02232*
X03335*
Y02195*
G37*
G36*
X02752Y02326D02*
X02766Y02312D01*
Y0217*
X0269*
X0268Y0218*
Y02255*
X027Y02275*
X02715*
Y02344*
X02709Y0235*
Y02408*
X02752*
Y02326*
G37*
G54D36*
X03442Y02695D02*
D01*
X03442Y02694*
X03442Y02694*
X03442Y02694*
X03441Y02694*
X03441Y02694*
X03441Y02694*
X03441Y02694*
X03441Y02694*
X03441Y02694*
X03441Y02694*
X03441Y02694*
X03441Y02694*
X03441Y02694*
X03441Y02694*
X0344Y02694*
X0344Y02694*
X0344Y02693*
X0344Y02693*
X0344Y02693*
X0344Y02693*
X0344Y02693*
X0344Y02693*
X0344Y02693*
X02769Y02379D02*
X02769Y02379D01*
Y02424*
X0277Y02425*
X03346Y02191D02*
Y02267D01*
X03051Y02049D02*
X03204D01*
X03346Y02191*
X0303Y0207D02*
X03051Y02049D01*
X0303Y0207D02*
Y02145D01*
X0308Y02195*
X02991Y02141D02*
X0303Y02179D01*
X02992Y02304D02*
X0303Y02266D01*
Y02179D02*
Y02266D01*
X03592Y02419D02*
X03594Y0242D01*
X02596Y0262D02*
X02599Y02618D01*
X02787Y03081D02*
Y03102D01*
X02775Y03115D02*
X02787Y03102D01*
X02622Y02673D02*
X0264Y02654D01*
X02622Y02673D02*
Y0271D01*
X02745Y0274D02*
Y0277D01*
X02665Y0238D02*
X02666Y02379D01*
X02665Y0238D02*
Y02424D01*
X02665Y02425D02*
X02665Y02424D01*
X03056Y03005D02*
X03086D01*
X03001Y0306D02*
X03056Y03005D01*
X031Y0322D02*
Y03305D01*
X03424Y03115D02*
X03424D01*
X0346Y0308*
X02649Y02989D02*
X02654D01*
X02685Y0302*
X02806Y02205D02*
X02816Y02195D01*
X02743Y0261D02*
X02744Y0261D01*
Y02565D02*
X02745Y02565D01*
X02744Y02565D02*
Y0261D01*
X03592Y02545D02*
X03592Y02545D01*
X03644*
X03645Y02545*
X03592Y02513D02*
X03594Y02511D01*
X03643*
X03645Y0251*
X0355Y02989D02*
D01*
X02667Y02298D02*
X02692Y02323D01*
Y02379*
X03257Y02545D02*
X03257Y02545D01*
X03444*
X03445Y02545*
X03497Y02695D02*
Y02698D01*
X03257Y0245D02*
X03258Y0245D01*
X03429*
X0343Y0245*
X03257Y02356D02*
X03381D01*
X03475Y0245*
X03592*
X02744Y02698D02*
Y02699D01*
Y02611D02*
Y02698D01*
X02802Y0281D02*
Y02819D01*
X02637Y02347D02*
Y02375D01*
X0262Y0233D02*
X02637Y02347D01*
Y02375D02*
X02641Y02379D01*
X0262Y02302D02*
Y0233D01*
X02612Y02295D02*
X0262Y02302D01*
X0337Y02695D02*
X03442D01*
X0298Y02095D02*
X02991Y02106D01*
X02992Y02399D02*
X03308Y02715D01*
X02992Y02304D02*
Y02399D01*
X03349Y02715D02*
X0337Y02695D01*
X03308Y02715D02*
X03349D01*
X0337Y02695D02*
Y02695D01*
X02991Y02106D02*
Y02141D01*
X0344Y02602D02*
Y02693D01*
X03125Y0249D02*
X03329Y02694D01*
X03125Y02405D02*
Y0249D01*
X03329Y02694D02*
Y02695D01*
X03125Y02405D02*
X03151Y0238D01*
X03155*
X03233Y02183D02*
Y02317D01*
X03194Y02144D02*
X03233Y02183D01*
X03129Y02144D02*
X03194D01*
X0308Y02095D02*
X03129Y02144D01*
X03308Y02223D02*
Y02261D01*
X0318Y02095D02*
X03308Y02223D01*
X02744Y02698D02*
X02744Y02699D01*
X02769Y02664D02*
X02804Y02699D01*
X02805D02*
X02824D01*
X02769Y0261D02*
Y02664D01*
X02804Y02699D02*
X02805D01*
X02744Y02699D02*
X02744D01*
X02667Y02295D02*
Y02298D01*
X03433Y02609D02*
X0344Y02602D01*
X03151Y02435D02*
X03155D01*
X03075Y02432D02*
Y02436D01*
X03035Y02392D02*
X03075Y02432D01*
X03017Y02392D02*
X03035D01*
X03015Y0239D02*
X03017Y02392D01*
X03073Y02438D02*
X03075Y02436D01*
X03376Y02266D02*
X03377Y02267D01*
X03376Y02211D02*
Y02266D01*
X03375Y0221D02*
X03376Y02211D01*
X03409Y02267D02*
X03409Y02267D01*
Y0221D02*
Y02267D01*
Y0221D02*
X0341Y0221D01*
X03501Y02265D02*
X03503Y02267D01*
X03501Y02211D02*
Y02265D01*
X035Y0221D02*
X03501Y02211D01*
X03535Y02267D02*
X03535Y02267D01*
X03535Y0221D02*
Y02267D01*
X03535Y0221D02*
X03535Y0221D01*
X02718Y02713D02*
X02744Y0274D01*
X02718Y0261D02*
Y02713D01*
X02744Y0274D02*
X02745D01*
X02728Y0281D02*
X02802D01*
X02651Y02733D02*
X02728Y0281D01*
X02651Y02674D02*
Y02733D01*
Y02674D02*
X02666Y02659D01*
Y0261D02*
Y02659D01*
X0264Y02611D02*
Y02654D01*
Y02611D02*
X02641Y0261D01*
X02865Y02675D02*
Y02699D01*
X02824Y02634D02*
X02865Y02675D01*
X02824Y02634D02*
D01*
X0282Y0263D02*
X02824Y02634D01*
X02805Y0274D02*
Y02807D01*
X02802Y0281D02*
X02805Y02807D01*
X02824Y02699D02*
X0286Y02735D01*
Y02735*
X02864Y0274*
X02865*
X02677Y02671D02*
Y0271D01*
Y02671D02*
X02692Y02656D01*
Y0261D02*
Y02656D01*
X03075Y02307D02*
Y02377D01*
Y02307D02*
X03075Y02307D01*
X03075Y02377D02*
X03076Y02378D01*
X03155Y02435D02*
X03196D01*
X03308Y02261D02*
X03314Y02267D01*
X03134Y02307D02*
X03138D01*
X03142Y02304*
Y02299D02*
Y02304D01*
Y02299D02*
X0318Y02262D01*
Y02195D02*
Y02262D01*
X03239Y02324D02*
X03257D01*
X03233Y02317D02*
X03239Y02324D01*
X03155Y0238D02*
X03192D01*
X03213Y02359*
X03254*
X03257Y02356*
X03076Y02378D02*
X03153D01*
X03155Y0238*
X03196Y02435D02*
X03212Y0245D01*
X03257*
G54D37*
X02966Y03328D03*
X03233D03*
G54D38*
X0277Y02425D03*
X0278Y0288D03*
X031Y03305D03*
X0346Y0308D03*
X02685Y0302D03*
X02745Y02565D03*
X02665Y02425D03*
X03645Y02545D03*
Y0251D03*
X027Y0225D03*
Y0222D03*
Y0219D03*
X03445Y02545D03*
X03135Y02865D03*
X03015Y0239D03*
X02745Y0277D03*
X0343Y0245D03*
X03Y0287D03*
X0331Y0291D03*
X02875Y029D03*
X03535Y0221D03*
X03375D03*
X035D03*
X0341D03*
G54D39*
X0298Y02095D03*
X0318D03*
X0308D03*
X0298Y02195D03*
X0318D03*
X0308D03*
G54D40*
X03155Y02435D03*
Y0238D03*
G54D41*
X03075Y02307D03*
X03134D03*
G54D42*
X03075Y02377D03*
Y02436D03*
G54D43*
X03329Y02695D03*
X0337D03*
G54D44*
X03442Y02695D03*
X03497D03*
X02667Y02295D03*
X02612D03*
X02677Y0271D03*
X02622D03*
G54D45*
X03592Y02545D03*
Y02513D03*
Y02482D03*
Y0245D03*
Y02419D03*
Y02387D03*
Y02356D03*
Y02324D03*
X03257D03*
Y02356D03*
Y02387D03*
Y02419D03*
Y0245D03*
Y02482D03*
Y02513D03*
Y02545D03*
G54D46*
X03535Y02267D03*
X03503D03*
X03472D03*
X0344D03*
X03409D03*
X03377D03*
X03346D03*
X03314D03*
Y02602D03*
X03346D03*
X03377D03*
X03409D03*
X0344D03*
X03472D03*
X03503D03*
X03535D03*
G54D47*
X02705Y02495D03*
G54D48*
X0282Y0261D03*
X02794D03*
X02769D03*
X02743D03*
X02718D03*
X02692D03*
X02666D03*
X02641D03*
X02615D03*
X0259D03*
Y02379D03*
X02615D03*
X02641D03*
X02666D03*
X02692D03*
X02718D03*
X02743D03*
X02769D03*
X02794D03*
X0282D03*
G54D49*
X03001Y0322D03*
X031D03*
X03198D03*
G54D50*
X02656Y02983D03*
X02781Y03108D03*
G54D51*
X02536Y02989D03*
X02664Y02861D03*
X02903Y031D03*
X02775Y03228D03*
G54D52*
X0262Y03145D03*
G54D53*
X03409Y03105D03*
X03535Y02979D03*
G54D54*
X03415Y03224D03*
X03287Y03096D03*
X03526Y02857D03*
X03654Y02985D03*
G54D55*
X03571Y03141D03*
G54D56*
X03086Y03005D03*
X03087Y02755D03*
G54D57*
X02812Y02205D03*
X02747D03*
X02812Y0229D03*
X02747D03*
X02867Y0281D03*
X02802D03*
G54D58*
X02865Y0274D03*
Y02699D03*
X02805Y0274D03*
Y02699D03*
X02745Y0274D03*
Y02699D03*
M02*