%FSTAX23Y23*%
%MOIN*%
%SFA1B1*%

%IPPOS*%
%ADD80C,0.005000*%
%LNpcb1-1*%
%LPD*%
G54D80*
X02946Y03308D02*
Y03348D01*
X02986*
Y03308*
X02946*
X03213D02*
Y03348D01*
X03253*
Y03308*
X03213*
X0277Y02405D02*
X0278Y02415D01*
X0279*
X0278Y02425*
X0279Y02435*
X0278*
X0277Y02445*
X0276Y02435*
X0275*
X0276Y02425*
X0275Y02415*
X0276*
X0277Y02405*
X0278Y0286D02*
X0279Y0287D01*
X028*
X0279Y0288*
X028Y0289*
X0279*
X0278Y029*
X0277Y0289*
X0276*
X0277Y0288*
X0276Y0287*
X0277*
X0278Y0286*
X031Y03285D02*
X0311Y03295D01*
X0312*
X0311Y03305*
X0312Y03315*
X0311*
X031Y03325*
X0309Y03315*
X0308*
X0309Y03305*
X0308Y03295*
X0309*
X031Y03285*
X0346Y0306D02*
X0347Y0307D01*
X0348*
X0347Y0308*
X0348Y0309*
X0347*
X0346Y031*
X0345Y0309*
X0344*
X0345Y0308*
X0344Y0307*
X0345*
X0346Y0306*
X02685Y03D02*
X02695Y0301D01*
X02705*
X02695Y0302*
X02705Y0303*
X02695*
X02685Y0304*
X02675Y0303*
X02665*
X02675Y0302*
X02665Y0301*
X02675*
X02685Y03*
X02745Y02545D02*
X02755Y02555D01*
X02765*
X02755Y02565*
X02765Y02575*
X02755*
X02745Y02585*
X02735Y02575*
X02725*
X02735Y02565*
X02725Y02555*
X02735*
X02745Y02545*
X02665Y02405D02*
X02675Y02415D01*
X02685*
X02675Y02425*
X02685Y02435*
X02675*
X02665Y02445*
X02655Y02435*
X02645*
X02655Y02425*
X02645Y02415*
X02655*
X02665Y02405*
X03645Y02525D02*
X03655Y02535D01*
X03665*
X03655Y02545*
X03665Y02555*
X03655*
X03645Y02565*
X03635Y02555*
X03625*
X03635Y02545*
X03625Y02535*
X03635*
X03645Y02525*
Y0249D02*
X03655Y025D01*
X03665*
X03655Y0251*
X03665Y0252*
X03655*
X03645Y0253*
X03635Y0252*
X03625*
X03635Y0251*
X03625Y025*
X03635*
X03645Y0249*
X027Y0223D02*
X0271Y0224D01*
X0272*
X0271Y0225*
X0272Y0226*
X0271*
X027Y0227*
X0269Y0226*
X0268*
X0269Y0225*
X0268Y0224*
X0269*
X027Y0223*
Y022D02*
X0271Y0221D01*
X0272*
X0271Y0222*
X0272Y0223*
X0271*
X027Y0224*
X0269Y0223*
X0268*
X0269Y0222*
X0268Y0221*
X0269*
X027Y022*
Y0217D02*
X0271Y0218D01*
X0272*
X0271Y0219*
X0272Y022*
X0271*
X027Y0221*
X0269Y022*
X0268*
X0269Y0219*
X0268Y0218*
X0269*
X027Y0217*
X03445Y02525D02*
X03455Y02535D01*
X03465*
X03455Y02545*
X03465Y02555*
X03455*
X03445Y02565*
X03435Y02555*
X03425*
X03435Y02545*
X03425Y02535*
X03435*
X03445Y02525*
X03135Y02845D02*
X03145Y02855D01*
X03155*
X03145Y02865*
X03155Y02875*
X03145*
X03135Y02885*
X03125Y02875*
X03115*
X03125Y02865*
X03115Y02855*
X03125*
X03135Y02845*
X0298Y02075D02*
X0296Y02115D01*
X03*
X0298Y02075*
X03015Y0237D02*
X03025Y0238D01*
X03035*
X03025Y0239*
X03035Y024*
X03025*
X03015Y0241*
X03005Y024*
X02995*
X03005Y0239*
X02995Y0238*
X03005*
X03015Y0237*
X02745Y0275D02*
X02755Y0276D01*
X02765*
X02755Y0277*
X02765Y0278*
X02755*
X02745Y0279*
X02735Y0278*
X02725*
X02735Y0277*
X02725Y0276*
X02735*
X02745Y0275*
X0343Y0243D02*
X0344Y0244D01*
X0345*
X0344Y0245*
X0345Y0246*
X0344*
X0343Y0247*
X0342Y0246*
X0341*
X0342Y0245*
X0341Y0244*
X0342*
X0343Y0243*
X03Y0285D02*
X0301Y0286D01*
X0302*
X0301Y0287*
X0302Y0288*
X0301*
X03Y0289*
X0299Y0288*
X0298*
X0299Y0287*
X0298Y0286*
X0299*
X03Y0285*
X0331Y0289D02*
X0332Y029D01*
X0333*
X0332Y0291*
X0333Y0292*
X0332*
X0331Y0293*
X033Y0292*
X0329*
X033Y0291*
X0329Y029*
X033*
X0331Y0289*
X02875Y0288D02*
X02885Y0289D01*
X02895*
X02885Y029*
X02895Y0291*
X02885*
X02875Y0292*
X02865Y0291*
X02855*
X02865Y029*
X02855Y0289*
X02865*
X02875Y0288*
X0318Y02075D02*
X0316Y02115D01*
X032*
X0318Y02075*
X0308D02*
X0306Y02115D01*
X031*
X0308Y02075*
X0298Y02175D02*
X0296Y02215D01*
X03*
X0298Y02175*
X0318D02*
X0316Y02215D01*
X032*
X0318Y02175*
X0308D02*
X0306Y02215D01*
X031*
X0308Y02175*
X03535Y0219D02*
X03545Y022D01*
X03555*
X03545Y0221*
X03555Y0222*
X03545*
X03535Y0223*
X03525Y0222*
X03515*
X03525Y0221*
X03515Y022*
X03525*
X03535Y0219*
X03375D02*
X03385Y022D01*
X03395*
X03385Y0221*
X03395Y0222*
X03385*
X03375Y0223*
X03365Y0222*
X03355*
X03365Y0221*
X03355Y022*
X03365*
X03375Y0219*
X035D02*
X0351Y022D01*
X0352*
X0351Y0221*
X0352Y0222*
X0351*
X035Y0223*
X0349Y0222*
X0348*
X0349Y0221*
X0348Y022*
X0349*
X035Y0219*
X0341D02*
X0342Y022D01*
X0343*
X0342Y0221*
X0343Y0222*
X0342*
X0341Y0223*
X034Y0222*
X0339*
X034Y0221*
X0339Y022*
X034*
X0341Y0219*
M02*