%FSTAX23Y23*%
%MOIN*%
%SFA1B1*%

%IPPOS*%
%AMD69*
4,1,4,-0.044500,0.012500,0.012500,-0.044500,0.044500,-0.012500,-0.012500,0.044500,-0.044500,0.012500,0.0*
%
%AMD70*
4,1,4,-0.002800,-0.043100,0.043100,0.002800,0.002800,0.043100,-0.043100,-0.002800,-0.002800,-0.043100,0.0*
%
%AMD71*
4,1,4,-0.012500,-0.033300,0.033300,0.012500,0.012500,0.033300,-0.033300,-0.012500,-0.012500,-0.033300,0.0*
%
%AMD72*
4,1,4,0.012500,0.044500,-0.044500,-0.012500,-0.012500,-0.044500,0.044500,0.012500,0.012500,0.044500,0.0*
%
%AMD73*
4,1,4,-0.043100,0.002800,0.002800,-0.043100,0.043100,-0.002800,-0.002800,0.043100,-0.043100,0.002800,0.0*
%
%AMD74*
4,1,4,-0.033300,0.012500,0.012500,-0.033300,0.033300,-0.012500,-0.012500,0.033300,-0.033300,0.012500,0.0*
%
%ADD33C,0.061020*%
%ADD34C,0.029910*%
%ADD35C,0.075910*%
%ADD59R,0.042910X0.035430*%
%ADD60R,0.031100X0.022440*%
%ADD61R,0.022440X0.031100*%
%ADD62R,0.024610X0.025590*%
%ADD63R,0.035430X0.042910*%
%ADD64R,0.064960X0.029530*%
%ADD65R,0.029530X0.064960*%
%ADD66R,0.138980X0.100390*%
%ADD67R,0.023620X0.063980*%
%ADD68R,0.053150X0.104330*%
G04~CAMADD=69~9~0.0~0.0~807.1~452.8~0.0~0.0~0~0.0~0.0~0.0~0.0~0~0.0~0.0~0.0~0.0~0~0.0~0.0~0.0~135.0~890.0~889.0*
%ADD69D69*%
G04~CAMADD=70~9~0.0~0.0~649.6~570.9~0.0~0.0~0~0.0~0.0~0.0~0.0~0~0.0~0.0~0.0~0.0~0~0.0~0.0~0.0~225.0~862.0~861.0*
%ADD70D70*%
G04~CAMADD=71~9~0.0~0.0~649.6~295.3~0.0~0.0~0~0.0~0.0~0.0~0.0~0~0.0~0.0~0.0~0.0~0~0.0~0.0~0.0~225.0~666.0~665.0*
%ADD71D71*%
G04~CAMADD=72~9~0.0~0.0~807.1~452.8~0.0~0.0~0~0.0~0.0~0.0~0.0~0~0.0~0.0~0.0~0.0~0~0.0~0.0~0.0~45.0~890.0~889.0*
%ADD72D72*%
G04~CAMADD=73~9~0.0~0.0~649.6~570.9~0.0~0.0~0~0.0~0.0~0.0~0.0~0~0.0~0.0~0.0~0.0~0~0.0~0.0~0.0~135.0~862.0~861.0*
%ADD73D73*%
G04~CAMADD=74~9~0.0~0.0~649.6~295.3~0.0~0.0~0~0.0~0.0~0.0~0.0~0~0.0~0.0~0.0~0.0~0~0.0~0.0~0.0~135.0~666.0~665.0*
%ADD74D74*%
%ADD75R,0.205910X0.125910*%
%ADD76R,0.044100X0.063780*%
%ADD77R,0.025590X0.024610*%
%LNpcb1-1*%
%LPD*%
G54D33*
X02966Y03328D03*
X03233D03*
G54D34*
X0277Y02425D03*
X0278Y0288D03*
X031Y03305D03*
X0346Y0308D03*
X02685Y0302D03*
X02745Y02565D03*
X02665Y02425D03*
X03645Y02545D03*
Y0251D03*
X027Y0225D03*
Y0222D03*
Y0219D03*
X03445Y02545D03*
X03135Y02865D03*
X03015Y0239D03*
X02745Y0277D03*
X0343Y0245D03*
X03Y0287D03*
X0331Y0291D03*
X02875Y029D03*
X03535Y0221D03*
X03375D03*
X035D03*
X0341D03*
G54D35*
X0298Y02095D03*
X0318D03*
X0308D03*
X0298Y02195D03*
X0318D03*
X0308D03*
G54D59*
X03155Y02435D03*
Y0238D03*
G54D60*
X03075Y02307D03*
X03134D03*
G54D61*
X03075Y02377D03*
Y02436D03*
G54D62*
X03329Y02695D03*
X0337D03*
G54D63*
X03442Y02695D03*
X03497D03*
X02667Y02295D03*
X02612D03*
X02677Y0271D03*
X02622D03*
G54D64*
X03592Y02545D03*
Y02513D03*
Y02482D03*
Y0245D03*
Y02419D03*
Y02387D03*
Y02356D03*
Y02324D03*
X03257D03*
Y02356D03*
Y02387D03*
Y02419D03*
Y0245D03*
Y02482D03*
Y02513D03*
Y02545D03*
G54D65*
X03535Y02267D03*
X03503D03*
X03472D03*
X0344D03*
X03409D03*
X03377D03*
X03346D03*
X03314D03*
Y02602D03*
X03346D03*
X03377D03*
X03409D03*
X0344D03*
X03472D03*
X03503D03*
X03535D03*
G54D66*
X02705Y02495D03*
G54D67*
X0282Y0261D03*
X02794D03*
X02769D03*
X02743D03*
X02718D03*
X02692D03*
X02666D03*
X02641D03*
X02615D03*
X0259D03*
Y02379D03*
X02615D03*
X02641D03*
X02666D03*
X02692D03*
X02718D03*
X02743D03*
X02769D03*
X02794D03*
X0282D03*
G54D68*
X03001Y0322D03*
X031D03*
X03198D03*
G54D69*
X02656Y02983D03*
X02781Y03108D03*
G54D70*
X02536Y02989D03*
X02664Y02861D03*
X02903Y031D03*
X02775Y03228D03*
G54D71*
X0262Y03145D03*
G54D72*
X03409Y03105D03*
X03535Y02979D03*
G54D73*
X03415Y03224D03*
X03287Y03096D03*
X03526Y02857D03*
X03654Y02985D03*
G54D74*
X03571Y03141D03*
G54D75*
X03086Y03005D03*
X03087Y02755D03*
G54D76*
X02812Y02205D03*
X02747D03*
X02812Y0229D03*
X02747D03*
X02867Y0281D03*
X02802D03*
G54D77*
X02865Y0274D03*
Y02699D03*
X02805Y0274D03*
Y02699D03*
X02745Y0274D03*
Y02699D03*
M02*