%FSTAX23Y23*%
%MOIN*%
%SFA1B1*%

%IPPOS*%
%ADD11C,0.003940*%
%ADD78C,0.001970*%
%LNpcb1-1*%
%LPD*%
G54D11*
X03029Y02758D02*
Y0292D01*
X02813D02*
X03029D01*
X02813Y02758D02*
Y0292D01*
Y02758D02*
X03029D01*
X02979Y03016D02*
X03141D01*
X02979Y028D02*
Y03016D01*
Y028D02*
X03141D01*
Y03016*
X03114D02*
X03276D01*
X03114Y028D02*
Y03016D01*
Y028D02*
X03276D01*
Y03016*
X03458Y02769D02*
Y0293D01*
X03242D02*
X03458D01*
X03242Y02769D02*
Y0293D01*
Y02769D02*
X03458D01*
X02958Y02562D02*
Y02837D01*
X03241*
Y02562D02*
Y02837D01*
X02958Y02562D02*
X03241D01*
X03203Y02586D02*
X03336D01*
Y02803*
X03203D02*
X03336D01*
X03203Y02586D02*
Y02803D01*
X03298Y02586D02*
X03431D01*
Y02803*
X03298D02*
X03431D01*
X03298Y02586D02*
Y02803D01*
X02973Y02381D02*
X03106D01*
Y02598*
X02973D02*
X03106D01*
X02973Y02381D02*
Y02598D01*
X03073Y02381D02*
X03206D01*
Y02598*
X03073D02*
X03206D01*
X03073Y02381D02*
Y02598D01*
X03168Y02381D02*
X03301D01*
Y02598*
X03168D02*
X03301D01*
X03168Y02381D02*
Y02598D01*
X03278Y02381D02*
X03411D01*
Y02598*
X03278D02*
X03411D01*
X03278Y02381D02*
Y02598D01*
X02365Y03062D02*
X02702Y03399D01*
X02998Y03103*
X02661Y02766D02*
X02998Y03103D01*
X02365Y03062D02*
X02661Y02766D01*
X03489Y03396D02*
X03826Y03059D01*
X03529Y02762D02*
X03826Y03059D01*
X03192Y03099D02*
X03529Y02762D01*
X03192Y03099D02*
X03489Y03396D01*
G54D78*
X0313Y02359D02*
X03179D01*
X0313D02*
Y02455D01*
X03179*
Y02359D02*
Y02455D01*
X03056Y02283D02*
X03153D01*
Y02331*
X03056D02*
X03153D01*
X03056Y02283D02*
Y02331D01*
X03098Y02359D02*
Y02455D01*
X03051D02*
X03098D01*
X03051Y02359D02*
Y02455D01*
Y02359D02*
X03098D01*
X03396Y02673D02*
Y02716D01*
X03303Y02673D02*
X03396D01*
X03303D02*
Y02716D01*
X03396*
X03421Y0267D02*
X03518D01*
Y02719*
X03421D02*
X03518D01*
X03421Y0267D02*
Y02719D01*
X03218Y02641D02*
X03631D01*
X03218Y02228D02*
Y02641D01*
Y02228D02*
X03631D01*
Y02641*
X02565Y0234D02*
X02845D01*
X02565D02*
Y02649D01*
X02845*
Y0234D02*
Y02649D01*
X02722Y0224D02*
X02837D01*
X02722Y02169D02*
Y0224D01*
Y02169D02*
X02837D01*
Y0224*
X02722Y02325D02*
X02837D01*
X02722Y02254D02*
Y02325D01*
Y02254D02*
X02837D01*
Y02325*
X02591Y02319D02*
X02688D01*
X02591Y0227D02*
Y02319D01*
Y0227D02*
X02688D01*
Y02319*
X02601Y02734D02*
X02698D01*
X02601Y02685D02*
Y02734D01*
Y02685D02*
X02698D01*
Y02734*
X02777Y02845D02*
X02892D01*
X02777Y02774D02*
Y02845D01*
Y02774D02*
X02892D01*
Y02845*
X02843Y02673D02*
X02886D01*
X02843D02*
Y02766D01*
X02886*
Y02673D02*
Y02766D01*
X02783Y02673D02*
X02826D01*
X02783D02*
Y02766D01*
X02826*
Y02673D02*
Y02766D01*
X02723Y02673D02*
X02766D01*
X02723D02*
Y02766D01*
X02766*
Y02673D02*
Y02766D01*
M02*