%FSTAX23Y23*%
%MOIN*%
%SFA1B1*%

%IPPOS*%
%AMD50*
4,1,4,-0.040300,0.012600,0.012600,-0.040300,0.040300,-0.012600,-0.012600,0.040300,-0.040300,0.012600,0.0*
%
%AMD51*
4,1,4,-0.002800,-0.038900,0.038900,0.002800,0.002800,0.038900,-0.038900,-0.002800,-0.002800,-0.038900,0.0*
%
%AMD52*
4,1,4,-0.012500,-0.029200,0.029200,0.012500,0.012500,0.029200,-0.029200,-0.012500,-0.012500,-0.029200,0.0*
%
%AMD53*
4,1,4,0.012600,0.040300,-0.040300,-0.012600,-0.012600,-0.040300,0.040300,0.012600,0.012600,0.040300,0.0*
%
%AMD54*
4,1,4,-0.038900,0.002800,0.002800,-0.038900,0.038900,-0.002800,-0.002800,0.038900,-0.038900,0.002800,0.0*
%
%AMD55*
4,1,4,-0.029200,0.012500,0.012500,-0.029200,0.029200,-0.012500,-0.012500,0.029200,-0.029200,0.012500,0.0*
%
%ADD40R,0.037010X0.029530*%
%ADD41R,0.025200X0.016540*%
%ADD42R,0.016540X0.025200*%
%ADD43R,0.018700X0.019680*%
%ADD44R,0.029530X0.037010*%
%ADD45R,0.059060X0.023620*%
%ADD46R,0.023620X0.059060*%
%ADD47R,0.133070X0.094490*%
%ADD48R,0.017720X0.058070*%
%ADD49R,0.047240X0.098430*%
G04~CAMADD=50~9~0.0~0.0~748.0~393.7~0.0~0.0~0~0.0~0.0~0.0~0.0~0~0.0~0.0~0.0~0.0~0~0.0~0.0~0.0~135.0~806.0~805.0*
%ADD50D50*%
G04~CAMADD=51~9~0.0~0.0~590.6~511.8~0.0~0.0~0~0.0~0.0~0.0~0.0~0~0.0~0.0~0.0~0.0~0~0.0~0.0~0.0~225.0~778.0~777.0*
%ADD51D51*%
G04~CAMADD=52~9~0.0~0.0~590.6~236.2~0.0~0.0~0~0.0~0.0~0.0~0.0~0~0.0~0.0~0.0~0.0~0~0.0~0.0~0.0~225.0~584.0~583.0*
%ADD52D52*%
G04~CAMADD=53~9~0.0~0.0~748.0~393.7~0.0~0.0~0~0.0~0.0~0.0~0.0~0~0.0~0.0~0.0~0.0~0~0.0~0.0~0.0~45.0~806.0~805.0*
%ADD53D53*%
G04~CAMADD=54~9~0.0~0.0~590.6~511.8~0.0~0.0~0~0.0~0.0~0.0~0.0~0~0.0~0.0~0.0~0.0~0~0.0~0.0~0.0~135.0~778.0~777.0*
%ADD54D54*%
G04~CAMADD=55~9~0.0~0.0~590.6~236.2~0.0~0.0~0~0.0~0.0~0.0~0.0~0~0.0~0.0~0.0~0.0~0~0.0~0.0~0.0~135.0~584.0~583.0*
%ADD55D55*%
%ADD56R,0.200000X0.120000*%
%ADD57R,0.038190X0.057870*%
%ADD58R,0.019680X0.018700*%
%LNpcb1-1*%
%LPD*%
G54D40*
X03155Y02435D03*
Y0238D03*
G54D41*
X03075Y02307D03*
X03134D03*
G54D42*
X03075Y02377D03*
Y02436D03*
G54D43*
X03329Y02695D03*
X0337D03*
G54D44*
X03442Y02695D03*
X03497D03*
X02667Y02295D03*
X02612D03*
X02677Y0271D03*
X02622D03*
G54D45*
X03592Y02545D03*
Y02513D03*
Y02482D03*
Y0245D03*
Y02419D03*
Y02387D03*
Y02356D03*
Y02324D03*
X03257D03*
Y02356D03*
Y02387D03*
Y02419D03*
Y0245D03*
Y02482D03*
Y02513D03*
Y02545D03*
G54D46*
X03535Y02267D03*
X03503D03*
X03472D03*
X0344D03*
X03409D03*
X03377D03*
X03346D03*
X03314D03*
Y02602D03*
X03346D03*
X03377D03*
X03409D03*
X0344D03*
X03472D03*
X03503D03*
X03535D03*
G54D47*
X02705Y02495D03*
G54D48*
X0282Y0261D03*
X02794D03*
X02769D03*
X02743D03*
X02718D03*
X02692D03*
X02666D03*
X02641D03*
X02615D03*
X0259D03*
Y02379D03*
X02615D03*
X02641D03*
X02666D03*
X02692D03*
X02718D03*
X02743D03*
X02769D03*
X02794D03*
X0282D03*
G54D49*
X03001Y0322D03*
X031D03*
X03198D03*
G54D50*
X02656Y02983D03*
X02781Y03108D03*
G54D51*
X02536Y02989D03*
X02664Y02861D03*
X02903Y031D03*
X02775Y03228D03*
G54D52*
X0262Y03145D03*
G54D53*
X03409Y03105D03*
X03535Y02979D03*
G54D54*
X03415Y03224D03*
X03287Y03096D03*
X03526Y02857D03*
X03654Y02985D03*
G54D55*
X03571Y03141D03*
G54D56*
X03086Y03005D03*
X03087Y02755D03*
G54D57*
X02812Y02205D03*
X02747D03*
X02812Y0229D03*
X02747D03*
X02867Y0281D03*
X02802D03*
G54D58*
X02865Y0274D03*
Y02699D03*
X02805Y0274D03*
Y02699D03*
X02745Y0274D03*
Y02699D03*
M02*