%FSTAX23Y23*%
%MOIN*%
%SFA1B1*%

%IPPOS*%
%ADD10C,0.007870*%
%ADD11C,0.003940*%
%ADD12C,0.007000*%
%LNpcb1-1*%
%LPD*%
G36*
X02453Y02834D02*
X02454Y02834D01*
X02455Y02834*
X02456Y02833*
X02458Y02832*
X0246Y02831*
X0246Y02831*
X0246Y0283*
X02461Y02829*
X02463Y02829*
X02464Y02827*
X02466Y02826*
X02467Y02824*
X02469Y02823*
X02469Y02823*
X02469Y02822*
X0247Y02821*
X02471Y0282*
X02471Y02819*
X02472Y02818*
X02473Y02817*
X02473Y02815*
Y02815*
X02473Y02815*
X02473Y02814*
X02472Y02813*
X02487Y028*
Y028*
X02487Y028*
Y02801*
X02487Y02801*
Y02803*
X02487Y02804*
X02487Y02805*
Y02807*
X02487Y02808*
Y02809*
X02487Y02811*
X02488Y02811*
X02488Y02812*
X02488Y02812*
X02488Y02813*
X02489Y02813*
X02489Y02813*
X0249Y02813*
X0249*
X02491Y02813*
X02491Y02813*
X02493Y02813*
X02494Y02812*
X02496Y02811*
X02497Y0281*
X02498Y02809*
X02499Y02808*
X025Y02807*
X025Y02807*
X02501Y02806*
X02501Y02806*
X02502Y02805*
X02503Y02804*
X02503Y02803*
X02504Y02801*
X02505Y028*
Y028*
X02505Y028*
X02505Y02799*
X02505Y02797*
X02505Y02796*
X02505Y02794*
X02506Y02791*
Y02788*
X02505Y02789*
X02505Y0279*
X02505Y02791*
X02505Y02794*
X02504Y02795*
X02504Y02796*
Y02796*
X02504Y02796*
X02503Y02797*
X02502Y02797*
X02502Y02798*
X02501Y02798*
Y02787*
X02501Y02786*
Y02785*
X02501Y02785*
X02502Y02785*
X02502Y02784*
X02503Y02783*
X02504Y02782*
X02505Y02781*
X02507Y0278*
X02508Y02778*
X02511Y02775*
X02514Y02771*
X02518Y02768*
X02521Y02764*
X02521Y02764*
X02521Y02764*
X02522Y02763*
X02522Y02762*
X02523Y02761*
X02524Y0276*
X02525Y02759*
X02526Y02758*
X02529Y02755*
X02531Y02751*
X02534Y02748*
X02537Y02744*
X02537Y02744*
X02537Y02743*
X02538Y02743*
X02538Y02742*
X02539Y02741*
X0254Y0274*
X02541Y02738*
X02542Y02737*
X02543Y02735*
X02544Y02734*
X02546Y0273*
X02549Y02726*
X02551Y02721*
X02551Y02721*
X02551Y02721*
X0255Y0272*
X02549Y0272*
X02548Y02719*
X02547Y02719*
X02546Y02719*
X02545Y02719*
X02544*
X02544*
X02544Y02719*
X02543Y02719*
X02542Y02719*
X02541Y02719*
X0254Y0272*
X02538Y02721*
X02538Y02721*
X02537Y02721*
X02536Y02721*
X02535Y02722*
X02533Y02723*
X02532Y02724*
X02531Y02725*
X02529Y02725*
X02528Y02726*
X02526Y02727*
X02524Y02728*
X02524*
X02524Y02728*
X02523Y02729*
X02523Y02729*
X02522Y0273*
X02521Y0273*
X02519Y02731*
X02518Y02732*
X02516Y02733*
X02515Y02734*
X02511Y02736*
X02507Y02738*
X02503Y0274*
Y02735*
X02503Y02734*
Y0273*
X02503Y0273*
Y02729*
X02503Y02729*
X02502Y02728*
X02501Y02728*
X02501*
X02501Y02728*
X025Y02729*
X02499Y02729*
X02499Y0273*
X02499Y0273*
X02498Y0273*
X02497Y02731*
X02497Y02731*
X02496Y02732*
X02494Y02733*
X02494Y02733*
X02494Y02734*
X02493Y02734*
X02492Y02735*
X02491Y02736*
X0249Y02737*
X02488Y02739*
X02487Y02749*
X02487Y02749*
X02486Y0275*
X02485Y0275*
X02484Y0275*
X02483Y02751*
X02482Y02752*
X02479Y02753*
X02475Y02755*
X02474Y02756*
X02473Y02756*
X02471Y02757*
X0247Y02757*
X02469Y02757*
X02469Y02758*
X02469*
X02469*
X02468Y02757*
X02467Y02757*
X02467Y02757*
X02466Y02756*
X02466Y02755*
X02466Y02754*
Y02754*
X02466Y02754*
X02466Y02753*
X02467Y02753*
X02467Y02752*
X02467Y02752*
X02468Y02751*
X02468Y0275*
X02469Y02749*
X02469Y02747*
X0247Y02746*
X02471Y02744*
X02472Y02742*
X02469Y02743*
X02468Y02743*
X02468Y02744*
X02467Y02745*
X02466Y02746*
X02465Y02748*
X02464Y02749*
X02462Y0275*
X02461Y02752*
X02461Y02752*
X02461Y02752*
X02461Y02753*
X0246Y02754*
X02459Y02755*
X02457Y02757*
X02457Y02758*
X02457Y02758*
X02457Y02758*
X02456Y02759*
X02456Y0276*
X02455Y02762*
Y02762*
X02455Y02762*
X02455Y02763*
X02455Y02763*
X02454Y02764*
X02454Y02766*
Y02766*
X02454Y02767*
X02454Y02767*
X02455Y02768*
X02455Y02769*
X02455Y0277*
X02456Y02771*
X02456Y02771*
X02457Y02771*
X02457Y02771*
X02458Y02772*
X02459Y02772*
X0246Y02772*
X02461Y02773*
X02462Y02773*
X02462*
X02463*
X02463Y02773*
X02464*
X02464Y02772*
X02465Y02772*
X02466Y02772*
X02467Y02772*
X02467*
X02467Y02771*
X02468Y02771*
X02469Y02771*
X0247Y0277*
X02471Y0277*
X02473Y02769*
X02473Y02769*
X02474Y02769*
X02474Y02768*
X02476Y02768*
X02476Y02767*
X02477Y02767*
X02479Y02766*
X0248Y02765*
X02481Y02765*
X02483Y02764*
X02484Y02763*
X02486Y02762*
Y02763*
X02486Y02765*
Y02769*
X02486Y02771*
Y02779*
X02486Y02781*
Y02788*
X02486Y02791*
X02486Y02792*
X02486Y02792*
X02485Y02792*
X02485Y02793*
X02484Y02794*
X02483Y02795*
X02482Y02796*
X0248Y02797*
X0248Y02797*
X0248Y02798*
X02479Y02798*
X02478Y02799*
X02477Y028*
X02476Y02801*
X02474Y02803*
X02474Y02803*
X02474Y02804*
X02473Y02804*
X02472Y02805*
X02471Y02807*
X02469Y02808*
X02469Y02809*
X02469Y02809*
X02468Y02809*
X02468Y0281*
X02467Y02811*
X02466Y02812*
X02466Y02812*
X02465Y02812*
X02465Y02813*
X02464Y02813*
X02463Y02814*
X02462Y02816*
X0246Y02818*
X02458Y02819*
X02457Y02821*
X02456Y02822*
X02456Y02822*
X02456Y02822*
X02455Y02823*
X02455Y02823*
X02454Y02824*
X02453Y02825*
X02451Y02827*
X02451Y02827*
X02451Y02828*
X02451Y02828*
X02451Y02829*
X0245Y0283*
X0245Y02831*
X0245Y02832*
Y02832*
X0245Y02833*
X0245Y02834*
X02451Y02834*
X02451Y02834*
X02452Y02835*
X02452*
X02452*
X02453Y02834*
G37*
G36*
X02477Y02732D02*
X02478D01*
X02479Y02732*
X0248Y02732*
X02483Y02731*
X02485Y02731*
X02489Y0273*
X02492Y02729*
X02493*
X02493Y02729*
X02493Y02728*
X02494Y02728*
X02495Y02728*
X02496Y02727*
X02497Y02727*
X02499Y02726*
X02502Y02725*
X02505Y02723*
X02509Y02722*
X02513Y0272*
X02513Y02719*
X02513Y02719*
X02514Y02719*
X02515Y02719*
X02516Y02718*
X02517Y02717*
X02519Y02716*
X02522Y02714*
X02525Y02712*
X02528Y0271*
X02531Y02708*
X02531Y02708*
X02531Y02707*
X02532Y02707*
X02532Y02707*
X02533Y02705*
X02535Y02704*
X02537Y02702*
X02539Y027*
X0254Y02698*
X02542Y02696*
X02542Y02696*
X02542Y02696*
X02542Y02695*
X02543Y02694*
X02543Y02693*
Y02693*
X02543Y02692*
X02542Y02691*
X02542Y02691*
X02542Y02691*
X02541Y02691*
X02541*
X02541Y0269*
X0254Y0269*
X02539*
X02538Y0269*
X02537*
X02537*
X02537*
X02536*
X02535Y0269*
X02534Y0269*
X02533Y02691*
X02532Y02691*
X0253Y02691*
X02529Y02692*
X02527Y02692*
X02525Y02693*
X02523Y02694*
X0252Y02695*
X02518Y02696*
X02515Y02697*
X02513Y02698*
X02512Y02699*
X02512Y02699*
X02511Y02699*
X0251Y027*
X02509Y02701*
X02507Y02702*
X02506Y02703*
X02503Y02704*
X02501Y02706*
X02499Y02708*
X02497Y02709*
X02494Y02711*
X02491Y02714*
X02489Y02716*
X02486Y02718*
X02483Y02721*
X02483*
X02482Y02721*
X02482Y02721*
X02481*
X02479Y02722*
X02478Y02722*
X02477*
X02477*
X02477*
X02476Y02722*
X02475Y02721*
X02474Y02721*
X02472Y02721*
X02471Y0272*
X0247Y0272*
X0247Y0272*
X0247Y02719*
X02469Y02719*
X02469Y02718*
X02468Y02718*
X02467Y02717*
X02467Y02716*
X02467Y02714*
Y02714*
X02467Y02714*
Y02713*
X02468Y02712*
X02468Y0271*
X02469Y0271*
X02469Y0271*
X02469Y0271*
X02469Y02709*
X0247Y02708*
X02472Y02706*
X02472Y02706*
X02472Y02705*
X02473Y02705*
X02474Y02704*
X02475Y02703*
X02476Y02701*
X02478Y02699*
X02479Y02698*
X02481Y02698*
X02481*
X02481Y02698*
X02482Y02697*
X02483Y02697*
X02484Y02697*
X02485Y02696*
X02485*
X02485Y02696*
X02486Y02696*
X02486Y02696*
X02487Y02695*
X02488Y02695*
X02489Y02694*
X0249Y02693*
X0249Y02693*
X02491Y02693*
X02492Y02692*
X02493Y02692*
X02494Y02691*
X02495Y0269*
X02497Y02689*
X02498Y02687*
X02501Y02684*
X02503Y02683*
X02504Y02681*
X02505Y0268*
X02506Y02678*
X02506Y02676*
X02506Y02675*
Y02674*
X02506Y02673*
X02506Y02673*
X02505Y02672*
X02505Y02671*
X02504Y02671*
X02503Y02671*
X02503*
X02502*
X02502Y02671*
X02501Y02671*
X025Y02671*
X02499Y02672*
X02497Y02672*
X02496Y02673*
X02495Y02673*
X02495Y02674*
X02494Y02674*
X02493Y02675*
X02491Y02677*
X0249Y02677*
X02489Y02678*
X02489Y02679*
X02488Y02679*
X02488Y02679*
X02487Y0268*
X02485Y02682*
X02484Y02683*
X02483Y02684*
X02481Y02686*
X0248Y02686*
X0248Y02687*
X0248Y02687*
X02479Y02687*
X02479Y02687*
X02478Y02688*
X02477Y02688*
X02476Y02688*
X02475Y02688*
X02475*
X02474*
X02474Y02688*
X02473Y02688*
X02473Y02688*
X02472Y02688*
X02471Y02687*
X02471Y02686*
X0247Y02686*
X0247Y02686*
X0247Y02686*
X0247Y02685*
X02469Y02684*
X02469Y02684*
X02469Y02682*
X02469Y02681*
Y02681*
X02469Y0268*
X02469Y02679*
X0247Y02678*
X0247Y02677*
X02471Y02675*
X02471Y02674*
X02471Y02674*
X02472Y02673*
X02472Y02672*
X02473Y02671*
X02474Y0267*
X02476Y02668*
X02477Y02666*
X02479Y02664*
X02474*
X02474Y02664*
X02474Y02664*
X02473Y02664*
X02473Y02665*
X02473Y02665*
X02473Y02664*
X02472Y02663*
X02487Y0265*
Y0265*
X02487Y0265*
Y02651*
X02487Y02651*
Y02653*
X02487Y02654*
X02487Y02655*
Y02657*
X02487Y02658*
Y02659*
X02487Y02661*
X02488Y02661*
X02488Y02662*
X02488Y02662*
X02488Y02663*
X02489Y02663*
X02489Y02663*
X0249Y02663*
X0249*
X02491Y02663*
X02491Y02663*
X02493Y02663*
X02494Y02662*
X02496Y02661*
X02497Y0266*
X02498Y02659*
X02499Y02658*
X025Y02657*
X025Y02657*
X02501Y02656*
X02501Y02656*
X02502Y02655*
X02503Y02654*
X02503Y02653*
X02504Y02651*
X02505Y0265*
Y0265*
X02505Y0265*
X02505Y02649*
X02505Y02647*
X02505Y02646*
X02505Y02644*
X02506Y02641*
Y02638*
X02505Y02639*
X02505Y0264*
X02505Y02641*
X02505Y02644*
X02504Y02645*
X02504Y02646*
Y02646*
X02504Y02646*
X02503Y02647*
X02502Y02647*
X02502Y02648*
X02501Y02648*
Y02637*
X02501Y02636*
Y02635*
X02501Y02635*
X02502Y02635*
X02502Y02634*
X02503Y02633*
X02504Y02632*
X02505Y02631*
X02507Y0263*
X02508Y02628*
X02511Y02625*
X02514Y02621*
X02518Y02618*
X02521Y02614*
X02521Y02614*
X02521Y02614*
X02522Y02613*
X02522Y02612*
X02523Y02611*
X02524Y0261*
X02525Y02609*
X02526Y02608*
X02529Y02605*
X02531Y02601*
X02534Y02598*
X02537Y02594*
X02537Y02594*
X02537Y02593*
X02538Y02593*
X02538Y02592*
X02539Y02591*
X0254Y0259*
X02541Y02588*
X02542Y02587*
X02543Y02585*
X02544Y02584*
X02546Y0258*
X02549Y02576*
X02551Y02571*
X02551Y02571*
X02551Y02571*
X0255Y0257*
X02549Y0257*
X02548Y02569*
X02547Y02569*
X02546Y02569*
X02545Y02569*
X02544*
X02544*
X02544Y02569*
X02543Y02569*
X02542Y02569*
X02541Y02569*
X0254Y0257*
X02538Y02571*
X02538Y02571*
X02537Y02571*
X02536Y02571*
X02535Y02572*
X02533Y02573*
X02532Y02574*
X02531Y02575*
X02529Y02575*
X02528Y02576*
X02526Y02577*
X02524Y02578*
X02524*
X02524Y02578*
X02523Y02579*
X02523Y02579*
X02522Y0258*
X02521Y0258*
X02519Y02581*
X02518Y02582*
X02516Y02583*
X02515Y02584*
X02511Y02586*
X02507Y02588*
X02503Y0259*
Y02585*
X02503Y02584*
Y0258*
X02503Y0258*
Y02579*
X02503Y02579*
X02502Y02578*
X02501Y02578*
X02501*
X02501Y02578*
X025Y02579*
X02499Y02579*
X02499Y0258*
X02499Y0258*
X02498Y0258*
X02497Y02581*
X02497Y02581*
X02496Y02582*
X02494Y02583*
X02494Y02583*
X02494Y02584*
X02493Y02584*
X02492Y02585*
X02491Y02586*
X0249Y02587*
X02488Y02589*
X02487Y02599*
X02487Y02599*
X02486Y026*
X02485Y026*
X02484Y026*
X02483Y02601*
X02482Y02602*
X02479Y02603*
X02475Y02605*
X02474Y02606*
X02473Y02606*
X02471Y02607*
X0247Y02607*
X02469Y02607*
X02469Y02608*
X02469*
X02469*
X02468Y02607*
X02467Y02607*
X02467Y02607*
X02466Y02606*
X02466Y02605*
X02466Y02604*
Y02604*
X02466Y02604*
X02466Y02603*
X02467Y02603*
X02467Y02602*
X02467Y02602*
X02468Y02601*
X02468Y026*
X02469Y02599*
X02469Y02597*
X0247Y02596*
X02471Y02594*
X02472Y02592*
X02469Y02593*
X02468Y02593*
X02468Y02594*
X02467Y02595*
X02466Y02596*
X02465Y02598*
X02464Y02599*
X02462Y026*
X02461Y02602*
X02461Y02602*
X02461Y02602*
X02461Y02603*
X0246Y02604*
X02459Y02605*
X02457Y02607*
X02457Y02608*
X02457Y02608*
X02457Y02608*
X02456Y02609*
X02456Y0261*
X02455Y02612*
Y02612*
X02455Y02612*
X02455Y02613*
X02455Y02613*
X02454Y02614*
X02454Y02616*
Y02616*
X02454Y02617*
X02454Y02617*
X02455Y02618*
X02455Y02619*
X02455Y0262*
X02456Y02621*
X02456Y02621*
X02457Y02621*
X02457Y02621*
X02458Y02622*
X02459Y02622*
X0246Y02622*
X02461Y02623*
X02462Y02623*
X02462*
X02463*
X02463Y02623*
X02464*
X02464Y02622*
X02465Y02622*
X02466Y02622*
X02467Y02622*
X02467*
X02467Y02621*
X02468Y02621*
X02469Y02621*
X0247Y0262*
X02471Y0262*
X02473Y02619*
X02473Y02619*
X02474Y02619*
X02474Y02618*
X02476Y02618*
X02476Y02617*
X02477Y02617*
X02479Y02616*
X0248Y02615*
X02481Y02615*
X02483Y02614*
X02484Y02613*
X02486Y02612*
Y02613*
X02486Y02615*
Y02619*
X02486Y02621*
Y02629*
X02486Y02631*
Y02638*
X02486Y02641*
X02486Y02642*
X02486Y02642*
X02485Y02642*
X02485Y02643*
X02484Y02644*
X02483Y02645*
X02482Y02646*
X0248Y02647*
X0248Y02647*
X0248Y02648*
X02479Y02648*
X02478Y02649*
X02477Y0265*
X02476Y02651*
X02474Y02653*
X02474Y02653*
X02474Y02654*
X02473Y02654*
X02472Y02655*
X02471Y02657*
X02469Y02658*
X02469Y02659*
X02469Y02659*
X02468Y02659*
X02468Y0266*
X02467Y02661*
X02466Y02662*
X02466Y02662*
X02465Y02662*
X02465Y02663*
X02464Y02663*
X02463Y02664*
X02462Y02666*
X0246Y02668*
X02458Y02669*
X02457Y02671*
X02456Y02672*
X02456Y02672*
X02456Y02672*
X02455Y02673*
X02455Y02673*
X02454Y02674*
X02453Y02675*
X02451Y02677*
X02451Y02677*
X02451Y02678*
X02451Y02678*
X02451Y02679*
X0245Y0268*
X0245Y02681*
X0245Y02682*
Y02682*
X0245Y02683*
X0245Y02684*
X02451Y02684*
X02451Y02684*
X02452Y02685*
X02452*
X02452*
X02453Y02684*
X02454Y02684*
X02455Y02684*
X02456Y02683*
X02457Y02682*
X02457Y02683*
X02456Y02685*
X02456Y02687*
Y02687*
X02456Y02688*
X02456Y02689*
X02457Y0269*
X02458Y02691*
X02459Y02693*
X0246Y02694*
X02461Y02695*
X02462Y02695*
X02462*
X02462Y02695*
X02463Y02696*
X02463Y02696*
X02464Y02696*
X02466Y02697*
X02468Y02697*
X0247Y02698*
X02473Y02698*
X02473Y02698*
X02473Y02698*
X02472Y02699*
X0247Y02701*
X02469Y02702*
X02467Y02704*
X02465Y02706*
X02461Y0271*
X0246Y02712*
X02458Y02714*
X02457Y02716*
X02456Y02718*
X02455Y0272*
X02455Y02721*
Y02722*
X02455Y02722*
X02455Y02723*
X02456Y02724*
X02456Y02726*
X02457Y02727*
X02459Y02728*
X0246Y02729*
X02461Y02729*
X02461*
X02461Y0273*
X02462Y0273*
X02463Y0273*
X02464Y02731*
X02467Y02731*
X02469Y02732*
X02472Y02732*
X02475Y02732*
X02475*
X02475*
X02476*
X02476*
X02477Y02732*
G37*
G36*
X02517Y02673D02*
X02518Y02673D01*
X02519Y02673*
X0252Y02672*
X02522Y02671*
X02523Y0267*
X02523Y0267*
X02524Y0267*
X02524Y02669*
X02525Y02668*
X02526Y02668*
X02526Y02667*
X02527Y02665*
X02527Y02664*
Y02664*
X02527Y02663*
Y02663*
X02526Y02662*
X02526Y02661*
X02526Y02661*
Y02661*
X02525Y0266*
X02525Y0266*
X02524Y02659*
X02523Y02659*
X02522*
X02522*
X02521*
X02521Y02659*
X0252Y02659*
X02519Y0266*
X02518Y0266*
X02516Y02661*
X02515Y02662*
X02515Y02662*
X02515Y02663*
X02514Y02663*
X02513Y02664*
X02513Y02665*
X02512Y02666*
X02512Y02667*
X02511Y02668*
Y02669*
X02512Y0267*
X02512Y02671*
X02513Y02672*
X02513*
X02513Y02672*
X02514Y02673*
X02515Y02673*
X02515Y02673*
X02516Y02673*
X02516*
X02517*
X02517Y02673*
G37*
%LNpcb1-2*%
%LPC*%
G36*
X02503Y02775D02*
X02503Y02752D01*
X02503*
X02503Y02752*
X02504Y02752*
X02504Y02751*
X02506Y02751*
X02507Y0275*
X02509Y02749*
X02511Y02748*
X02513Y02747*
X02514Y02746*
X02515Y02745*
X02515Y02745*
X02516Y02745*
X02517Y02744*
X02518Y02743*
X0252Y02742*
X02522Y02741*
X02524Y0274*
X02524Y0274*
X02524Y02739*
X02525Y02739*
X02526Y02738*
X02528Y02737*
X02529Y02736*
X02531Y02736*
X02532Y02735*
X02532Y02735*
X02533Y02734*
X02533Y02734*
X02534Y02733*
X02536Y02732*
X02537Y02732*
X02538Y02731*
X0254Y0273*
X0254Y0273*
X0254Y02731*
X02539Y02732*
X02538Y02733*
X02537Y02735*
X02536Y02736*
X02534Y02738*
X02533Y0274*
X02533Y02741*
X02532Y02741*
X02531Y02742*
X0253Y02744*
X02529Y02746*
X02527Y02748*
X02525Y0275*
X02523Y02753*
Y02753*
X02523Y02753*
X02523Y02753*
X02522Y02754*
X02521Y02755*
X0252Y02757*
X02519Y02758*
X02517Y0276*
X02515Y02762*
X02513Y02764*
X02513Y02765*
X02512Y02765*
X02511Y02766*
X0251Y02768*
X02508Y02769*
X02507Y02771*
X02505Y02773*
X02503Y02775*
G37*
G36*
X02493Y02718D02*
X02493Y02718D01*
X02494Y02718*
X02494Y02717*
X02495Y02716*
X02497Y02715*
X02498Y02714*
X025Y02713*
X02501Y02711*
X02502Y02711*
X02502Y02711*
X02503Y0271*
X02504Y02709*
X02506Y02708*
X02507Y02707*
X02509Y02706*
X02511Y02705*
X02511Y02705*
X02512Y02704*
X02513Y02704*
X02514Y02703*
X02516Y02702*
X02517Y02701*
X02521Y027*
X02521Y027*
X02521Y027*
X02522Y02699*
X02523Y02699*
X02525Y02698*
X02526Y02698*
X02527Y02698*
X02527*
X02527*
X02528Y02698*
X02529Y02699*
X02529Y02699*
X02529Y02699*
Y02699*
X02529Y027*
X02528Y027*
X02528Y02701*
X02528Y02701*
X02527Y02702*
X02526Y02703*
X02525Y02704*
X02524Y02704*
X02523Y02705*
X02522Y02706*
X02521Y02707*
X02519Y02708*
X02518Y02709*
X02516Y0271*
X02514Y02711*
X02514*
X02513Y02711*
X02513Y02711*
X02512Y02712*
X02511Y02712*
X0251Y02713*
X02509Y02713*
X02507Y02714*
X02504Y02715*
X02501Y02716*
X02497Y02718*
X02493Y02718*
G37*
G36*
X02503Y02625D02*
X02503Y02602D01*
X02503*
X02503Y02602*
X02504Y02602*
X02504Y02601*
X02506Y02601*
X02507Y026*
X02509Y02599*
X02511Y02598*
X02513Y02597*
X02514Y02596*
X02515Y02595*
X02515Y02595*
X02516Y02595*
X02517Y02594*
X02518Y02593*
X0252Y02592*
X02522Y02591*
X02524Y0259*
X02524Y0259*
X02524Y02589*
X02525Y02589*
X02526Y02588*
X02528Y02587*
X02529Y02586*
X02531Y02586*
X02532Y02585*
X02532Y02585*
X02533Y02584*
X02533Y02584*
X02534Y02583*
X02536Y02582*
X02537Y02582*
X02538Y02581*
X0254Y0258*
X0254Y0258*
X0254Y02581*
X02539Y02582*
X02538Y02583*
X02537Y02585*
X02536Y02586*
X02534Y02588*
X02533Y0259*
X02533Y02591*
X02532Y02591*
X02531Y02592*
X0253Y02594*
X02529Y02596*
X02527Y02598*
X02525Y026*
X02523Y02603*
Y02603*
X02523Y02603*
X02523Y02603*
X02522Y02604*
X02521Y02605*
X0252Y02607*
X02519Y02608*
X02517Y0261*
X02515Y02612*
X02513Y02614*
X02513Y02615*
X02512Y02615*
X02511Y02616*
X0251Y02618*
X02508Y02619*
X02507Y02621*
X02505Y02623*
X02503Y02625*
G37*
%LNpcb1-3*%
%LPD*%
G54D10*
X0299Y02813D02*
D01*
X0299Y02814*
X0299Y02814*
X0299Y02814*
X0299Y02814*
X0299Y02815*
X0299Y02815*
X0299Y02815*
X02989Y02815*
X02989Y02816*
X02989Y02816*
X02989Y02816*
X02989Y02816*
X02989Y02816*
X02988Y02817*
X02988Y02817*
X02988Y02817*
X02988Y02817*
X02987Y02817*
X02987Y02817*
X02987Y02817*
X02987Y02817*
X02986Y02817*
X02986*
X02986Y02817*
X02985Y02817*
X02985Y02817*
X02985Y02817*
X02985Y02817*
X02984Y02817*
X02984Y02817*
X02984Y02817*
X02984Y02816*
X02983Y02816*
X02983Y02816*
X02983Y02816*
X02983Y02816*
X02983Y02815*
X02983Y02815*
X02983Y02815*
X02982Y02815*
X02982Y02814*
X02982Y02814*
X02982Y02814*
X02982Y02814*
X02982Y02813*
D01*
X02982Y02813*
X02982Y02813*
X02982Y02813*
X02982Y02812*
X02982Y02812*
X02983Y02812*
X02983Y02811*
X02983Y02811*
X02983Y02811*
X02983Y02811*
X02983Y02811*
X02983Y0281*
X02984Y0281*
X02984Y0281*
X02984Y0281*
X02984Y0281*
X02985Y0281*
X02985Y0281*
X02985Y02809*
X02985Y02809*
X02986Y02809*
X02986Y02809*
X02986*
X02987Y02809*
X02987Y02809*
X02987Y02809*
X02987Y0281*
X02988Y0281*
X02988Y0281*
X02988Y0281*
X02988Y0281*
X02989Y0281*
X02989Y0281*
X02989Y02811*
X02989Y02811*
X02989Y02811*
X02989Y02811*
X0299Y02811*
X0299Y02812*
X0299Y02812*
X0299Y02812*
X0299Y02813*
X0299Y02813*
X0299Y02813*
Y02813*
D01*
X0299Y02814*
X0299Y02814*
X0299Y02814*
X0299Y02814*
X0299Y02815*
X0299Y02815*
X0299Y02815*
X02989Y02815*
X02989Y02816*
X02989Y02816*
X02989Y02816*
X02989Y02816*
X02989Y02816*
X02988Y02817*
X02988Y02817*
X02988Y02817*
X02988Y02817*
X02987Y02817*
X02987Y02817*
X02987Y02817*
X02987Y02817*
X02986Y02817*
X02986*
X02986Y02817*
X02985Y02817*
X02985Y02817*
X02985Y02817*
X02985Y02817*
X02984Y02817*
X02984Y02817*
X02984Y02817*
X02984Y02816*
X02983Y02816*
X02983Y02816*
X02983Y02816*
X02983Y02816*
X02983Y02815*
X02983Y02815*
X02983Y02815*
X02982Y02815*
X02982Y02814*
X02982Y02814*
X02982Y02814*
X02982Y02814*
X02982Y02813*
X03086Y02977D02*
D01*
X03085Y02977*
X03085Y02977*
X03085Y02977*
X03085Y02977*
X03084Y02976*
X03084Y02976*
X03084Y02976*
X03084Y02976*
X03083Y02976*
X03083Y02976*
X03083Y02976*
X03083Y02975*
X03083Y02975*
X03082Y02975*
X03082Y02975*
X03082Y02974*
X03082Y02974*
X03082Y02974*
X03082Y02974*
X03082Y02973*
X03082Y02973*
X03082Y02973*
Y02973*
X03082Y02972*
X03082Y02972*
X03082Y02972*
X03082Y02972*
X03082Y02971*
X03082Y02971*
X03082Y02971*
X03082Y02971*
X03083Y0297*
X03083Y0297*
X03083Y0297*
X03083Y0297*
X03083Y0297*
X03084Y02969*
X03084Y02969*
X03084Y02969*
X03084Y02969*
X03085Y02969*
X03085Y02969*
X03085Y02969*
X03085Y02969*
X03086Y02969*
D01*
X03086Y02969*
X03086Y02969*
X03086Y02969*
X03087Y02969*
X03087Y02969*
X03087Y02969*
X03088Y02969*
X03088Y02969*
X03088Y0297*
X03088Y0297*
X03088Y0297*
X03089Y0297*
X03089Y0297*
X03089Y02971*
X03089Y02971*
X03089Y02971*
X03089Y02971*
X03089Y02972*
X0309Y02972*
X0309Y02972*
X0309Y02972*
X0309Y02973*
Y02973*
X0309Y02973*
X0309Y02973*
X0309Y02974*
X03089Y02974*
X03089Y02974*
X03089Y02974*
X03089Y02975*
X03089Y02975*
X03089Y02975*
X03089Y02975*
X03088Y02976*
X03088Y02976*
X03088Y02976*
X03088Y02976*
X03088Y02976*
X03087Y02976*
X03087Y02976*
X03087Y02977*
X03086Y02977*
X03086Y02977*
X03086Y02977*
X03086*
D01*
X03085Y02977*
X03085Y02977*
X03085Y02977*
X03085Y02977*
X03084Y02976*
X03084Y02976*
X03084Y02976*
X03084Y02976*
X03083Y02976*
X03083Y02976*
X03083Y02976*
X03083Y02975*
X03083Y02975*
X03082Y02975*
X03082Y02975*
X03082Y02974*
X03082Y02974*
X03082Y02974*
X03082Y02974*
X03082Y02973*
X03082Y02973*
X03082Y02973*
Y02973*
X03082Y02972*
X03082Y02972*
X03082Y02972*
X03082Y02972*
X03082Y02971*
X03082Y02971*
X03082Y02971*
X03082Y02971*
X03083Y0297*
X03083Y0297*
X03083Y0297*
X03083Y0297*
X03083Y0297*
X03084Y02969*
X03084Y02969*
X03084Y02969*
X03084Y02969*
X03085Y02969*
X03085Y02969*
X03085Y02969*
X03085Y02969*
X03086Y02969*
X03221Y02977D02*
D01*
X0322Y02977*
X0322Y02977*
X0322Y02977*
X0322Y02977*
X03219Y02976*
X03219Y02976*
X03219Y02976*
X03219Y02976*
X03218Y02976*
X03218Y02976*
X03218Y02976*
X03218Y02975*
X03218Y02975*
X03217Y02975*
X03217Y02975*
X03217Y02974*
X03217Y02974*
X03217Y02974*
X03217Y02974*
X03217Y02973*
X03217Y02973*
X03217Y02973*
Y02973*
X03217Y02972*
X03217Y02972*
X03217Y02972*
X03217Y02972*
X03217Y02971*
X03217Y02971*
X03217Y02971*
X03217Y02971*
X03218Y0297*
X03218Y0297*
X03218Y0297*
X03218Y0297*
X03218Y0297*
X03219Y02969*
X03219Y02969*
X03219Y02969*
X03219Y02969*
X0322Y02969*
X0322Y02969*
X0322Y02969*
X0322Y02969*
X03221Y02969*
D01*
X03221Y02969*
X03221Y02969*
X03221Y02969*
X03222Y02969*
X03222Y02969*
X03222Y02969*
X03223Y02969*
X03223Y02969*
X03223Y0297*
X03223Y0297*
X03223Y0297*
X03224Y0297*
X03224Y0297*
X03224Y02971*
X03224Y02971*
X03224Y02971*
X03224Y02971*
X03224Y02972*
X03225Y02972*
X03225Y02972*
X03225Y02972*
X03225Y02973*
Y02973*
X03225Y02973*
X03225Y02973*
X03225Y02974*
X03224Y02974*
X03224Y02974*
X03224Y02974*
X03224Y02975*
X03224Y02975*
X03224Y02975*
X03224Y02975*
X03223Y02976*
X03223Y02976*
X03223Y02976*
X03223Y02976*
X03223Y02976*
X03222Y02976*
X03222Y02976*
X03222Y02977*
X03221Y02977*
X03221Y02977*
X03221Y02977*
X03221*
D01*
X0322Y02977*
X0322Y02977*
X0322Y02977*
X0322Y02977*
X03219Y02976*
X03219Y02976*
X03219Y02976*
X03219Y02976*
X03218Y02976*
X03218Y02976*
X03218Y02976*
X03218Y02975*
X03218Y02975*
X03217Y02975*
X03217Y02975*
X03217Y02974*
X03217Y02974*
X03217Y02974*
X03217Y02974*
X03217Y02973*
X03217Y02973*
X03217Y02973*
Y02973*
X03217Y02972*
X03217Y02972*
X03217Y02972*
X03217Y02972*
X03217Y02971*
X03217Y02971*
X03217Y02971*
X03217Y02971*
X03218Y0297*
X03218Y0297*
X03218Y0297*
X03218Y0297*
X03218Y0297*
X03219Y02969*
X03219Y02969*
X03219Y02969*
X03219Y02969*
X0322Y02969*
X0322Y02969*
X0322Y02969*
X0322Y02969*
X03221Y02969*
X03419Y02824D02*
D01*
X03419Y02824*
X03419Y02824*
X03419Y02825*
X03419Y02825*
X03419Y02825*
X03419Y02826*
X03419Y02826*
X03418Y02826*
X03418Y02826*
X03418Y02826*
X03418Y02827*
X03418Y02827*
X03418Y02827*
X03417Y02827*
X03417Y02827*
X03417Y02827*
X03417Y02828*
X03416Y02828*
X03416Y02828*
X03416Y02828*
X03416Y02828*
X03415Y02828*
X03415*
X03415Y02828*
X03414Y02828*
X03414Y02828*
X03414Y02828*
X03414Y02828*
X03413Y02827*
X03413Y02827*
X03413Y02827*
X03413Y02827*
X03412Y02827*
X03412Y02827*
X03412Y02826*
X03412Y02826*
X03412Y02826*
X03412Y02826*
X03412Y02826*
X03411Y02825*
X03411Y02825*
X03411Y02825*
X03411Y02824*
X03411Y02824*
X03411Y02824*
D01*
X03411Y02824*
X03411Y02823*
X03411Y02823*
X03411Y02823*
X03411Y02823*
X03412Y02822*
X03412Y02822*
X03412Y02822*
X03412Y02822*
X03412Y02821*
X03412Y02821*
X03412Y02821*
X03413Y02821*
X03413Y02821*
X03413Y0282*
X03413Y0282*
X03414Y0282*
X03414Y0282*
X03414Y0282*
X03414Y0282*
X03415Y0282*
X03415Y0282*
X03415*
X03416Y0282*
X03416Y0282*
X03416Y0282*
X03416Y0282*
X03417Y0282*
X03417Y0282*
X03417Y0282*
X03417Y02821*
X03418Y02821*
X03418Y02821*
X03418Y02821*
X03418Y02821*
X03418Y02822*
X03418Y02822*
X03419Y02822*
X03419Y02822*
X03419Y02823*
X03419Y02823*
X03419Y02823*
X03419Y02823*
X03419Y02824*
X03419Y02824*
D01*
X03419Y02824*
X03419Y02824*
X03419Y02825*
X03419Y02825*
X03419Y02825*
X03419Y02826*
X03419Y02826*
X03418Y02826*
X03418Y02826*
X03418Y02826*
X03418Y02827*
X03418Y02827*
X03418Y02827*
X03417Y02827*
X03417Y02827*
X03417Y02827*
X03417Y02828*
X03416Y02828*
X03416Y02828*
X03416Y02828*
X03416Y02828*
X03415Y02828*
X03415*
X03415Y02828*
X03414Y02828*
X03414Y02828*
X03414Y02828*
X03414Y02828*
X03413Y02827*
X03413Y02827*
X03413Y02827*
X03413Y02827*
X03412Y02827*
X03412Y02827*
X03412Y02826*
X03412Y02826*
X03412Y02826*
X03412Y02826*
X03412Y02826*
X03411Y02825*
X03411Y02825*
X03411Y02825*
X03411Y02824*
X03411Y02824*
X03411Y02824*
X03273Y02612D02*
D01*
X03273Y02612*
X03273Y02612*
X03273Y02613*
X03273Y02613*
X03273Y02613*
X03273Y02613*
X03273Y02614*
X03273Y02614*
X03273Y02614*
X03273Y02614*
X03272Y02615*
X03272Y02615*
X03272Y02615*
X03272Y02615*
X03271Y02615*
X03271Y02615*
X03271Y02615*
X03271Y02616*
X0327Y02616*
X0327Y02616*
X0327Y02616*
X0327Y02616*
X03269*
X03269Y02616*
X03269Y02616*
X03269Y02616*
X03268Y02616*
X03268Y02615*
X03268Y02615*
X03268Y02615*
X03267Y02615*
X03267Y02615*
X03267Y02615*
X03267Y02615*
X03266Y02614*
X03266Y02614*
X03266Y02614*
X03266Y02614*
X03266Y02613*
X03266Y02613*
X03266Y02613*
X03266Y02613*
X03266Y02612*
X03266Y02612*
X03266Y02612*
D01*
X03266Y02612*
X03266Y02611*
X03266Y02611*
X03266Y02611*
X03266Y0261*
X03266Y0261*
X03266Y0261*
X03266Y0261*
X03266Y0261*
X03266Y02609*
X03267Y02609*
X03267Y02609*
X03267Y02609*
X03267Y02609*
X03268Y02608*
X03268Y02608*
X03268Y02608*
X03268Y02608*
X03269Y02608*
X03269Y02608*
X03269Y02608*
X03269Y02608*
X0327*
X0327Y02608*
X0327Y02608*
X0327Y02608*
X03271Y02608*
X03271Y02608*
X03271Y02608*
X03271Y02608*
X03272Y02609*
X03272Y02609*
X03272Y02609*
X03272Y02609*
X03273Y02609*
X03273Y0261*
X03273Y0261*
X03273Y0261*
X03273Y0261*
X03273Y0261*
X03273Y02611*
X03273Y02611*
X03273Y02611*
X03273Y02612*
X03273Y02612*
X03368D02*
D01*
X03368Y02612*
X03368Y02612*
X03368Y02613*
X03368Y02613*
X03368Y02613*
X03368Y02613*
X03368Y02614*
X03368Y02614*
X03368Y02614*
X03368Y02614*
X03367Y02615*
X03367Y02615*
X03367Y02615*
X03367Y02615*
X03366Y02615*
X03366Y02615*
X03366Y02615*
X03366Y02616*
X03365Y02616*
X03365Y02616*
X03365Y02616*
X03365Y02616*
X03364*
X03364Y02616*
X03364Y02616*
X03364Y02616*
X03363Y02616*
X03363Y02615*
X03363Y02615*
X03363Y02615*
X03362Y02615*
X03362Y02615*
X03362Y02615*
X03362Y02615*
X03361Y02614*
X03361Y02614*
X03361Y02614*
X03361Y02614*
X03361Y02613*
X03361Y02613*
X03361Y02613*
X03361Y02613*
X03361Y02612*
X03361Y02612*
X03361Y02612*
D01*
X03361Y02612*
X03361Y02611*
X03361Y02611*
X03361Y02611*
X03361Y0261*
X03361Y0261*
X03361Y0261*
X03361Y0261*
X03361Y0261*
X03361Y02609*
X03362Y02609*
X03362Y02609*
X03362Y02609*
X03362Y02609*
X03363Y02608*
X03363Y02608*
X03363Y02608*
X03363Y02608*
X03364Y02608*
X03364Y02608*
X03364Y02608*
X03364Y02608*
X03365*
X03365Y02608*
X03365Y02608*
X03365Y02608*
X03366Y02608*
X03366Y02608*
X03366Y02608*
X03366Y02608*
X03367Y02609*
X03367Y02609*
X03367Y02609*
X03367Y02609*
X03368Y02609*
X03368Y0261*
X03368Y0261*
X03368Y0261*
X03368Y0261*
X03368Y0261*
X03368Y02611*
X03368Y02611*
X03368Y02611*
X03368Y02612*
X03368Y02612*
X03043Y02407D02*
D01*
X03043Y02407*
X03043Y02407*
X03043Y02408*
X03043Y02408*
X03043Y02408*
X03043Y02408*
X03043Y02409*
X03043Y02409*
X03043Y02409*
X03043Y02409*
X03042Y0241*
X03042Y0241*
X03042Y0241*
X03042Y0241*
X03041Y0241*
X03041Y0241*
X03041Y0241*
X03041Y02411*
X0304Y02411*
X0304Y02411*
X0304Y02411*
X0304Y02411*
X03039*
X03039Y02411*
X03039Y02411*
X03039Y02411*
X03038Y02411*
X03038Y0241*
X03038Y0241*
X03038Y0241*
X03037Y0241*
X03037Y0241*
X03037Y0241*
X03037Y0241*
X03036Y02409*
X03036Y02409*
X03036Y02409*
X03036Y02409*
X03036Y02408*
X03036Y02408*
X03036Y02408*
X03036Y02408*
X03036Y02407*
X03036Y02407*
X03036Y02407*
D01*
X03036Y02407*
X03036Y02406*
X03036Y02406*
X03036Y02406*
X03036Y02405*
X03036Y02405*
X03036Y02405*
X03036Y02405*
X03036Y02405*
X03036Y02404*
X03037Y02404*
X03037Y02404*
X03037Y02404*
X03037Y02404*
X03038Y02403*
X03038Y02403*
X03038Y02403*
X03038Y02403*
X03039Y02403*
X03039Y02403*
X03039Y02403*
X03039Y02403*
X0304*
X0304Y02403*
X0304Y02403*
X0304Y02403*
X03041Y02403*
X03041Y02403*
X03041Y02403*
X03041Y02403*
X03042Y02404*
X03042Y02404*
X03042Y02404*
X03042Y02404*
X03043Y02404*
X03043Y02405*
X03043Y02405*
X03043Y02405*
X03043Y02405*
X03043Y02405*
X03043Y02406*
X03043Y02406*
X03043Y02406*
X03043Y02407*
X03043Y02407*
X03143D02*
D01*
X03143Y02407*
X03143Y02407*
X03143Y02408*
X03143Y02408*
X03143Y02408*
X03143Y02408*
X03143Y02409*
X03143Y02409*
X03143Y02409*
X03143Y02409*
X03142Y0241*
X03142Y0241*
X03142Y0241*
X03142Y0241*
X03141Y0241*
X03141Y0241*
X03141Y0241*
X03141Y02411*
X0314Y02411*
X0314Y02411*
X0314Y02411*
X0314Y02411*
X03139*
X03139Y02411*
X03139Y02411*
X03139Y02411*
X03138Y02411*
X03138Y0241*
X03138Y0241*
X03138Y0241*
X03137Y0241*
X03137Y0241*
X03137Y0241*
X03137Y0241*
X03136Y02409*
X03136Y02409*
X03136Y02409*
X03136Y02409*
X03136Y02408*
X03136Y02408*
X03136Y02408*
X03136Y02408*
X03136Y02407*
X03136Y02407*
X03136Y02407*
D01*
X03136Y02407*
X03136Y02406*
X03136Y02406*
X03136Y02406*
X03136Y02405*
X03136Y02405*
X03136Y02405*
X03136Y02405*
X03136Y02405*
X03136Y02404*
X03137Y02404*
X03137Y02404*
X03137Y02404*
X03137Y02404*
X03138Y02403*
X03138Y02403*
X03138Y02403*
X03138Y02403*
X03139Y02403*
X03139Y02403*
X03139Y02403*
X03139Y02403*
X0314*
X0314Y02403*
X0314Y02403*
X0314Y02403*
X03141Y02403*
X03141Y02403*
X03141Y02403*
X03141Y02403*
X03142Y02404*
X03142Y02404*
X03142Y02404*
X03142Y02404*
X03143Y02404*
X03143Y02405*
X03143Y02405*
X03143Y02405*
X03143Y02405*
X03143Y02405*
X03143Y02406*
X03143Y02406*
X03143Y02406*
X03143Y02407*
X03143Y02407*
X03238D02*
D01*
X03238Y02407*
X03238Y02407*
X03238Y02408*
X03238Y02408*
X03238Y02408*
X03238Y02408*
X03238Y02409*
X03238Y02409*
X03238Y02409*
X03238Y02409*
X03237Y0241*
X03237Y0241*
X03237Y0241*
X03237Y0241*
X03236Y0241*
X03236Y0241*
X03236Y0241*
X03236Y02411*
X03235Y02411*
X03235Y02411*
X03235Y02411*
X03235Y02411*
X03234*
X03234Y02411*
X03234Y02411*
X03234Y02411*
X03233Y02411*
X03233Y0241*
X03233Y0241*
X03233Y0241*
X03232Y0241*
X03232Y0241*
X03232Y0241*
X03232Y0241*
X03231Y02409*
X03231Y02409*
X03231Y02409*
X03231Y02409*
X03231Y02408*
X03231Y02408*
X03231Y02408*
X03231Y02408*
X03231Y02407*
X03231Y02407*
X03231Y02407*
D01*
X03231Y02407*
X03231Y02406*
X03231Y02406*
X03231Y02406*
X03231Y02405*
X03231Y02405*
X03231Y02405*
X03231Y02405*
X03231Y02405*
X03231Y02404*
X03232Y02404*
X03232Y02404*
X03232Y02404*
X03232Y02404*
X03233Y02403*
X03233Y02403*
X03233Y02403*
X03233Y02403*
X03234Y02403*
X03234Y02403*
X03234Y02403*
X03234Y02403*
X03235*
X03235Y02403*
X03235Y02403*
X03235Y02403*
X03236Y02403*
X03236Y02403*
X03236Y02403*
X03236Y02403*
X03237Y02404*
X03237Y02404*
X03237Y02404*
X03237Y02404*
X03238Y02404*
X03238Y02405*
X03238Y02405*
X03238Y02405*
X03238Y02405*
X03238Y02405*
X03238Y02406*
X03238Y02406*
X03238Y02406*
X03238Y02407*
X03238Y02407*
X03348D02*
D01*
X03348Y02407*
X03348Y02407*
X03348Y02408*
X03348Y02408*
X03348Y02408*
X03348Y02408*
X03348Y02409*
X03348Y02409*
X03348Y02409*
X03348Y02409*
X03347Y0241*
X03347Y0241*
X03347Y0241*
X03347Y0241*
X03346Y0241*
X03346Y0241*
X03346Y0241*
X03346Y02411*
X03345Y02411*
X03345Y02411*
X03345Y02411*
X03345Y02411*
X03344*
X03344Y02411*
X03344Y02411*
X03344Y02411*
X03343Y02411*
X03343Y0241*
X03343Y0241*
X03343Y0241*
X03342Y0241*
X03342Y0241*
X03342Y0241*
X03342Y0241*
X03341Y02409*
X03341Y02409*
X03341Y02409*
X03341Y02409*
X03341Y02408*
X03341Y02408*
X03341Y02408*
X03341Y02408*
X03341Y02407*
X03341Y02407*
X03341Y02407*
D01*
X03341Y02407*
X03341Y02406*
X03341Y02406*
X03341Y02406*
X03341Y02405*
X03341Y02405*
X03341Y02405*
X03341Y02405*
X03341Y02405*
X03341Y02404*
X03342Y02404*
X03342Y02404*
X03342Y02404*
X03342Y02404*
X03343Y02403*
X03343Y02403*
X03343Y02403*
X03343Y02403*
X03344Y02403*
X03344Y02403*
X03344Y02403*
X03344Y02403*
X03345*
X03345Y02403*
X03345Y02403*
X03345Y02403*
X03346Y02403*
X03346Y02403*
X03346Y02403*
X03346Y02403*
X03347Y02404*
X03347Y02404*
X03347Y02404*
X03347Y02404*
X03348Y02404*
X03348Y02405*
X03348Y02405*
X03348Y02405*
X03348Y02405*
X03348Y02405*
X03348Y02406*
X03348Y02406*
X03348Y02406*
X03348Y02407*
X03348Y02407*
X02998Y02601D02*
Y02798D01*
X03201*
Y02601D02*
Y02798D01*
X02998Y02601D02*
X03201D01*
G54D11*
X03025Y02581D02*
D01*
X03025Y02581*
X03024Y02581*
X03024Y02581*
X03024Y02581*
X03024Y02581*
X03024Y02581*
X03024Y02581*
X03024Y02581*
X03024Y02581*
X03023Y02581*
X03023Y02581*
X03023Y02581*
X03023Y02581*
X03023Y02581*
X03023Y0258*
X03023Y0258*
X03023Y0258*
X03023Y0258*
X03023Y0258*
X03023Y0258*
X03023Y0258*
X03023Y02579*
Y02579*
X03023Y02579*
X03023Y02579*
X03023Y02579*
X03023Y02579*
X03023Y02579*
X03023Y02579*
X03023Y02578*
X03023Y02578*
X03023Y02578*
X03023Y02578*
X03023Y02578*
X03023Y02578*
X03024Y02578*
X03024Y02578*
X03024Y02578*
X03024Y02578*
X03024Y02578*
X03024Y02578*
X03024Y02577*
X03024Y02577*
X03025Y02577*
X03025Y02577*
D01*
X03025Y02577*
X03025Y02577*
X03025Y02577*
X03025Y02578*
X03025Y02578*
X03026Y02578*
X03026Y02578*
X03026Y02578*
X03026Y02578*
X03026Y02578*
X03026Y02578*
X03026Y02578*
X03026Y02578*
X03026Y02578*
X03026Y02578*
X03026Y02579*
X03027Y02579*
X03027Y02579*
X03027Y02579*
X03027Y02579*
X03027Y02579*
X03027Y02579*
Y02579*
X03027Y0258*
X03027Y0258*
X03027Y0258*
X03027Y0258*
X03027Y0258*
X03026Y0258*
X03026Y0258*
X03026Y02581*
X03026Y02581*
X03026Y02581*
X03026Y02581*
X03026Y02581*
X03026Y02581*
X03026Y02581*
X03026Y02581*
X03026Y02581*
X03025Y02581*
X03025Y02581*
X03025Y02581*
X03025Y02581*
X03025Y02581*
X03025Y02581*
G54D12*
X03205Y02334D02*
Y02375D01*
X03226*
X03233Y02368*
Y02355*
X03226Y02348*
X03205*
X03219D02*
X03233Y02334D01*
X03247Y02375D02*
X03274D01*
Y02368*
X03247Y02341*
Y02334*
X02905Y02469D02*
Y0251D01*
X02926*
X02933Y02503*
Y0249*
X02926Y02483*
X02905*
X02919D02*
X02933Y02469D01*
X02974Y0251D02*
X0296Y02503D01*
X02947Y0249*
Y02476*
X02953Y02469*
X02967*
X02974Y02476*
Y02483*
X02967Y0249*
X02947*
X03105Y02334D02*
Y02375D01*
X03126*
X03133Y02368*
Y02355*
X03126Y02348*
X03105*
X03119D02*
X03133Y02334D01*
X03174Y02375D02*
X03147D01*
Y02355*
X0316Y02362*
X03167*
X03174Y02355*
Y02341*
X03167Y02334*
X03154*
X03147Y02341*
X0343Y02719D02*
Y0276D01*
X03451*
X03458Y02753*
Y0274*
X03451Y02733*
X0343*
X03444D02*
X03458Y02719D01*
X03492D02*
Y0276D01*
X03472Y0274*
X03499*
X03315Y02334D02*
Y02375D01*
X03336*
X03343Y02368*
Y02355*
X03336Y02348*
X03315*
X03329D02*
X03343Y02334D01*
X03357Y02368D02*
X03364Y02375D01*
X03377*
X03384Y02368*
Y02362*
X03377Y02355*
X0337*
X03377*
X03384Y02348*
Y02341*
X03377Y02334*
X03364*
X03357Y02341*
X03515Y02634D02*
Y02675D01*
X03536*
X03543Y02668*
Y02655*
X03536Y02648*
X03515*
X03529D02*
X03543Y02634D01*
X03584D02*
X03557D01*
X03584Y02662*
Y02668*
X03577Y02675*
X03563*
X03557Y02668*
X03418Y02906D02*
Y02934D01*
X03411Y0294*
X03397*
X0339Y02934*
Y02906*
X03397Y02899*
X03411*
X03404Y02913D02*
X03418Y02899D01*
X03411D02*
X03418Y02906D01*
X03452Y02899D02*
Y0294D01*
X03432Y0292*
X03459*
X02888Y02951D02*
Y02979D01*
X02881Y02985*
X02867*
X0286Y02979*
Y02951*
X02867Y02944*
X02881*
X02874Y02958D02*
X02888Y02944D01*
X02881D02*
X02888Y02951D01*
X02902Y02979D02*
X02908Y02985D01*
X02922*
X02929Y02979*
Y02972*
X02922Y02965*
X02915*
X02922*
X02929Y02958*
Y02951*
X02922Y02944*
X02908*
X02902Y02951*
X03203Y03016D02*
Y03043D01*
X03196Y0305*
X03182*
X03175Y03043*
Y03016*
X03182Y03009*
X03196*
X03189Y03023D02*
X03203Y03009D01*
X03196D02*
X03203Y03016D01*
X03244Y03009D02*
X03217D01*
X03244Y03037*
Y03043*
X03237Y0305*
X03223*
X03217Y03043*
X03055Y03031D02*
Y03059D01*
X03048Y03065*
X03034*
X03027Y03059*
Y03031*
X03034Y03024*
X03048*
X03041Y03038D02*
X03055Y03024D01*
X03048D02*
X03055Y03031D01*
X03068Y03024D02*
X03082D01*
X03075*
Y03065*
X03068Y03059*
X02929Y026D02*
X0297D01*
Y02628*
X02929Y0267D02*
Y02642D01*
X0297*
Y0267*
X0295Y02642D02*
Y02656D01*
X02929Y02684D02*
X0297D01*
Y02704*
X02963Y02711*
X02936*
X02929Y02704*
Y02684*
X0297Y02725D02*
Y02739D01*
Y02732*
X02929*
X02936Y02725*
M02*