%TF.GenerationSoftware,KiCad,Pcbnew,9.0.3*%
%TF.CreationDate,2025-07-22T22:17:19-05:00*%
%TF.ProjectId,openoshi-lightboard,6f70656e-6f73-4686-992d-6c6967687462,rev?*%
%TF.SameCoordinates,Original*%
%TF.FileFunction,Copper,L1,Top*%
%TF.FilePolarity,Positive*%
%FSLAX46Y46*%
G04 Gerber Fmt 4.6, Leading zero omitted, Abs format (unit mm)*
G04 Created by KiCad (PCBNEW 9.0.3) date 2025-07-22 22:17:19*
%MOMM*%
%LPD*%
G01*
G04 APERTURE LIST*
G04 Aperture macros list*
%AMRoundRect*
0 Rectangle with rounded corners*
0 $1 Rounding radius*
0 $2 $3 $4 $5 $6 $7 $8 $9 X,Y pos of 4 corners*
0 Add a 4 corners polygon primitive as box body*
4,1,4,$2,$3,$4,$5,$6,$7,$8,$9,$2,$3,0*
0 Add four circle primitives for the rounded corners*
1,1,$1+$1,$2,$3*
1,1,$1+$1,$4,$5*
1,1,$1+$1,$6,$7*
1,1,$1+$1,$8,$9*
0 Add four rect primitives between the rounded corners*
20,1,$1+$1,$2,$3,$4,$5,0*
20,1,$1+$1,$4,$5,$6,$7,0*
20,1,$1+$1,$6,$7,$8,$9,0*
20,1,$1+$1,$8,$9,$2,$3,0*%
%AMRotRect*
0 Rectangle, with rotation*
0 The origin of the aperture is its center*
0 $1 length*
0 $2 width*
0 $3 Rotation angle, in degrees counterclockwise*
0 Add horizontal line*
21,1,$1,$2,0,0,$3*%
G04 Aperture macros list end*
%TA.AperFunction,EtchedComponent*%
%ADD10C,0.000000*%
%TD*%
%TA.AperFunction,SMDPad,CuDef*%
%ADD11RoundRect,0.150000X0.150000X-0.512500X0.150000X0.512500X-0.150000X0.512500X-0.150000X-0.512500X0*%
%TD*%
%TA.AperFunction,SMDPad,CuDef*%
%ADD12RoundRect,0.150000X-0.512500X-0.150000X0.512500X-0.150000X0.512500X0.150000X-0.512500X0.150000X0*%
%TD*%
%TA.AperFunction,SMDPad,CuDef*%
%ADD13C,1.000000*%
%TD*%
%TA.AperFunction,SMDPad,CuDef*%
%ADD14RoundRect,0.225000X0.250000X-0.225000X0.250000X0.225000X-0.250000X0.225000X-0.250000X-0.225000X0*%
%TD*%
%TA.AperFunction,SMDPad,CuDef*%
%ADD15RoundRect,0.250000X-0.625000X0.312500X-0.625000X-0.312500X0.625000X-0.312500X0.625000X0.312500X0*%
%TD*%
%TA.AperFunction,SMDPad,CuDef*%
%ADD16RotRect,0.711200X1.092200X135.000000*%
%TD*%
%TA.AperFunction,ComponentPad*%
%ADD17RotRect,0.914400X0.914400X135.000000*%
%TD*%
%TA.AperFunction,SMDPad,CuDef*%
%ADD18RotRect,1.397000X1.092200X135.000000*%
%TD*%
%TA.AperFunction,SMDPad,CuDef*%
%ADD19RoundRect,0.200000X0.200000X0.275000X-0.200000X0.275000X-0.200000X-0.275000X0.200000X-0.275000X0*%
%TD*%
%TA.AperFunction,SMDPad,CuDef*%
%ADD20RoundRect,0.175000X0.175000X0.425000X-0.175000X0.425000X-0.175000X-0.425000X0.175000X-0.425000X0*%
%TD*%
%TA.AperFunction,SMDPad,CuDef*%
%ADD21RoundRect,0.190000X-0.190000X-0.410000X0.190000X-0.410000X0.190000X0.410000X-0.190000X0.410000X0*%
%TD*%
%TA.AperFunction,SMDPad,CuDef*%
%ADD22RoundRect,0.200000X-0.200000X-0.400000X0.200000X-0.400000X0.200000X0.400000X-0.200000X0.400000X0*%
%TD*%
%TA.AperFunction,SMDPad,CuDef*%
%ADD23RoundRect,0.175000X-0.175000X-0.425000X0.175000X-0.425000X0.175000X0.425000X-0.175000X0.425000X0*%
%TD*%
%TA.AperFunction,SMDPad,CuDef*%
%ADD24RoundRect,0.190000X0.190000X0.410000X-0.190000X0.410000X-0.190000X-0.410000X0.190000X-0.410000X0*%
%TD*%
%TA.AperFunction,SMDPad,CuDef*%
%ADD25RoundRect,0.200000X0.200000X0.400000X-0.200000X0.400000X-0.200000X-0.400000X0.200000X-0.400000X0*%
%TD*%
%TA.AperFunction,HeatsinkPad*%
%ADD26O,1.100000X1.700000*%
%TD*%
%TA.AperFunction,SMDPad,CuDef*%
%ADD27RoundRect,0.200000X0.275000X-0.200000X0.275000X0.200000X-0.275000X0.200000X-0.275000X-0.200000X0*%
%TD*%
%TA.AperFunction,SMDPad,CuDef*%
%ADD28RotRect,0.711200X1.092200X225.000000*%
%TD*%
%TA.AperFunction,ComponentPad*%
%ADD29RotRect,0.914400X0.914400X225.000000*%
%TD*%
%TA.AperFunction,SMDPad,CuDef*%
%ADD30RotRect,1.397000X1.092200X225.000000*%
%TD*%
%TA.AperFunction,SMDPad,CuDef*%
%ADD31RoundRect,0.050000X0.075000X-0.150000X0.075000X0.150000X-0.075000X0.150000X-0.075000X-0.150000X0*%
%TD*%
%TA.AperFunction,SMDPad,CuDef*%
%ADD32RoundRect,0.050000X0.300000X-0.150000X0.300000X0.150000X-0.300000X0.150000X-0.300000X-0.150000X0*%
%TD*%
%TA.AperFunction,SMDPad,CuDef*%
%ADD33RoundRect,0.167500X-0.167500X0.382500X-0.167500X-0.382500X0.167500X-0.382500X0.167500X0.382500X0*%
%TD*%
%TA.AperFunction,SMDPad,CuDef*%
%ADD34RoundRect,0.200000X-0.135000X0.350000X-0.135000X-0.350000X0.135000X-0.350000X0.135000X0.350000X0*%
%TD*%
%TA.AperFunction,SMDPad,CuDef*%
%ADD35RoundRect,0.200000X-0.290000X0.350000X-0.290000X-0.350000X0.290000X-0.350000X0.290000X0.350000X0*%
%TD*%
%TA.AperFunction,SMDPad,CuDef*%
%ADD36RoundRect,0.275000X-1.845000X0.275000X-1.845000X-0.275000X1.845000X-0.275000X1.845000X0.275000X0*%
%TD*%
%TA.AperFunction,SMDPad,CuDef*%
%ADD37RoundRect,0.250000X-1.075000X0.375000X-1.075000X-0.375000X1.075000X-0.375000X1.075000X0.375000X0*%
%TD*%
%TA.AperFunction,SMDPad,CuDef*%
%ADD38RoundRect,0.225000X-0.250000X0.225000X-0.250000X-0.225000X0.250000X-0.225000X0.250000X0.225000X0*%
%TD*%
%TA.AperFunction,SMDPad,CuDef*%
%ADD39RoundRect,0.050000X-0.050000X0.375000X-0.050000X-0.375000X0.050000X-0.375000X0.050000X0.375000X0*%
%TD*%
%TA.AperFunction,SMDPad,CuDef*%
%ADD40RoundRect,0.050000X-0.375000X0.050000X-0.375000X-0.050000X0.375000X-0.050000X0.375000X0.050000X0*%
%TD*%
%TA.AperFunction,HeatsinkPad*%
%ADD41R,1.650000X1.650000*%
%TD*%
%TA.AperFunction,ViaPad*%
%ADD42C,0.600000*%
%TD*%
%TA.AperFunction,ViaPad*%
%ADD43C,0.450000*%
%TD*%
%TA.AperFunction,Conductor*%
%ADD44C,0.150000*%
%TD*%
%TA.AperFunction,Conductor*%
%ADD45C,0.300000*%
%TD*%
%TA.AperFunction,Conductor*%
%ADD46C,0.200000*%
%TD*%
%TA.AperFunction,Conductor*%
%ADD47C,0.500000*%
%TD*%
%TA.AperFunction,Conductor*%
%ADD48C,0.600000*%
%TD*%
G04 APERTURE END LIST*
D10*
%TA.AperFunction,EtchedComponent*%
%TO.C,SW2*%
G36*
X139331445Y-109075169D02*
G01*
X138864472Y-109542142D01*
X138056249Y-108733919D01*
X138523222Y-108266946D01*
X139331445Y-109075169D01*
G37*
%TD.AperFunction*%
%TA.AperFunction,EtchedComponent*%
G36*
X141783055Y-111526779D02*
G01*
X141316082Y-111993752D01*
X140507859Y-111185529D01*
X140974832Y-110718556D01*
X141783055Y-111526779D01*
G37*
%TD.AperFunction*%
%TA.AperFunction,EtchedComponent*%
%TO.C,SW1*%
G36*
X159542142Y-111135529D02*
G01*
X158733919Y-111943752D01*
X158266946Y-111476779D01*
X159075169Y-110668556D01*
X159542142Y-111135529D01*
G37*
%TD.AperFunction*%
%TA.AperFunction,EtchedComponent*%
G36*
X161993752Y-108683919D02*
G01*
X161185529Y-109492142D01*
X160718556Y-109025169D01*
X161526779Y-108216946D01*
X161993752Y-108683919D01*
G37*
%TD.AperFunction*%
%TD*%
D11*
%TO.P,U2,1,SW*%
%TO.N,Net-(U2-SW)*%
X142300000Y-101337500D03*
%TO.P,U2,2,GND*%
%TO.N,GND*%
X143250000Y-101337500D03*
%TO.P,U2,3,EN*%
%TO.N,/VREG_EN*%
X144200000Y-101337500D03*
%TO.P,U2,4,V_{FB}*%
%TO.N,Net-(U2-V_{FB})*%
X144200000Y-99062500D03*
%TO.P,U2,5,V_{OUT}*%
%TO.N,+5V*%
X143250000Y-99062500D03*
%TO.P,U2,6,V_{IN}*%
%TO.N,+BATT*%
X142300000Y-99062500D03*
%TD*%
D12*
%TO.P,U3,1,STAT*%
%TO.N,/CHG_STAT*%
X140912500Y-92537500D03*
%TO.P,U3,2,V_{SS}*%
%TO.N,GND*%
X140912500Y-93487500D03*
%TO.P,U3,3,V_{BAT}*%
%TO.N,+BATT*%
X140912500Y-94437500D03*
%TO.P,U3,4,V_{DD}*%
%TO.N,VBUS*%
X143187500Y-94437500D03*
%TO.P,U3,5,PROG*%
%TO.N,Net-(U3-PROG)*%
X143187500Y-92537500D03*
%TD*%
D13*
%TO.P,TP2,1,1*%
%TO.N,GND*%
X158050000Y-91300000D03*
%TD*%
D14*
%TO.P,C3,1*%
%TO.N,GND*%
X154300000Y-99925000D03*
%TO.P,C3,2*%
%TO.N,+BATT*%
X154300000Y-98375000D03*
%TD*%
D15*
%TO.P,R5,1*%
%TO.N,/K_BLUE*%
X153200000Y-103837500D03*
%TO.P,R5,2*%
%TO.N,Net-(Q1-D)*%
X153200000Y-106762500D03*
%TD*%
D16*
%TO.P,SW2,1,1*%
%TO.N,/SW2_DET*%
X142306155Y-109723993D03*
%TO.P,SW2,2,2*%
%TO.N,GND*%
X140326008Y-107743846D03*
D17*
%TO.P,SW2,3*%
%TO.N,N/C*%
X141666312Y-110996944D03*
%TO.P,SW2,4*%
X139053057Y-108383689D03*
D18*
%TO.P,SW2,5*%
X141423845Y-108626156D03*
%TD*%
D14*
%TO.P,C1,1*%
%TO.N,+BATT*%
X140650000Y-98775000D03*
%TO.P,C1,2*%
%TO.N,GND*%
X140650000Y-97225000D03*
%TD*%
D19*
%TO.P,R10,1*%
%TO.N,Net-(U3-PROG)*%
X143225000Y-90987500D03*
%TO.P,R10,2*%
%TO.N,GND*%
X141575000Y-90987500D03*
%TD*%
D13*
%TO.P,TP1,1,1*%
%TO.N,/SWIO*%
X159850000Y-93100000D03*
%TD*%
D20*
%TO.P,J1,A5,CC1*%
%TO.N,Net-(J1-CC1)*%
X150500000Y-90980000D03*
D21*
%TO.P,J1,A9,VBUS*%
%TO.N,VBUS*%
X148480000Y-90980000D03*
D22*
%TO.P,J1,A12,GND*%
%TO.N,GND*%
X147250000Y-90980000D03*
D23*
%TO.P,J1,B5,CC2*%
%TO.N,Net-(J1-CC2)*%
X149500000Y-90980000D03*
D24*
%TO.P,J1,B9,VBUS*%
%TO.N,VBUS*%
X151520000Y-90980000D03*
D25*
%TO.P,J1,B12,GND*%
%TO.N,GND*%
X152750000Y-90980000D03*
D26*
%TO.P,J1,S1,SHIELD*%
X154320000Y-90900000D03*
X154320000Y-87100000D03*
X145680000Y-90900000D03*
X145680000Y-87100000D03*
%TD*%
D27*
%TO.P,R3,1*%
%TO.N,GND*%
X150750000Y-94625000D03*
%TO.P,R3,2*%
%TO.N,Net-(J1-CC1)*%
X150750000Y-92975000D03*
%TD*%
D28*
%TO.P,SW1,1,1*%
%TO.N,/SW1_DET*%
X159723993Y-107693846D03*
%TO.P,SW1,2,2*%
%TO.N,GND*%
X157743846Y-109673993D03*
D29*
%TO.P,SW1,3*%
%TO.N,N/C*%
X160996944Y-108333689D03*
%TO.P,SW1,4*%
X158383689Y-110946944D03*
D30*
%TO.P,SW1,5*%
X158626156Y-108576156D03*
%TD*%
D31*
%TO.P,Q4,1,G*%
%TO.N,/G_WHITE*%
X145725000Y-108750000D03*
%TO.P,Q4,2,S*%
%TO.N,GND*%
X146175000Y-108750000D03*
D32*
%TO.P,Q4,3,D*%
%TO.N,Net-(Q4-D)*%
X145950000Y-108050000D03*
%TD*%
D15*
%TO.P,R6,1*%
%TO.N,/K_RED*%
X150800000Y-103837500D03*
%TO.P,R6,2*%
%TO.N,Net-(Q2-D)*%
X150800000Y-106762500D03*
%TD*%
D33*
%TO.P,D1,1,AB*%
%TO.N,+5V*%
X151905000Y-98400000D03*
D34*
%TO.P,D1,2,KB*%
%TO.N,/K_BLUE*%
X151905000Y-101600000D03*
D33*
%TO.P,D1,3,AR*%
%TO.N,+5V*%
X150735000Y-98400000D03*
D34*
%TO.P,D1,4,KR*%
%TO.N,/K_RED*%
X150735000Y-101600000D03*
%TO.P,D1,5,AG*%
%TO.N,+5V*%
X149565000Y-98400000D03*
%TO.P,D1,6,KG*%
%TO.N,/K_GREEN*%
X149565000Y-101600000D03*
D35*
%TO.P,D1,7,AW*%
%TO.N,+5V*%
X148240000Y-98400000D03*
%TO.P,D1,8,KW*%
%TO.N,/K_WHITE*%
X148240000Y-101600000D03*
D36*
%TO.P,D1,9,AR*%
%TO.N,+5V*%
X149995000Y-100000000D03*
%TD*%
D31*
%TO.P,Q2,1,G*%
%TO.N,/G_RED*%
X150575000Y-108750000D03*
%TO.P,Q2,2,S*%
%TO.N,GND*%
X151025000Y-108750000D03*
D32*
%TO.P,Q2,3,D*%
%TO.N,Net-(Q2-D)*%
X150800000Y-108050000D03*
%TD*%
D37*
%TO.P,L1,1,1*%
%TO.N,+BATT*%
X139800000Y-100500000D03*
%TO.P,L1,2,2*%
%TO.N,Net-(U2-SW)*%
X139800000Y-103300000D03*
%TD*%
D38*
%TO.P,C2,1*%
%TO.N,+5V*%
X145900000Y-100275000D03*
%TO.P,C2,2*%
%TO.N,GND*%
X145900000Y-101825000D03*
%TD*%
D27*
%TO.P,R1,1*%
%TO.N,+5V*%
X145900000Y-98775000D03*
%TO.P,R1,2*%
%TO.N,Net-(U2-V_{FB})*%
X145900000Y-97125000D03*
%TD*%
%TO.P,R9,1*%
%TO.N,Net-(U1-PD1)*%
X159850000Y-96675000D03*
%TO.P,R9,2*%
%TO.N,/SWIO*%
X159850000Y-95025000D03*
%TD*%
D15*
%TO.P,R7,1*%
%TO.N,/K_GREEN*%
X148400000Y-103837500D03*
%TO.P,R7,2*%
%TO.N,Net-(Q3-D)*%
X148400000Y-106762500D03*
%TD*%
D27*
%TO.P,R4,1*%
%TO.N,GND*%
X149200000Y-94625000D03*
%TO.P,R4,2*%
%TO.N,Net-(J1-CC2)*%
X149200000Y-92975000D03*
%TD*%
D31*
%TO.P,Q3,1,G*%
%TO.N,/G_GREEN*%
X148175000Y-108750000D03*
%TO.P,Q3,2,S*%
%TO.N,GND*%
X148625000Y-108750000D03*
D32*
%TO.P,Q3,3,D*%
%TO.N,Net-(Q3-D)*%
X148400000Y-108050000D03*
%TD*%
D15*
%TO.P,R8,1*%
%TO.N,/K_WHITE*%
X145950000Y-103837500D03*
%TO.P,R8,2*%
%TO.N,Net-(Q4-D)*%
X145950000Y-106762500D03*
%TD*%
D19*
%TO.P,R2,1*%
%TO.N,Net-(U2-V_{FB})*%
X144225000Y-97200000D03*
%TO.P,R2,2*%
%TO.N,GND*%
X142575000Y-97200000D03*
%TD*%
D31*
%TO.P,Q1,1,G*%
%TO.N,/G_BLUE*%
X152975000Y-108750000D03*
%TO.P,Q1,2,S*%
%TO.N,GND*%
X153425000Y-108750000D03*
D32*
%TO.P,Q1,3,D*%
%TO.N,Net-(Q1-D)*%
X153200000Y-108050000D03*
%TD*%
D39*
%TO.P,U1,1,PD7*%
%TO.N,/MCU_nRST*%
X158050000Y-97700000D03*
%TO.P,U1,2,PA1*%
%TO.N,/CHG_STAT*%
X157650000Y-97700000D03*
%TO.P,U1,3,PA2*%
%TO.N,+BATT*%
X157250000Y-97700000D03*
%TO.P,U1,4,VSS*%
%TO.N,GND*%
X156850000Y-97700000D03*
%TO.P,U1,5,PD0*%
%TO.N,unconnected-(U1-PD0-Pad5)*%
X156450000Y-97700000D03*
D40*
%TO.P,U1,6,VDD*%
%TO.N,+BATT*%
X155800000Y-98350000D03*
%TO.P,U1,7,PC0*%
%TO.N,unconnected-(U1-PC0-Pad7)*%
X155800000Y-98750000D03*
%TO.P,U1,8,PC1*%
%TO.N,unconnected-(U1-PC1-Pad8)*%
X155800000Y-99150000D03*
%TO.P,U1,9,PC2*%
%TO.N,unconnected-(U1-PC2-Pad9)*%
X155800000Y-99550000D03*
%TO.P,U1,10,PC3*%
%TO.N,/VREG_EN*%
X155800000Y-99950000D03*
D39*
%TO.P,U1,11,PC4*%
%TO.N,/G_BLUE*%
X156450000Y-100600000D03*
%TO.P,U1,12,PC5*%
%TO.N,/G_RED*%
X156850000Y-100600000D03*
%TO.P,U1,13,PC6*%
%TO.N,unconnected-(U1-PC6-Pad13)*%
X157250000Y-100600000D03*
%TO.P,U1,14,PC7*%
%TO.N,/G_GREEN*%
X157650000Y-100600000D03*
%TO.P,U1,15,PD1*%
%TO.N,Net-(U1-PD1)*%
X158050000Y-100600000D03*
D40*
%TO.P,U1,16,PD2*%
%TO.N,unconnected-(U1-PD2-Pad16)*%
X158700000Y-99950000D03*
%TO.P,U1,17,PD3*%
%TO.N,unconnected-(U1-PD3-Pad17)*%
X158700000Y-99550000D03*
%TO.P,U1,18,PD4*%
%TO.N,/G_WHITE*%
X158700000Y-99150000D03*
%TO.P,U1,19,PD5*%
%TO.N,/SW2_DET*%
X158700000Y-98750000D03*
%TO.P,U1,20,PD6*%
%TO.N,/SW1_DET*%
X158700000Y-98350000D03*
D41*
%TO.P,U1,21,VSS*%
%TO.N,GND*%
X157250000Y-99150000D03*
%TD*%
D42*
%TO.N,GND*%
X139650000Y-93487500D03*
X149150000Y-108750000D03*
X150200000Y-112950000D03*
X139500000Y-106900000D03*
X157100000Y-91350000D03*
X153950000Y-108750000D03*
X146700000Y-108750000D03*
X139650000Y-97250000D03*
X154300000Y-100900000D03*
X151700000Y-94600000D03*
X159050000Y-91300000D03*
X163150000Y-100050000D03*
X158600000Y-103400000D03*
X157050000Y-110400000D03*
X143250000Y-102450000D03*
X148750000Y-87650000D03*
X141600000Y-89837500D03*
X145200000Y-102500000D03*
X136400000Y-100050000D03*
X151450000Y-87650000D03*
X151900000Y-96750000D03*
X151550000Y-108750000D03*
X156675001Y-96788172D03*
%TO.N,+BATT*%
X139500000Y-99250000D03*
X139500000Y-98550000D03*
X138750000Y-98550000D03*
X139700000Y-94437500D03*
X138750000Y-99250000D03*
X153325000Y-98325000D03*
D43*
%TO.N,Net-(U1-PD1)*%
X158700000Y-100600000D03*
X159850000Y-97550000D03*
%TD*%
D44*
%TO.N,GND*%
X156850000Y-97700000D02*
X156850000Y-98750000D01*
D45*
X139650000Y-93487500D02*
X140912500Y-93487500D01*
D44*
X156850000Y-96963171D02*
X156675001Y-96788172D01*
X156850000Y-97700000D02*
X156850000Y-96963171D01*
X156850000Y-98750000D02*
X157250000Y-99150000D01*
D46*
X148625000Y-108750000D02*
X149150000Y-108750000D01*
D45*
X145875000Y-101825000D02*
X145900000Y-101825000D01*
X145200000Y-102500000D02*
X145875000Y-101825000D01*
X154275000Y-99900000D02*
X154300000Y-99925000D01*
D46*
X151025000Y-108750000D02*
X151550000Y-108750000D01*
X146175000Y-108750000D02*
X146700000Y-108750000D01*
X153425000Y-108750000D02*
X153950000Y-108750000D01*
D47*
%TO.N,+5V*%
X145900000Y-100275000D02*
X149720000Y-100275000D01*
X149565000Y-98400000D02*
X150735000Y-98400000D01*
X143250000Y-99724999D02*
X143701001Y-100176000D01*
X143701001Y-100176000D02*
X145713500Y-100176000D01*
X149720000Y-100275000D02*
X149995000Y-100000000D01*
X149995000Y-100000000D02*
X149565000Y-99570000D01*
X149565000Y-99570000D02*
X149565000Y-98400000D01*
X143250000Y-99062500D02*
X143250000Y-99724999D01*
X150735000Y-98400000D02*
X151905000Y-98400000D01*
X145713500Y-100176000D02*
X145900000Y-100362500D01*
X148240000Y-98400000D02*
X149565000Y-98400000D01*
D44*
X145900000Y-98775000D02*
X145900000Y-100275000D01*
D48*
%TO.N,Net-(U2-SW)*%
X142300000Y-101550000D02*
X142300000Y-101337500D01*
X140550000Y-103300000D02*
X142300000Y-101550000D01*
X139800000Y-103300000D02*
X140550000Y-103300000D01*
D44*
%TO.N,Net-(U2-V_{FB})*%
X144200000Y-97225000D02*
X144225000Y-97200000D01*
X145825000Y-97200000D02*
X145900000Y-97125000D01*
X144225000Y-97200000D02*
X145825000Y-97200000D01*
X144200000Y-99062500D02*
X144200000Y-97225000D01*
%TO.N,/VREG_EN*%
X144600000Y-105300000D02*
X154450000Y-105300000D01*
X144200000Y-101337500D02*
X144200000Y-104900000D01*
X155800000Y-103950000D02*
X155800000Y-99950000D01*
X144200000Y-104900000D02*
X144600000Y-105300000D01*
X154450000Y-105300000D02*
X155800000Y-103950000D01*
%TO.N,Net-(J1-CC1)*%
X150750000Y-92975000D02*
X150500000Y-92725000D01*
X150500000Y-92725000D02*
X150500000Y-90980000D01*
%TO.N,Net-(J1-CC2)*%
X149500000Y-92675000D02*
X149500000Y-90980000D01*
X149200000Y-92975000D02*
X149500000Y-92675000D01*
D47*
%TO.N,VBUS*%
X151520000Y-90380000D02*
X151520000Y-90980000D01*
X148931000Y-89929000D02*
X151069000Y-89929000D01*
X151069000Y-89929000D02*
X151520000Y-90380000D01*
X148480000Y-90980000D02*
X148480000Y-91580000D01*
D45*
X143187500Y-94437500D02*
X143500000Y-94437500D01*
D47*
X148480000Y-90380000D02*
X148931000Y-89929000D01*
X151520000Y-90980000D02*
X151520000Y-91276196D01*
X143600000Y-94437500D02*
X143500000Y-94437500D01*
X145622500Y-94437500D02*
X143187500Y-94437500D01*
X148480000Y-91580000D02*
X145622500Y-94437500D01*
X148480000Y-90980000D02*
X148480000Y-90380000D01*
D44*
%TO.N,/G_RED*%
X154350000Y-109700000D02*
X156850000Y-107200000D01*
X150575000Y-109175000D02*
X151100000Y-109700000D01*
X151100000Y-109700000D02*
X154350000Y-109700000D01*
X150575000Y-108750000D02*
X150575000Y-109175000D01*
X156850000Y-107200000D02*
X156850000Y-100600000D01*
%TO.N,+BATT*%
X156250000Y-96200000D02*
X155800000Y-96650000D01*
D47*
X140650000Y-98775000D02*
X142012500Y-98775000D01*
D44*
X157250000Y-96446353D02*
X157003647Y-96200000D01*
X155800000Y-96650000D02*
X155800000Y-98350000D01*
X155800000Y-98350000D02*
X154325000Y-98350000D01*
D47*
X140650000Y-98775000D02*
X140650000Y-100300000D01*
D44*
X157250000Y-97700000D02*
X157250000Y-96446353D01*
X154325000Y-98350000D02*
X154300000Y-98325000D01*
D45*
X153325000Y-98325000D02*
X154300000Y-98325000D01*
X139700000Y-94437500D02*
X140912500Y-94437500D01*
D47*
X142012500Y-98775000D02*
X142300000Y-99062500D01*
D44*
X157003647Y-96200000D02*
X156250000Y-96200000D01*
%TO.N,/G_GREEN*%
X157650000Y-106900000D02*
X157650000Y-100600000D01*
X154500000Y-110050000D02*
X157650000Y-106900000D01*
X148175000Y-108750000D02*
X148175000Y-109175000D01*
X149050000Y-110050000D02*
X154500000Y-110050000D01*
X148175000Y-109175000D02*
X149050000Y-110050000D01*
%TO.N,/G_BLUE*%
X152975000Y-109175000D02*
X153149000Y-109349000D01*
X154201000Y-109349000D02*
X156450000Y-107100000D01*
X153149000Y-109349000D02*
X154201000Y-109349000D01*
X156450000Y-107100000D02*
X156450000Y-100600000D01*
X152975000Y-108750000D02*
X152975000Y-109175000D01*
%TO.N,/G_WHITE*%
X145725000Y-109175000D02*
X146950000Y-110400000D01*
X154650000Y-110400000D02*
X159600000Y-105450000D01*
X159350000Y-99150000D02*
X158700000Y-99150000D01*
X145725000Y-108750000D02*
X145725000Y-109175000D01*
X159600000Y-99400000D02*
X159350000Y-99150000D01*
X159600000Y-105450000D02*
X159600000Y-99400000D01*
X146950000Y-110400000D02*
X154650000Y-110400000D01*
D47*
%TO.N,/K_RED*%
X150735000Y-103772500D02*
X150800000Y-103837500D01*
X150735000Y-101600000D02*
X150735000Y-103772500D01*
%TO.N,/K_GREEN*%
X149565000Y-102672500D02*
X148400000Y-103837500D01*
X149565000Y-101600000D02*
X149565000Y-102672500D01*
%TO.N,/K_BLUE*%
X151905000Y-101600000D02*
X151905000Y-102542500D01*
X151905000Y-102542500D02*
X153200000Y-103837500D01*
%TO.N,/K_WHITE*%
X148187500Y-101600000D02*
X145950000Y-103837500D01*
X148240000Y-101600000D02*
X148187500Y-101600000D01*
D45*
%TO.N,Net-(Q1-D)*%
X153200000Y-108050000D02*
X153200000Y-106762500D01*
%TO.N,Net-(Q2-D)*%
X150800000Y-108050000D02*
X150800000Y-106762500D01*
%TO.N,Net-(Q3-D)*%
X148400000Y-106762500D02*
X148400000Y-108050000D01*
%TO.N,Net-(Q4-D)*%
X145950000Y-108050000D02*
X145950000Y-106762500D01*
D44*
%TO.N,Net-(U1-PD1)*%
X159850000Y-97550000D02*
X159850000Y-96675000D01*
X158050000Y-100600000D02*
X158700000Y-100600000D01*
%TO.N,Net-(U3-PROG)*%
X143187500Y-91025000D02*
X143225000Y-90987500D01*
X143187500Y-92537500D02*
X143187500Y-91025000D01*
%TO.N,/SW1_DET*%
X159723993Y-107693846D02*
X161150000Y-106267839D01*
X161150000Y-106267839D02*
X161150000Y-98700000D01*
X161150000Y-98700000D02*
X160800000Y-98350000D01*
X160800000Y-98350000D02*
X158700000Y-98350000D01*
%TO.N,/SW2_DET*%
X143633162Y-111051000D02*
X154799000Y-111051000D01*
X160550000Y-105300000D02*
X160550000Y-99000000D01*
X142306155Y-109723993D02*
X143633162Y-111051000D01*
X160300000Y-98750000D02*
X158700000Y-98750000D01*
X160550000Y-99000000D02*
X160300000Y-98750000D01*
X154799000Y-111051000D02*
X160550000Y-105300000D01*
%TO.N,/CHG_STAT*%
X138350000Y-93250000D02*
X138350000Y-95150000D01*
X138850000Y-95650000D02*
X157350000Y-95650000D01*
X157650000Y-95950000D02*
X157650000Y-97700000D01*
X140912500Y-92537500D02*
X139062500Y-92537500D01*
X157350000Y-95650000D02*
X157650000Y-95950000D01*
X138350000Y-95150000D02*
X138850000Y-95650000D01*
X140550000Y-92537500D02*
X140912500Y-92537500D01*
X139062500Y-92537500D02*
X138350000Y-93250000D01*
%TO.N,/SWIO*%
X159850000Y-95025000D02*
X159850000Y-93100000D01*
%TD*%
%TA.AperFunction,Conductor*%
%TO.N,+BATT*%
G36*
X141143039Y-98269685D02*
G01*
X141188794Y-98322489D01*
X141200000Y-98374000D01*
X141200000Y-101126000D01*
X141180315Y-101193039D01*
X141127511Y-101238794D01*
X141076000Y-101250000D01*
X138474000Y-101250000D01*
X138406961Y-101230315D01*
X138361206Y-101177511D01*
X138350000Y-101126000D01*
X138350000Y-98374000D01*
X138369685Y-98306961D01*
X138422489Y-98261206D01*
X138474000Y-98250000D01*
X141076000Y-98250000D01*
X141143039Y-98269685D01*
G37*
%TD.AperFunction*%
%TD*%
%TA.AperFunction,Conductor*%
%TO.N,GND*%
G36*
X157610401Y-109556395D02*
G01*
X157654749Y-109584896D01*
X157832941Y-109763088D01*
X157866426Y-109824411D01*
X157861442Y-109894103D01*
X157832941Y-109938450D01*
X157315622Y-110455769D01*
X157315622Y-110455770D01*
X157331901Y-110472049D01*
X157365386Y-110533372D01*
X157360402Y-110603064D01*
X157340773Y-110637534D01*
X157311735Y-110673568D01*
X157311732Y-110673574D01*
X157251945Y-110804487D01*
X157231464Y-110946944D01*
X157251945Y-111089400D01*
X157311733Y-111220316D01*
X157311736Y-111220321D01*
X157349349Y-111266997D01*
X157349356Y-111267005D01*
X157882178Y-111799824D01*
X157893764Y-111813195D01*
X157909504Y-111834221D01*
X157909508Y-111834225D01*
X157909513Y-111834231D01*
X158207095Y-112131812D01*
X158240580Y-112193135D01*
X158235596Y-112262826D01*
X158193725Y-112318760D01*
X158188305Y-112322595D01*
X157920226Y-112501720D01*
X157915084Y-112504976D01*
X157297255Y-112875288D01*
X157291959Y-112878288D01*
X156656719Y-113217831D01*
X156651283Y-113220568D01*
X156000114Y-113528548D01*
X155994550Y-113531014D01*
X155329068Y-113806666D01*
X155323389Y-113808856D01*
X154645215Y-114051510D01*
X154639436Y-114053420D01*
X153950126Y-114262520D01*
X153944261Y-114264143D01*
X153245529Y-114439167D01*
X153239590Y-114440500D01*
X152533147Y-114581019D01*
X152527151Y-114582060D01*
X151814626Y-114687754D01*
X151808585Y-114688499D01*
X151091753Y-114759101D01*
X151085683Y-114759549D01*
X150366231Y-114794894D01*
X150360147Y-114795043D01*
X149639853Y-114795043D01*
X149633769Y-114794894D01*
X148914316Y-114759549D01*
X148908246Y-114759101D01*
X148191414Y-114688499D01*
X148185373Y-114687754D01*
X147472848Y-114582060D01*
X147466852Y-114581019D01*
X146760409Y-114440500D01*
X146754470Y-114439167D01*
X146055738Y-114264143D01*
X146049873Y-114262520D01*
X145360563Y-114053420D01*
X145354784Y-114051510D01*
X144676610Y-113808856D01*
X144670931Y-113806666D01*
X144005449Y-113531014D01*
X143999885Y-113528548D01*
X143348716Y-113220568D01*
X143343280Y-113217831D01*
X142708040Y-112878288D01*
X142702744Y-112875288D01*
X142084916Y-112504976D01*
X142079774Y-112501720D01*
X141871640Y-112362649D01*
X141826835Y-112309037D01*
X141818128Y-112239712D01*
X141848282Y-112176684D01*
X141852808Y-112171908D01*
X142140497Y-111884221D01*
X142183513Y-111834578D01*
X142189516Y-111828131D01*
X142700647Y-111317000D01*
X142738267Y-111270317D01*
X142743732Y-111258349D01*
X142758234Y-111226597D01*
X142803988Y-111173793D01*
X142871028Y-111154108D01*
X142938067Y-111173792D01*
X142958709Y-111190427D01*
X143172647Y-111404365D01*
X143279797Y-111511515D01*
X143351187Y-111552732D01*
X143351188Y-111552732D01*
X143351188Y-111552733D01*
X143411021Y-111587278D01*
X143411022Y-111587278D01*
X143411027Y-111587281D01*
X143557395Y-111626500D01*
X143557396Y-111626500D01*
X143557397Y-111626500D01*
X154874764Y-111626500D01*
X154874766Y-111626500D01*
X155021135Y-111587281D01*
X155152365Y-111511515D01*
X156674186Y-109989691D01*
X156735506Y-109956209D01*
X156805197Y-109961193D01*
X156849545Y-109989694D01*
X156962067Y-110102216D01*
X156962068Y-110102216D01*
X157479387Y-109584896D01*
X157540710Y-109551411D01*
X157610401Y-109556395D01*
G37*
%TD.AperFunction*%
%TA.AperFunction,Conductor*%
G36*
X150366230Y-85205105D02*
G01*
X151085717Y-85240452D01*
X151091719Y-85240895D01*
X151808600Y-85311501D01*
X151814612Y-85312243D01*
X152527156Y-85417939D01*
X152533141Y-85418979D01*
X153239608Y-85559503D01*
X153245512Y-85560828D01*
X153729924Y-85682167D01*
X153790169Y-85717550D01*
X153821722Y-85779889D01*
X153814564Y-85849391D01*
X153770966Y-85903990D01*
X153768683Y-85905552D01*
X153650664Y-85984410D01*
X153650660Y-85984413D01*
X153504413Y-86130660D01*
X153504410Y-86130664D01*
X153389505Y-86302631D01*
X153389500Y-86302641D01*
X153310350Y-86493725D01*
X153310348Y-86493733D01*
X153270000Y-86696579D01*
X153270000Y-86850000D01*
X154020000Y-86850000D01*
X154020000Y-87350000D01*
X153270000Y-87350000D01*
X153270000Y-87503420D01*
X153310348Y-87706266D01*
X153310350Y-87706274D01*
X153389500Y-87897358D01*
X153389505Y-87897368D01*
X153504410Y-88069335D01*
X153504413Y-88069339D01*
X153650660Y-88215586D01*
X153650664Y-88215589D01*
X153822631Y-88330494D01*
X153822641Y-88330499D01*
X154013723Y-88409648D01*
X154013725Y-88409649D01*
X154070000Y-88420842D01*
X154070000Y-87566988D01*
X154079940Y-87584205D01*
X154135795Y-87640060D01*
X154204204Y-87679556D01*
X154280504Y-87700000D01*
X154359496Y-87700000D01*
X154435796Y-87679556D01*
X154504205Y-87640060D01*
X154560060Y-87584205D01*
X154570000Y-87566988D01*
X154570000Y-88420842D01*
X154626274Y-88409649D01*
X154626276Y-88409648D01*
X154817358Y-88330499D01*
X154817368Y-88330494D01*
X154989335Y-88215589D01*
X154989339Y-88215586D01*
X155135586Y-88069339D01*
X155135589Y-88069335D01*
X155250494Y-87897368D01*
X155250499Y-87897358D01*
X155329649Y-87706274D01*
X155329651Y-87706266D01*
X155369999Y-87503420D01*
X155370000Y-87503417D01*
X155370000Y-87350000D01*
X154620000Y-87350000D01*
X154620000Y-86850000D01*
X155370000Y-86850000D01*
X155370000Y-86696583D01*
X155369999Y-86696579D01*
X155329651Y-86493733D01*
X155329650Y-86493729D01*
X155294134Y-86407986D01*
X155286665Y-86338516D01*
X155317940Y-86276037D01*
X155378028Y-86240384D01*
X155447853Y-86242877D01*
X155456134Y-86245965D01*
X155994561Y-86468990D01*
X156000104Y-86471446D01*
X156611265Y-86760504D01*
X156651283Y-86779431D01*
X156656719Y-86782168D01*
X157291959Y-87121711D01*
X157297249Y-87124707D01*
X157915108Y-87495038D01*
X157920202Y-87498264D01*
X158519135Y-87898458D01*
X158524111Y-87901962D01*
X159102682Y-88331059D01*
X159107480Y-88334804D01*
X159664279Y-88791758D01*
X159668887Y-88795733D01*
X160202602Y-89279463D01*
X160207010Y-89283660D01*
X160716339Y-89792989D01*
X160720536Y-89797397D01*
X161204266Y-90331112D01*
X161208241Y-90335720D01*
X161665195Y-90892519D01*
X161668940Y-90897317D01*
X162098037Y-91475888D01*
X162101541Y-91480864D01*
X162149144Y-91552107D01*
X162499700Y-92076751D01*
X162501720Y-92079773D01*
X162504968Y-92084902D01*
X162657757Y-92339815D01*
X162875288Y-92702744D01*
X162878288Y-92708040D01*
X163217831Y-93343280D01*
X163220568Y-93348716D01*
X163528548Y-93999885D01*
X163531014Y-94005449D01*
X163806666Y-94670931D01*
X163808856Y-94676610D01*
X164051510Y-95354784D01*
X164053420Y-95360563D01*
X164262520Y-96049873D01*
X164264143Y-96055738D01*
X164439167Y-96754470D01*
X164440500Y-96760409D01*
X164581019Y-97466852D01*
X164582060Y-97472848D01*
X164687754Y-98185373D01*
X164688499Y-98191414D01*
X164759101Y-98908246D01*
X164759549Y-98914316D01*
X164794894Y-99633769D01*
X164795043Y-99639853D01*
X164795043Y-100360146D01*
X164794894Y-100366230D01*
X164759549Y-101085683D01*
X164759101Y-101091753D01*
X164688499Y-101808585D01*
X164687754Y-101814626D01*
X164582060Y-102527151D01*
X164581019Y-102533147D01*
X164440500Y-103239590D01*
X164439167Y-103245529D01*
X164264143Y-103944261D01*
X164262520Y-103950126D01*
X164053420Y-104639436D01*
X164051510Y-104645215D01*
X163808856Y-105323389D01*
X163806666Y-105329068D01*
X163531014Y-105994550D01*
X163528548Y-106000114D01*
X163220568Y-106651283D01*
X163217831Y-106656719D01*
X162878288Y-107291959D01*
X162875288Y-107297255D01*
X162504976Y-107915083D01*
X162501720Y-107920225D01*
X162362649Y-108128359D01*
X162309037Y-108173164D01*
X162239712Y-108181871D01*
X162176684Y-108151717D01*
X162171866Y-108147149D01*
X161884237Y-107859520D01*
X161884221Y-107859504D01*
X161846616Y-107826918D01*
X161834594Y-107816500D01*
X161828118Y-107810470D01*
X161317007Y-107299361D01*
X161317000Y-107299354D01*
X161270317Y-107261734D01*
X161270315Y-107261733D01*
X161270313Y-107261731D01*
X161226595Y-107241766D01*
X161173791Y-107196011D01*
X161154107Y-107128971D01*
X161173792Y-107061932D01*
X161190416Y-107041301D01*
X161610514Y-106621205D01*
X161610516Y-106621201D01*
X161610518Y-106621199D01*
X161638486Y-106572758D01*
X161644889Y-106561667D01*
X161686281Y-106489974D01*
X161725500Y-106343605D01*
X161725500Y-98624234D01*
X161686281Y-98477865D01*
X161610515Y-98346635D01*
X161503365Y-98239485D01*
X161153365Y-97889485D01*
X161075333Y-97844433D01*
X161022136Y-97813719D01*
X160948950Y-97794109D01*
X160875766Y-97774500D01*
X160875765Y-97774500D01*
X160696152Y-97774500D01*
X160629113Y-97754815D01*
X160583358Y-97702011D01*
X160572167Y-97648597D01*
X160572339Y-97637342D01*
X160575500Y-97621455D01*
X160575500Y-97478545D01*
X160574829Y-97475172D01*
X160574983Y-97465148D01*
X160583333Y-97438243D01*
X160588584Y-97410558D01*
X160594410Y-97402553D01*
X160595694Y-97398418D01*
X160600138Y-97394684D01*
X160611287Y-97379369D01*
X160680472Y-97310185D01*
X160768478Y-97164606D01*
X160819086Y-97002196D01*
X160825500Y-96931616D01*
X160825500Y-96418384D01*
X160819086Y-96347804D01*
X160768478Y-96185394D01*
X160680472Y-96039815D01*
X160680470Y-96039813D01*
X160680469Y-96039811D01*
X160578339Y-95937681D01*
X160544854Y-95876358D01*
X160549838Y-95806666D01*
X160578339Y-95762319D01*
X160680468Y-95660189D01*
X160680469Y-95660188D01*
X160680472Y-95660185D01*
X160768478Y-95514606D01*
X160819086Y-95352196D01*
X160825500Y-95281616D01*
X160825500Y-94768384D01*
X160819086Y-94697804D01*
X160768478Y-94535394D01*
X160680472Y-94389815D01*
X160680470Y-94389813D01*
X160680469Y-94389811D01*
X160560188Y-94269530D01*
X160485348Y-94224286D01*
X160478082Y-94216351D01*
X160468297Y-94211883D01*
X160454899Y-94191035D01*
X160438161Y-94172757D01*
X160435342Y-94160603D01*
X160430523Y-94153105D01*
X160425500Y-94118170D01*
X160425500Y-93985033D01*
X160445185Y-93917994D01*
X160480609Y-93881931D01*
X160487782Y-93877139D01*
X160627139Y-93737782D01*
X160736632Y-93573914D01*
X160812051Y-93391835D01*
X160839316Y-93254768D01*
X160850500Y-93198543D01*
X160850500Y-93001456D01*
X160812052Y-92808170D01*
X160812051Y-92808169D01*
X160812051Y-92808165D01*
X160804557Y-92790073D01*
X160736635Y-92626092D01*
X160736628Y-92626079D01*
X160627139Y-92462218D01*
X160627136Y-92462214D01*
X160487785Y-92322863D01*
X160487781Y-92322860D01*
X160323920Y-92213371D01*
X160323907Y-92213364D01*
X160141839Y-92137950D01*
X160141829Y-92137947D01*
X159948543Y-92099500D01*
X159948541Y-92099500D01*
X159751459Y-92099500D01*
X159751457Y-92099500D01*
X159558170Y-92137947D01*
X159558160Y-92137950D01*
X159376092Y-92213364D01*
X159376079Y-92213371D01*
X159212218Y-92322860D01*
X159212214Y-92322863D01*
X159072863Y-92462214D01*
X159072860Y-92462218D01*
X158963371Y-92626079D01*
X158963364Y-92626092D01*
X158887950Y-92808160D01*
X158887947Y-92808170D01*
X158849500Y-93001456D01*
X158849500Y-93001459D01*
X158849500Y-93198541D01*
X158849500Y-93198543D01*
X158849499Y-93198543D01*
X158887947Y-93391829D01*
X158887950Y-93391839D01*
X158963364Y-93573907D01*
X158963371Y-93573920D01*
X159072860Y-93737781D01*
X159072863Y-93737785D01*
X159212212Y-93877134D01*
X159212214Y-93877135D01*
X159212218Y-93877139D01*
X159219389Y-93881930D01*
X159224479Y-93888021D01*
X159231703Y-93891320D01*
X159246567Y-93914449D01*
X159264194Y-93935540D01*
X159266146Y-93944915D01*
X159269477Y-93950098D01*
X159274500Y-93985033D01*
X159274500Y-94118170D01*
X159254815Y-94185209D01*
X159214652Y-94224286D01*
X159139811Y-94269530D01*
X159019530Y-94389811D01*
X158931522Y-94535393D01*
X158880913Y-94697807D01*
X158875782Y-94754275D01*
X158874549Y-94767851D01*
X158874500Y-94768386D01*
X158874500Y-95281613D01*
X158880913Y-95352192D01*
X158880913Y-95352194D01*
X158880914Y-95352196D01*
X158931522Y-95514606D01*
X158981110Y-95596635D01*
X159019530Y-95660188D01*
X159121661Y-95762319D01*
X159155146Y-95823642D01*
X159150162Y-95893334D01*
X159121661Y-95937681D01*
X159019531Y-96039810D01*
X159019530Y-96039811D01*
X158931522Y-96185393D01*
X158880913Y-96347807D01*
X158875782Y-96404275D01*
X158875126Y-96411501D01*
X158874500Y-96418386D01*
X158874500Y-96931613D01*
X158880913Y-97002192D01*
X158880913Y-97002194D01*
X158880914Y-97002196D01*
X158931522Y-97164606D01*
X159019528Y-97310185D01*
X159088714Y-97379371D01*
X159103515Y-97406477D01*
X159120126Y-97432516D01*
X159120612Y-97437788D01*
X159122198Y-97440692D01*
X159125031Y-97467467D01*
X159125002Y-97476019D01*
X159124500Y-97478545D01*
X159124500Y-97621455D01*
X159124513Y-97621524D01*
X159124499Y-97625916D01*
X159114588Y-97659254D01*
X159104815Y-97692539D01*
X159104652Y-97692680D01*
X159104590Y-97692889D01*
X159078142Y-97715650D01*
X159052011Y-97738294D01*
X159051772Y-97738345D01*
X159051632Y-97738467D01*
X159050458Y-97738631D01*
X159000500Y-97749500D01*
X158774500Y-97749500D01*
X158707461Y-97729815D01*
X158661706Y-97677011D01*
X158650500Y-97625500D01*
X158650500Y-97281903D01*
X158650500Y-97281898D01*
X158639877Y-97193436D01*
X158584361Y-97052658D01*
X158584360Y-97052657D01*
X158584360Y-97052656D01*
X158492922Y-96932077D01*
X158372341Y-96840638D01*
X158304009Y-96813691D01*
X158248866Y-96770785D01*
X158225673Y-96704877D01*
X158225500Y-96698337D01*
X158225500Y-95874235D01*
X158225500Y-95874234D01*
X158214055Y-95831522D01*
X158186281Y-95727865D01*
X158110515Y-95596635D01*
X157703365Y-95189485D01*
X157637750Y-95151602D01*
X157572136Y-95113719D01*
X157498950Y-95094109D01*
X157425766Y-95074500D01*
X157425765Y-95074500D01*
X151843247Y-95074500D01*
X151776208Y-95054815D01*
X151730453Y-95002011D01*
X151719756Y-94939278D01*
X151725000Y-94881571D01*
X151725000Y-94875000D01*
X148225001Y-94875000D01*
X148225001Y-94881582D01*
X148230243Y-94939280D01*
X148216705Y-95007826D01*
X148168258Y-95058171D01*
X148106752Y-95074500D01*
X146346231Y-95074500D01*
X146279192Y-95054815D01*
X146233437Y-95002011D01*
X146223493Y-94932853D01*
X146252518Y-94869297D01*
X146258550Y-94862819D01*
X148012819Y-93108548D01*
X148074142Y-93075063D01*
X148143833Y-93080047D01*
X148199767Y-93121919D01*
X148224184Y-93187383D01*
X148224500Y-93196229D01*
X148224500Y-93231613D01*
X148230913Y-93302192D01*
X148230913Y-93302194D01*
X148230914Y-93302196D01*
X148245410Y-93348716D01*
X148281522Y-93464606D01*
X148369530Y-93610188D01*
X148472015Y-93712673D01*
X148505500Y-93773996D01*
X148500516Y-93843688D01*
X148472015Y-93888035D01*
X148369928Y-93990121D01*
X148369927Y-93990122D01*
X148281980Y-94135604D01*
X148231409Y-94297893D01*
X148225000Y-94368427D01*
X148225000Y-94375000D01*
X151724999Y-94375000D01*
X151724999Y-94368417D01*
X151718591Y-94297897D01*
X151718590Y-94297892D01*
X151668018Y-94135603D01*
X151580072Y-93990122D01*
X151477984Y-93888034D01*
X151444499Y-93826711D01*
X151449483Y-93757019D01*
X151477983Y-93712673D01*
X151580472Y-93610185D01*
X151668478Y-93464606D01*
X151719086Y-93302196D01*
X151725500Y-93231616D01*
X151725500Y-92718384D01*
X151719086Y-92647804D01*
X151668478Y-92485394D01*
X151580472Y-92339815D01*
X151580470Y-92339813D01*
X151580469Y-92339811D01*
X151532838Y-92292180D01*
X151499353Y-92230857D01*
X151504337Y-92161165D01*
X151546209Y-92105232D01*
X151611673Y-92080815D01*
X151620510Y-92080499D01*
X151765800Y-92080499D01*
X151765808Y-92080499D01*
X151835376Y-92074178D01*
X151835383Y-92074176D01*
X151995471Y-92024291D01*
X152064941Y-91982294D01*
X152132491Y-91964459D01*
X152193238Y-91982295D01*
X152260604Y-92023019D01*
X152260603Y-92023019D01*
X152422894Y-92073590D01*
X152422893Y-92073590D01*
X152493408Y-92079998D01*
X152493426Y-92079999D01*
X152499999Y-92079998D01*
X152500000Y-92079998D01*
X152500000Y-89880000D01*
X153000000Y-89880000D01*
X153000000Y-90730000D01*
X153140000Y-90730000D01*
X153158290Y-90711709D01*
X153159685Y-90706961D01*
X153212489Y-90661206D01*
X153264000Y-90650000D01*
X154020000Y-90650000D01*
X154020000Y-91150000D01*
X153780000Y-91150000D01*
X153761709Y-91168290D01*
X153760315Y-91173039D01*
X153707511Y-91218794D01*
X153656000Y-91230000D01*
X153000000Y-91230000D01*
X153000000Y-92079999D01*
X153006581Y-92079999D01*
X153077102Y-92073591D01*
X153077107Y-92073590D01*
X153239396Y-92023018D01*
X153384872Y-91935075D01*
X153389821Y-91930126D01*
X153451141Y-91896635D01*
X153520833Y-91901613D01*
X153565192Y-91930118D01*
X153650660Y-92015586D01*
X153650664Y-92015589D01*
X153822631Y-92130494D01*
X153822641Y-92130499D01*
X154013723Y-92209648D01*
X154013725Y-92209649D01*
X154070000Y-92220842D01*
X154070000Y-91366988D01*
X154079940Y-91384205D01*
X154135795Y-91440060D01*
X154204204Y-91479556D01*
X154280504Y-91500000D01*
X154359496Y-91500000D01*
X154435796Y-91479556D01*
X154504205Y-91440060D01*
X154560060Y-91384205D01*
X154570000Y-91366988D01*
X154570000Y-92220842D01*
X154626274Y-92209649D01*
X154626276Y-92209648D01*
X154817358Y-92130499D01*
X154817368Y-92130494D01*
X154989335Y-92015589D01*
X154989339Y-92015586D01*
X155135586Y-91869339D01*
X155135589Y-91869335D01*
X155250494Y-91697368D01*
X155250499Y-91697358D01*
X155311537Y-91550000D01*
X157080138Y-91550000D01*
X157088430Y-91591690D01*
X157088430Y-91591692D01*
X157163807Y-91773671D01*
X157163814Y-91773684D01*
X157273248Y-91937462D01*
X157273251Y-91937466D01*
X157412533Y-92076748D01*
X157412537Y-92076751D01*
X157576315Y-92186185D01*
X157576328Y-92186192D01*
X157758308Y-92261569D01*
X157800000Y-92269862D01*
X158300000Y-92269862D01*
X158341690Y-92261569D01*
X158341692Y-92261569D01*
X158523671Y-92186192D01*
X158523684Y-92186185D01*
X158687462Y-92076751D01*
X158687466Y-92076748D01*
X158826748Y-91937466D01*
X158826751Y-91937462D01*
X158936185Y-91773684D01*
X158936192Y-91773671D01*
X159011569Y-91591692D01*
X159011569Y-91591690D01*
X159019862Y-91550000D01*
X158300000Y-91550000D01*
X158300000Y-92269862D01*
X157800000Y-92269862D01*
X157800000Y-91550000D01*
X157080138Y-91550000D01*
X155311537Y-91550000D01*
X155329649Y-91506274D01*
X155329651Y-91506269D01*
X155332394Y-91492479D01*
X155370000Y-91303414D01*
X155370000Y-91150000D01*
X154620000Y-91150000D01*
X154620000Y-91050000D01*
X157080138Y-91050000D01*
X157800000Y-91050000D01*
X158300000Y-91050000D01*
X159019862Y-91050000D01*
X159011569Y-91008309D01*
X159011569Y-91008307D01*
X158936192Y-90826328D01*
X158936185Y-90826315D01*
X158826751Y-90662537D01*
X158826748Y-90662533D01*
X158687466Y-90523251D01*
X158687462Y-90523248D01*
X158523684Y-90413814D01*
X158523671Y-90413807D01*
X158341691Y-90338429D01*
X158341683Y-90338427D01*
X158300000Y-90330135D01*
X158300000Y-91050000D01*
X157800000Y-91050000D01*
X157800000Y-90330136D01*
X157799999Y-90330135D01*
X157758316Y-90338427D01*
X157758308Y-90338429D01*
X157576328Y-90413807D01*
X157576315Y-90413814D01*
X157412537Y-90523248D01*
X157412533Y-90523251D01*
X157273251Y-90662533D01*
X157273248Y-90662537D01*
X157163814Y-90826315D01*
X157163807Y-90826328D01*
X157088430Y-91008307D01*
X157088430Y-91008309D01*
X157080138Y-91050000D01*
X154620000Y-91050000D01*
X154620000Y-90650000D01*
X155370000Y-90650000D01*
X155370000Y-90496583D01*
X155369999Y-90496579D01*
X155329651Y-90293733D01*
X155329649Y-90293725D01*
X155250499Y-90102641D01*
X155250494Y-90102631D01*
X155135589Y-89930664D01*
X155135586Y-89930660D01*
X154989339Y-89784413D01*
X154989335Y-89784410D01*
X154817368Y-89669505D01*
X154817358Y-89669500D01*
X154626272Y-89590349D01*
X154626267Y-89590347D01*
X154570000Y-89579155D01*
X154570000Y-90433011D01*
X154560060Y-90415795D01*
X154504205Y-90359940D01*
X154435796Y-90320444D01*
X154359496Y-90300000D01*
X154280504Y-90300000D01*
X154204204Y-90320444D01*
X154135795Y-90359940D01*
X154079940Y-90415795D01*
X154070000Y-90433011D01*
X154070000Y-89579156D01*
X154069999Y-89579155D01*
X154013732Y-89590347D01*
X154013727Y-89590349D01*
X153822641Y-89669500D01*
X153822631Y-89669505D01*
X153650664Y-89784410D01*
X153650660Y-89784413D01*
X153504413Y-89930660D01*
X153504409Y-89930665D01*
X153490991Y-89950746D01*
X153437377Y-89995550D01*
X153368052Y-90004255D01*
X153323741Y-89987969D01*
X153239395Y-89936980D01*
X153239396Y-89936980D01*
X153077105Y-89886409D01*
X153077106Y-89886409D01*
X153006572Y-89880000D01*
X153000000Y-89880000D01*
X152500000Y-89880000D01*
X152499999Y-89879999D01*
X152493436Y-89880000D01*
X152493417Y-89880001D01*
X152422897Y-89886408D01*
X152422892Y-89886409D01*
X152260601Y-89936981D01*
X152253762Y-89940060D01*
X152252450Y-89937145D01*
X152237956Y-89940949D01*
X152210369Y-89951021D01*
X152204555Y-89949714D01*
X152198790Y-89951227D01*
X152170855Y-89942137D01*
X152142201Y-89935696D01*
X152136536Y-89930971D01*
X152132349Y-89929609D01*
X152114094Y-89914349D01*
X152105988Y-89906130D01*
X152102951Y-89901584D01*
X151998416Y-89797049D01*
X151985777Y-89784410D01*
X151547421Y-89346052D01*
X151547414Y-89346046D01*
X151473729Y-89296812D01*
X151473729Y-89296813D01*
X151424491Y-89263913D01*
X151287917Y-89207343D01*
X151287907Y-89207340D01*
X151142920Y-89178500D01*
X151142918Y-89178500D01*
X149004917Y-89178500D01*
X148857082Y-89178500D01*
X148857080Y-89178500D01*
X148712092Y-89207340D01*
X148712082Y-89207343D01*
X148575511Y-89263912D01*
X148575498Y-89263919D01*
X148452584Y-89346048D01*
X148452580Y-89346051D01*
X147897043Y-89901588D01*
X147893459Y-89905955D01*
X147835709Y-89945282D01*
X147765864Y-89947144D01*
X147746703Y-89939026D01*
X147746238Y-89940060D01*
X147739396Y-89936980D01*
X147577105Y-89886409D01*
X147577106Y-89886409D01*
X147506572Y-89880000D01*
X147500000Y-89880000D01*
X147500000Y-90856000D01*
X147480315Y-90923039D01*
X147427511Y-90968794D01*
X147376000Y-90980000D01*
X147250000Y-90980000D01*
X147250000Y-91106000D01*
X147230315Y-91173039D01*
X147177511Y-91218794D01*
X147126000Y-91230000D01*
X146344000Y-91230000D01*
X146276961Y-91210315D01*
X146255190Y-91185190D01*
X146220000Y-91150000D01*
X145980000Y-91150000D01*
X145980000Y-90650000D01*
X146736000Y-90650000D01*
X146803039Y-90669685D01*
X146824809Y-90694809D01*
X146860000Y-90730000D01*
X147000000Y-90730000D01*
X147000000Y-89880000D01*
X146999999Y-89879999D01*
X146993436Y-89880000D01*
X146993417Y-89880001D01*
X146922897Y-89886408D01*
X146922892Y-89886409D01*
X146760601Y-89936981D01*
X146760599Y-89936982D01*
X146676256Y-89987969D01*
X146608701Y-90005805D01*
X146542228Y-89984287D01*
X146509003Y-89950741D01*
X146495585Y-89930659D01*
X146349339Y-89784413D01*
X146349335Y-89784410D01*
X146177368Y-89669505D01*
X146177358Y-89669500D01*
X145986272Y-89590349D01*
X145986267Y-89590347D01*
X145930000Y-89579155D01*
X145930000Y-90433011D01*
X145920060Y-90415795D01*
X145864205Y-90359940D01*
X145795796Y-90320444D01*
X145719496Y-90300000D01*
X145640504Y-90300000D01*
X145564204Y-90320444D01*
X145495795Y-90359940D01*
X145439940Y-90415795D01*
X145430000Y-90433011D01*
X145430000Y-89579156D01*
X145429999Y-89579155D01*
X145373732Y-89590347D01*
X145373727Y-89590349D01*
X145182641Y-89669500D01*
X145182631Y-89669505D01*
X145010664Y-89784410D01*
X145010660Y-89784413D01*
X144864413Y-89930660D01*
X144864410Y-89930664D01*
X144749505Y-90102631D01*
X144749500Y-90102641D01*
X144670350Y-90293725D01*
X144670348Y-90293733D01*
X144630000Y-90496579D01*
X144630000Y-90650000D01*
X145380000Y-90650000D01*
X145380000Y-91150000D01*
X144630000Y-91150000D01*
X144630000Y-91303420D01*
X144670348Y-91506266D01*
X144670350Y-91506274D01*
X144749500Y-91697358D01*
X144749505Y-91697368D01*
X144864410Y-91869335D01*
X144864413Y-91869339D01*
X145010660Y-92015586D01*
X145010664Y-92015589D01*
X145182631Y-92130494D01*
X145182641Y-92130499D01*
X145373723Y-92209648D01*
X145373725Y-92209649D01*
X145430000Y-92220842D01*
X145430000Y-91366988D01*
X145439940Y-91384205D01*
X145495795Y-91440060D01*
X145564204Y-91479556D01*
X145640504Y-91500000D01*
X145719496Y-91500000D01*
X145795796Y-91479556D01*
X145864205Y-91440060D01*
X145920060Y-91384205D01*
X145930000Y-91366988D01*
X145930000Y-92220842D01*
X145986274Y-92209649D01*
X145986276Y-92209648D01*
X146177358Y-92130499D01*
X146177368Y-92130494D01*
X146349335Y-92015589D01*
X146349339Y-92015586D01*
X146434805Y-91930119D01*
X146496128Y-91896633D01*
X146565819Y-91901617D01*
X146589351Y-91913371D01*
X146761870Y-92023833D01*
X146783782Y-92049035D01*
X146806344Y-92073672D01*
X146806625Y-92075307D01*
X146807714Y-92076560D01*
X146812521Y-92109605D01*
X146818182Y-92142531D01*
X146817534Y-92144059D01*
X146817773Y-92145702D01*
X146803949Y-92176106D01*
X146790913Y-92206860D01*
X146789013Y-92208956D01*
X146788855Y-92209306D01*
X146788476Y-92209550D01*
X146782687Y-92215942D01*
X145347951Y-93650681D01*
X145286628Y-93684166D01*
X145260270Y-93687000D01*
X143982328Y-93687000D01*
X143947733Y-93682076D01*
X143802573Y-93639902D01*
X143802567Y-93639901D01*
X143765701Y-93637000D01*
X143765694Y-93637000D01*
X142609306Y-93637000D01*
X142609298Y-93637000D01*
X142572432Y-93639901D01*
X142572426Y-93639902D01*
X142414606Y-93685754D01*
X142414603Y-93685755D01*
X142273137Y-93769417D01*
X142266969Y-93774202D01*
X142265664Y-93772519D01*
X142213954Y-93800746D01*
X142144263Y-93795751D01*
X142096558Y-93763747D01*
X142072296Y-93737500D01*
X141806815Y-93737500D01*
X141743694Y-93720232D01*
X141712307Y-93701670D01*
X141685398Y-93685756D01*
X141685397Y-93685755D01*
X141685396Y-93685755D01*
X141685393Y-93685754D01*
X141527573Y-93639902D01*
X141527567Y-93639901D01*
X141490701Y-93637000D01*
X141490694Y-93637000D01*
X140334306Y-93637000D01*
X140334298Y-93637000D01*
X140297432Y-93639901D01*
X140297426Y-93639902D01*
X140139607Y-93685754D01*
X140139596Y-93685758D01*
X140125928Y-93693842D01*
X140097239Y-93701119D01*
X140069313Y-93710938D01*
X140062888Y-93709834D01*
X140058204Y-93711023D01*
X140045950Y-93706925D01*
X140015357Y-93701670D01*
X139933498Y-93667763D01*
X139933488Y-93667760D01*
X139778845Y-93637000D01*
X139778842Y-93637000D01*
X139621158Y-93637000D01*
X139621155Y-93637000D01*
X139466510Y-93667761D01*
X139466498Y-93667764D01*
X139320827Y-93728102D01*
X139320814Y-93728109D01*
X139189711Y-93815710D01*
X139189707Y-93815713D01*
X139137181Y-93868240D01*
X139117744Y-93878852D01*
X139101011Y-93893353D01*
X139087679Y-93895269D01*
X139075858Y-93901725D01*
X139053771Y-93900145D01*
X139031853Y-93903297D01*
X139019601Y-93897701D01*
X139006166Y-93896741D01*
X138988439Y-93883470D01*
X138968297Y-93874272D01*
X138961014Y-93862940D01*
X138950233Y-93854869D01*
X138942495Y-93834123D01*
X138930523Y-93815494D01*
X138927371Y-93793575D01*
X138925816Y-93789405D01*
X138925500Y-93780559D01*
X138925500Y-93539741D01*
X138945185Y-93472702D01*
X138961819Y-93452060D01*
X139264560Y-93149319D01*
X139325883Y-93115834D01*
X139352241Y-93113000D01*
X139628360Y-93113000D01*
X139695399Y-93132685D01*
X139741154Y-93185489D01*
X139749790Y-93234346D01*
X139752705Y-93237500D01*
X140018185Y-93237500D01*
X140065657Y-93250487D01*
X140079661Y-93253812D01*
X140080322Y-93254498D01*
X140081306Y-93254768D01*
X140139602Y-93289244D01*
X140181224Y-93301336D01*
X140297426Y-93335097D01*
X140297429Y-93335097D01*
X140297431Y-93335098D01*
X140334306Y-93338000D01*
X140334314Y-93338000D01*
X141490686Y-93338000D01*
X141490694Y-93338000D01*
X141527569Y-93335098D01*
X141527571Y-93335097D01*
X141527573Y-93335097D01*
X141569191Y-93323005D01*
X141685398Y-93289244D01*
X141743694Y-93254768D01*
X141806815Y-93237500D01*
X142072294Y-93237500D01*
X142096557Y-93211252D01*
X142156518Y-93175385D01*
X142226352Y-93177629D01*
X142266012Y-93202030D01*
X142266969Y-93200798D01*
X142273132Y-93205578D01*
X142273135Y-93205581D01*
X142414602Y-93289244D01*
X142456224Y-93301336D01*
X142572426Y-93335097D01*
X142572429Y-93335097D01*
X142572431Y-93335098D01*
X142609306Y-93338000D01*
X142609314Y-93338000D01*
X143765686Y-93338000D01*
X143765694Y-93338000D01*
X143802569Y-93335098D01*
X143802571Y-93335097D01*
X143802573Y-93335097D01*
X143844191Y-93323005D01*
X143960398Y-93289244D01*
X144101865Y-93205581D01*
X144218081Y-93089365D01*
X144301744Y-92947898D01*
X144347598Y-92790069D01*
X144350500Y-92753194D01*
X144350500Y-92321806D01*
X144347598Y-92284931D01*
X144328596Y-92219528D01*
X144307148Y-92145702D01*
X144301744Y-92127102D01*
X144218081Y-91985635D01*
X144218080Y-91985634D01*
X144218076Y-91985629D01*
X144101870Y-91869423D01*
X144101861Y-91869416D01*
X144043734Y-91835040D01*
X143996050Y-91783971D01*
X143983547Y-91715229D01*
X144000737Y-91664162D01*
X144068478Y-91552106D01*
X144119086Y-91389696D01*
X144125500Y-91319116D01*
X144125500Y-90655884D01*
X144119086Y-90585304D01*
X144068478Y-90422894D01*
X143980472Y-90277315D01*
X143980470Y-90277313D01*
X143980469Y-90277311D01*
X143860188Y-90157030D01*
X143714606Y-90069022D01*
X143712786Y-90068455D01*
X143552196Y-90018414D01*
X143552194Y-90018413D01*
X143552192Y-90018413D01*
X143502778Y-90013923D01*
X143481616Y-90012000D01*
X142968384Y-90012000D01*
X142949145Y-90013748D01*
X142897807Y-90018413D01*
X142735393Y-90069022D01*
X142589811Y-90157030D01*
X142589810Y-90157031D01*
X142487327Y-90259515D01*
X142426004Y-90293000D01*
X142356312Y-90288016D01*
X142311965Y-90259515D01*
X142209877Y-90157427D01*
X142064395Y-90069480D01*
X142064396Y-90069480D01*
X141902105Y-90018909D01*
X141902106Y-90018909D01*
X141831572Y-90012500D01*
X141825000Y-90012500D01*
X141825000Y-90863500D01*
X141805315Y-90930539D01*
X141752511Y-90976294D01*
X141701000Y-90987500D01*
X141575000Y-90987500D01*
X141575000Y-91113500D01*
X141555315Y-91180539D01*
X141502511Y-91226294D01*
X141451000Y-91237500D01*
X140675001Y-91237500D01*
X140675001Y-91319082D01*
X140681408Y-91389602D01*
X140681409Y-91389607D01*
X140731981Y-91551898D01*
X140735060Y-91558738D01*
X140732995Y-91559667D01*
X140747975Y-91616411D01*
X140726454Y-91682884D01*
X140672411Y-91727169D01*
X140624022Y-91737000D01*
X140334298Y-91737000D01*
X140297432Y-91739901D01*
X140297426Y-91739902D01*
X140139606Y-91785754D01*
X140139603Y-91785755D01*
X139998137Y-91869417D01*
X139998133Y-91869420D01*
X139970921Y-91896633D01*
X139941871Y-91925682D01*
X139880551Y-91959166D01*
X139854192Y-91962000D01*
X138986733Y-91962000D01*
X138898525Y-91985634D01*
X138898526Y-91985635D01*
X138840365Y-92001219D01*
X138840363Y-92001219D01*
X138840363Y-92001220D01*
X138709135Y-92076985D01*
X138709132Y-92076987D01*
X138601983Y-92184137D01*
X137979194Y-92806925D01*
X137979193Y-92806925D01*
X137979194Y-92806926D01*
X137889485Y-92896635D01*
X137813719Y-93027863D01*
X137785633Y-93132685D01*
X137774500Y-93174234D01*
X137774500Y-95074234D01*
X137774500Y-95225766D01*
X137789464Y-95281613D01*
X137813719Y-95372136D01*
X137851602Y-95437750D01*
X137889485Y-95503365D01*
X138496635Y-96110515D01*
X138610281Y-96176129D01*
X138626328Y-96185394D01*
X138627865Y-96186281D01*
X138774234Y-96225500D01*
X138925767Y-96225500D01*
X139849833Y-96225500D01*
X139916872Y-96245185D01*
X139962627Y-96297989D01*
X139972571Y-96367147D01*
X139943546Y-96430703D01*
X139937514Y-96437181D01*
X139827427Y-96547267D01*
X139827424Y-96547271D01*
X139738457Y-96691507D01*
X139738452Y-96691518D01*
X139685144Y-96852393D01*
X139675000Y-96951677D01*
X139675000Y-96975000D01*
X141554410Y-96975000D01*
X141595004Y-96952834D01*
X141621362Y-96950000D01*
X142451000Y-96950000D01*
X142518039Y-96969685D01*
X142563794Y-97022489D01*
X142575000Y-97074000D01*
X142575000Y-97326000D01*
X142555315Y-97393039D01*
X142502511Y-97438794D01*
X142451000Y-97450000D01*
X141745590Y-97450000D01*
X141704996Y-97472166D01*
X141678638Y-97475000D01*
X139675001Y-97475000D01*
X139675001Y-97498322D01*
X139685832Y-97604341D01*
X139683741Y-97604554D01*
X139679267Y-97664232D01*
X139637204Y-97720022D01*
X139571656Y-97744214D01*
X139563235Y-97744500D01*
X138474000Y-97744500D01*
X138473991Y-97744500D01*
X138473990Y-97744501D01*
X138366549Y-97756052D01*
X138366537Y-97756054D01*
X138315027Y-97767260D01*
X138212502Y-97801383D01*
X138212496Y-97801386D01*
X138091462Y-97879171D01*
X138091451Y-97879179D01*
X138038659Y-97924923D01*
X137944433Y-98033664D01*
X137944430Y-98033668D01*
X137884664Y-98164534D01*
X137864976Y-98231582D01*
X137857239Y-98285394D01*
X137844500Y-98374000D01*
X137844500Y-101126000D01*
X137844501Y-101126009D01*
X137856052Y-101233450D01*
X137856054Y-101233462D01*
X137867259Y-101284968D01*
X137901383Y-101387497D01*
X137901386Y-101387503D01*
X137979171Y-101508537D01*
X137979179Y-101508548D01*
X138024923Y-101561340D01*
X138024926Y-101561343D01*
X138024930Y-101561347D01*
X138133664Y-101655567D01*
X138133667Y-101655568D01*
X138133668Y-101655569D01*
X138171695Y-101672936D01*
X138264541Y-101715338D01*
X138331580Y-101735023D01*
X138331584Y-101735024D01*
X138474000Y-101755500D01*
X140663059Y-101755500D01*
X140684304Y-101761738D01*
X140706393Y-101763318D01*
X140717176Y-101771390D01*
X140730098Y-101775185D01*
X140744597Y-101791918D01*
X140762326Y-101805190D01*
X140767033Y-101817810D01*
X140775853Y-101827989D01*
X140779004Y-101849906D01*
X140786743Y-101870654D01*
X140783880Y-101883814D01*
X140785797Y-101897147D01*
X140776597Y-101917290D01*
X140771891Y-101938927D01*
X140758622Y-101956652D01*
X140756772Y-101960703D01*
X140750740Y-101967181D01*
X140579740Y-102138181D01*
X140518417Y-102171666D01*
X140492059Y-102174500D01*
X138674998Y-102174500D01*
X138674981Y-102174501D01*
X138572203Y-102185000D01*
X138572200Y-102185001D01*
X138405668Y-102240185D01*
X138405663Y-102240187D01*
X138256342Y-102332289D01*
X138132289Y-102456342D01*
X138040187Y-102605663D01*
X138040185Y-102605668D01*
X138023008Y-102657505D01*
X137985001Y-102772203D01*
X137985001Y-102772204D01*
X137985000Y-102772204D01*
X137974500Y-102874983D01*
X137974500Y-103725001D01*
X137974501Y-103725019D01*
X137985000Y-103827796D01*
X137985001Y-103827799D01*
X138023593Y-103944261D01*
X138040186Y-103994334D01*
X138132288Y-104143656D01*
X138256344Y-104267712D01*
X138405666Y-104359814D01*
X138572203Y-104414999D01*
X138674991Y-104425500D01*
X140925008Y-104425499D01*
X141027797Y-104414999D01*
X141194334Y-104359814D01*
X141343656Y-104267712D01*
X141467712Y-104143656D01*
X141559814Y-103994334D01*
X141614999Y-103827797D01*
X141625500Y-103725009D01*
X141625499Y-103407938D01*
X141645183Y-103340900D01*
X141661813Y-103320263D01*
X142446317Y-102535760D01*
X142507638Y-102502277D01*
X142524266Y-102499825D01*
X142552569Y-102497598D01*
X142552571Y-102497597D01*
X142552573Y-102497597D01*
X142594191Y-102485505D01*
X142710398Y-102451744D01*
X142711181Y-102451281D01*
X142712369Y-102450579D01*
X142714112Y-102450136D01*
X142717557Y-102448646D01*
X142717797Y-102449201D01*
X142780093Y-102433395D01*
X142832397Y-102448753D01*
X142832644Y-102448184D01*
X142837255Y-102450179D01*
X142838612Y-102450578D01*
X142839801Y-102451281D01*
X142839806Y-102451283D01*
X142997505Y-102497099D01*
X142997511Y-102497100D01*
X142999998Y-102497295D01*
X143000000Y-102497295D01*
X143000000Y-102231814D01*
X143017267Y-102168694D01*
X143051744Y-102110398D01*
X143097598Y-101952569D01*
X143100500Y-101915694D01*
X143100500Y-101461500D01*
X143103050Y-101452814D01*
X143101762Y-101443853D01*
X143112740Y-101419812D01*
X143120185Y-101394461D01*
X143127025Y-101388533D01*
X143130787Y-101380297D01*
X143153021Y-101366007D01*
X143172989Y-101348706D01*
X143183503Y-101346418D01*
X143189565Y-101342523D01*
X143224500Y-101337500D01*
X143275500Y-101337500D01*
X143342539Y-101357185D01*
X143388294Y-101409989D01*
X143399500Y-101461500D01*
X143399500Y-101915701D01*
X143402401Y-101952567D01*
X143402402Y-101952573D01*
X143448254Y-102110393D01*
X143448255Y-102110396D01*
X143448256Y-102110398D01*
X143482732Y-102168694D01*
X143500000Y-102231814D01*
X143500000Y-102497295D01*
X143503730Y-102500743D01*
X143559149Y-102512386D01*
X143608906Y-102561437D01*
X143624500Y-102621639D01*
X143624500Y-104975765D01*
X143663719Y-105122136D01*
X143685729Y-105160258D01*
X143739485Y-105253365D01*
X144139485Y-105653365D01*
X144246635Y-105760515D01*
X144320853Y-105803365D01*
X144377865Y-105836281D01*
X144524233Y-105875500D01*
X144524234Y-105875500D01*
X144575399Y-105875500D01*
X144642438Y-105895185D01*
X144688193Y-105947989D01*
X144698137Y-106017147D01*
X144680938Y-106064594D01*
X144664817Y-106090730D01*
X144640187Y-106130663D01*
X144640186Y-106130666D01*
X144585001Y-106297203D01*
X144585001Y-106297204D01*
X144585000Y-106297204D01*
X144574500Y-106399983D01*
X144574500Y-107125001D01*
X144574501Y-107125019D01*
X144585000Y-107227796D01*
X144585001Y-107227799D01*
X144638847Y-107390292D01*
X144640186Y-107394334D01*
X144732288Y-107543656D01*
X144856344Y-107667712D01*
X145005666Y-107759814D01*
X145014498Y-107762740D01*
X145071944Y-107802508D01*
X145098771Y-107867022D01*
X145099500Y-107880448D01*
X145099500Y-108243102D01*
X145104669Y-108286154D01*
X145110122Y-108331562D01*
X145110123Y-108331564D01*
X145119172Y-108354512D01*
X145125453Y-108424099D01*
X145119172Y-108445488D01*
X145110123Y-108468435D01*
X145110122Y-108468437D01*
X145103808Y-108521021D01*
X145099500Y-108556898D01*
X145099500Y-108943102D01*
X145102456Y-108967717D01*
X145110122Y-109031563D01*
X145113986Y-109041361D01*
X145140854Y-109109492D01*
X145149500Y-109154981D01*
X145149500Y-109250766D01*
X145154450Y-109269238D01*
X145188719Y-109397136D01*
X145209192Y-109432595D01*
X145264485Y-109528365D01*
X145264487Y-109528367D01*
X145999939Y-110263819D01*
X146033424Y-110325142D01*
X146028440Y-110394834D01*
X145986568Y-110450767D01*
X145921104Y-110475184D01*
X145912258Y-110475500D01*
X143922904Y-110475500D01*
X143855865Y-110455815D01*
X143835223Y-110439181D01*
X143395388Y-109999346D01*
X143361903Y-109938023D01*
X143366887Y-109868331D01*
X143370266Y-109860172D01*
X143428918Y-109731746D01*
X143449400Y-109589289D01*
X143428918Y-109446832D01*
X143406222Y-109397135D01*
X143369131Y-109315918D01*
X143369128Y-109315913D01*
X143331514Y-109269238D01*
X143331508Y-109269231D01*
X143093840Y-109031563D01*
X142840983Y-108778707D01*
X142807499Y-108717385D01*
X142805927Y-108708673D01*
X142789075Y-108591462D01*
X142729288Y-108460548D01*
X142729287Y-108460547D01*
X142729287Y-108460546D01*
X142691668Y-108413863D01*
X142691663Y-108413858D01*
X142691659Y-108413853D01*
X141636145Y-107358341D01*
X141636138Y-107358334D01*
X141589455Y-107320714D01*
X141578305Y-107315622D01*
X141458537Y-107260925D01*
X141458539Y-107260925D01*
X141340503Y-107243955D01*
X141276947Y-107214930D01*
X141270469Y-107208898D01*
X141242489Y-107180918D01*
X141168933Y-107254474D01*
X141132764Y-107279586D01*
X141042711Y-107320712D01*
X140996016Y-107358341D01*
X140555941Y-107798417D01*
X140494618Y-107831902D01*
X140424926Y-107826918D01*
X140380579Y-107798417D01*
X140326008Y-107743846D01*
X140236912Y-107832942D01*
X140175589Y-107866427D01*
X140105897Y-107861443D01*
X140061550Y-107832942D01*
X139544230Y-107315622D01*
X139544229Y-107315622D01*
X139527949Y-107331902D01*
X139466626Y-107365386D01*
X139396934Y-107360401D01*
X139362463Y-107340771D01*
X139326433Y-107311736D01*
X139326431Y-107311734D01*
X139326430Y-107311734D01*
X139299337Y-107299361D01*
X139195512Y-107251945D01*
X139195514Y-107251945D01*
X139053057Y-107231464D01*
X138910600Y-107251945D01*
X138779684Y-107311733D01*
X138779679Y-107311736D01*
X138733003Y-107349349D01*
X138732995Y-107349356D01*
X138200176Y-107882177D01*
X138186810Y-107893760D01*
X138165782Y-107909502D01*
X138165767Y-107909515D01*
X137868187Y-108207095D01*
X137806864Y-108240580D01*
X137737172Y-108235596D01*
X137681239Y-108193724D01*
X137677415Y-108188321D01*
X137498264Y-107920202D01*
X137495038Y-107915108D01*
X137124707Y-107297249D01*
X137121711Y-107291959D01*
X136945380Y-106962067D01*
X139897784Y-106962067D01*
X139897784Y-106962068D01*
X140326006Y-107390292D01*
X140326007Y-107390292D01*
X140888935Y-106827364D01*
X140780444Y-106718873D01*
X140733809Y-106681293D01*
X140603030Y-106621567D01*
X140603025Y-106621566D01*
X140460712Y-106601106D01*
X140318398Y-106621566D01*
X140318393Y-106621567D01*
X140187614Y-106681293D01*
X140140974Y-106718877D01*
X139897784Y-106962067D01*
X136945380Y-106962067D01*
X136782167Y-106656717D01*
X136779431Y-106651283D01*
X136755699Y-106601106D01*
X136471446Y-106000104D01*
X136468985Y-105994550D01*
X136419672Y-105875499D01*
X136193330Y-105329060D01*
X136191143Y-105323389D01*
X136119133Y-105122135D01*
X135948486Y-104645207D01*
X135946579Y-104639436D01*
X135945648Y-104636368D01*
X135737478Y-103950124D01*
X135735856Y-103944261D01*
X135706683Y-103827795D01*
X135560828Y-103245512D01*
X135559499Y-103239590D01*
X135552751Y-103205666D01*
X135418979Y-102533141D01*
X135417939Y-102527151D01*
X135407436Y-102456344D01*
X135312243Y-101814612D01*
X135311500Y-101808585D01*
X135311166Y-101805190D01*
X135240895Y-101091719D01*
X135240452Y-101085717D01*
X135205106Y-100366230D01*
X135204957Y-100360146D01*
X135204957Y-99639853D01*
X135205106Y-99633769D01*
X135207508Y-99584881D01*
X135240452Y-98914279D01*
X135240895Y-98908283D01*
X135311502Y-98191394D01*
X135312245Y-98185373D01*
X135315336Y-98164541D01*
X135417940Y-97472836D01*
X135418980Y-97466852D01*
X135419319Y-97465148D01*
X135559504Y-96760382D01*
X135560826Y-96754496D01*
X135735859Y-96055726D01*
X135737479Y-96049873D01*
X135740530Y-96039815D01*
X135946585Y-95360544D01*
X135948482Y-95354804D01*
X136191151Y-94676588D01*
X136193324Y-94670952D01*
X136468996Y-94005423D01*
X136471439Y-93999910D01*
X136779440Y-93348697D01*
X136782158Y-93343298D01*
X137121724Y-92708015D01*
X137124697Y-92702767D01*
X137495049Y-92084872D01*
X137498251Y-92079815D01*
X137898474Y-91480840D01*
X137901945Y-91475911D01*
X138331071Y-90897301D01*
X138334791Y-90892534D01*
X138528970Y-90655927D01*
X140675000Y-90655927D01*
X140675000Y-90737500D01*
X141325000Y-90737500D01*
X141325000Y-90012500D01*
X141324999Y-90012499D01*
X141318436Y-90012500D01*
X141318417Y-90012501D01*
X141247897Y-90018908D01*
X141247892Y-90018909D01*
X141085603Y-90069481D01*
X140940122Y-90157427D01*
X140819927Y-90277622D01*
X140731980Y-90423104D01*
X140681409Y-90585393D01*
X140675000Y-90655927D01*
X138528970Y-90655927D01*
X138791769Y-90335706D01*
X138795720Y-90331126D01*
X139279481Y-89797377D01*
X139283640Y-89793009D01*
X139793009Y-89283640D01*
X139797377Y-89279481D01*
X140331126Y-88795720D01*
X140335706Y-88791769D01*
X140892534Y-88334791D01*
X140897301Y-88331071D01*
X141475911Y-87901945D01*
X141480840Y-87898474D01*
X142079815Y-87498251D01*
X142084872Y-87495049D01*
X142702767Y-87124697D01*
X142708015Y-87121724D01*
X143343298Y-86782158D01*
X143348697Y-86779440D01*
X143999910Y-86471439D01*
X144005423Y-86468996D01*
X144543854Y-86245970D01*
X144613320Y-86238502D01*
X144675800Y-86269777D01*
X144711452Y-86329866D01*
X144708958Y-86399691D01*
X144705865Y-86407984D01*
X144670351Y-86493721D01*
X144670348Y-86493733D01*
X144630000Y-86696579D01*
X144630000Y-86850000D01*
X145380000Y-86850000D01*
X145380000Y-87350000D01*
X144630000Y-87350000D01*
X144630000Y-87503420D01*
X144670348Y-87706266D01*
X144670350Y-87706274D01*
X144749500Y-87897358D01*
X144749505Y-87897368D01*
X144864410Y-88069335D01*
X144864413Y-88069339D01*
X145010660Y-88215586D01*
X145010664Y-88215589D01*
X145182631Y-88330494D01*
X145182641Y-88330499D01*
X145373723Y-88409648D01*
X145373725Y-88409649D01*
X145430000Y-88420842D01*
X145430000Y-87566988D01*
X145439940Y-87584205D01*
X145495795Y-87640060D01*
X145564204Y-87679556D01*
X145640504Y-87700000D01*
X145719496Y-87700000D01*
X145795796Y-87679556D01*
X145864205Y-87640060D01*
X145920060Y-87584205D01*
X145930000Y-87566988D01*
X145930000Y-88420842D01*
X145986274Y-88409649D01*
X145986276Y-88409648D01*
X146177358Y-88330499D01*
X146177368Y-88330494D01*
X146349335Y-88215589D01*
X146349339Y-88215586D01*
X146495586Y-88069339D01*
X146495589Y-88069335D01*
X146610494Y-87897368D01*
X146610499Y-87897358D01*
X146689649Y-87706274D01*
X146689651Y-87706266D01*
X146729999Y-87503420D01*
X146730000Y-87503417D01*
X146730000Y-87350000D01*
X145980000Y-87350000D01*
X145980000Y-86850000D01*
X146730000Y-86850000D01*
X146730000Y-86696583D01*
X146729999Y-86696579D01*
X146689651Y-86493733D01*
X146689649Y-86493725D01*
X146610499Y-86302641D01*
X146610494Y-86302631D01*
X146495589Y-86130664D01*
X146495586Y-86130660D01*
X146349339Y-85984413D01*
X146349335Y-85984410D01*
X146231316Y-85905552D01*
X146186511Y-85851940D01*
X146177804Y-85782615D01*
X146207958Y-85719587D01*
X146267402Y-85682868D01*
X146269987Y-85682189D01*
X146754496Y-85560826D01*
X146760382Y-85559504D01*
X147466865Y-85418977D01*
X147472836Y-85417940D01*
X148185392Y-85312242D01*
X148191394Y-85311502D01*
X148908283Y-85240895D01*
X148914279Y-85240452D01*
X149633769Y-85205105D01*
X149639853Y-85204957D01*
X150360147Y-85204957D01*
X150366230Y-85205105D01*
G37*
%TD.AperFunction*%
%TA.AperFunction,Conductor*%
G36*
X158945899Y-101310870D02*
G01*
X159001077Y-101353732D01*
X159024322Y-101419622D01*
X159024500Y-101426260D01*
X159024500Y-105160258D01*
X159004815Y-105227297D01*
X158988181Y-105247939D01*
X158437181Y-105798939D01*
X158375858Y-105832424D01*
X158306166Y-105827440D01*
X158250233Y-105785568D01*
X158225816Y-105720104D01*
X158225500Y-105711258D01*
X158225500Y-101601662D01*
X158245185Y-101534623D01*
X158297989Y-101488868D01*
X158303997Y-101486312D01*
X158372342Y-101459361D01*
X158492922Y-101367922D01*
X158492928Y-101367913D01*
X158498916Y-101361927D01*
X158500203Y-101363214D01*
X158547944Y-101327930D01*
X158614762Y-101322758D01*
X158628545Y-101325500D01*
X158628546Y-101325500D01*
X158771457Y-101325500D01*
X158861352Y-101307618D01*
X158876308Y-101304643D01*
X158945899Y-101310870D01*
G37*
%TD.AperFunction*%
%TA.AperFunction,Conductor*%
G36*
X152859535Y-98978287D02*
G01*
X152875064Y-98987116D01*
X152945814Y-99034390D01*
X152945827Y-99034397D01*
X153004426Y-99058669D01*
X153091503Y-99094737D01*
X153246153Y-99125499D01*
X153246156Y-99125500D01*
X153330359Y-99125500D01*
X153397398Y-99145185D01*
X153443153Y-99197989D01*
X153453097Y-99267147D01*
X153435897Y-99314597D01*
X153388457Y-99391507D01*
X153388452Y-99391518D01*
X153335144Y-99552393D01*
X153325000Y-99651677D01*
X153325000Y-99675000D01*
X154176000Y-99675000D01*
X154243039Y-99694685D01*
X154288794Y-99747489D01*
X154300000Y-99799000D01*
X154300000Y-99925000D01*
X154426000Y-99925000D01*
X154493039Y-99944685D01*
X154538794Y-99997489D01*
X154550000Y-100049000D01*
X154550000Y-100874999D01*
X154598308Y-100874999D01*
X154598322Y-100874998D01*
X154697607Y-100864855D01*
X154858481Y-100811547D01*
X154858492Y-100811542D01*
X155002728Y-100722575D01*
X155002732Y-100722572D01*
X155012819Y-100712486D01*
X155074142Y-100679001D01*
X155143834Y-100683985D01*
X155199767Y-100725857D01*
X155224184Y-100791321D01*
X155224500Y-100800167D01*
X155224500Y-103660257D01*
X155204815Y-103727296D01*
X155188181Y-103747938D01*
X154787180Y-104148938D01*
X154725857Y-104182423D01*
X154656165Y-104177439D01*
X154600232Y-104135567D01*
X154575815Y-104070103D01*
X154575499Y-104061279D01*
X154575499Y-103474992D01*
X154568649Y-103407939D01*
X154564999Y-103372203D01*
X154564998Y-103372200D01*
X154521055Y-103239590D01*
X154509814Y-103205666D01*
X154417712Y-103056344D01*
X154293656Y-102932288D01*
X154144334Y-102840186D01*
X153977797Y-102785001D01*
X153977795Y-102785000D01*
X153875016Y-102774500D01*
X153875009Y-102774500D01*
X153249729Y-102774500D01*
X153182690Y-102754815D01*
X153162048Y-102738181D01*
X152731730Y-102307862D01*
X152698245Y-102246539D01*
X152701024Y-102183295D01*
X152734086Y-102077196D01*
X152740500Y-102006616D01*
X152740500Y-101193384D01*
X152734086Y-101122804D01*
X152683478Y-100960394D01*
X152595472Y-100814815D01*
X152595470Y-100814813D01*
X152595469Y-100814811D01*
X152555604Y-100774947D01*
X152522118Y-100713624D01*
X152527102Y-100643933D01*
X152538290Y-100621295D01*
X152543122Y-100613606D01*
X152600841Y-100448657D01*
X152615500Y-100318552D01*
X152615500Y-100198322D01*
X153325001Y-100198322D01*
X153335144Y-100297607D01*
X153388452Y-100458481D01*
X153388457Y-100458492D01*
X153477424Y-100602728D01*
X153477427Y-100602732D01*
X153597267Y-100722572D01*
X153597271Y-100722575D01*
X153741507Y-100811542D01*
X153741518Y-100811547D01*
X153902393Y-100864855D01*
X154001683Y-100874999D01*
X154049999Y-100874998D01*
X154050000Y-100874998D01*
X154050000Y-100175000D01*
X153325001Y-100175000D01*
X153325001Y-100198322D01*
X152615500Y-100198322D01*
X152615500Y-99681448D01*
X152605506Y-99592750D01*
X152600842Y-99551351D01*
X152600841Y-99551349D01*
X152600841Y-99551343D01*
X152543122Y-99386394D01*
X152543119Y-99386390D01*
X152540098Y-99380114D01*
X152542420Y-99378995D01*
X152526637Y-99323186D01*
X152546991Y-99256347D01*
X152562951Y-99236743D01*
X152574641Y-99225053D01*
X152602200Y-99197494D01*
X152686123Y-99058669D01*
X152687787Y-99053327D01*
X152726525Y-98995180D01*
X152790550Y-98967206D01*
X152859535Y-98978287D01*
G37*
%TD.AperFunction*%
%TA.AperFunction,Conductor*%
G36*
X144980703Y-102356756D02*
G01*
X145005039Y-102385372D01*
X145077428Y-102502733D01*
X145170877Y-102596182D01*
X145186592Y-102624963D01*
X145203341Y-102653183D01*
X145203259Y-102655485D01*
X145204362Y-102657505D01*
X145202022Y-102690221D01*
X145200855Y-102723008D01*
X145199542Y-102724899D01*
X145199378Y-102727197D01*
X145179718Y-102753458D01*
X145161014Y-102780405D01*
X145158533Y-102781757D01*
X145157506Y-102783130D01*
X145130662Y-102798418D01*
X145126464Y-102800157D01*
X145005666Y-102840186D01*
X144956149Y-102870727D01*
X144946966Y-102874533D01*
X144921710Y-102877251D01*
X144897202Y-102883957D01*
X144887551Y-102880927D01*
X144877498Y-102882010D01*
X144854779Y-102870641D01*
X144830539Y-102863033D01*
X144824059Y-102855268D01*
X144815015Y-102850743D01*
X144802048Y-102828894D01*
X144785771Y-102809391D01*
X144783236Y-102797198D01*
X144779355Y-102790658D01*
X144779723Y-102780298D01*
X144775500Y-102759978D01*
X144775500Y-102450469D01*
X144795185Y-102383430D01*
X144847989Y-102337675D01*
X144917147Y-102327731D01*
X144980703Y-102356756D01*
G37*
%TD.AperFunction*%
%TA.AperFunction,Conductor*%
G36*
X157467106Y-98614352D02*
G01*
X157468436Y-98614877D01*
X157556898Y-98625500D01*
X157654184Y-98625500D01*
X157657876Y-98625720D01*
X157687419Y-98636340D01*
X157717539Y-98645185D01*
X157720035Y-98648066D01*
X157723626Y-98649357D01*
X157742745Y-98674274D01*
X157763294Y-98697989D01*
X157764224Y-98702268D01*
X157766159Y-98704789D01*
X157767021Y-98715124D01*
X157774500Y-98749500D01*
X157774500Y-98843102D01*
X157780222Y-98890754D01*
X157785561Y-98935217D01*
X157785561Y-98964783D01*
X157781911Y-98995180D01*
X157774500Y-99056898D01*
X157774500Y-99243102D01*
X157779697Y-99286376D01*
X157785561Y-99335217D01*
X157786226Y-99357374D01*
X157785645Y-99367109D01*
X157785123Y-99368436D01*
X157774500Y-99456898D01*
X157774500Y-99554198D01*
X157774281Y-99557874D01*
X157763657Y-99587426D01*
X157754815Y-99617539D01*
X157751934Y-99620034D01*
X157750644Y-99623625D01*
X157725728Y-99642742D01*
X157702011Y-99663294D01*
X157697731Y-99664225D01*
X157695212Y-99666158D01*
X157684881Y-99667020D01*
X157650500Y-99674500D01*
X157556898Y-99674500D01*
X157513440Y-99679718D01*
X157464783Y-99685561D01*
X157435217Y-99685561D01*
X157386559Y-99679718D01*
X157343102Y-99674500D01*
X157156898Y-99674500D01*
X157113440Y-99679718D01*
X157064783Y-99685561D01*
X157042626Y-99686226D01*
X157032890Y-99685645D01*
X157031564Y-99685123D01*
X156943102Y-99674500D01*
X156845802Y-99674500D01*
X156842126Y-99674281D01*
X156812573Y-99663657D01*
X156782461Y-99654815D01*
X156779965Y-99651934D01*
X156776375Y-99650644D01*
X156757257Y-99625728D01*
X156736706Y-99602011D01*
X156735774Y-99597731D01*
X156733842Y-99595212D01*
X156732979Y-99584881D01*
X156725500Y-99550500D01*
X156725500Y-99456897D01*
X156723569Y-99440821D01*
X156714877Y-99368436D01*
X156714876Y-99368434D01*
X156714438Y-99364785D01*
X156714438Y-99335215D01*
X156714876Y-99331565D01*
X156714877Y-99331564D01*
X156725500Y-99243102D01*
X156725500Y-99056898D01*
X156714877Y-98968436D01*
X156714876Y-98968434D01*
X156714438Y-98964785D01*
X156713771Y-98942643D01*
X156714350Y-98932899D01*
X156714877Y-98931564D01*
X156725500Y-98843102D01*
X156725500Y-98745310D01*
X156725718Y-98741643D01*
X156736340Y-98712082D01*
X156745185Y-98681961D01*
X156748058Y-98679470D01*
X156749346Y-98675889D01*
X156774265Y-98656762D01*
X156797989Y-98636206D01*
X156802258Y-98635277D01*
X156804772Y-98633348D01*
X156815095Y-98632484D01*
X156849500Y-98625000D01*
X156943059Y-98625000D01*
X157033110Y-98614185D01*
X157062682Y-98614185D01*
X157068432Y-98614875D01*
X157068436Y-98614877D01*
X157156898Y-98625500D01*
X157156899Y-98625500D01*
X157343103Y-98625500D01*
X157359178Y-98623569D01*
X157431564Y-98614877D01*
X157431565Y-98614876D01*
X157435215Y-98614438D01*
X157457376Y-98613773D01*
X157467106Y-98614352D01*
G37*
%TD.AperFunction*%
%TA.AperFunction,Conductor*%
G36*
X155232819Y-96245185D02*
G01*
X155278574Y-96297989D01*
X155288518Y-96367147D01*
X155273167Y-96411501D01*
X155263719Y-96427864D01*
X155224500Y-96574234D01*
X155224500Y-97499126D01*
X155204815Y-97566165D01*
X155152011Y-97611920D01*
X155082853Y-97621864D01*
X155019297Y-97592839D01*
X155012819Y-97586807D01*
X155003044Y-97577032D01*
X155003040Y-97577029D01*
X154858705Y-97488001D01*
X154858699Y-97487998D01*
X154858697Y-97487997D01*
X154858109Y-97487802D01*
X154697709Y-97434651D01*
X154598346Y-97424500D01*
X154001662Y-97424500D01*
X154001644Y-97424501D01*
X153902292Y-97434650D01*
X153902289Y-97434651D01*
X153741305Y-97487996D01*
X153741296Y-97488001D01*
X153655520Y-97540907D01*
X153588127Y-97559347D01*
X153564630Y-97555641D01*
X153564470Y-97556451D01*
X153403844Y-97524500D01*
X153403842Y-97524500D01*
X153246158Y-97524500D01*
X153246155Y-97524500D01*
X153091510Y-97555261D01*
X153091498Y-97555264D01*
X152945827Y-97615602D01*
X152945809Y-97615612D01*
X152814587Y-97703292D01*
X152747910Y-97724170D01*
X152680530Y-97705685D01*
X152639581Y-97664341D01*
X152609641Y-97614815D01*
X152602200Y-97602506D01*
X152602199Y-97602505D01*
X152602196Y-97602501D01*
X152487497Y-97487802D01*
X152457801Y-97469850D01*
X152348669Y-97403877D01*
X152348666Y-97403876D01*
X152348663Y-97403874D01*
X152193795Y-97355616D01*
X152193796Y-97355616D01*
X152176968Y-97354087D01*
X152126490Y-97349500D01*
X151683510Y-97349500D01*
X151643127Y-97353169D01*
X151616203Y-97355616D01*
X151461336Y-97403874D01*
X151461333Y-97403876D01*
X151461331Y-97403876D01*
X151461331Y-97403877D01*
X151403572Y-97438794D01*
X151384150Y-97450535D01*
X151316595Y-97468371D01*
X151255850Y-97450535D01*
X151239568Y-97440692D01*
X151178669Y-97403877D01*
X151178666Y-97403876D01*
X151178663Y-97403874D01*
X151023795Y-97355616D01*
X151023796Y-97355616D01*
X151006968Y-97354087D01*
X150956490Y-97349500D01*
X150513510Y-97349500D01*
X150473127Y-97353169D01*
X150446203Y-97355616D01*
X150291336Y-97403874D01*
X150291328Y-97403878D01*
X150202429Y-97457619D01*
X150134874Y-97475455D01*
X150074130Y-97457619D01*
X150065159Y-97452196D01*
X149989606Y-97406522D01*
X149827196Y-97355914D01*
X149827194Y-97355913D01*
X149827192Y-97355913D01*
X149777778Y-97351423D01*
X149756616Y-97349500D01*
X149373384Y-97349500D01*
X149354145Y-97351248D01*
X149302807Y-97355913D01*
X149140393Y-97406522D01*
X149044150Y-97464704D01*
X148976595Y-97482540D01*
X148915850Y-97464704D01*
X148895159Y-97452196D01*
X148819606Y-97406522D01*
X148657196Y-97355914D01*
X148657194Y-97355913D01*
X148657192Y-97355913D01*
X148607778Y-97351423D01*
X148586616Y-97349500D01*
X147893384Y-97349500D01*
X147874145Y-97351248D01*
X147822807Y-97355913D01*
X147660393Y-97406522D01*
X147514811Y-97494530D01*
X147394530Y-97614811D01*
X147306522Y-97760393D01*
X147255913Y-97922807D01*
X147249500Y-97993386D01*
X147249500Y-98806613D01*
X147255913Y-98877192D01*
X147255913Y-98877194D01*
X147255914Y-98877196D01*
X147273994Y-98935217D01*
X147306522Y-99039606D01*
X147394530Y-99185188D01*
X147434395Y-99225053D01*
X147467880Y-99286376D01*
X147462896Y-99356068D01*
X147461372Y-99359953D01*
X147457340Y-99369743D01*
X147446878Y-99386394D01*
X147426499Y-99444630D01*
X147425228Y-99447719D01*
X147405367Y-99472467D01*
X147386889Y-99498231D01*
X147383668Y-99499507D01*
X147381498Y-99502212D01*
X147351416Y-99512292D01*
X147321937Y-99523978D01*
X147315687Y-99524264D01*
X147315249Y-99524412D01*
X147314824Y-99524304D01*
X147310570Y-99524500D01*
X146881224Y-99524500D01*
X146814185Y-99504815D01*
X146768430Y-99452011D01*
X146758486Y-99382853D01*
X146775107Y-99336350D01*
X146783065Y-99323186D01*
X146818478Y-99264606D01*
X146869086Y-99102196D01*
X146875500Y-99031616D01*
X146875500Y-98518384D01*
X146869086Y-98447804D01*
X146818478Y-98285394D01*
X146730472Y-98139815D01*
X146730470Y-98139813D01*
X146730469Y-98139811D01*
X146628339Y-98037681D01*
X146594854Y-97976358D01*
X146599838Y-97906666D01*
X146628339Y-97862319D01*
X146730468Y-97760189D01*
X146730469Y-97760188D01*
X146730472Y-97760185D01*
X146818478Y-97614606D01*
X146869086Y-97452196D01*
X146875500Y-97381616D01*
X146875500Y-96868384D01*
X146869086Y-96797804D01*
X146818478Y-96635394D01*
X146730472Y-96489815D01*
X146730470Y-96489813D01*
X146730469Y-96489811D01*
X146677839Y-96437181D01*
X146644354Y-96375858D01*
X146649338Y-96306166D01*
X146691210Y-96250233D01*
X146756674Y-96225816D01*
X146765520Y-96225500D01*
X155165780Y-96225500D01*
X155232819Y-96245185D01*
G37*
%TD.AperFunction*%
%TD*%
M02*
