%TF.GenerationSoftware,KiCad,Pcbnew,9.0.3*%
%TF.CreationDate,2025-07-22T22:17:19-05:00*%
%TF.ProjectId,openoshi-lightboard,6f70656e-6f73-4686-992d-6c6967687462,rev?*%
%TF.SameCoordinates,Original*%
%TF.FileFunction,Soldermask,Top*%
%TF.FilePolarity,Negative*%
%FSLAX46Y46*%
G04 Gerber Fmt 4.6, Leading zero omitted, Abs format (unit mm)*
G04 Created by KiCad (PCBNEW 9.0.3) date 2025-07-22 22:17:19*
%MOMM*%
%LPD*%
G01*
G04 APERTURE LIST*
G04 APERTURE END LIST*
G36*
X141680854Y-110315258D02*
G01*
X141693182Y-110323496D01*
X142339760Y-110970074D01*
X142347998Y-110982402D01*
X142350890Y-110996944D01*
X142347998Y-111011486D01*
X142339760Y-111023814D01*
X141693182Y-111670392D01*
X141680854Y-111678630D01*
X141666312Y-111681522D01*
X141653307Y-111678935D01*
X141631288Y-111685615D01*
X141326648Y-111990255D01*
X141316082Y-111994632D01*
X141305515Y-111990255D01*
X140511355Y-111196095D01*
X140506978Y-111185529D01*
X140511355Y-111174962D01*
X140964265Y-110722052D01*
X140974832Y-110717675D01*
X140985398Y-110722052D01*
X141092432Y-110829085D01*
X141133852Y-110829085D01*
X141635962Y-110326975D01*
X141635965Y-110326972D01*
X141639442Y-110323496D01*
X141651770Y-110315258D01*
X141666312Y-110312366D01*
X141680854Y-110315258D01*
G37*
G36*
X158398231Y-110265258D02*
G01*
X158410559Y-110273496D01*
X158916148Y-110779085D01*
X158957568Y-110779085D01*
X159064600Y-110672053D01*
X159075169Y-110667675D01*
X159085735Y-110672052D01*
X159538645Y-111124962D01*
X159543022Y-111135529D01*
X159538645Y-111146095D01*
X158744485Y-111940255D01*
X158733919Y-111944632D01*
X158723352Y-111940255D01*
X158418711Y-111635615D01*
X158396691Y-111628936D01*
X158383689Y-111631522D01*
X158369147Y-111628630D01*
X158356819Y-111620392D01*
X157710241Y-110973814D01*
X157702003Y-110961486D01*
X157699111Y-110946944D01*
X157702003Y-110932402D01*
X157710241Y-110920074D01*
X157962640Y-110667675D01*
X158353339Y-110276975D01*
X158353342Y-110276972D01*
X158356819Y-110273496D01*
X158369147Y-110265258D01*
X158383689Y-110262366D01*
X158398231Y-110265258D01*
G37*
G36*
X142455400Y-109051288D02*
G01*
X142467729Y-109059525D01*
X142970623Y-109562419D01*
X142978860Y-109574748D01*
X142981753Y-109589289D01*
X142978860Y-109603831D01*
X142970623Y-109616159D01*
X142198321Y-110388461D01*
X142185993Y-110396698D01*
X142171451Y-110399591D01*
X142156910Y-110396698D01*
X142144581Y-110388461D01*
X141641687Y-109885567D01*
X141633450Y-109873238D01*
X141630557Y-109858697D01*
X141633450Y-109844155D01*
X141641687Y-109831827D01*
X142027837Y-109445677D01*
X142410507Y-109063006D01*
X142410510Y-109063003D01*
X142413989Y-109059525D01*
X142426317Y-109051288D01*
X142440859Y-109048395D01*
X142455400Y-109051288D01*
G37*
G36*
X157623684Y-109001288D02*
G01*
X157636012Y-109009525D01*
X158408314Y-109781827D01*
X158416551Y-109794155D01*
X158419444Y-109808697D01*
X158416551Y-109823238D01*
X158408314Y-109835567D01*
X157905420Y-110338461D01*
X157893091Y-110346698D01*
X157878550Y-110349591D01*
X157864008Y-110346698D01*
X157851680Y-110338461D01*
X157079378Y-109566159D01*
X157071141Y-109553831D01*
X157068248Y-109539289D01*
X157071141Y-109524748D01*
X157079378Y-109512419D01*
X157330824Y-109260973D01*
X157578790Y-109013006D01*
X157578793Y-109013003D01*
X157582272Y-109009525D01*
X157594601Y-109001288D01*
X157609142Y-108998395D01*
X157623684Y-109001288D01*
G37*
G36*
X141330624Y-107710984D02*
G01*
X141342952Y-107719221D01*
X142330780Y-108707049D01*
X142339017Y-108719377D01*
X142341910Y-108733919D01*
X142339017Y-108748461D01*
X142330780Y-108760789D01*
X141558478Y-109533091D01*
X141546150Y-109541328D01*
X141531608Y-109544221D01*
X141517066Y-109541328D01*
X141504738Y-109533091D01*
X140516910Y-108545263D01*
X140508673Y-108532935D01*
X140505780Y-108518393D01*
X140508673Y-108503851D01*
X140516910Y-108491523D01*
X140903060Y-108105373D01*
X141285730Y-107722702D01*
X141285733Y-107722699D01*
X141289212Y-107719221D01*
X141301540Y-107710984D01*
X141316082Y-107708091D01*
X141330624Y-107710984D01*
G37*
G36*
X139067599Y-107702003D02*
G01*
X139079927Y-107710241D01*
X139726505Y-108356819D01*
X139734743Y-108369147D01*
X139737635Y-108383689D01*
X139734743Y-108398231D01*
X139726505Y-108410559D01*
X139220915Y-108916149D01*
X139220915Y-108957568D01*
X139327948Y-109064602D01*
X139332325Y-109075169D01*
X139327948Y-109085735D01*
X138875038Y-109538645D01*
X138864472Y-109543022D01*
X138853905Y-109538645D01*
X138059745Y-108744485D01*
X138055368Y-108733919D01*
X138059745Y-108723352D01*
X138364384Y-108418712D01*
X138371064Y-108396690D01*
X138368479Y-108383689D01*
X138371371Y-108369147D01*
X138379609Y-108356819D01*
X138541352Y-108195076D01*
X139022707Y-107713720D01*
X139022710Y-107713717D01*
X139026187Y-107710241D01*
X139038515Y-107702003D01*
X139053057Y-107699111D01*
X139067599Y-107702003D01*
G37*
G36*
X158748461Y-107660984D02*
G01*
X158760789Y-107669221D01*
X159533091Y-108441523D01*
X159541328Y-108453851D01*
X159544221Y-108468393D01*
X159541328Y-108482935D01*
X159533091Y-108495263D01*
X158545263Y-109483091D01*
X158532935Y-109491328D01*
X158518393Y-109494221D01*
X158503851Y-109491328D01*
X158491523Y-109483091D01*
X157719221Y-108710789D01*
X157710984Y-108698461D01*
X157708091Y-108683919D01*
X157710984Y-108669377D01*
X157719221Y-108657049D01*
X158213134Y-108163136D01*
X158703567Y-107672702D01*
X158703570Y-107672699D01*
X158707049Y-107669221D01*
X158719377Y-107660984D01*
X158733919Y-107658091D01*
X158748461Y-107660984D01*
G37*
G36*
X161011486Y-107652003D02*
G01*
X161023814Y-107660241D01*
X161670392Y-108306819D01*
X161678630Y-108319147D01*
X161681522Y-108333689D01*
X161678936Y-108346691D01*
X161685615Y-108368711D01*
X161990255Y-108673352D01*
X161994632Y-108683919D01*
X161990255Y-108694485D01*
X161196095Y-109488645D01*
X161185529Y-109493022D01*
X161174962Y-109488645D01*
X160722052Y-109035735D01*
X160717675Y-109025169D01*
X160722053Y-109014600D01*
X160829085Y-108907568D01*
X160829085Y-108866148D01*
X160326975Y-108364038D01*
X160323496Y-108360559D01*
X160315258Y-108348231D01*
X160312366Y-108333689D01*
X160315258Y-108319147D01*
X160323496Y-108306819D01*
X160435239Y-108195076D01*
X160966594Y-107663720D01*
X160966597Y-107663717D01*
X160970074Y-107660241D01*
X160982402Y-107652003D01*
X160996944Y-107649111D01*
X161011486Y-107652003D01*
G37*
G36*
X145833676Y-108518699D02*
G01*
X145862225Y-108537775D01*
X145881301Y-108566324D01*
X145888000Y-108600000D01*
X145888000Y-108900000D01*
X145881301Y-108933676D01*
X145862225Y-108962225D01*
X145833676Y-108981301D01*
X145800000Y-108988000D01*
X145650000Y-108988000D01*
X145616324Y-108981301D01*
X145587775Y-108962225D01*
X145568699Y-108933676D01*
X145562000Y-108900000D01*
X145562000Y-108600000D01*
X145568699Y-108566324D01*
X145587775Y-108537775D01*
X145616324Y-108518699D01*
X145650000Y-108512000D01*
X145800000Y-108512000D01*
X145833676Y-108518699D01*
G37*
G36*
X146283676Y-108518699D02*
G01*
X146312225Y-108537775D01*
X146331301Y-108566324D01*
X146338000Y-108600000D01*
X146338000Y-108900000D01*
X146331301Y-108933676D01*
X146312225Y-108962225D01*
X146283676Y-108981301D01*
X146250000Y-108988000D01*
X146100000Y-108988000D01*
X146066324Y-108981301D01*
X146037775Y-108962225D01*
X146018699Y-108933676D01*
X146012000Y-108900000D01*
X146012000Y-108600000D01*
X146018699Y-108566324D01*
X146037775Y-108537775D01*
X146066324Y-108518699D01*
X146100000Y-108512000D01*
X146250000Y-108512000D01*
X146283676Y-108518699D01*
G37*
G36*
X148283676Y-108518699D02*
G01*
X148312225Y-108537775D01*
X148331301Y-108566324D01*
X148338000Y-108600000D01*
X148338000Y-108900000D01*
X148331301Y-108933676D01*
X148312225Y-108962225D01*
X148283676Y-108981301D01*
X148250000Y-108988000D01*
X148100000Y-108988000D01*
X148066324Y-108981301D01*
X148037775Y-108962225D01*
X148018699Y-108933676D01*
X148012000Y-108900000D01*
X148012000Y-108600000D01*
X148018699Y-108566324D01*
X148037775Y-108537775D01*
X148066324Y-108518699D01*
X148100000Y-108512000D01*
X148250000Y-108512000D01*
X148283676Y-108518699D01*
G37*
G36*
X148733676Y-108518699D02*
G01*
X148762225Y-108537775D01*
X148781301Y-108566324D01*
X148788000Y-108600000D01*
X148788000Y-108900000D01*
X148781301Y-108933676D01*
X148762225Y-108962225D01*
X148733676Y-108981301D01*
X148700000Y-108988000D01*
X148550000Y-108988000D01*
X148516324Y-108981301D01*
X148487775Y-108962225D01*
X148468699Y-108933676D01*
X148462000Y-108900000D01*
X148462000Y-108600000D01*
X148468699Y-108566324D01*
X148487775Y-108537775D01*
X148516324Y-108518699D01*
X148550000Y-108512000D01*
X148700000Y-108512000D01*
X148733676Y-108518699D01*
G37*
G36*
X150683676Y-108518699D02*
G01*
X150712225Y-108537775D01*
X150731301Y-108566324D01*
X150738000Y-108600000D01*
X150738000Y-108900000D01*
X150731301Y-108933676D01*
X150712225Y-108962225D01*
X150683676Y-108981301D01*
X150650000Y-108988000D01*
X150500000Y-108988000D01*
X150466324Y-108981301D01*
X150437775Y-108962225D01*
X150418699Y-108933676D01*
X150412000Y-108900000D01*
X150412000Y-108600000D01*
X150418699Y-108566324D01*
X150437775Y-108537775D01*
X150466324Y-108518699D01*
X150500000Y-108512000D01*
X150650000Y-108512000D01*
X150683676Y-108518699D01*
G37*
G36*
X151133676Y-108518699D02*
G01*
X151162225Y-108537775D01*
X151181301Y-108566324D01*
X151188000Y-108600000D01*
X151188000Y-108900000D01*
X151181301Y-108933676D01*
X151162225Y-108962225D01*
X151133676Y-108981301D01*
X151100000Y-108988000D01*
X150950000Y-108988000D01*
X150916324Y-108981301D01*
X150887775Y-108962225D01*
X150868699Y-108933676D01*
X150862000Y-108900000D01*
X150862000Y-108600000D01*
X150868699Y-108566324D01*
X150887775Y-108537775D01*
X150916324Y-108518699D01*
X150950000Y-108512000D01*
X151100000Y-108512000D01*
X151133676Y-108518699D01*
G37*
G36*
X153083676Y-108518699D02*
G01*
X153112225Y-108537775D01*
X153131301Y-108566324D01*
X153138000Y-108600000D01*
X153138000Y-108900000D01*
X153131301Y-108933676D01*
X153112225Y-108962225D01*
X153083676Y-108981301D01*
X153050000Y-108988000D01*
X152900000Y-108988000D01*
X152866324Y-108981301D01*
X152837775Y-108962225D01*
X152818699Y-108933676D01*
X152812000Y-108900000D01*
X152812000Y-108600000D01*
X152818699Y-108566324D01*
X152837775Y-108537775D01*
X152866324Y-108518699D01*
X152900000Y-108512000D01*
X153050000Y-108512000D01*
X153083676Y-108518699D01*
G37*
G36*
X153533676Y-108518699D02*
G01*
X153562225Y-108537775D01*
X153581301Y-108566324D01*
X153588000Y-108600000D01*
X153588000Y-108900000D01*
X153581301Y-108933676D01*
X153562225Y-108962225D01*
X153533676Y-108981301D01*
X153500000Y-108988000D01*
X153350000Y-108988000D01*
X153316324Y-108981301D01*
X153287775Y-108962225D01*
X153268699Y-108933676D01*
X153262000Y-108900000D01*
X153262000Y-108600000D01*
X153268699Y-108566324D01*
X153287775Y-108537775D01*
X153316324Y-108518699D01*
X153350000Y-108512000D01*
X153500000Y-108512000D01*
X153533676Y-108518699D01*
G37*
G36*
X140475253Y-107071141D02*
G01*
X140487582Y-107079378D01*
X140990476Y-107582272D01*
X140998713Y-107594601D01*
X141001606Y-107609142D01*
X140998713Y-107623684D01*
X140990476Y-107636012D01*
X140218174Y-108408314D01*
X140205846Y-108416551D01*
X140191304Y-108419444D01*
X140176763Y-108416551D01*
X140164434Y-108408314D01*
X139661540Y-107905420D01*
X139653303Y-107893091D01*
X139650410Y-107878550D01*
X139653303Y-107864008D01*
X139661540Y-107851680D01*
X140202934Y-107310286D01*
X140430360Y-107082859D01*
X140430363Y-107082856D01*
X140433842Y-107079378D01*
X140446170Y-107071141D01*
X140460712Y-107068248D01*
X140475253Y-107071141D01*
G37*
G36*
X159603831Y-107021141D02*
G01*
X159616159Y-107029378D01*
X160388461Y-107801680D01*
X160396698Y-107814008D01*
X160399591Y-107828550D01*
X160396698Y-107843091D01*
X160388461Y-107855420D01*
X159885567Y-108358314D01*
X159873238Y-108366551D01*
X159858697Y-108369444D01*
X159844155Y-108366551D01*
X159831827Y-108358314D01*
X159059525Y-107586012D01*
X159051288Y-107573684D01*
X159048395Y-107559142D01*
X159051288Y-107544601D01*
X159059525Y-107532272D01*
X159354038Y-107237759D01*
X159558937Y-107032859D01*
X159558940Y-107032856D01*
X159562419Y-107029378D01*
X159574748Y-107021141D01*
X159589289Y-107018248D01*
X159603831Y-107021141D01*
G37*
G36*
X146283676Y-107818699D02*
G01*
X146312225Y-107837775D01*
X146331301Y-107866324D01*
X146338000Y-107900000D01*
X146338000Y-108200000D01*
X146331301Y-108233676D01*
X146312225Y-108262225D01*
X146283676Y-108281301D01*
X146250000Y-108288000D01*
X145650000Y-108288000D01*
X145616324Y-108281301D01*
X145587775Y-108262225D01*
X145568699Y-108233676D01*
X145562000Y-108200000D01*
X145562000Y-107900000D01*
X145568699Y-107866324D01*
X145587775Y-107837775D01*
X145616324Y-107818699D01*
X145650000Y-107812000D01*
X146250000Y-107812000D01*
X146283676Y-107818699D01*
G37*
G36*
X148733676Y-107818699D02*
G01*
X148762225Y-107837775D01*
X148781301Y-107866324D01*
X148788000Y-107900000D01*
X148788000Y-108200000D01*
X148781301Y-108233676D01*
X148762225Y-108262225D01*
X148733676Y-108281301D01*
X148700000Y-108288000D01*
X148100000Y-108288000D01*
X148066324Y-108281301D01*
X148037775Y-108262225D01*
X148018699Y-108233676D01*
X148012000Y-108200000D01*
X148012000Y-107900000D01*
X148018699Y-107866324D01*
X148037775Y-107837775D01*
X148066324Y-107818699D01*
X148100000Y-107812000D01*
X148700000Y-107812000D01*
X148733676Y-107818699D01*
G37*
G36*
X151133676Y-107818699D02*
G01*
X151162225Y-107837775D01*
X151181301Y-107866324D01*
X151188000Y-107900000D01*
X151188000Y-108200000D01*
X151181301Y-108233676D01*
X151162225Y-108262225D01*
X151133676Y-108281301D01*
X151100000Y-108288000D01*
X150500000Y-108288000D01*
X150466324Y-108281301D01*
X150437775Y-108262225D01*
X150418699Y-108233676D01*
X150412000Y-108200000D01*
X150412000Y-107900000D01*
X150418699Y-107866324D01*
X150437775Y-107837775D01*
X150466324Y-107818699D01*
X150500000Y-107812000D01*
X151100000Y-107812000D01*
X151133676Y-107818699D01*
G37*
G36*
X153533676Y-107818699D02*
G01*
X153562225Y-107837775D01*
X153581301Y-107866324D01*
X153588000Y-107900000D01*
X153588000Y-108200000D01*
X153581301Y-108233676D01*
X153562225Y-108262225D01*
X153533676Y-108281301D01*
X153500000Y-108288000D01*
X152900000Y-108288000D01*
X152866324Y-108281301D01*
X152837775Y-108262225D01*
X152818699Y-108233676D01*
X152812000Y-108200000D01*
X152812000Y-107900000D01*
X152818699Y-107866324D01*
X152837775Y-107837775D01*
X152866324Y-107818699D01*
X152900000Y-107812000D01*
X153500000Y-107812000D01*
X153533676Y-107818699D01*
G37*
G36*
X146640938Y-106169650D02*
G01*
X146645653Y-106171732D01*
X146648326Y-106172084D01*
X146681770Y-106187679D01*
X146737759Y-106212401D01*
X146812599Y-106287241D01*
X146837330Y-106343251D01*
X146852915Y-106376673D01*
X146853266Y-106379343D01*
X146855350Y-106384062D01*
X146863000Y-106450000D01*
X146863000Y-107075000D01*
X146855350Y-107140938D01*
X146853266Y-107145656D01*
X146852915Y-107148326D01*
X146837338Y-107181730D01*
X146812599Y-107237759D01*
X146737759Y-107312599D01*
X146681730Y-107337338D01*
X146648326Y-107352915D01*
X146645656Y-107353266D01*
X146640938Y-107355350D01*
X146575000Y-107363000D01*
X145325000Y-107363000D01*
X145259062Y-107355350D01*
X145254343Y-107353266D01*
X145251673Y-107352915D01*
X145218251Y-107337330D01*
X145162241Y-107312599D01*
X145087401Y-107237759D01*
X145062679Y-107181770D01*
X145047084Y-107148326D01*
X145046732Y-107145653D01*
X145044650Y-107140938D01*
X145037000Y-107075000D01*
X145037000Y-106450000D01*
X145044650Y-106384062D01*
X145046732Y-106379346D01*
X145047084Y-106376673D01*
X145062687Y-106343210D01*
X145087401Y-106287241D01*
X145162241Y-106212401D01*
X145218210Y-106187687D01*
X145251673Y-106172084D01*
X145254346Y-106171732D01*
X145259062Y-106169650D01*
X145325000Y-106162000D01*
X146575000Y-106162000D01*
X146640938Y-106169650D01*
G37*
G36*
X149090938Y-106169650D02*
G01*
X149095653Y-106171732D01*
X149098326Y-106172084D01*
X149131770Y-106187679D01*
X149187759Y-106212401D01*
X149262599Y-106287241D01*
X149287330Y-106343251D01*
X149302915Y-106376673D01*
X149303266Y-106379343D01*
X149305350Y-106384062D01*
X149313000Y-106450000D01*
X149313000Y-107075000D01*
X149305350Y-107140938D01*
X149303266Y-107145656D01*
X149302915Y-107148326D01*
X149287338Y-107181730D01*
X149262599Y-107237759D01*
X149187759Y-107312599D01*
X149131730Y-107337338D01*
X149098326Y-107352915D01*
X149095656Y-107353266D01*
X149090938Y-107355350D01*
X149025000Y-107363000D01*
X147775000Y-107363000D01*
X147709062Y-107355350D01*
X147704343Y-107353266D01*
X147701673Y-107352915D01*
X147668251Y-107337330D01*
X147612241Y-107312599D01*
X147537401Y-107237759D01*
X147512679Y-107181770D01*
X147497084Y-107148326D01*
X147496732Y-107145653D01*
X147494650Y-107140938D01*
X147487000Y-107075000D01*
X147487000Y-106450000D01*
X147494650Y-106384062D01*
X147496732Y-106379346D01*
X147497084Y-106376673D01*
X147512687Y-106343210D01*
X147537401Y-106287241D01*
X147612241Y-106212401D01*
X147668210Y-106187687D01*
X147701673Y-106172084D01*
X147704346Y-106171732D01*
X147709062Y-106169650D01*
X147775000Y-106162000D01*
X149025000Y-106162000D01*
X149090938Y-106169650D01*
G37*
G36*
X151490938Y-106169650D02*
G01*
X151495653Y-106171732D01*
X151498326Y-106172084D01*
X151531770Y-106187679D01*
X151587759Y-106212401D01*
X151662599Y-106287241D01*
X151687330Y-106343251D01*
X151702915Y-106376673D01*
X151703266Y-106379343D01*
X151705350Y-106384062D01*
X151713000Y-106450000D01*
X151713000Y-107075000D01*
X151705350Y-107140938D01*
X151703266Y-107145656D01*
X151702915Y-107148326D01*
X151687338Y-107181730D01*
X151662599Y-107237759D01*
X151587759Y-107312599D01*
X151531730Y-107337338D01*
X151498326Y-107352915D01*
X151495656Y-107353266D01*
X151490938Y-107355350D01*
X151425000Y-107363000D01*
X150175000Y-107363000D01*
X150109062Y-107355350D01*
X150104343Y-107353266D01*
X150101673Y-107352915D01*
X150068251Y-107337330D01*
X150012241Y-107312599D01*
X149937401Y-107237759D01*
X149912679Y-107181770D01*
X149897084Y-107148326D01*
X149896732Y-107145653D01*
X149894650Y-107140938D01*
X149887000Y-107075000D01*
X149887000Y-106450000D01*
X149894650Y-106384062D01*
X149896732Y-106379346D01*
X149897084Y-106376673D01*
X149912687Y-106343210D01*
X149937401Y-106287241D01*
X150012241Y-106212401D01*
X150068210Y-106187687D01*
X150101673Y-106172084D01*
X150104346Y-106171732D01*
X150109062Y-106169650D01*
X150175000Y-106162000D01*
X151425000Y-106162000D01*
X151490938Y-106169650D01*
G37*
G36*
X153890938Y-106169650D02*
G01*
X153895653Y-106171732D01*
X153898326Y-106172084D01*
X153931770Y-106187679D01*
X153987759Y-106212401D01*
X154062599Y-106287241D01*
X154087330Y-106343251D01*
X154102915Y-106376673D01*
X154103266Y-106379343D01*
X154105350Y-106384062D01*
X154113000Y-106450000D01*
X154113000Y-107075000D01*
X154105350Y-107140938D01*
X154103266Y-107145656D01*
X154102915Y-107148326D01*
X154087338Y-107181730D01*
X154062599Y-107237759D01*
X153987759Y-107312599D01*
X153931730Y-107337338D01*
X153898326Y-107352915D01*
X153895656Y-107353266D01*
X153890938Y-107355350D01*
X153825000Y-107363000D01*
X152575000Y-107363000D01*
X152509062Y-107355350D01*
X152504343Y-107353266D01*
X152501673Y-107352915D01*
X152468251Y-107337330D01*
X152412241Y-107312599D01*
X152337401Y-107237759D01*
X152312679Y-107181770D01*
X152297084Y-107148326D01*
X152296732Y-107145653D01*
X152294650Y-107140938D01*
X152287000Y-107075000D01*
X152287000Y-106450000D01*
X152294650Y-106384062D01*
X152296732Y-106379346D01*
X152297084Y-106376673D01*
X152312687Y-106343210D01*
X152337401Y-106287241D01*
X152412241Y-106212401D01*
X152468210Y-106187687D01*
X152501673Y-106172084D01*
X152504346Y-106171732D01*
X152509062Y-106169650D01*
X152575000Y-106162000D01*
X153825000Y-106162000D01*
X153890938Y-106169650D01*
G37*
G36*
X146640938Y-103244650D02*
G01*
X146645653Y-103246732D01*
X146648326Y-103247084D01*
X146681770Y-103262679D01*
X146737759Y-103287401D01*
X146812599Y-103362241D01*
X146837330Y-103418251D01*
X146852915Y-103451673D01*
X146853266Y-103454343D01*
X146855350Y-103459062D01*
X146863000Y-103525000D01*
X146863000Y-104150000D01*
X146855350Y-104215938D01*
X146853266Y-104220656D01*
X146852915Y-104223326D01*
X146837338Y-104256730D01*
X146812599Y-104312759D01*
X146737759Y-104387599D01*
X146681730Y-104412338D01*
X146648326Y-104427915D01*
X146645656Y-104428266D01*
X146640938Y-104430350D01*
X146575000Y-104438000D01*
X145325000Y-104438000D01*
X145259062Y-104430350D01*
X145254343Y-104428266D01*
X145251673Y-104427915D01*
X145218251Y-104412330D01*
X145162241Y-104387599D01*
X145087401Y-104312759D01*
X145062679Y-104256770D01*
X145047084Y-104223326D01*
X145046732Y-104220653D01*
X145044650Y-104215938D01*
X145037000Y-104150000D01*
X145037000Y-103525000D01*
X145044650Y-103459062D01*
X145046732Y-103454346D01*
X145047084Y-103451673D01*
X145062687Y-103418210D01*
X145087401Y-103362241D01*
X145162241Y-103287401D01*
X145218210Y-103262687D01*
X145251673Y-103247084D01*
X145254346Y-103246732D01*
X145259062Y-103244650D01*
X145325000Y-103237000D01*
X146575000Y-103237000D01*
X146640938Y-103244650D01*
G37*
G36*
X149090938Y-103244650D02*
G01*
X149095653Y-103246732D01*
X149098326Y-103247084D01*
X149131770Y-103262679D01*
X149187759Y-103287401D01*
X149262599Y-103362241D01*
X149287330Y-103418251D01*
X149302915Y-103451673D01*
X149303266Y-103454343D01*
X149305350Y-103459062D01*
X149313000Y-103525000D01*
X149313000Y-104150000D01*
X149305350Y-104215938D01*
X149303266Y-104220656D01*
X149302915Y-104223326D01*
X149287338Y-104256730D01*
X149262599Y-104312759D01*
X149187759Y-104387599D01*
X149131730Y-104412338D01*
X149098326Y-104427915D01*
X149095656Y-104428266D01*
X149090938Y-104430350D01*
X149025000Y-104438000D01*
X147775000Y-104438000D01*
X147709062Y-104430350D01*
X147704343Y-104428266D01*
X147701673Y-104427915D01*
X147668251Y-104412330D01*
X147612241Y-104387599D01*
X147537401Y-104312759D01*
X147512679Y-104256770D01*
X147497084Y-104223326D01*
X147496732Y-104220653D01*
X147494650Y-104215938D01*
X147487000Y-104150000D01*
X147487000Y-103525000D01*
X147494650Y-103459062D01*
X147496732Y-103454346D01*
X147497084Y-103451673D01*
X147512687Y-103418210D01*
X147537401Y-103362241D01*
X147612241Y-103287401D01*
X147668210Y-103262687D01*
X147701673Y-103247084D01*
X147704346Y-103246732D01*
X147709062Y-103244650D01*
X147775000Y-103237000D01*
X149025000Y-103237000D01*
X149090938Y-103244650D01*
G37*
G36*
X151490938Y-103244650D02*
G01*
X151495653Y-103246732D01*
X151498326Y-103247084D01*
X151531770Y-103262679D01*
X151587759Y-103287401D01*
X151662599Y-103362241D01*
X151687330Y-103418251D01*
X151702915Y-103451673D01*
X151703266Y-103454343D01*
X151705350Y-103459062D01*
X151713000Y-103525000D01*
X151713000Y-104150000D01*
X151705350Y-104215938D01*
X151703266Y-104220656D01*
X151702915Y-104223326D01*
X151687338Y-104256730D01*
X151662599Y-104312759D01*
X151587759Y-104387599D01*
X151531730Y-104412338D01*
X151498326Y-104427915D01*
X151495656Y-104428266D01*
X151490938Y-104430350D01*
X151425000Y-104438000D01*
X150175000Y-104438000D01*
X150109062Y-104430350D01*
X150104343Y-104428266D01*
X150101673Y-104427915D01*
X150068251Y-104412330D01*
X150012241Y-104387599D01*
X149937401Y-104312759D01*
X149912679Y-104256770D01*
X149897084Y-104223326D01*
X149896732Y-104220653D01*
X149894650Y-104215938D01*
X149887000Y-104150000D01*
X149887000Y-103525000D01*
X149894650Y-103459062D01*
X149896732Y-103454346D01*
X149897084Y-103451673D01*
X149912687Y-103418210D01*
X149937401Y-103362241D01*
X150012241Y-103287401D01*
X150068210Y-103262687D01*
X150101673Y-103247084D01*
X150104346Y-103246732D01*
X150109062Y-103244650D01*
X150175000Y-103237000D01*
X151425000Y-103237000D01*
X151490938Y-103244650D01*
G37*
G36*
X153890938Y-103244650D02*
G01*
X153895653Y-103246732D01*
X153898326Y-103247084D01*
X153931770Y-103262679D01*
X153987759Y-103287401D01*
X154062599Y-103362241D01*
X154087330Y-103418251D01*
X154102915Y-103451673D01*
X154103266Y-103454343D01*
X154105350Y-103459062D01*
X154113000Y-103525000D01*
X154113000Y-104150000D01*
X154105350Y-104215938D01*
X154103266Y-104220656D01*
X154102915Y-104223326D01*
X154087338Y-104256730D01*
X154062599Y-104312759D01*
X153987759Y-104387599D01*
X153931730Y-104412338D01*
X153898326Y-104427915D01*
X153895656Y-104428266D01*
X153890938Y-104430350D01*
X153825000Y-104438000D01*
X152575000Y-104438000D01*
X152509062Y-104430350D01*
X152504343Y-104428266D01*
X152501673Y-104427915D01*
X152468251Y-104412330D01*
X152412241Y-104387599D01*
X152337401Y-104312759D01*
X152312679Y-104256770D01*
X152297084Y-104223326D01*
X152296732Y-104220653D01*
X152294650Y-104215938D01*
X152287000Y-104150000D01*
X152287000Y-103525000D01*
X152294650Y-103459062D01*
X152296732Y-103454346D01*
X152297084Y-103451673D01*
X152312687Y-103418210D01*
X152337401Y-103362241D01*
X152412241Y-103287401D01*
X152468210Y-103262687D01*
X152501673Y-103247084D01*
X152504346Y-103246732D01*
X152509062Y-103244650D01*
X152575000Y-103237000D01*
X153825000Y-103237000D01*
X153890938Y-103244650D01*
G37*
G36*
X140940938Y-102644650D02*
G01*
X140945653Y-102646732D01*
X140948326Y-102647084D01*
X140981770Y-102662679D01*
X141037759Y-102687401D01*
X141112599Y-102762241D01*
X141137330Y-102818251D01*
X141152915Y-102851673D01*
X141153266Y-102854343D01*
X141155350Y-102859062D01*
X141163000Y-102925000D01*
X141163000Y-103675000D01*
X141155350Y-103740938D01*
X141153266Y-103745656D01*
X141152915Y-103748326D01*
X141137338Y-103781730D01*
X141112599Y-103837759D01*
X141037759Y-103912599D01*
X140981730Y-103937338D01*
X140948326Y-103952915D01*
X140945656Y-103953266D01*
X140940938Y-103955350D01*
X140875000Y-103963000D01*
X138725000Y-103963000D01*
X138659062Y-103955350D01*
X138654343Y-103953266D01*
X138651673Y-103952915D01*
X138618251Y-103937330D01*
X138562241Y-103912599D01*
X138487401Y-103837759D01*
X138462679Y-103781770D01*
X138447084Y-103748326D01*
X138446732Y-103745653D01*
X138444650Y-103740938D01*
X138437000Y-103675000D01*
X138437000Y-102925000D01*
X138444650Y-102859062D01*
X138446732Y-102854346D01*
X138447084Y-102851673D01*
X138462687Y-102818210D01*
X138487401Y-102762241D01*
X138562241Y-102687401D01*
X138618210Y-102662687D01*
X138651673Y-102647084D01*
X138654346Y-102646732D01*
X138659062Y-102644650D01*
X138725000Y-102637000D01*
X140875000Y-102637000D01*
X140940938Y-102644650D01*
G37*
G36*
X146156409Y-101338274D02*
G01*
X146216852Y-101346232D01*
X146232057Y-101353322D01*
X146250646Y-101357020D01*
X146275266Y-101373470D01*
X146300407Y-101385194D01*
X146315702Y-101400489D01*
X146335969Y-101414031D01*
X146349510Y-101434297D01*
X146364805Y-101449592D01*
X146376527Y-101474730D01*
X146392980Y-101499354D01*
X146396677Y-101517944D01*
X146403767Y-101533147D01*
X146411722Y-101593577D01*
X146413000Y-101600000D01*
X146413000Y-102050000D01*
X146411722Y-102056424D01*
X146403767Y-102116852D01*
X146396678Y-102132054D01*
X146392980Y-102150646D01*
X146376525Y-102175271D01*
X146364805Y-102200407D01*
X146349512Y-102215699D01*
X146335969Y-102235969D01*
X146315699Y-102249512D01*
X146300407Y-102264805D01*
X146275271Y-102276525D01*
X146250646Y-102292980D01*
X146232054Y-102296678D01*
X146216852Y-102303767D01*
X146156424Y-102311722D01*
X146150000Y-102313000D01*
X145650000Y-102313000D01*
X145643577Y-102311722D01*
X145583147Y-102303767D01*
X145567944Y-102296677D01*
X145549354Y-102292980D01*
X145524730Y-102276527D01*
X145499592Y-102264805D01*
X145484297Y-102249510D01*
X145464031Y-102235969D01*
X145450489Y-102215702D01*
X145435194Y-102200407D01*
X145423470Y-102175266D01*
X145407020Y-102150646D01*
X145403322Y-102132057D01*
X145396232Y-102116852D01*
X145388274Y-102056409D01*
X145387000Y-102050000D01*
X145387000Y-101600000D01*
X145388274Y-101593592D01*
X145396232Y-101533147D01*
X145403322Y-101517940D01*
X145407020Y-101499354D01*
X145423469Y-101474735D01*
X145435194Y-101449592D01*
X145450491Y-101434294D01*
X145464031Y-101414031D01*
X145484294Y-101400491D01*
X145499592Y-101385194D01*
X145524735Y-101373469D01*
X145549354Y-101357020D01*
X145567940Y-101353322D01*
X145583147Y-101346232D01*
X145643592Y-101338274D01*
X145650000Y-101337000D01*
X146150000Y-101337000D01*
X146156409Y-101338274D01*
G37*
G36*
X148536409Y-100976275D02*
G01*
X148599958Y-100984641D01*
X148615943Y-100992095D01*
X148635238Y-100995933D01*
X148660792Y-101013008D01*
X148687290Y-101025364D01*
X148703412Y-101041486D01*
X148724454Y-101055546D01*
X148738513Y-101076587D01*
X148754635Y-101092709D01*
X148766990Y-101119204D01*
X148784067Y-101144762D01*
X148787905Y-101164058D01*
X148795358Y-101180041D01*
X148803722Y-101243577D01*
X148805000Y-101250000D01*
X148805000Y-101950000D01*
X148803722Y-101956424D01*
X148795358Y-102019958D01*
X148787905Y-102035939D01*
X148784067Y-102055238D01*
X148766988Y-102080797D01*
X148754635Y-102107290D01*
X148738516Y-102123408D01*
X148724454Y-102144454D01*
X148703408Y-102158516D01*
X148687290Y-102174635D01*
X148660797Y-102186988D01*
X148635238Y-102204067D01*
X148615939Y-102207905D01*
X148599958Y-102215358D01*
X148536424Y-102223722D01*
X148530000Y-102225000D01*
X147950000Y-102225000D01*
X147943577Y-102223722D01*
X147880041Y-102215358D01*
X147864058Y-102207905D01*
X147844762Y-102204067D01*
X147819204Y-102186990D01*
X147792709Y-102174635D01*
X147776587Y-102158513D01*
X147755546Y-102144454D01*
X147741486Y-102123412D01*
X147725364Y-102107290D01*
X147713008Y-102080792D01*
X147695933Y-102055238D01*
X147692095Y-102035943D01*
X147684641Y-102019958D01*
X147676275Y-101956409D01*
X147675000Y-101950000D01*
X147675000Y-101250000D01*
X147676274Y-101243592D01*
X147684641Y-101180041D01*
X147692095Y-101164054D01*
X147695933Y-101144762D01*
X147713006Y-101119209D01*
X147725364Y-101092709D01*
X147741488Y-101076584D01*
X147755546Y-101055546D01*
X147776584Y-101041488D01*
X147792709Y-101025364D01*
X147819209Y-101013006D01*
X147844762Y-100995933D01*
X147864054Y-100992095D01*
X147880041Y-100984641D01*
X147943592Y-100976274D01*
X147950000Y-100975000D01*
X148530000Y-100975000D01*
X148536409Y-100976275D01*
G37*
G36*
X149706409Y-100976275D02*
G01*
X149769958Y-100984641D01*
X149785943Y-100992095D01*
X149805238Y-100995933D01*
X149830792Y-101013008D01*
X149857290Y-101025364D01*
X149873412Y-101041486D01*
X149894454Y-101055546D01*
X149908513Y-101076587D01*
X149924635Y-101092709D01*
X149936990Y-101119204D01*
X149954067Y-101144762D01*
X149957905Y-101164058D01*
X149965358Y-101180041D01*
X149973722Y-101243577D01*
X149975000Y-101250000D01*
X149975000Y-101950000D01*
X149973722Y-101956424D01*
X149965358Y-102019958D01*
X149957905Y-102035939D01*
X149954067Y-102055238D01*
X149936988Y-102080797D01*
X149924635Y-102107290D01*
X149908516Y-102123408D01*
X149894454Y-102144454D01*
X149873408Y-102158516D01*
X149857290Y-102174635D01*
X149830797Y-102186988D01*
X149805238Y-102204067D01*
X149785939Y-102207905D01*
X149769958Y-102215358D01*
X149706424Y-102223722D01*
X149700000Y-102225000D01*
X149430000Y-102225000D01*
X149423577Y-102223722D01*
X149360041Y-102215358D01*
X149344058Y-102207905D01*
X149324762Y-102204067D01*
X149299204Y-102186990D01*
X149272709Y-102174635D01*
X149256587Y-102158513D01*
X149235546Y-102144454D01*
X149221486Y-102123412D01*
X149205364Y-102107290D01*
X149193008Y-102080792D01*
X149175933Y-102055238D01*
X149172095Y-102035943D01*
X149164641Y-102019958D01*
X149156275Y-101956409D01*
X149155000Y-101950000D01*
X149155000Y-101250000D01*
X149156274Y-101243592D01*
X149164641Y-101180041D01*
X149172095Y-101164054D01*
X149175933Y-101144762D01*
X149193006Y-101119209D01*
X149205364Y-101092709D01*
X149221488Y-101076584D01*
X149235546Y-101055546D01*
X149256584Y-101041488D01*
X149272709Y-101025364D01*
X149299209Y-101013006D01*
X149324762Y-100995933D01*
X149344054Y-100992095D01*
X149360041Y-100984641D01*
X149423592Y-100976274D01*
X149430000Y-100975000D01*
X149700000Y-100975000D01*
X149706409Y-100976275D01*
G37*
G36*
X150876409Y-100976275D02*
G01*
X150939958Y-100984641D01*
X150955943Y-100992095D01*
X150975238Y-100995933D01*
X151000792Y-101013008D01*
X151027290Y-101025364D01*
X151043412Y-101041486D01*
X151064454Y-101055546D01*
X151078513Y-101076587D01*
X151094635Y-101092709D01*
X151106990Y-101119204D01*
X151124067Y-101144762D01*
X151127905Y-101164058D01*
X151135358Y-101180041D01*
X151143722Y-101243577D01*
X151145000Y-101250000D01*
X151145000Y-101950000D01*
X151143722Y-101956424D01*
X151135358Y-102019958D01*
X151127905Y-102035939D01*
X151124067Y-102055238D01*
X151106988Y-102080797D01*
X151094635Y-102107290D01*
X151078516Y-102123408D01*
X151064454Y-102144454D01*
X151043408Y-102158516D01*
X151027290Y-102174635D01*
X151000797Y-102186988D01*
X150975238Y-102204067D01*
X150955939Y-102207905D01*
X150939958Y-102215358D01*
X150876424Y-102223722D01*
X150870000Y-102225000D01*
X150600000Y-102225000D01*
X150593577Y-102223722D01*
X150530041Y-102215358D01*
X150514058Y-102207905D01*
X150494762Y-102204067D01*
X150469204Y-102186990D01*
X150442709Y-102174635D01*
X150426587Y-102158513D01*
X150405546Y-102144454D01*
X150391486Y-102123412D01*
X150375364Y-102107290D01*
X150363008Y-102080792D01*
X150345933Y-102055238D01*
X150342095Y-102035943D01*
X150334641Y-102019958D01*
X150326275Y-101956409D01*
X150325000Y-101950000D01*
X150325000Y-101250000D01*
X150326274Y-101243592D01*
X150334641Y-101180041D01*
X150342095Y-101164054D01*
X150345933Y-101144762D01*
X150363006Y-101119209D01*
X150375364Y-101092709D01*
X150391488Y-101076584D01*
X150405546Y-101055546D01*
X150426584Y-101041488D01*
X150442709Y-101025364D01*
X150469209Y-101013006D01*
X150494762Y-100995933D01*
X150514054Y-100992095D01*
X150530041Y-100984641D01*
X150593592Y-100976274D01*
X150600000Y-100975000D01*
X150870000Y-100975000D01*
X150876409Y-100976275D01*
G37*
G36*
X152046409Y-100976275D02*
G01*
X152109958Y-100984641D01*
X152125943Y-100992095D01*
X152145238Y-100995933D01*
X152170792Y-101013008D01*
X152197290Y-101025364D01*
X152213412Y-101041486D01*
X152234454Y-101055546D01*
X152248513Y-101076587D01*
X152264635Y-101092709D01*
X152276990Y-101119204D01*
X152294067Y-101144762D01*
X152297905Y-101164058D01*
X152305358Y-101180041D01*
X152313722Y-101243577D01*
X152315000Y-101250000D01*
X152315000Y-101950000D01*
X152313722Y-101956424D01*
X152305358Y-102019958D01*
X152297905Y-102035939D01*
X152294067Y-102055238D01*
X152276988Y-102080797D01*
X152264635Y-102107290D01*
X152248516Y-102123408D01*
X152234454Y-102144454D01*
X152213408Y-102158516D01*
X152197290Y-102174635D01*
X152170797Y-102186988D01*
X152145238Y-102204067D01*
X152125939Y-102207905D01*
X152109958Y-102215358D01*
X152046424Y-102223722D01*
X152040000Y-102225000D01*
X151770000Y-102225000D01*
X151763577Y-102223722D01*
X151700041Y-102215358D01*
X151684058Y-102207905D01*
X151664762Y-102204067D01*
X151639204Y-102186990D01*
X151612709Y-102174635D01*
X151596587Y-102158513D01*
X151575546Y-102144454D01*
X151561486Y-102123412D01*
X151545364Y-102107290D01*
X151533008Y-102080792D01*
X151515933Y-102055238D01*
X151512095Y-102035943D01*
X151504641Y-102019958D01*
X151496275Y-101956409D01*
X151495000Y-101950000D01*
X151495000Y-101250000D01*
X151496274Y-101243592D01*
X151504641Y-101180041D01*
X151512095Y-101164054D01*
X151515933Y-101144762D01*
X151533006Y-101119209D01*
X151545364Y-101092709D01*
X151561488Y-101076584D01*
X151575546Y-101055546D01*
X151596584Y-101041488D01*
X151612709Y-101025364D01*
X151639209Y-101013006D01*
X151664762Y-100995933D01*
X151684054Y-100992095D01*
X151700041Y-100984641D01*
X151763592Y-100976274D01*
X151770000Y-100975000D01*
X152040000Y-100975000D01*
X152046409Y-100976275D01*
G37*
G36*
X142521944Y-100651311D02*
G01*
X142582936Y-100692064D01*
X142623689Y-100753056D01*
X142638000Y-100825000D01*
X142638000Y-101850000D01*
X142623689Y-101921944D01*
X142582936Y-101982936D01*
X142521944Y-102023689D01*
X142450000Y-102038000D01*
X142150000Y-102038000D01*
X142078056Y-102023689D01*
X142017064Y-101982936D01*
X141976311Y-101921944D01*
X141962000Y-101850000D01*
X141962000Y-100825000D01*
X141976311Y-100753056D01*
X142017064Y-100692064D01*
X142078056Y-100651311D01*
X142150000Y-100637000D01*
X142450000Y-100637000D01*
X142521944Y-100651311D01*
G37*
G36*
X143471944Y-100651311D02*
G01*
X143532936Y-100692064D01*
X143573689Y-100753056D01*
X143588000Y-100825000D01*
X143588000Y-101850000D01*
X143573689Y-101921944D01*
X143532936Y-101982936D01*
X143471944Y-102023689D01*
X143400000Y-102038000D01*
X143100000Y-102038000D01*
X143028056Y-102023689D01*
X142967064Y-101982936D01*
X142926311Y-101921944D01*
X142912000Y-101850000D01*
X142912000Y-100825000D01*
X142926311Y-100753056D01*
X142967064Y-100692064D01*
X143028056Y-100651311D01*
X143100000Y-100637000D01*
X143400000Y-100637000D01*
X143471944Y-100651311D01*
G37*
G36*
X144421944Y-100651311D02*
G01*
X144482936Y-100692064D01*
X144523689Y-100753056D01*
X144538000Y-100825000D01*
X144538000Y-101850000D01*
X144523689Y-101921944D01*
X144482936Y-101982936D01*
X144421944Y-102023689D01*
X144350000Y-102038000D01*
X144050000Y-102038000D01*
X143978056Y-102023689D01*
X143917064Y-101982936D01*
X143876311Y-101921944D01*
X143862000Y-101850000D01*
X143862000Y-100825000D01*
X143876311Y-100753056D01*
X143917064Y-100692064D01*
X143978056Y-100651311D01*
X144050000Y-100637000D01*
X144350000Y-100637000D01*
X144421944Y-100651311D01*
G37*
G36*
X140940938Y-99844650D02*
G01*
X140945653Y-99846732D01*
X140948326Y-99847084D01*
X140981770Y-99862679D01*
X141037759Y-99887401D01*
X141112599Y-99962241D01*
X141137330Y-100018251D01*
X141152915Y-100051673D01*
X141153266Y-100054343D01*
X141155350Y-100059062D01*
X141163000Y-100125000D01*
X141163000Y-100875000D01*
X141155350Y-100940938D01*
X141153266Y-100945656D01*
X141152915Y-100948326D01*
X141137338Y-100981730D01*
X141112599Y-101037759D01*
X141037759Y-101112599D01*
X140981730Y-101137338D01*
X140948326Y-101152915D01*
X140945656Y-101153266D01*
X140940938Y-101155350D01*
X140875000Y-101163000D01*
X138725000Y-101163000D01*
X138659062Y-101155350D01*
X138654343Y-101153266D01*
X138651673Y-101152915D01*
X138618251Y-101137330D01*
X138562241Y-101112599D01*
X138487401Y-101037759D01*
X138462679Y-100981770D01*
X138447084Y-100948326D01*
X138446732Y-100945653D01*
X138444650Y-100940938D01*
X138437000Y-100875000D01*
X138437000Y-100125000D01*
X138444650Y-100059062D01*
X138446732Y-100054346D01*
X138447084Y-100051673D01*
X138462687Y-100018210D01*
X138487401Y-99962241D01*
X138562241Y-99887401D01*
X138618210Y-99862687D01*
X138651673Y-99847084D01*
X138654346Y-99846732D01*
X138659062Y-99844650D01*
X138725000Y-99837000D01*
X140875000Y-99837000D01*
X140940938Y-99844650D01*
G37*
G36*
X156533676Y-100143699D02*
G01*
X156562225Y-100162775D01*
X156581301Y-100191324D01*
X156588000Y-100225000D01*
X156588000Y-100975000D01*
X156581301Y-101008676D01*
X156562225Y-101037225D01*
X156533676Y-101056301D01*
X156500000Y-101063000D01*
X156400000Y-101063000D01*
X156366324Y-101056301D01*
X156337775Y-101037225D01*
X156318699Y-101008676D01*
X156312000Y-100975000D01*
X156312000Y-100225000D01*
X156318699Y-100191324D01*
X156337775Y-100162775D01*
X156366324Y-100143699D01*
X156400000Y-100137000D01*
X156500000Y-100137000D01*
X156533676Y-100143699D01*
G37*
G36*
X156933676Y-100143699D02*
G01*
X156962225Y-100162775D01*
X156981301Y-100191324D01*
X156988000Y-100225000D01*
X156988000Y-100975000D01*
X156981301Y-101008676D01*
X156962225Y-101037225D01*
X156933676Y-101056301D01*
X156900000Y-101063000D01*
X156800000Y-101063000D01*
X156766324Y-101056301D01*
X156737775Y-101037225D01*
X156718699Y-101008676D01*
X156712000Y-100975000D01*
X156712000Y-100225000D01*
X156718699Y-100191324D01*
X156737775Y-100162775D01*
X156766324Y-100143699D01*
X156800000Y-100137000D01*
X156900000Y-100137000D01*
X156933676Y-100143699D01*
G37*
G36*
X157333676Y-100143699D02*
G01*
X157362225Y-100162775D01*
X157381301Y-100191324D01*
X157388000Y-100225000D01*
X157388000Y-100975000D01*
X157381301Y-101008676D01*
X157362225Y-101037225D01*
X157333676Y-101056301D01*
X157300000Y-101063000D01*
X157200000Y-101063000D01*
X157166324Y-101056301D01*
X157137775Y-101037225D01*
X157118699Y-101008676D01*
X157112000Y-100975000D01*
X157112000Y-100225000D01*
X157118699Y-100191324D01*
X157137775Y-100162775D01*
X157166324Y-100143699D01*
X157200000Y-100137000D01*
X157300000Y-100137000D01*
X157333676Y-100143699D01*
G37*
G36*
X157733676Y-100143699D02*
G01*
X157762225Y-100162775D01*
X157781301Y-100191324D01*
X157788000Y-100225000D01*
X157788000Y-100975000D01*
X157781301Y-101008676D01*
X157762225Y-101037225D01*
X157733676Y-101056301D01*
X157700000Y-101063000D01*
X157600000Y-101063000D01*
X157566324Y-101056301D01*
X157537775Y-101037225D01*
X157518699Y-101008676D01*
X157512000Y-100975000D01*
X157512000Y-100225000D01*
X157518699Y-100191324D01*
X157537775Y-100162775D01*
X157566324Y-100143699D01*
X157600000Y-100137000D01*
X157700000Y-100137000D01*
X157733676Y-100143699D01*
G37*
G36*
X158133676Y-100143699D02*
G01*
X158162225Y-100162775D01*
X158181301Y-100191324D01*
X158188000Y-100225000D01*
X158188000Y-100975000D01*
X158181301Y-101008676D01*
X158162225Y-101037225D01*
X158133676Y-101056301D01*
X158100000Y-101063000D01*
X158000000Y-101063000D01*
X157966324Y-101056301D01*
X157937775Y-101037225D01*
X157918699Y-101008676D01*
X157912000Y-100975000D01*
X157912000Y-100225000D01*
X157918699Y-100191324D01*
X157937775Y-100162775D01*
X157966324Y-100143699D01*
X158000000Y-100137000D01*
X158100000Y-100137000D01*
X158133676Y-100143699D01*
G37*
G36*
X146156409Y-99788274D02*
G01*
X146216852Y-99796232D01*
X146232057Y-99803322D01*
X146250646Y-99807020D01*
X146275266Y-99823470D01*
X146300407Y-99835194D01*
X146315702Y-99850489D01*
X146335969Y-99864031D01*
X146349510Y-99884297D01*
X146364805Y-99899592D01*
X146376527Y-99924730D01*
X146392980Y-99949354D01*
X146396677Y-99967944D01*
X146403767Y-99983147D01*
X146411722Y-100043577D01*
X146413000Y-100050000D01*
X146413000Y-100500000D01*
X146411722Y-100506424D01*
X146403767Y-100566852D01*
X146396678Y-100582054D01*
X146392980Y-100600646D01*
X146376525Y-100625271D01*
X146364805Y-100650407D01*
X146349512Y-100665699D01*
X146335969Y-100685969D01*
X146315699Y-100699512D01*
X146300407Y-100714805D01*
X146275271Y-100726525D01*
X146250646Y-100742980D01*
X146232054Y-100746678D01*
X146216852Y-100753767D01*
X146156424Y-100761722D01*
X146150000Y-100763000D01*
X145650000Y-100763000D01*
X145643577Y-100761722D01*
X145583147Y-100753767D01*
X145567944Y-100746677D01*
X145549354Y-100742980D01*
X145524730Y-100726527D01*
X145499592Y-100714805D01*
X145484297Y-100699510D01*
X145464031Y-100685969D01*
X145450489Y-100665702D01*
X145435194Y-100650407D01*
X145423470Y-100625266D01*
X145407020Y-100600646D01*
X145403322Y-100582057D01*
X145396232Y-100566852D01*
X145388274Y-100506409D01*
X145387000Y-100500000D01*
X145387000Y-100050000D01*
X145388274Y-100043592D01*
X145396232Y-99983147D01*
X145403322Y-99967940D01*
X145407020Y-99949354D01*
X145423469Y-99924735D01*
X145435194Y-99899592D01*
X145450491Y-99884294D01*
X145464031Y-99864031D01*
X145484294Y-99850491D01*
X145499592Y-99835194D01*
X145524735Y-99823469D01*
X145549354Y-99807020D01*
X145567940Y-99803322D01*
X145583147Y-99796232D01*
X145643592Y-99788274D01*
X145650000Y-99787000D01*
X146150000Y-99787000D01*
X146156409Y-99788274D01*
G37*
G36*
X151939868Y-99389550D02*
G01*
X151945586Y-99392345D01*
X151947962Y-99392722D01*
X151985987Y-99412096D01*
X152043377Y-99440153D01*
X152124847Y-99521623D01*
X152152907Y-99579020D01*
X152172276Y-99617034D01*
X152172652Y-99619408D01*
X152175450Y-99625132D01*
X152190000Y-99725000D01*
X152190000Y-100275000D01*
X152175450Y-100374868D01*
X152172652Y-100380589D01*
X152172277Y-100382962D01*
X152152926Y-100420939D01*
X152124847Y-100478377D01*
X152043377Y-100559847D01*
X151985955Y-100587919D01*
X151947965Y-100607276D01*
X151945591Y-100607651D01*
X151939868Y-100610450D01*
X151840000Y-100625000D01*
X148150000Y-100625000D01*
X148050132Y-100610450D01*
X148044410Y-100607652D01*
X148042037Y-100607277D01*
X148004035Y-100587914D01*
X147946623Y-100559847D01*
X147865153Y-100478377D01*
X147837104Y-100421003D01*
X147817723Y-100382965D01*
X147817346Y-100380588D01*
X147814550Y-100374868D01*
X147800000Y-100275000D01*
X147800000Y-99725000D01*
X147814550Y-99625132D01*
X147817345Y-99619413D01*
X147817722Y-99617037D01*
X147837108Y-99578987D01*
X147865153Y-99521623D01*
X147946623Y-99440153D01*
X148003971Y-99412116D01*
X148042034Y-99392723D01*
X148044411Y-99392346D01*
X148050132Y-99389550D01*
X148150000Y-99375000D01*
X151840000Y-99375000D01*
X151939868Y-99389550D01*
G37*
G36*
X154556409Y-99438274D02*
G01*
X154616852Y-99446232D01*
X154632057Y-99453322D01*
X154650646Y-99457020D01*
X154675266Y-99473470D01*
X154700407Y-99485194D01*
X154715702Y-99500489D01*
X154735969Y-99514031D01*
X154749510Y-99534297D01*
X154764805Y-99549592D01*
X154776527Y-99574730D01*
X154792980Y-99599354D01*
X154796677Y-99617944D01*
X154803767Y-99633147D01*
X154811722Y-99693577D01*
X154813000Y-99700000D01*
X154813000Y-100150000D01*
X154811722Y-100156424D01*
X154803767Y-100216852D01*
X154796678Y-100232054D01*
X154792980Y-100250646D01*
X154776525Y-100275271D01*
X154764805Y-100300407D01*
X154749512Y-100315699D01*
X154735969Y-100335969D01*
X154715699Y-100349512D01*
X154700407Y-100364805D01*
X154675271Y-100376525D01*
X154650646Y-100392980D01*
X154632054Y-100396678D01*
X154616852Y-100403767D01*
X154556424Y-100411722D01*
X154550000Y-100413000D01*
X154050000Y-100413000D01*
X154043577Y-100411722D01*
X153983147Y-100403767D01*
X153967944Y-100396677D01*
X153949354Y-100392980D01*
X153924730Y-100376527D01*
X153899592Y-100364805D01*
X153884297Y-100349510D01*
X153864031Y-100335969D01*
X153850489Y-100315702D01*
X153835194Y-100300407D01*
X153823470Y-100275266D01*
X153807020Y-100250646D01*
X153803322Y-100232057D01*
X153796232Y-100216852D01*
X153788274Y-100156409D01*
X153787000Y-100150000D01*
X153787000Y-99700000D01*
X153788274Y-99693592D01*
X153796232Y-99633147D01*
X153803322Y-99617940D01*
X153807020Y-99599354D01*
X153823469Y-99574735D01*
X153835194Y-99549592D01*
X153850491Y-99534294D01*
X153864031Y-99514031D01*
X153884294Y-99500491D01*
X153899592Y-99485194D01*
X153924735Y-99473469D01*
X153949354Y-99457020D01*
X153967940Y-99453322D01*
X153983147Y-99446232D01*
X154043592Y-99438274D01*
X154050000Y-99437000D01*
X154550000Y-99437000D01*
X154556409Y-99438274D01*
G37*
G36*
X156208676Y-99818699D02*
G01*
X156237225Y-99837775D01*
X156256301Y-99866324D01*
X156263000Y-99900000D01*
X156263000Y-100000000D01*
X156256301Y-100033676D01*
X156237225Y-100062225D01*
X156208676Y-100081301D01*
X156175000Y-100088000D01*
X155425000Y-100088000D01*
X155391324Y-100081301D01*
X155362775Y-100062225D01*
X155343699Y-100033676D01*
X155337000Y-100000000D01*
X155337000Y-99900000D01*
X155343699Y-99866324D01*
X155362775Y-99837775D01*
X155391324Y-99818699D01*
X155425000Y-99812000D01*
X156175000Y-99812000D01*
X156208676Y-99818699D01*
G37*
G36*
X159108676Y-99818699D02*
G01*
X159137225Y-99837775D01*
X159156301Y-99866324D01*
X159163000Y-99900000D01*
X159163000Y-100000000D01*
X159156301Y-100033676D01*
X159137225Y-100062225D01*
X159108676Y-100081301D01*
X159075000Y-100088000D01*
X158325000Y-100088000D01*
X158291324Y-100081301D01*
X158262775Y-100062225D01*
X158243699Y-100033676D01*
X158237000Y-100000000D01*
X158237000Y-99900000D01*
X158243699Y-99866324D01*
X158262775Y-99837775D01*
X158291324Y-99818699D01*
X158325000Y-99812000D01*
X159075000Y-99812000D01*
X159108676Y-99818699D01*
G37*
G36*
X158089542Y-98289893D02*
G01*
X158101870Y-98298130D01*
X158110107Y-98310458D01*
X158113000Y-98325000D01*
X158113000Y-99975000D01*
X158110107Y-99989542D01*
X158101870Y-100001870D01*
X158089542Y-100010107D01*
X158075000Y-100013000D01*
X156425000Y-100013000D01*
X156410458Y-100010107D01*
X156398130Y-100001870D01*
X156389893Y-99989542D01*
X156387000Y-99975000D01*
X156387000Y-98325000D01*
X156389893Y-98310458D01*
X156398130Y-98298130D01*
X156410458Y-98289893D01*
X156425000Y-98287000D01*
X158075000Y-98287000D01*
X158089542Y-98289893D01*
G37*
G36*
X142521944Y-98376311D02*
G01*
X142582936Y-98417064D01*
X142623689Y-98478056D01*
X142638000Y-98550000D01*
X142638000Y-99575000D01*
X142623689Y-99646944D01*
X142582936Y-99707936D01*
X142521944Y-99748689D01*
X142450000Y-99763000D01*
X142150000Y-99763000D01*
X142078056Y-99748689D01*
X142017064Y-99707936D01*
X141976311Y-99646944D01*
X141962000Y-99575000D01*
X141962000Y-98550000D01*
X141976311Y-98478056D01*
X142017064Y-98417064D01*
X142078056Y-98376311D01*
X142150000Y-98362000D01*
X142450000Y-98362000D01*
X142521944Y-98376311D01*
G37*
G36*
X143471944Y-98376311D02*
G01*
X143532936Y-98417064D01*
X143573689Y-98478056D01*
X143588000Y-98550000D01*
X143588000Y-99575000D01*
X143573689Y-99646944D01*
X143532936Y-99707936D01*
X143471944Y-99748689D01*
X143400000Y-99763000D01*
X143100000Y-99763000D01*
X143028056Y-99748689D01*
X142967064Y-99707936D01*
X142926311Y-99646944D01*
X142912000Y-99575000D01*
X142912000Y-98550000D01*
X142926311Y-98478056D01*
X142967064Y-98417064D01*
X143028056Y-98376311D01*
X143100000Y-98362000D01*
X143400000Y-98362000D01*
X143471944Y-98376311D01*
G37*
G36*
X144421944Y-98376311D02*
G01*
X144482936Y-98417064D01*
X144523689Y-98478056D01*
X144538000Y-98550000D01*
X144538000Y-99575000D01*
X144523689Y-99646944D01*
X144482936Y-99707936D01*
X144421944Y-99748689D01*
X144350000Y-99763000D01*
X144050000Y-99763000D01*
X143978056Y-99748689D01*
X143917064Y-99707936D01*
X143876311Y-99646944D01*
X143862000Y-99575000D01*
X143862000Y-98550000D01*
X143876311Y-98478056D01*
X143917064Y-98417064D01*
X143978056Y-98376311D01*
X144050000Y-98362000D01*
X144350000Y-98362000D01*
X144421944Y-98376311D01*
G37*
G36*
X156208676Y-99418699D02*
G01*
X156237225Y-99437775D01*
X156256301Y-99466324D01*
X156263000Y-99500000D01*
X156263000Y-99600000D01*
X156256301Y-99633676D01*
X156237225Y-99662225D01*
X156208676Y-99681301D01*
X156175000Y-99688000D01*
X155425000Y-99688000D01*
X155391324Y-99681301D01*
X155362775Y-99662225D01*
X155343699Y-99633676D01*
X155337000Y-99600000D01*
X155337000Y-99500000D01*
X155343699Y-99466324D01*
X155362775Y-99437775D01*
X155391324Y-99418699D01*
X155425000Y-99412000D01*
X156175000Y-99412000D01*
X156208676Y-99418699D01*
G37*
G36*
X159108676Y-99418699D02*
G01*
X159137225Y-99437775D01*
X159156301Y-99466324D01*
X159163000Y-99500000D01*
X159163000Y-99600000D01*
X159156301Y-99633676D01*
X159137225Y-99662225D01*
X159108676Y-99681301D01*
X159075000Y-99688000D01*
X158325000Y-99688000D01*
X158291324Y-99681301D01*
X158262775Y-99662225D01*
X158243699Y-99633676D01*
X158237000Y-99600000D01*
X158237000Y-99500000D01*
X158243699Y-99466324D01*
X158262775Y-99437775D01*
X158291324Y-99418699D01*
X158325000Y-99412000D01*
X159075000Y-99412000D01*
X159108676Y-99418699D01*
G37*
G36*
X156208676Y-99018699D02*
G01*
X156237225Y-99037775D01*
X156256301Y-99066324D01*
X156263000Y-99100000D01*
X156263000Y-99200000D01*
X156256301Y-99233676D01*
X156237225Y-99262225D01*
X156208676Y-99281301D01*
X156175000Y-99288000D01*
X155425000Y-99288000D01*
X155391324Y-99281301D01*
X155362775Y-99262225D01*
X155343699Y-99233676D01*
X155337000Y-99200000D01*
X155337000Y-99100000D01*
X155343699Y-99066324D01*
X155362775Y-99037775D01*
X155391324Y-99018699D01*
X155425000Y-99012000D01*
X156175000Y-99012000D01*
X156208676Y-99018699D01*
G37*
G36*
X159108676Y-99018699D02*
G01*
X159137225Y-99037775D01*
X159156301Y-99066324D01*
X159163000Y-99100000D01*
X159163000Y-99200000D01*
X159156301Y-99233676D01*
X159137225Y-99262225D01*
X159108676Y-99281301D01*
X159075000Y-99288000D01*
X158325000Y-99288000D01*
X158291324Y-99281301D01*
X158262775Y-99262225D01*
X158243699Y-99233676D01*
X158237000Y-99200000D01*
X158237000Y-99100000D01*
X158243699Y-99066324D01*
X158262775Y-99037775D01*
X158291324Y-99018699D01*
X158325000Y-99012000D01*
X159075000Y-99012000D01*
X159108676Y-99018699D01*
G37*
G36*
X140906409Y-98288274D02*
G01*
X140966852Y-98296232D01*
X140982057Y-98303322D01*
X141000646Y-98307020D01*
X141025266Y-98323470D01*
X141050407Y-98335194D01*
X141065702Y-98350489D01*
X141085969Y-98364031D01*
X141099510Y-98384297D01*
X141114805Y-98399592D01*
X141126527Y-98424730D01*
X141142980Y-98449354D01*
X141146677Y-98467944D01*
X141153767Y-98483147D01*
X141161722Y-98543577D01*
X141163000Y-98550000D01*
X141163000Y-99000000D01*
X141161722Y-99006424D01*
X141153767Y-99066852D01*
X141146678Y-99082054D01*
X141142980Y-99100646D01*
X141126525Y-99125271D01*
X141114805Y-99150407D01*
X141099512Y-99165699D01*
X141085969Y-99185969D01*
X141065699Y-99199512D01*
X141050407Y-99214805D01*
X141025271Y-99226525D01*
X141000646Y-99242980D01*
X140982054Y-99246678D01*
X140966852Y-99253767D01*
X140906424Y-99261722D01*
X140900000Y-99263000D01*
X140400000Y-99263000D01*
X140393577Y-99261722D01*
X140333147Y-99253767D01*
X140317944Y-99246677D01*
X140299354Y-99242980D01*
X140274730Y-99226527D01*
X140249592Y-99214805D01*
X140234297Y-99199510D01*
X140214031Y-99185969D01*
X140200489Y-99165702D01*
X140185194Y-99150407D01*
X140173470Y-99125266D01*
X140157020Y-99100646D01*
X140153322Y-99082057D01*
X140146232Y-99066852D01*
X140138274Y-99006409D01*
X140137000Y-99000000D01*
X140137000Y-98550000D01*
X140138274Y-98543592D01*
X140146232Y-98483147D01*
X140153322Y-98467940D01*
X140157020Y-98449354D01*
X140173469Y-98424735D01*
X140185194Y-98399592D01*
X140200491Y-98384294D01*
X140214031Y-98364031D01*
X140234294Y-98350491D01*
X140249592Y-98335194D01*
X140274735Y-98323469D01*
X140299354Y-98307020D01*
X140317940Y-98303322D01*
X140333147Y-98296232D01*
X140393592Y-98288274D01*
X140400000Y-98287000D01*
X140900000Y-98287000D01*
X140906409Y-98288274D01*
G37*
G36*
X146179047Y-98337805D02*
G01*
X146227661Y-98343445D01*
X146244271Y-98350779D01*
X146266079Y-98355117D01*
X146289425Y-98370716D01*
X146309012Y-98379365D01*
X146322390Y-98392743D01*
X146343291Y-98406709D01*
X146357256Y-98427609D01*
X146370634Y-98440987D01*
X146379281Y-98460572D01*
X146394883Y-98483921D01*
X146399221Y-98505731D01*
X146406554Y-98522338D01*
X146412192Y-98570942D01*
X146413000Y-98575000D01*
X146413000Y-98975000D01*
X146412192Y-98979059D01*
X146406554Y-99027661D01*
X146399221Y-99044266D01*
X146394883Y-99066079D01*
X146379280Y-99089429D01*
X146370634Y-99109012D01*
X146357258Y-99122387D01*
X146343291Y-99143291D01*
X146322387Y-99157258D01*
X146309012Y-99170634D01*
X146289429Y-99179280D01*
X146266079Y-99194883D01*
X146244266Y-99199221D01*
X146227661Y-99206554D01*
X146179059Y-99212192D01*
X146175000Y-99213000D01*
X145625000Y-99213000D01*
X145620942Y-99212192D01*
X145572338Y-99206554D01*
X145555731Y-99199221D01*
X145533921Y-99194883D01*
X145510572Y-99179281D01*
X145490987Y-99170634D01*
X145477609Y-99157256D01*
X145456709Y-99143291D01*
X145442743Y-99122390D01*
X145429365Y-99109012D01*
X145420716Y-99089425D01*
X145405117Y-99066079D01*
X145400779Y-99044271D01*
X145393445Y-99027661D01*
X145387805Y-98979047D01*
X145387000Y-98975000D01*
X145387000Y-98575000D01*
X145387804Y-98570954D01*
X145393445Y-98522338D01*
X145400779Y-98505727D01*
X145405117Y-98483921D01*
X145420715Y-98460576D01*
X145429365Y-98440987D01*
X145442745Y-98427606D01*
X145456709Y-98406709D01*
X145477606Y-98392745D01*
X145490987Y-98379365D01*
X145510576Y-98370715D01*
X145533921Y-98355117D01*
X145555727Y-98350779D01*
X145572338Y-98343445D01*
X145620954Y-98337804D01*
X145625000Y-98337000D01*
X146175000Y-98337000D01*
X146179047Y-98337805D01*
G37*
G36*
X148536409Y-97776275D02*
G01*
X148599958Y-97784641D01*
X148615943Y-97792095D01*
X148635238Y-97795933D01*
X148660792Y-97813008D01*
X148687290Y-97825364D01*
X148703412Y-97841486D01*
X148724454Y-97855546D01*
X148738513Y-97876587D01*
X148754635Y-97892709D01*
X148766990Y-97919204D01*
X148784067Y-97944762D01*
X148787905Y-97964058D01*
X148795358Y-97980041D01*
X148803722Y-98043577D01*
X148805000Y-98050000D01*
X148805000Y-98750000D01*
X148803722Y-98756424D01*
X148795358Y-98819958D01*
X148787905Y-98835939D01*
X148784067Y-98855238D01*
X148766988Y-98880797D01*
X148754635Y-98907290D01*
X148738516Y-98923408D01*
X148724454Y-98944454D01*
X148703408Y-98958516D01*
X148687290Y-98974635D01*
X148660797Y-98986988D01*
X148635238Y-99004067D01*
X148615939Y-99007905D01*
X148599958Y-99015358D01*
X148536424Y-99023722D01*
X148530000Y-99025000D01*
X147950000Y-99025000D01*
X147943577Y-99023722D01*
X147880041Y-99015358D01*
X147864058Y-99007905D01*
X147844762Y-99004067D01*
X147819204Y-98986990D01*
X147792709Y-98974635D01*
X147776587Y-98958513D01*
X147755546Y-98944454D01*
X147741486Y-98923412D01*
X147725364Y-98907290D01*
X147713008Y-98880792D01*
X147695933Y-98855238D01*
X147692095Y-98835943D01*
X147684641Y-98819958D01*
X147676275Y-98756409D01*
X147675000Y-98750000D01*
X147675000Y-98050000D01*
X147676274Y-98043592D01*
X147684641Y-97980041D01*
X147692095Y-97964054D01*
X147695933Y-97944762D01*
X147713006Y-97919209D01*
X147725364Y-97892709D01*
X147741488Y-97876584D01*
X147755546Y-97855546D01*
X147776584Y-97841488D01*
X147792709Y-97825364D01*
X147819209Y-97813006D01*
X147844762Y-97795933D01*
X147864054Y-97792095D01*
X147880041Y-97784641D01*
X147943592Y-97776274D01*
X147950000Y-97775000D01*
X148530000Y-97775000D01*
X148536409Y-97776275D01*
G37*
G36*
X149706409Y-97776275D02*
G01*
X149769958Y-97784641D01*
X149785943Y-97792095D01*
X149805238Y-97795933D01*
X149830792Y-97813008D01*
X149857290Y-97825364D01*
X149873412Y-97841486D01*
X149894454Y-97855546D01*
X149908513Y-97876587D01*
X149924635Y-97892709D01*
X149936990Y-97919204D01*
X149954067Y-97944762D01*
X149957905Y-97964058D01*
X149965358Y-97980041D01*
X149973722Y-98043577D01*
X149975000Y-98050000D01*
X149975000Y-98750000D01*
X149973722Y-98756424D01*
X149965358Y-98819958D01*
X149957905Y-98835939D01*
X149954067Y-98855238D01*
X149936988Y-98880797D01*
X149924635Y-98907290D01*
X149908516Y-98923408D01*
X149894454Y-98944454D01*
X149873408Y-98958516D01*
X149857290Y-98974635D01*
X149830797Y-98986988D01*
X149805238Y-99004067D01*
X149785939Y-99007905D01*
X149769958Y-99015358D01*
X149706424Y-99023722D01*
X149700000Y-99025000D01*
X149430000Y-99025000D01*
X149423577Y-99023722D01*
X149360041Y-99015358D01*
X149344058Y-99007905D01*
X149324762Y-99004067D01*
X149299204Y-98986990D01*
X149272709Y-98974635D01*
X149256587Y-98958513D01*
X149235546Y-98944454D01*
X149221486Y-98923412D01*
X149205364Y-98907290D01*
X149193008Y-98880792D01*
X149175933Y-98855238D01*
X149172095Y-98835943D01*
X149164641Y-98819958D01*
X149156275Y-98756409D01*
X149155000Y-98750000D01*
X149155000Y-98050000D01*
X149156274Y-98043592D01*
X149164641Y-97980041D01*
X149172095Y-97964054D01*
X149175933Y-97944762D01*
X149193006Y-97919209D01*
X149205364Y-97892709D01*
X149221488Y-97876584D01*
X149235546Y-97855546D01*
X149256584Y-97841488D01*
X149272709Y-97825364D01*
X149299209Y-97813006D01*
X149324762Y-97795933D01*
X149344054Y-97792095D01*
X149360041Y-97784641D01*
X149423592Y-97776274D01*
X149430000Y-97775000D01*
X149700000Y-97775000D01*
X149706409Y-97776275D01*
G37*
G36*
X150906546Y-97775804D02*
G01*
X150956191Y-97781564D01*
X150973153Y-97789053D01*
X150995301Y-97793459D01*
X151019010Y-97809301D01*
X151039055Y-97818152D01*
X151052746Y-97831843D01*
X151073973Y-97846027D01*
X151088156Y-97867253D01*
X151101847Y-97880944D01*
X151110696Y-97900987D01*
X151126541Y-97924699D01*
X151130946Y-97946848D01*
X151138435Y-97963808D01*
X151144192Y-98013442D01*
X151145000Y-98017500D01*
X151145000Y-98782500D01*
X151144192Y-98786558D01*
X151138435Y-98836191D01*
X151130947Y-98853149D01*
X151126541Y-98875301D01*
X151110695Y-98899014D01*
X151101847Y-98919055D01*
X151088158Y-98932743D01*
X151073973Y-98953973D01*
X151052743Y-98968158D01*
X151039055Y-98981847D01*
X151019014Y-98990695D01*
X150995301Y-99006541D01*
X150973149Y-99010947D01*
X150956191Y-99018435D01*
X150906558Y-99024192D01*
X150902500Y-99025000D01*
X150567500Y-99025000D01*
X150563442Y-99024192D01*
X150513808Y-99018435D01*
X150496848Y-99010946D01*
X150474699Y-99006541D01*
X150450987Y-98990696D01*
X150430944Y-98981847D01*
X150417253Y-98968156D01*
X150396027Y-98953973D01*
X150381843Y-98932746D01*
X150368152Y-98919055D01*
X150359301Y-98899010D01*
X150343459Y-98875301D01*
X150339053Y-98853153D01*
X150331564Y-98836191D01*
X150325804Y-98786546D01*
X150325000Y-98782500D01*
X150325000Y-98017500D01*
X150325804Y-98013454D01*
X150331564Y-97963808D01*
X150339053Y-97946844D01*
X150343459Y-97924699D01*
X150359300Y-97900991D01*
X150368152Y-97880944D01*
X150381845Y-97867250D01*
X150396027Y-97846027D01*
X150417250Y-97831845D01*
X150430944Y-97818152D01*
X150450991Y-97809300D01*
X150474699Y-97793459D01*
X150496844Y-97789053D01*
X150513808Y-97781564D01*
X150563454Y-97775804D01*
X150567500Y-97775000D01*
X150902500Y-97775000D01*
X150906546Y-97775804D01*
G37*
G36*
X152076546Y-97775804D02*
G01*
X152126191Y-97781564D01*
X152143153Y-97789053D01*
X152165301Y-97793459D01*
X152189010Y-97809301D01*
X152209055Y-97818152D01*
X152222746Y-97831843D01*
X152243973Y-97846027D01*
X152258156Y-97867253D01*
X152271847Y-97880944D01*
X152280696Y-97900987D01*
X152296541Y-97924699D01*
X152300946Y-97946848D01*
X152308435Y-97963808D01*
X152314192Y-98013442D01*
X152315000Y-98017500D01*
X152315000Y-98782500D01*
X152314192Y-98786558D01*
X152308435Y-98836191D01*
X152300947Y-98853149D01*
X152296541Y-98875301D01*
X152280695Y-98899014D01*
X152271847Y-98919055D01*
X152258158Y-98932743D01*
X152243973Y-98953973D01*
X152222743Y-98968158D01*
X152209055Y-98981847D01*
X152189014Y-98990695D01*
X152165301Y-99006541D01*
X152143149Y-99010947D01*
X152126191Y-99018435D01*
X152076558Y-99024192D01*
X152072500Y-99025000D01*
X151737500Y-99025000D01*
X151733442Y-99024192D01*
X151683808Y-99018435D01*
X151666848Y-99010946D01*
X151644699Y-99006541D01*
X151620987Y-98990696D01*
X151600944Y-98981847D01*
X151587253Y-98968156D01*
X151566027Y-98953973D01*
X151551843Y-98932746D01*
X151538152Y-98919055D01*
X151529301Y-98899010D01*
X151513459Y-98875301D01*
X151509053Y-98853153D01*
X151501564Y-98836191D01*
X151495804Y-98786546D01*
X151495000Y-98782500D01*
X151495000Y-98017500D01*
X151495804Y-98013454D01*
X151501564Y-97963808D01*
X151509053Y-97946844D01*
X151513459Y-97924699D01*
X151529300Y-97900991D01*
X151538152Y-97880944D01*
X151551845Y-97867250D01*
X151566027Y-97846027D01*
X151587250Y-97831845D01*
X151600944Y-97818152D01*
X151620991Y-97809300D01*
X151644699Y-97793459D01*
X151666844Y-97789053D01*
X151683808Y-97781564D01*
X151733454Y-97775804D01*
X151737500Y-97775000D01*
X152072500Y-97775000D01*
X152076546Y-97775804D01*
G37*
G36*
X156208676Y-98618699D02*
G01*
X156237225Y-98637775D01*
X156256301Y-98666324D01*
X156263000Y-98700000D01*
X156263000Y-98800000D01*
X156256301Y-98833676D01*
X156237225Y-98862225D01*
X156208676Y-98881301D01*
X156175000Y-98888000D01*
X155425000Y-98888000D01*
X155391324Y-98881301D01*
X155362775Y-98862225D01*
X155343699Y-98833676D01*
X155337000Y-98800000D01*
X155337000Y-98700000D01*
X155343699Y-98666324D01*
X155362775Y-98637775D01*
X155391324Y-98618699D01*
X155425000Y-98612000D01*
X156175000Y-98612000D01*
X156208676Y-98618699D01*
G37*
G36*
X159108676Y-98618699D02*
G01*
X159137225Y-98637775D01*
X159156301Y-98666324D01*
X159163000Y-98700000D01*
X159163000Y-98800000D01*
X159156301Y-98833676D01*
X159137225Y-98862225D01*
X159108676Y-98881301D01*
X159075000Y-98888000D01*
X158325000Y-98888000D01*
X158291324Y-98881301D01*
X158262775Y-98862225D01*
X158243699Y-98833676D01*
X158237000Y-98800000D01*
X158237000Y-98700000D01*
X158243699Y-98666324D01*
X158262775Y-98637775D01*
X158291324Y-98618699D01*
X158325000Y-98612000D01*
X159075000Y-98612000D01*
X159108676Y-98618699D01*
G37*
G36*
X154556409Y-97888274D02*
G01*
X154616852Y-97896232D01*
X154632057Y-97903322D01*
X154650646Y-97907020D01*
X154675266Y-97923470D01*
X154700407Y-97935194D01*
X154715702Y-97950489D01*
X154735969Y-97964031D01*
X154749510Y-97984297D01*
X154764805Y-97999592D01*
X154776527Y-98024730D01*
X154792980Y-98049354D01*
X154796677Y-98067944D01*
X154803767Y-98083147D01*
X154811722Y-98143577D01*
X154813000Y-98150000D01*
X154813000Y-98600000D01*
X154811722Y-98606424D01*
X154803767Y-98666852D01*
X154796678Y-98682054D01*
X154792980Y-98700646D01*
X154776525Y-98725271D01*
X154764805Y-98750407D01*
X154749512Y-98765699D01*
X154735969Y-98785969D01*
X154715699Y-98799512D01*
X154700407Y-98814805D01*
X154675271Y-98826525D01*
X154650646Y-98842980D01*
X154632054Y-98846678D01*
X154616852Y-98853767D01*
X154556424Y-98861722D01*
X154550000Y-98863000D01*
X154050000Y-98863000D01*
X154043577Y-98861722D01*
X153983147Y-98853767D01*
X153967944Y-98846677D01*
X153949354Y-98842980D01*
X153924730Y-98826527D01*
X153899592Y-98814805D01*
X153884297Y-98799510D01*
X153864031Y-98785969D01*
X153850489Y-98765702D01*
X153835194Y-98750407D01*
X153823470Y-98725266D01*
X153807020Y-98700646D01*
X153803322Y-98682057D01*
X153796232Y-98666852D01*
X153788274Y-98606409D01*
X153787000Y-98600000D01*
X153787000Y-98150000D01*
X153788274Y-98143592D01*
X153796232Y-98083147D01*
X153803322Y-98067940D01*
X153807020Y-98049354D01*
X153823469Y-98024735D01*
X153835194Y-97999592D01*
X153850491Y-97984294D01*
X153864031Y-97964031D01*
X153884294Y-97950491D01*
X153899592Y-97935194D01*
X153924735Y-97923469D01*
X153949354Y-97907020D01*
X153967940Y-97903322D01*
X153983147Y-97896232D01*
X154043592Y-97888274D01*
X154050000Y-97887000D01*
X154550000Y-97887000D01*
X154556409Y-97888274D01*
G37*
G36*
X156208676Y-98218699D02*
G01*
X156237225Y-98237775D01*
X156256301Y-98266324D01*
X156263000Y-98300000D01*
X156263000Y-98400000D01*
X156256301Y-98433676D01*
X156237225Y-98462225D01*
X156208676Y-98481301D01*
X156175000Y-98488000D01*
X155425000Y-98488000D01*
X155391324Y-98481301D01*
X155362775Y-98462225D01*
X155343699Y-98433676D01*
X155337000Y-98400000D01*
X155337000Y-98300000D01*
X155343699Y-98266324D01*
X155362775Y-98237775D01*
X155391324Y-98218699D01*
X155425000Y-98212000D01*
X156175000Y-98212000D01*
X156208676Y-98218699D01*
G37*
G36*
X159108676Y-98218699D02*
G01*
X159137225Y-98237775D01*
X159156301Y-98266324D01*
X159163000Y-98300000D01*
X159163000Y-98400000D01*
X159156301Y-98433676D01*
X159137225Y-98462225D01*
X159108676Y-98481301D01*
X159075000Y-98488000D01*
X158325000Y-98488000D01*
X158291324Y-98481301D01*
X158262775Y-98462225D01*
X158243699Y-98433676D01*
X158237000Y-98400000D01*
X158237000Y-98300000D01*
X158243699Y-98266324D01*
X158262775Y-98237775D01*
X158291324Y-98218699D01*
X158325000Y-98212000D01*
X159075000Y-98212000D01*
X159108676Y-98218699D01*
G37*
G36*
X156533676Y-97243699D02*
G01*
X156562225Y-97262775D01*
X156581301Y-97291324D01*
X156588000Y-97325000D01*
X156588000Y-98075000D01*
X156581301Y-98108676D01*
X156562225Y-98137225D01*
X156533676Y-98156301D01*
X156500000Y-98163000D01*
X156400000Y-98163000D01*
X156366324Y-98156301D01*
X156337775Y-98137225D01*
X156318699Y-98108676D01*
X156312000Y-98075000D01*
X156312000Y-97325000D01*
X156318699Y-97291324D01*
X156337775Y-97262775D01*
X156366324Y-97243699D01*
X156400000Y-97237000D01*
X156500000Y-97237000D01*
X156533676Y-97243699D01*
G37*
G36*
X156933676Y-97243699D02*
G01*
X156962225Y-97262775D01*
X156981301Y-97291324D01*
X156988000Y-97325000D01*
X156988000Y-98075000D01*
X156981301Y-98108676D01*
X156962225Y-98137225D01*
X156933676Y-98156301D01*
X156900000Y-98163000D01*
X156800000Y-98163000D01*
X156766324Y-98156301D01*
X156737775Y-98137225D01*
X156718699Y-98108676D01*
X156712000Y-98075000D01*
X156712000Y-97325000D01*
X156718699Y-97291324D01*
X156737775Y-97262775D01*
X156766324Y-97243699D01*
X156800000Y-97237000D01*
X156900000Y-97237000D01*
X156933676Y-97243699D01*
G37*
G36*
X157333676Y-97243699D02*
G01*
X157362225Y-97262775D01*
X157381301Y-97291324D01*
X157388000Y-97325000D01*
X157388000Y-98075000D01*
X157381301Y-98108676D01*
X157362225Y-98137225D01*
X157333676Y-98156301D01*
X157300000Y-98163000D01*
X157200000Y-98163000D01*
X157166324Y-98156301D01*
X157137775Y-98137225D01*
X157118699Y-98108676D01*
X157112000Y-98075000D01*
X157112000Y-97325000D01*
X157118699Y-97291324D01*
X157137775Y-97262775D01*
X157166324Y-97243699D01*
X157200000Y-97237000D01*
X157300000Y-97237000D01*
X157333676Y-97243699D01*
G37*
G36*
X157733676Y-97243699D02*
G01*
X157762225Y-97262775D01*
X157781301Y-97291324D01*
X157788000Y-97325000D01*
X157788000Y-98075000D01*
X157781301Y-98108676D01*
X157762225Y-98137225D01*
X157733676Y-98156301D01*
X157700000Y-98163000D01*
X157600000Y-98163000D01*
X157566324Y-98156301D01*
X157537775Y-98137225D01*
X157518699Y-98108676D01*
X157512000Y-98075000D01*
X157512000Y-97325000D01*
X157518699Y-97291324D01*
X157537775Y-97262775D01*
X157566324Y-97243699D01*
X157600000Y-97237000D01*
X157700000Y-97237000D01*
X157733676Y-97243699D01*
G37*
G36*
X158133676Y-97243699D02*
G01*
X158162225Y-97262775D01*
X158181301Y-97291324D01*
X158188000Y-97325000D01*
X158188000Y-98075000D01*
X158181301Y-98108676D01*
X158162225Y-98137225D01*
X158133676Y-98156301D01*
X158100000Y-98163000D01*
X158000000Y-98163000D01*
X157966324Y-98156301D01*
X157937775Y-98137225D01*
X157918699Y-98108676D01*
X157912000Y-98075000D01*
X157912000Y-97325000D01*
X157918699Y-97291324D01*
X157937775Y-97262775D01*
X157966324Y-97243699D01*
X158000000Y-97237000D01*
X158100000Y-97237000D01*
X158133676Y-97243699D01*
G37*
G36*
X140906409Y-96738274D02*
G01*
X140966852Y-96746232D01*
X140982057Y-96753322D01*
X141000646Y-96757020D01*
X141025266Y-96773470D01*
X141050407Y-96785194D01*
X141065702Y-96800489D01*
X141085969Y-96814031D01*
X141099510Y-96834297D01*
X141114805Y-96849592D01*
X141126527Y-96874730D01*
X141142980Y-96899354D01*
X141146677Y-96917944D01*
X141153767Y-96933147D01*
X141161722Y-96993577D01*
X141163000Y-97000000D01*
X141163000Y-97450000D01*
X141161722Y-97456424D01*
X141153767Y-97516852D01*
X141146678Y-97532054D01*
X141142980Y-97550646D01*
X141126525Y-97575271D01*
X141114805Y-97600407D01*
X141099512Y-97615699D01*
X141085969Y-97635969D01*
X141065699Y-97649512D01*
X141050407Y-97664805D01*
X141025271Y-97676525D01*
X141000646Y-97692980D01*
X140982054Y-97696678D01*
X140966852Y-97703767D01*
X140906424Y-97711722D01*
X140900000Y-97713000D01*
X140400000Y-97713000D01*
X140393577Y-97711722D01*
X140333147Y-97703767D01*
X140317944Y-97696677D01*
X140299354Y-97692980D01*
X140274730Y-97676527D01*
X140249592Y-97664805D01*
X140234297Y-97649510D01*
X140214031Y-97635969D01*
X140200489Y-97615702D01*
X140185194Y-97600407D01*
X140173470Y-97575266D01*
X140157020Y-97550646D01*
X140153322Y-97532057D01*
X140146232Y-97516852D01*
X140138274Y-97456409D01*
X140137000Y-97450000D01*
X140137000Y-97000000D01*
X140138274Y-96993592D01*
X140146232Y-96933147D01*
X140153322Y-96917940D01*
X140157020Y-96899354D01*
X140173469Y-96874735D01*
X140185194Y-96849592D01*
X140200491Y-96834294D01*
X140214031Y-96814031D01*
X140234294Y-96800491D01*
X140249592Y-96785194D01*
X140274735Y-96773469D01*
X140299354Y-96757020D01*
X140317940Y-96753322D01*
X140333147Y-96746232D01*
X140393592Y-96738274D01*
X140400000Y-96737000D01*
X140900000Y-96737000D01*
X140906409Y-96738274D01*
G37*
G36*
X142779047Y-96687805D02*
G01*
X142827661Y-96693445D01*
X142844271Y-96700779D01*
X142866079Y-96705117D01*
X142889425Y-96720716D01*
X142909012Y-96729365D01*
X142922390Y-96742743D01*
X142943291Y-96756709D01*
X142957256Y-96777609D01*
X142970634Y-96790987D01*
X142979281Y-96810572D01*
X142994883Y-96833921D01*
X142999221Y-96855731D01*
X143006554Y-96872338D01*
X143012192Y-96920942D01*
X143013000Y-96925000D01*
X143013000Y-97475000D01*
X143012192Y-97479059D01*
X143006554Y-97527661D01*
X142999221Y-97544266D01*
X142994883Y-97566079D01*
X142979280Y-97589429D01*
X142970634Y-97609012D01*
X142957258Y-97622387D01*
X142943291Y-97643291D01*
X142922387Y-97657258D01*
X142909012Y-97670634D01*
X142889429Y-97679280D01*
X142866079Y-97694883D01*
X142844266Y-97699221D01*
X142827661Y-97706554D01*
X142779059Y-97712192D01*
X142775000Y-97713000D01*
X142375000Y-97713000D01*
X142370942Y-97712192D01*
X142322338Y-97706554D01*
X142305731Y-97699221D01*
X142283921Y-97694883D01*
X142260572Y-97679281D01*
X142240987Y-97670634D01*
X142227609Y-97657256D01*
X142206709Y-97643291D01*
X142192743Y-97622390D01*
X142179365Y-97609012D01*
X142170716Y-97589425D01*
X142155117Y-97566079D01*
X142150779Y-97544271D01*
X142143445Y-97527661D01*
X142137805Y-97479047D01*
X142137000Y-97475000D01*
X142137000Y-96925000D01*
X142137804Y-96920954D01*
X142143445Y-96872338D01*
X142150779Y-96855727D01*
X142155117Y-96833921D01*
X142170715Y-96810576D01*
X142179365Y-96790987D01*
X142192745Y-96777606D01*
X142206709Y-96756709D01*
X142227606Y-96742745D01*
X142240987Y-96729365D01*
X142260576Y-96720715D01*
X142283921Y-96705117D01*
X142305727Y-96700779D01*
X142322338Y-96693445D01*
X142370954Y-96687804D01*
X142375000Y-96687000D01*
X142775000Y-96687000D01*
X142779047Y-96687805D01*
G37*
G36*
X144429047Y-96687805D02*
G01*
X144477661Y-96693445D01*
X144494271Y-96700779D01*
X144516079Y-96705117D01*
X144539425Y-96720716D01*
X144559012Y-96729365D01*
X144572390Y-96742743D01*
X144593291Y-96756709D01*
X144607256Y-96777609D01*
X144620634Y-96790987D01*
X144629281Y-96810572D01*
X144644883Y-96833921D01*
X144649221Y-96855731D01*
X144656554Y-96872338D01*
X144662192Y-96920942D01*
X144663000Y-96925000D01*
X144663000Y-97475000D01*
X144662192Y-97479059D01*
X144656554Y-97527661D01*
X144649221Y-97544266D01*
X144644883Y-97566079D01*
X144629280Y-97589429D01*
X144620634Y-97609012D01*
X144607258Y-97622387D01*
X144593291Y-97643291D01*
X144572387Y-97657258D01*
X144559012Y-97670634D01*
X144539429Y-97679280D01*
X144516079Y-97694883D01*
X144494266Y-97699221D01*
X144477661Y-97706554D01*
X144429059Y-97712192D01*
X144425000Y-97713000D01*
X144025000Y-97713000D01*
X144020942Y-97712192D01*
X143972338Y-97706554D01*
X143955731Y-97699221D01*
X143933921Y-97694883D01*
X143910572Y-97679281D01*
X143890987Y-97670634D01*
X143877609Y-97657256D01*
X143856709Y-97643291D01*
X143842743Y-97622390D01*
X143829365Y-97609012D01*
X143820716Y-97589425D01*
X143805117Y-97566079D01*
X143800779Y-97544271D01*
X143793445Y-97527661D01*
X143787805Y-97479047D01*
X143787000Y-97475000D01*
X143787000Y-96925000D01*
X143787804Y-96920954D01*
X143793445Y-96872338D01*
X143800779Y-96855727D01*
X143805117Y-96833921D01*
X143820715Y-96810576D01*
X143829365Y-96790987D01*
X143842745Y-96777606D01*
X143856709Y-96756709D01*
X143877606Y-96742745D01*
X143890987Y-96729365D01*
X143910576Y-96720715D01*
X143933921Y-96705117D01*
X143955727Y-96700779D01*
X143972338Y-96693445D01*
X144020954Y-96687804D01*
X144025000Y-96687000D01*
X144425000Y-96687000D01*
X144429047Y-96687805D01*
G37*
G36*
X146179047Y-96687805D02*
G01*
X146227661Y-96693445D01*
X146244271Y-96700779D01*
X146266079Y-96705117D01*
X146289425Y-96720716D01*
X146309012Y-96729365D01*
X146322390Y-96742743D01*
X146343291Y-96756709D01*
X146357256Y-96777609D01*
X146370634Y-96790987D01*
X146379281Y-96810572D01*
X146394883Y-96833921D01*
X146399221Y-96855731D01*
X146406554Y-96872338D01*
X146412192Y-96920942D01*
X146413000Y-96925000D01*
X146413000Y-97325000D01*
X146412192Y-97329059D01*
X146406554Y-97377661D01*
X146399221Y-97394266D01*
X146394883Y-97416079D01*
X146379280Y-97439429D01*
X146370634Y-97459012D01*
X146357258Y-97472387D01*
X146343291Y-97493291D01*
X146322387Y-97507258D01*
X146309012Y-97520634D01*
X146289429Y-97529280D01*
X146266079Y-97544883D01*
X146244266Y-97549221D01*
X146227661Y-97556554D01*
X146179059Y-97562192D01*
X146175000Y-97563000D01*
X145625000Y-97563000D01*
X145620942Y-97562192D01*
X145572338Y-97556554D01*
X145555731Y-97549221D01*
X145533921Y-97544883D01*
X145510572Y-97529281D01*
X145490987Y-97520634D01*
X145477609Y-97507256D01*
X145456709Y-97493291D01*
X145442743Y-97472390D01*
X145429365Y-97459012D01*
X145420716Y-97439425D01*
X145405117Y-97416079D01*
X145400779Y-97394271D01*
X145393445Y-97377661D01*
X145387805Y-97329047D01*
X145387000Y-97325000D01*
X145387000Y-96925000D01*
X145387804Y-96920954D01*
X145393445Y-96872338D01*
X145400779Y-96855727D01*
X145405117Y-96833921D01*
X145420715Y-96810576D01*
X145429365Y-96790987D01*
X145442745Y-96777606D01*
X145456709Y-96756709D01*
X145477606Y-96742745D01*
X145490987Y-96729365D01*
X145510576Y-96720715D01*
X145533921Y-96705117D01*
X145555727Y-96700779D01*
X145572338Y-96693445D01*
X145620954Y-96687804D01*
X145625000Y-96687000D01*
X146175000Y-96687000D01*
X146179047Y-96687805D01*
G37*
G36*
X160129047Y-96237805D02*
G01*
X160177661Y-96243445D01*
X160194271Y-96250779D01*
X160216079Y-96255117D01*
X160239425Y-96270716D01*
X160259012Y-96279365D01*
X160272390Y-96292743D01*
X160293291Y-96306709D01*
X160307256Y-96327609D01*
X160320634Y-96340987D01*
X160329281Y-96360572D01*
X160344883Y-96383921D01*
X160349221Y-96405731D01*
X160356554Y-96422338D01*
X160362192Y-96470942D01*
X160363000Y-96475000D01*
X160363000Y-96875000D01*
X160362192Y-96879059D01*
X160356554Y-96927661D01*
X160349221Y-96944266D01*
X160344883Y-96966079D01*
X160329280Y-96989429D01*
X160320634Y-97009012D01*
X160307258Y-97022387D01*
X160293291Y-97043291D01*
X160272387Y-97057258D01*
X160259012Y-97070634D01*
X160239429Y-97079280D01*
X160216079Y-97094883D01*
X160194266Y-97099221D01*
X160177661Y-97106554D01*
X160129059Y-97112192D01*
X160125000Y-97113000D01*
X159575000Y-97113000D01*
X159570942Y-97112192D01*
X159522338Y-97106554D01*
X159505731Y-97099221D01*
X159483921Y-97094883D01*
X159460572Y-97079281D01*
X159440987Y-97070634D01*
X159427609Y-97057256D01*
X159406709Y-97043291D01*
X159392743Y-97022390D01*
X159379365Y-97009012D01*
X159370716Y-96989425D01*
X159355117Y-96966079D01*
X159350779Y-96944271D01*
X159343445Y-96927661D01*
X159337805Y-96879047D01*
X159337000Y-96875000D01*
X159337000Y-96475000D01*
X159337804Y-96470954D01*
X159343445Y-96422338D01*
X159350779Y-96405727D01*
X159355117Y-96383921D01*
X159370715Y-96360576D01*
X159379365Y-96340987D01*
X159392745Y-96327606D01*
X159406709Y-96306709D01*
X159427606Y-96292745D01*
X159440987Y-96279365D01*
X159460576Y-96270715D01*
X159483921Y-96255117D01*
X159505727Y-96250779D01*
X159522338Y-96243445D01*
X159570954Y-96237804D01*
X159575000Y-96237000D01*
X160125000Y-96237000D01*
X160129047Y-96237805D01*
G37*
G36*
X160129047Y-94587805D02*
G01*
X160177661Y-94593445D01*
X160194271Y-94600779D01*
X160216079Y-94605117D01*
X160239425Y-94620716D01*
X160259012Y-94629365D01*
X160272390Y-94642743D01*
X160293291Y-94656709D01*
X160307256Y-94677609D01*
X160320634Y-94690987D01*
X160329281Y-94710572D01*
X160344883Y-94733921D01*
X160349221Y-94755731D01*
X160356554Y-94772338D01*
X160362192Y-94820942D01*
X160363000Y-94825000D01*
X160363000Y-95225000D01*
X160362192Y-95229059D01*
X160356554Y-95277661D01*
X160349221Y-95294266D01*
X160344883Y-95316079D01*
X160329280Y-95339429D01*
X160320634Y-95359012D01*
X160307258Y-95372387D01*
X160293291Y-95393291D01*
X160272387Y-95407258D01*
X160259012Y-95420634D01*
X160239429Y-95429280D01*
X160216079Y-95444883D01*
X160194266Y-95449221D01*
X160177661Y-95456554D01*
X160129059Y-95462192D01*
X160125000Y-95463000D01*
X159575000Y-95463000D01*
X159570942Y-95462192D01*
X159522338Y-95456554D01*
X159505731Y-95449221D01*
X159483921Y-95444883D01*
X159460572Y-95429281D01*
X159440987Y-95420634D01*
X159427609Y-95407256D01*
X159406709Y-95393291D01*
X159392743Y-95372390D01*
X159379365Y-95359012D01*
X159370716Y-95339425D01*
X159355117Y-95316079D01*
X159350779Y-95294271D01*
X159343445Y-95277661D01*
X159337805Y-95229047D01*
X159337000Y-95225000D01*
X159337000Y-94825000D01*
X159337804Y-94820954D01*
X159343445Y-94772338D01*
X159350779Y-94755727D01*
X159355117Y-94733921D01*
X159370715Y-94710576D01*
X159379365Y-94690987D01*
X159392745Y-94677606D01*
X159406709Y-94656709D01*
X159427606Y-94642745D01*
X159440987Y-94629365D01*
X159460576Y-94620715D01*
X159483921Y-94605117D01*
X159505727Y-94600779D01*
X159522338Y-94593445D01*
X159570954Y-94587804D01*
X159575000Y-94587000D01*
X160125000Y-94587000D01*
X160129047Y-94587805D01*
G37*
G36*
X149479047Y-94187805D02*
G01*
X149527661Y-94193445D01*
X149544271Y-94200779D01*
X149566079Y-94205117D01*
X149589425Y-94220716D01*
X149609012Y-94229365D01*
X149622390Y-94242743D01*
X149643291Y-94256709D01*
X149657256Y-94277609D01*
X149670634Y-94290987D01*
X149679281Y-94310572D01*
X149694883Y-94333921D01*
X149699221Y-94355731D01*
X149706554Y-94372338D01*
X149712192Y-94420942D01*
X149713000Y-94425000D01*
X149713000Y-94825000D01*
X149712192Y-94829059D01*
X149706554Y-94877661D01*
X149699221Y-94894266D01*
X149694883Y-94916079D01*
X149679280Y-94939429D01*
X149670634Y-94959012D01*
X149657258Y-94972387D01*
X149643291Y-94993291D01*
X149622387Y-95007258D01*
X149609012Y-95020634D01*
X149589429Y-95029280D01*
X149566079Y-95044883D01*
X149544266Y-95049221D01*
X149527661Y-95056554D01*
X149479059Y-95062192D01*
X149475000Y-95063000D01*
X148925000Y-95063000D01*
X148920942Y-95062192D01*
X148872338Y-95056554D01*
X148855731Y-95049221D01*
X148833921Y-95044883D01*
X148810572Y-95029281D01*
X148790987Y-95020634D01*
X148777609Y-95007256D01*
X148756709Y-94993291D01*
X148742743Y-94972390D01*
X148729365Y-94959012D01*
X148720716Y-94939425D01*
X148705117Y-94916079D01*
X148700779Y-94894271D01*
X148693445Y-94877661D01*
X148687805Y-94829047D01*
X148687000Y-94825000D01*
X148687000Y-94425000D01*
X148687804Y-94420954D01*
X148693445Y-94372338D01*
X148700779Y-94355727D01*
X148705117Y-94333921D01*
X148720715Y-94310576D01*
X148729365Y-94290987D01*
X148742745Y-94277606D01*
X148756709Y-94256709D01*
X148777606Y-94242745D01*
X148790987Y-94229365D01*
X148810576Y-94220715D01*
X148833921Y-94205117D01*
X148855727Y-94200779D01*
X148872338Y-94193445D01*
X148920954Y-94187804D01*
X148925000Y-94187000D01*
X149475000Y-94187000D01*
X149479047Y-94187805D01*
G37*
G36*
X151029047Y-94187805D02*
G01*
X151077661Y-94193445D01*
X151094271Y-94200779D01*
X151116079Y-94205117D01*
X151139425Y-94220716D01*
X151159012Y-94229365D01*
X151172390Y-94242743D01*
X151193291Y-94256709D01*
X151207256Y-94277609D01*
X151220634Y-94290987D01*
X151229281Y-94310572D01*
X151244883Y-94333921D01*
X151249221Y-94355731D01*
X151256554Y-94372338D01*
X151262192Y-94420942D01*
X151263000Y-94425000D01*
X151263000Y-94825000D01*
X151262192Y-94829059D01*
X151256554Y-94877661D01*
X151249221Y-94894266D01*
X151244883Y-94916079D01*
X151229280Y-94939429D01*
X151220634Y-94959012D01*
X151207258Y-94972387D01*
X151193291Y-94993291D01*
X151172387Y-95007258D01*
X151159012Y-95020634D01*
X151139429Y-95029280D01*
X151116079Y-95044883D01*
X151094266Y-95049221D01*
X151077661Y-95056554D01*
X151029059Y-95062192D01*
X151025000Y-95063000D01*
X150475000Y-95063000D01*
X150470942Y-95062192D01*
X150422338Y-95056554D01*
X150405731Y-95049221D01*
X150383921Y-95044883D01*
X150360572Y-95029281D01*
X150340987Y-95020634D01*
X150327609Y-95007256D01*
X150306709Y-94993291D01*
X150292743Y-94972390D01*
X150279365Y-94959012D01*
X150270716Y-94939425D01*
X150255117Y-94916079D01*
X150250779Y-94894271D01*
X150243445Y-94877661D01*
X150237805Y-94829047D01*
X150237000Y-94825000D01*
X150237000Y-94425000D01*
X150237804Y-94420954D01*
X150243445Y-94372338D01*
X150250779Y-94355727D01*
X150255117Y-94333921D01*
X150270715Y-94310576D01*
X150279365Y-94290987D01*
X150292745Y-94277606D01*
X150306709Y-94256709D01*
X150327606Y-94242745D01*
X150340987Y-94229365D01*
X150360576Y-94220715D01*
X150383921Y-94205117D01*
X150405727Y-94200779D01*
X150422338Y-94193445D01*
X150470954Y-94187804D01*
X150475000Y-94187000D01*
X151025000Y-94187000D01*
X151029047Y-94187805D01*
G37*
G36*
X141496944Y-94113811D02*
G01*
X141557936Y-94154564D01*
X141598689Y-94215556D01*
X141613000Y-94287500D01*
X141613000Y-94587500D01*
X141598689Y-94659444D01*
X141557936Y-94720436D01*
X141496944Y-94761189D01*
X141425000Y-94775500D01*
X140400000Y-94775500D01*
X140328056Y-94761189D01*
X140267064Y-94720436D01*
X140226311Y-94659444D01*
X140212000Y-94587500D01*
X140212000Y-94287500D01*
X140226311Y-94215556D01*
X140267064Y-94154564D01*
X140328056Y-94113811D01*
X140400000Y-94099500D01*
X141425000Y-94099500D01*
X141496944Y-94113811D01*
G37*
G36*
X143771944Y-94113811D02*
G01*
X143832936Y-94154564D01*
X143873689Y-94215556D01*
X143888000Y-94287500D01*
X143888000Y-94587500D01*
X143873689Y-94659444D01*
X143832936Y-94720436D01*
X143771944Y-94761189D01*
X143700000Y-94775500D01*
X142675000Y-94775500D01*
X142603056Y-94761189D01*
X142542064Y-94720436D01*
X142501311Y-94659444D01*
X142487000Y-94587500D01*
X142487000Y-94287500D01*
X142501311Y-94215556D01*
X142542064Y-94154564D01*
X142603056Y-94113811D01*
X142675000Y-94099500D01*
X143700000Y-94099500D01*
X143771944Y-94113811D01*
G37*
G36*
X141496944Y-93163811D02*
G01*
X141557936Y-93204564D01*
X141598689Y-93265556D01*
X141613000Y-93337500D01*
X141613000Y-93637500D01*
X141598689Y-93709444D01*
X141557936Y-93770436D01*
X141496944Y-93811189D01*
X141425000Y-93825500D01*
X140400000Y-93825500D01*
X140328056Y-93811189D01*
X140267064Y-93770436D01*
X140226311Y-93709444D01*
X140212000Y-93637500D01*
X140212000Y-93337500D01*
X140226311Y-93265556D01*
X140267064Y-93204564D01*
X140328056Y-93163811D01*
X140400000Y-93149500D01*
X141425000Y-93149500D01*
X141496944Y-93163811D01*
G37*
G36*
X160055884Y-92602953D02*
G01*
X160177514Y-92673176D01*
X160276824Y-92772486D01*
X160347047Y-92894116D01*
X160383397Y-93029777D01*
X160383397Y-93170223D01*
X160347047Y-93305884D01*
X160276824Y-93427514D01*
X160177514Y-93526824D01*
X160055884Y-93597047D01*
X159920223Y-93633397D01*
X159779777Y-93633397D01*
X159644116Y-93597047D01*
X159522486Y-93526824D01*
X159423176Y-93427514D01*
X159352953Y-93305884D01*
X159316603Y-93170223D01*
X159316603Y-93029777D01*
X159352953Y-92894116D01*
X159423176Y-92772486D01*
X159522486Y-92673176D01*
X159644116Y-92602953D01*
X159779777Y-92566603D01*
X159920223Y-92566603D01*
X160055884Y-92602953D01*
G37*
G36*
X149479047Y-92537805D02*
G01*
X149527661Y-92543445D01*
X149544271Y-92550779D01*
X149566079Y-92555117D01*
X149589425Y-92570716D01*
X149609012Y-92579365D01*
X149622390Y-92592743D01*
X149643291Y-92606709D01*
X149657256Y-92627609D01*
X149670634Y-92640987D01*
X149679281Y-92660572D01*
X149694883Y-92683921D01*
X149699221Y-92705731D01*
X149706554Y-92722338D01*
X149712192Y-92770942D01*
X149713000Y-92775000D01*
X149713000Y-93175000D01*
X149712192Y-93179059D01*
X149706554Y-93227661D01*
X149699221Y-93244266D01*
X149694883Y-93266079D01*
X149679280Y-93289429D01*
X149670634Y-93309012D01*
X149657258Y-93322387D01*
X149643291Y-93343291D01*
X149622387Y-93357258D01*
X149609012Y-93370634D01*
X149589429Y-93379280D01*
X149566079Y-93394883D01*
X149544266Y-93399221D01*
X149527661Y-93406554D01*
X149479059Y-93412192D01*
X149475000Y-93413000D01*
X148925000Y-93413000D01*
X148920942Y-93412192D01*
X148872338Y-93406554D01*
X148855731Y-93399221D01*
X148833921Y-93394883D01*
X148810572Y-93379281D01*
X148790987Y-93370634D01*
X148777609Y-93357256D01*
X148756709Y-93343291D01*
X148742743Y-93322390D01*
X148729365Y-93309012D01*
X148720716Y-93289425D01*
X148705117Y-93266079D01*
X148700779Y-93244271D01*
X148693445Y-93227661D01*
X148687805Y-93179047D01*
X148687000Y-93175000D01*
X148687000Y-92775000D01*
X148687804Y-92770954D01*
X148693445Y-92722338D01*
X148700779Y-92705727D01*
X148705117Y-92683921D01*
X148720715Y-92660576D01*
X148729365Y-92640987D01*
X148742745Y-92627606D01*
X148756709Y-92606709D01*
X148777606Y-92592745D01*
X148790987Y-92579365D01*
X148810576Y-92570715D01*
X148833921Y-92555117D01*
X148855727Y-92550779D01*
X148872338Y-92543445D01*
X148920954Y-92537804D01*
X148925000Y-92537000D01*
X149475000Y-92537000D01*
X149479047Y-92537805D01*
G37*
G36*
X151029047Y-92537805D02*
G01*
X151077661Y-92543445D01*
X151094271Y-92550779D01*
X151116079Y-92555117D01*
X151139425Y-92570716D01*
X151159012Y-92579365D01*
X151172390Y-92592743D01*
X151193291Y-92606709D01*
X151207256Y-92627609D01*
X151220634Y-92640987D01*
X151229281Y-92660572D01*
X151244883Y-92683921D01*
X151249221Y-92705731D01*
X151256554Y-92722338D01*
X151262192Y-92770942D01*
X151263000Y-92775000D01*
X151263000Y-93175000D01*
X151262192Y-93179059D01*
X151256554Y-93227661D01*
X151249221Y-93244266D01*
X151244883Y-93266079D01*
X151229280Y-93289429D01*
X151220634Y-93309012D01*
X151207258Y-93322387D01*
X151193291Y-93343291D01*
X151172387Y-93357258D01*
X151159012Y-93370634D01*
X151139429Y-93379280D01*
X151116079Y-93394883D01*
X151094266Y-93399221D01*
X151077661Y-93406554D01*
X151029059Y-93412192D01*
X151025000Y-93413000D01*
X150475000Y-93413000D01*
X150470942Y-93412192D01*
X150422338Y-93406554D01*
X150405731Y-93399221D01*
X150383921Y-93394883D01*
X150360572Y-93379281D01*
X150340987Y-93370634D01*
X150327609Y-93357256D01*
X150306709Y-93343291D01*
X150292743Y-93322390D01*
X150279365Y-93309012D01*
X150270716Y-93289425D01*
X150255117Y-93266079D01*
X150250779Y-93244271D01*
X150243445Y-93227661D01*
X150237805Y-93179047D01*
X150237000Y-93175000D01*
X150237000Y-92775000D01*
X150237804Y-92770954D01*
X150243445Y-92722338D01*
X150250779Y-92705727D01*
X150255117Y-92683921D01*
X150270715Y-92660576D01*
X150279365Y-92640987D01*
X150292745Y-92627606D01*
X150306709Y-92606709D01*
X150327606Y-92592745D01*
X150340987Y-92579365D01*
X150360576Y-92570715D01*
X150383921Y-92555117D01*
X150405727Y-92550779D01*
X150422338Y-92543445D01*
X150470954Y-92537804D01*
X150475000Y-92537000D01*
X151025000Y-92537000D01*
X151029047Y-92537805D01*
G37*
G36*
X141496944Y-92213811D02*
G01*
X141557936Y-92254564D01*
X141598689Y-92315556D01*
X141613000Y-92387500D01*
X141613000Y-92687500D01*
X141598689Y-92759444D01*
X141557936Y-92820436D01*
X141496944Y-92861189D01*
X141425000Y-92875500D01*
X140400000Y-92875500D01*
X140328056Y-92861189D01*
X140267064Y-92820436D01*
X140226311Y-92759444D01*
X140212000Y-92687500D01*
X140212000Y-92387500D01*
X140226311Y-92315556D01*
X140267064Y-92254564D01*
X140328056Y-92213811D01*
X140400000Y-92199500D01*
X141425000Y-92199500D01*
X141496944Y-92213811D01*
G37*
G36*
X143771944Y-92213811D02*
G01*
X143832936Y-92254564D01*
X143873689Y-92315556D01*
X143888000Y-92387500D01*
X143888000Y-92687500D01*
X143873689Y-92759444D01*
X143832936Y-92820436D01*
X143771944Y-92861189D01*
X143700000Y-92875500D01*
X142675000Y-92875500D01*
X142603056Y-92861189D01*
X142542064Y-92820436D01*
X142501311Y-92759444D01*
X142487000Y-92687500D01*
X142487000Y-92387500D01*
X142501311Y-92315556D01*
X142542064Y-92254564D01*
X142603056Y-92213811D01*
X142675000Y-92199500D01*
X143700000Y-92199500D01*
X143771944Y-92213811D01*
G37*
G36*
X158255884Y-90802953D02*
G01*
X158377514Y-90873176D01*
X158476824Y-90972486D01*
X158547047Y-91094116D01*
X158583397Y-91229777D01*
X158583397Y-91370223D01*
X158547047Y-91505884D01*
X158476824Y-91627514D01*
X158377514Y-91726824D01*
X158255884Y-91797047D01*
X158120223Y-91833397D01*
X157979777Y-91833397D01*
X157844116Y-91797047D01*
X157722486Y-91726824D01*
X157623176Y-91627514D01*
X157552953Y-91505884D01*
X157516603Y-91370223D01*
X157516603Y-91229777D01*
X157552953Y-91094116D01*
X157623176Y-90972486D01*
X157722486Y-90873176D01*
X157844116Y-90802953D01*
X157979777Y-90766603D01*
X158120223Y-90766603D01*
X158255884Y-90802953D01*
G37*
G36*
X145747456Y-90017030D02*
G01*
X145756749Y-90017030D01*
X145783520Y-90024203D01*
X145850615Y-90037549D01*
X145882287Y-90050668D01*
X145905018Y-90056759D01*
X145925399Y-90068526D01*
X145957066Y-90081643D01*
X146013936Y-90119642D01*
X146037952Y-90133508D01*
X146044526Y-90140082D01*
X146052868Y-90145656D01*
X146134343Y-90227131D01*
X146139916Y-90235472D01*
X146146492Y-90242048D01*
X146160359Y-90266067D01*
X146198356Y-90322933D01*
X146211471Y-90354597D01*
X146223241Y-90374982D01*
X146229332Y-90397716D01*
X146242450Y-90429384D01*
X146255793Y-90496468D01*
X146262970Y-90523251D01*
X146263878Y-90537116D01*
X146265168Y-90543598D01*
X146267758Y-90596311D01*
X146268000Y-90600000D01*
X146268000Y-91200000D01*
X146267758Y-91203691D01*
X146265168Y-91256401D01*
X146263878Y-91262882D01*
X146262970Y-91276749D01*
X146255792Y-91303533D01*
X146242450Y-91370615D01*
X146229333Y-91402280D01*
X146223241Y-91425018D01*
X146211470Y-91445405D01*
X146198356Y-91477066D01*
X146160363Y-91533925D01*
X146146492Y-91557952D01*
X146139914Y-91564529D01*
X146134343Y-91572868D01*
X146052868Y-91654343D01*
X146044529Y-91659914D01*
X146037952Y-91666492D01*
X146013925Y-91680363D01*
X145957066Y-91718356D01*
X145925405Y-91731470D01*
X145905018Y-91743241D01*
X145882280Y-91749333D01*
X145850615Y-91762450D01*
X145783526Y-91775794D01*
X145756749Y-91782970D01*
X145747455Y-91782970D01*
X145737612Y-91784928D01*
X145622388Y-91784928D01*
X145612545Y-91782970D01*
X145603251Y-91782970D01*
X145576474Y-91775795D01*
X145509384Y-91762450D01*
X145477716Y-91749332D01*
X145454982Y-91743241D01*
X145434597Y-91731471D01*
X145402933Y-91718356D01*
X145346067Y-91680359D01*
X145322048Y-91666492D01*
X145315472Y-91659916D01*
X145307131Y-91654343D01*
X145225656Y-91572868D01*
X145220082Y-91564526D01*
X145213508Y-91557952D01*
X145199642Y-91533936D01*
X145161643Y-91477066D01*
X145148526Y-91445399D01*
X145136759Y-91425018D01*
X145130668Y-91402287D01*
X145117549Y-91370615D01*
X145104203Y-91303519D01*
X145097030Y-91276749D01*
X145096121Y-91262889D01*
X145094831Y-91256401D01*
X145092241Y-91203686D01*
X145092000Y-91200000D01*
X145092000Y-90600000D01*
X145092241Y-90596316D01*
X145094831Y-90543598D01*
X145096121Y-90537108D01*
X145097030Y-90523251D01*
X145104202Y-90496483D01*
X145117549Y-90429384D01*
X145130669Y-90397709D01*
X145136759Y-90374982D01*
X145148524Y-90354603D01*
X145161643Y-90322933D01*
X145199646Y-90266056D01*
X145213508Y-90242048D01*
X145220080Y-90235475D01*
X145225656Y-90227131D01*
X145307131Y-90145656D01*
X145315475Y-90140080D01*
X145322048Y-90133508D01*
X145346056Y-90119646D01*
X145402933Y-90081643D01*
X145434603Y-90068524D01*
X145454982Y-90056759D01*
X145477709Y-90050669D01*
X145509384Y-90037549D01*
X145576480Y-90024203D01*
X145603251Y-90017030D01*
X145612544Y-90017030D01*
X145622388Y-90015072D01*
X145737612Y-90015072D01*
X145747456Y-90017030D01*
G37*
G36*
X154387456Y-90017030D02*
G01*
X154396749Y-90017030D01*
X154423520Y-90024203D01*
X154490615Y-90037549D01*
X154522287Y-90050668D01*
X154545018Y-90056759D01*
X154565399Y-90068526D01*
X154597066Y-90081643D01*
X154653936Y-90119642D01*
X154677952Y-90133508D01*
X154684526Y-90140082D01*
X154692868Y-90145656D01*
X154774343Y-90227131D01*
X154779916Y-90235472D01*
X154786492Y-90242048D01*
X154800359Y-90266067D01*
X154838356Y-90322933D01*
X154851471Y-90354597D01*
X154863241Y-90374982D01*
X154869332Y-90397716D01*
X154882450Y-90429384D01*
X154895793Y-90496468D01*
X154902970Y-90523251D01*
X154903878Y-90537116D01*
X154905168Y-90543598D01*
X154907758Y-90596311D01*
X154908000Y-90600000D01*
X154908000Y-91200000D01*
X154907758Y-91203691D01*
X154905168Y-91256401D01*
X154903878Y-91262882D01*
X154902970Y-91276749D01*
X154895792Y-91303533D01*
X154882450Y-91370615D01*
X154869333Y-91402280D01*
X154863241Y-91425018D01*
X154851470Y-91445405D01*
X154838356Y-91477066D01*
X154800363Y-91533925D01*
X154786492Y-91557952D01*
X154779914Y-91564529D01*
X154774343Y-91572868D01*
X154692868Y-91654343D01*
X154684529Y-91659914D01*
X154677952Y-91666492D01*
X154653925Y-91680363D01*
X154597066Y-91718356D01*
X154565405Y-91731470D01*
X154545018Y-91743241D01*
X154522280Y-91749333D01*
X154490615Y-91762450D01*
X154423526Y-91775794D01*
X154396749Y-91782970D01*
X154387455Y-91782970D01*
X154377612Y-91784928D01*
X154262388Y-91784928D01*
X154252545Y-91782970D01*
X154243251Y-91782970D01*
X154216474Y-91775795D01*
X154149384Y-91762450D01*
X154117716Y-91749332D01*
X154094982Y-91743241D01*
X154074597Y-91731471D01*
X154042933Y-91718356D01*
X153986067Y-91680359D01*
X153962048Y-91666492D01*
X153955472Y-91659916D01*
X153947131Y-91654343D01*
X153865656Y-91572868D01*
X153860082Y-91564526D01*
X153853508Y-91557952D01*
X153839642Y-91533936D01*
X153801643Y-91477066D01*
X153788526Y-91445399D01*
X153776759Y-91425018D01*
X153770668Y-91402287D01*
X153757549Y-91370615D01*
X153744203Y-91303519D01*
X153737030Y-91276749D01*
X153736121Y-91262889D01*
X153734831Y-91256401D01*
X153732241Y-91203686D01*
X153732000Y-91200000D01*
X153732000Y-90600000D01*
X153732241Y-90596316D01*
X153734831Y-90543598D01*
X153736121Y-90537108D01*
X153737030Y-90523251D01*
X153744202Y-90496483D01*
X153757549Y-90429384D01*
X153770669Y-90397709D01*
X153776759Y-90374982D01*
X153788524Y-90354603D01*
X153801643Y-90322933D01*
X153839646Y-90266056D01*
X153853508Y-90242048D01*
X153860080Y-90235475D01*
X153865656Y-90227131D01*
X153947131Y-90145656D01*
X153955475Y-90140080D01*
X153962048Y-90133508D01*
X153986056Y-90119646D01*
X154042933Y-90081643D01*
X154074603Y-90068524D01*
X154094982Y-90056759D01*
X154117709Y-90050669D01*
X154149384Y-90037549D01*
X154216480Y-90024203D01*
X154243251Y-90017030D01*
X154252544Y-90017030D01*
X154262388Y-90015072D01*
X154377612Y-90015072D01*
X154387456Y-90017030D01*
G37*
G36*
X147454047Y-90342805D02*
G01*
X147502661Y-90348445D01*
X147519271Y-90355779D01*
X147541079Y-90360117D01*
X147564425Y-90375716D01*
X147584012Y-90384365D01*
X147597390Y-90397743D01*
X147618291Y-90411709D01*
X147632256Y-90432609D01*
X147645634Y-90445987D01*
X147654281Y-90465572D01*
X147669883Y-90488921D01*
X147674221Y-90510731D01*
X147681554Y-90527338D01*
X147687192Y-90575942D01*
X147688000Y-90580000D01*
X147688000Y-91380000D01*
X147687192Y-91384059D01*
X147681554Y-91432661D01*
X147674221Y-91449266D01*
X147669883Y-91471079D01*
X147654280Y-91494429D01*
X147645634Y-91514012D01*
X147632258Y-91527387D01*
X147618291Y-91548291D01*
X147597387Y-91562258D01*
X147584012Y-91575634D01*
X147564429Y-91584280D01*
X147541079Y-91599883D01*
X147519266Y-91604221D01*
X147502661Y-91611554D01*
X147454059Y-91617192D01*
X147450000Y-91618000D01*
X147050000Y-91618000D01*
X147045942Y-91617192D01*
X146997338Y-91611554D01*
X146980731Y-91604221D01*
X146958921Y-91599883D01*
X146935572Y-91584281D01*
X146915987Y-91575634D01*
X146902609Y-91562256D01*
X146881709Y-91548291D01*
X146867743Y-91527390D01*
X146854365Y-91514012D01*
X146845716Y-91494425D01*
X146830117Y-91471079D01*
X146825779Y-91449271D01*
X146818445Y-91432661D01*
X146812805Y-91384047D01*
X146812000Y-91380000D01*
X146812000Y-90580000D01*
X146812804Y-90575954D01*
X146818445Y-90527338D01*
X146825779Y-90510727D01*
X146830117Y-90488921D01*
X146845715Y-90465576D01*
X146854365Y-90445987D01*
X146867745Y-90432606D01*
X146881709Y-90411709D01*
X146902606Y-90397745D01*
X146915987Y-90384365D01*
X146935576Y-90375715D01*
X146958921Y-90360117D01*
X146980727Y-90355779D01*
X146997338Y-90348445D01*
X147045954Y-90342804D01*
X147050000Y-90342000D01*
X147450000Y-90342000D01*
X147454047Y-90342805D01*
G37*
G36*
X148674047Y-90342805D02*
G01*
X148720371Y-90348179D01*
X148736197Y-90355167D01*
X148757252Y-90359355D01*
X148779792Y-90374416D01*
X148798360Y-90382615D01*
X148811042Y-90395297D01*
X148831220Y-90408780D01*
X148844702Y-90428957D01*
X148857384Y-90441639D01*
X148865581Y-90460204D01*
X148880645Y-90482748D01*
X148884833Y-90503805D01*
X148891820Y-90519628D01*
X148897192Y-90565942D01*
X148898000Y-90570000D01*
X148898000Y-91390000D01*
X148897192Y-91394059D01*
X148891820Y-91440371D01*
X148884833Y-91456193D01*
X148880645Y-91477252D01*
X148865580Y-91499797D01*
X148857384Y-91518360D01*
X148844704Y-91531039D01*
X148831220Y-91551220D01*
X148811039Y-91564704D01*
X148798360Y-91577384D01*
X148779797Y-91585580D01*
X148757252Y-91600645D01*
X148736193Y-91604833D01*
X148720371Y-91611820D01*
X148674059Y-91617192D01*
X148670000Y-91618000D01*
X148290000Y-91618000D01*
X148285942Y-91617192D01*
X148239628Y-91611820D01*
X148223805Y-91604833D01*
X148202748Y-91600645D01*
X148180204Y-91585581D01*
X148161639Y-91577384D01*
X148148957Y-91564702D01*
X148128780Y-91551220D01*
X148115297Y-91531042D01*
X148102615Y-91518360D01*
X148094416Y-91499792D01*
X148079355Y-91477252D01*
X148075167Y-91456197D01*
X148068179Y-91440371D01*
X148062805Y-91394047D01*
X148062000Y-91390000D01*
X148062000Y-90570000D01*
X148062804Y-90565954D01*
X148068179Y-90519628D01*
X148075167Y-90503800D01*
X148079355Y-90482748D01*
X148094415Y-90460209D01*
X148102615Y-90441639D01*
X148115299Y-90428954D01*
X148128780Y-90408780D01*
X148148954Y-90395299D01*
X148161639Y-90382615D01*
X148180209Y-90374415D01*
X148202748Y-90359355D01*
X148223800Y-90355167D01*
X148239628Y-90348179D01*
X148285954Y-90342804D01*
X148290000Y-90342000D01*
X148670000Y-90342000D01*
X148674047Y-90342805D01*
G37*
G36*
X149756512Y-90358214D02*
G01*
X149825614Y-90404386D01*
X149871786Y-90473488D01*
X149888000Y-90555000D01*
X149888000Y-91405000D01*
X149871786Y-91486512D01*
X149825614Y-91555614D01*
X149756512Y-91601786D01*
X149675000Y-91618000D01*
X149325000Y-91618000D01*
X149243488Y-91601786D01*
X149174386Y-91555614D01*
X149128214Y-91486512D01*
X149112000Y-91405000D01*
X149112000Y-90555000D01*
X149128214Y-90473488D01*
X149174386Y-90404386D01*
X149243488Y-90358214D01*
X149325000Y-90342000D01*
X149675000Y-90342000D01*
X149756512Y-90358214D01*
G37*
G36*
X150756512Y-90358214D02*
G01*
X150825614Y-90404386D01*
X150871786Y-90473488D01*
X150888000Y-90555000D01*
X150888000Y-91405000D01*
X150871786Y-91486512D01*
X150825614Y-91555614D01*
X150756512Y-91601786D01*
X150675000Y-91618000D01*
X150325000Y-91618000D01*
X150243488Y-91601786D01*
X150174386Y-91555614D01*
X150128214Y-91486512D01*
X150112000Y-91405000D01*
X150112000Y-90555000D01*
X150128214Y-90473488D01*
X150174386Y-90404386D01*
X150243488Y-90358214D01*
X150325000Y-90342000D01*
X150675000Y-90342000D01*
X150756512Y-90358214D01*
G37*
G36*
X151714047Y-90342805D02*
G01*
X151760371Y-90348179D01*
X151776197Y-90355167D01*
X151797252Y-90359355D01*
X151819792Y-90374416D01*
X151838360Y-90382615D01*
X151851042Y-90395297D01*
X151871220Y-90408780D01*
X151884702Y-90428957D01*
X151897384Y-90441639D01*
X151905581Y-90460204D01*
X151920645Y-90482748D01*
X151924833Y-90503805D01*
X151931820Y-90519628D01*
X151937192Y-90565942D01*
X151938000Y-90570000D01*
X151938000Y-91390000D01*
X151937192Y-91394059D01*
X151931820Y-91440371D01*
X151924833Y-91456193D01*
X151920645Y-91477252D01*
X151905580Y-91499797D01*
X151897384Y-91518360D01*
X151884704Y-91531039D01*
X151871220Y-91551220D01*
X151851039Y-91564704D01*
X151838360Y-91577384D01*
X151819797Y-91585580D01*
X151797252Y-91600645D01*
X151776193Y-91604833D01*
X151760371Y-91611820D01*
X151714059Y-91617192D01*
X151710000Y-91618000D01*
X151330000Y-91618000D01*
X151325942Y-91617192D01*
X151279628Y-91611820D01*
X151263805Y-91604833D01*
X151242748Y-91600645D01*
X151220204Y-91585581D01*
X151201639Y-91577384D01*
X151188957Y-91564702D01*
X151168780Y-91551220D01*
X151155297Y-91531042D01*
X151142615Y-91518360D01*
X151134416Y-91499792D01*
X151119355Y-91477252D01*
X151115167Y-91456197D01*
X151108179Y-91440371D01*
X151102805Y-91394047D01*
X151102000Y-91390000D01*
X151102000Y-90570000D01*
X151102804Y-90565954D01*
X151108179Y-90519628D01*
X151115167Y-90503800D01*
X151119355Y-90482748D01*
X151134415Y-90460209D01*
X151142615Y-90441639D01*
X151155299Y-90428954D01*
X151168780Y-90408780D01*
X151188954Y-90395299D01*
X151201639Y-90382615D01*
X151220209Y-90374415D01*
X151242748Y-90359355D01*
X151263800Y-90355167D01*
X151279628Y-90348179D01*
X151325954Y-90342804D01*
X151330000Y-90342000D01*
X151710000Y-90342000D01*
X151714047Y-90342805D01*
G37*
G36*
X152954047Y-90342805D02*
G01*
X153002661Y-90348445D01*
X153019271Y-90355779D01*
X153041079Y-90360117D01*
X153064425Y-90375716D01*
X153084012Y-90384365D01*
X153097390Y-90397743D01*
X153118291Y-90411709D01*
X153132256Y-90432609D01*
X153145634Y-90445987D01*
X153154281Y-90465572D01*
X153169883Y-90488921D01*
X153174221Y-90510731D01*
X153181554Y-90527338D01*
X153187192Y-90575942D01*
X153188000Y-90580000D01*
X153188000Y-91380000D01*
X153187192Y-91384059D01*
X153181554Y-91432661D01*
X153174221Y-91449266D01*
X153169883Y-91471079D01*
X153154280Y-91494429D01*
X153145634Y-91514012D01*
X153132258Y-91527387D01*
X153118291Y-91548291D01*
X153097387Y-91562258D01*
X153084012Y-91575634D01*
X153064429Y-91584280D01*
X153041079Y-91599883D01*
X153019266Y-91604221D01*
X153002661Y-91611554D01*
X152954059Y-91617192D01*
X152950000Y-91618000D01*
X152550000Y-91618000D01*
X152545942Y-91617192D01*
X152497338Y-91611554D01*
X152480731Y-91604221D01*
X152458921Y-91599883D01*
X152435572Y-91584281D01*
X152415987Y-91575634D01*
X152402609Y-91562256D01*
X152381709Y-91548291D01*
X152367743Y-91527390D01*
X152354365Y-91514012D01*
X152345716Y-91494425D01*
X152330117Y-91471079D01*
X152325779Y-91449271D01*
X152318445Y-91432661D01*
X152312805Y-91384047D01*
X152312000Y-91380000D01*
X152312000Y-90580000D01*
X152312804Y-90575954D01*
X152318445Y-90527338D01*
X152325779Y-90510727D01*
X152330117Y-90488921D01*
X152345715Y-90465576D01*
X152354365Y-90445987D01*
X152367745Y-90432606D01*
X152381709Y-90411709D01*
X152402606Y-90397745D01*
X152415987Y-90384365D01*
X152435576Y-90375715D01*
X152458921Y-90360117D01*
X152480727Y-90355779D01*
X152497338Y-90348445D01*
X152545954Y-90342804D01*
X152550000Y-90342000D01*
X152950000Y-90342000D01*
X152954047Y-90342805D01*
G37*
G36*
X141779047Y-90475305D02*
G01*
X141827661Y-90480945D01*
X141844271Y-90488279D01*
X141866079Y-90492617D01*
X141889425Y-90508216D01*
X141909012Y-90516865D01*
X141922390Y-90530243D01*
X141943291Y-90544209D01*
X141957256Y-90565109D01*
X141970634Y-90578487D01*
X141979281Y-90598072D01*
X141994883Y-90621421D01*
X141999221Y-90643231D01*
X142006554Y-90659838D01*
X142012192Y-90708442D01*
X142013000Y-90712500D01*
X142013000Y-91262500D01*
X142012192Y-91266559D01*
X142006554Y-91315161D01*
X141999221Y-91331766D01*
X141994883Y-91353579D01*
X141979280Y-91376929D01*
X141970634Y-91396512D01*
X141957258Y-91409887D01*
X141943291Y-91430791D01*
X141922387Y-91444758D01*
X141909012Y-91458134D01*
X141889429Y-91466780D01*
X141866079Y-91482383D01*
X141844266Y-91486721D01*
X141827661Y-91494054D01*
X141779059Y-91499692D01*
X141775000Y-91500500D01*
X141375000Y-91500500D01*
X141370942Y-91499692D01*
X141322338Y-91494054D01*
X141305731Y-91486721D01*
X141283921Y-91482383D01*
X141260572Y-91466781D01*
X141240987Y-91458134D01*
X141227609Y-91444756D01*
X141206709Y-91430791D01*
X141192743Y-91409890D01*
X141179365Y-91396512D01*
X141170716Y-91376925D01*
X141155117Y-91353579D01*
X141150779Y-91331771D01*
X141143445Y-91315161D01*
X141137805Y-91266547D01*
X141137000Y-91262500D01*
X141137000Y-90712500D01*
X141137804Y-90708454D01*
X141143445Y-90659838D01*
X141150779Y-90643227D01*
X141155117Y-90621421D01*
X141170715Y-90598076D01*
X141179365Y-90578487D01*
X141192745Y-90565106D01*
X141206709Y-90544209D01*
X141227606Y-90530245D01*
X141240987Y-90516865D01*
X141260576Y-90508215D01*
X141283921Y-90492617D01*
X141305727Y-90488279D01*
X141322338Y-90480945D01*
X141370954Y-90475304D01*
X141375000Y-90474500D01*
X141775000Y-90474500D01*
X141779047Y-90475305D01*
G37*
G36*
X143429047Y-90475305D02*
G01*
X143477661Y-90480945D01*
X143494271Y-90488279D01*
X143516079Y-90492617D01*
X143539425Y-90508216D01*
X143559012Y-90516865D01*
X143572390Y-90530243D01*
X143593291Y-90544209D01*
X143607256Y-90565109D01*
X143620634Y-90578487D01*
X143629281Y-90598072D01*
X143644883Y-90621421D01*
X143649221Y-90643231D01*
X143656554Y-90659838D01*
X143662192Y-90708442D01*
X143663000Y-90712500D01*
X143663000Y-91262500D01*
X143662192Y-91266559D01*
X143656554Y-91315161D01*
X143649221Y-91331766D01*
X143644883Y-91353579D01*
X143629280Y-91376929D01*
X143620634Y-91396512D01*
X143607258Y-91409887D01*
X143593291Y-91430791D01*
X143572387Y-91444758D01*
X143559012Y-91458134D01*
X143539429Y-91466780D01*
X143516079Y-91482383D01*
X143494266Y-91486721D01*
X143477661Y-91494054D01*
X143429059Y-91499692D01*
X143425000Y-91500500D01*
X143025000Y-91500500D01*
X143020942Y-91499692D01*
X142972338Y-91494054D01*
X142955731Y-91486721D01*
X142933921Y-91482383D01*
X142910572Y-91466781D01*
X142890987Y-91458134D01*
X142877609Y-91444756D01*
X142856709Y-91430791D01*
X142842743Y-91409890D01*
X142829365Y-91396512D01*
X142820716Y-91376925D01*
X142805117Y-91353579D01*
X142800779Y-91331771D01*
X142793445Y-91315161D01*
X142787805Y-91266547D01*
X142787000Y-91262500D01*
X142787000Y-90712500D01*
X142787804Y-90708454D01*
X142793445Y-90659838D01*
X142800779Y-90643227D01*
X142805117Y-90621421D01*
X142820715Y-90598076D01*
X142829365Y-90578487D01*
X142842745Y-90565106D01*
X142856709Y-90544209D01*
X142877606Y-90530245D01*
X142890987Y-90516865D01*
X142910576Y-90508215D01*
X142933921Y-90492617D01*
X142955727Y-90488279D01*
X142972338Y-90480945D01*
X143020954Y-90475304D01*
X143025000Y-90474500D01*
X143425000Y-90474500D01*
X143429047Y-90475305D01*
G37*
G36*
X145747456Y-86217030D02*
G01*
X145756749Y-86217030D01*
X145783520Y-86224203D01*
X145850615Y-86237549D01*
X145882287Y-86250668D01*
X145905018Y-86256759D01*
X145925399Y-86268526D01*
X145957066Y-86281643D01*
X146013936Y-86319642D01*
X146037952Y-86333508D01*
X146044526Y-86340082D01*
X146052868Y-86345656D01*
X146134343Y-86427131D01*
X146139916Y-86435472D01*
X146146492Y-86442048D01*
X146160359Y-86466067D01*
X146198356Y-86522933D01*
X146211471Y-86554597D01*
X146223241Y-86574982D01*
X146229332Y-86597716D01*
X146242450Y-86629384D01*
X146255793Y-86696468D01*
X146262970Y-86723251D01*
X146263878Y-86737116D01*
X146265168Y-86743598D01*
X146267758Y-86796311D01*
X146268000Y-86800000D01*
X146268000Y-87400000D01*
X146267758Y-87403691D01*
X146265168Y-87456401D01*
X146263878Y-87462882D01*
X146262970Y-87476749D01*
X146255792Y-87503533D01*
X146242450Y-87570615D01*
X146229333Y-87602280D01*
X146223241Y-87625018D01*
X146211470Y-87645405D01*
X146198356Y-87677066D01*
X146160363Y-87733925D01*
X146146492Y-87757952D01*
X146139914Y-87764529D01*
X146134343Y-87772868D01*
X146052868Y-87854343D01*
X146044529Y-87859914D01*
X146037952Y-87866492D01*
X146013925Y-87880363D01*
X145957066Y-87918356D01*
X145925405Y-87931470D01*
X145905018Y-87943241D01*
X145882280Y-87949333D01*
X145850615Y-87962450D01*
X145783526Y-87975794D01*
X145756749Y-87982970D01*
X145747455Y-87982970D01*
X145737612Y-87984928D01*
X145622388Y-87984928D01*
X145612545Y-87982970D01*
X145603251Y-87982970D01*
X145576474Y-87975795D01*
X145509384Y-87962450D01*
X145477716Y-87949332D01*
X145454982Y-87943241D01*
X145434597Y-87931471D01*
X145402933Y-87918356D01*
X145346067Y-87880359D01*
X145322048Y-87866492D01*
X145315472Y-87859916D01*
X145307131Y-87854343D01*
X145225656Y-87772868D01*
X145220082Y-87764526D01*
X145213508Y-87757952D01*
X145199642Y-87733936D01*
X145161643Y-87677066D01*
X145148526Y-87645399D01*
X145136759Y-87625018D01*
X145130668Y-87602287D01*
X145117549Y-87570615D01*
X145104203Y-87503519D01*
X145097030Y-87476749D01*
X145096121Y-87462889D01*
X145094831Y-87456401D01*
X145092241Y-87403686D01*
X145092000Y-87400000D01*
X145092000Y-86800000D01*
X145092241Y-86796316D01*
X145094831Y-86743598D01*
X145096121Y-86737108D01*
X145097030Y-86723251D01*
X145104202Y-86696483D01*
X145117549Y-86629384D01*
X145130669Y-86597709D01*
X145136759Y-86574982D01*
X145148524Y-86554603D01*
X145161643Y-86522933D01*
X145199646Y-86466056D01*
X145213508Y-86442048D01*
X145220080Y-86435475D01*
X145225656Y-86427131D01*
X145307131Y-86345656D01*
X145315475Y-86340080D01*
X145322048Y-86333508D01*
X145346056Y-86319646D01*
X145402933Y-86281643D01*
X145434603Y-86268524D01*
X145454982Y-86256759D01*
X145477709Y-86250669D01*
X145509384Y-86237549D01*
X145576480Y-86224203D01*
X145603251Y-86217030D01*
X145612544Y-86217030D01*
X145622388Y-86215072D01*
X145737612Y-86215072D01*
X145747456Y-86217030D01*
G37*
G36*
X154387456Y-86217030D02*
G01*
X154396749Y-86217030D01*
X154423520Y-86224203D01*
X154490615Y-86237549D01*
X154522287Y-86250668D01*
X154545018Y-86256759D01*
X154565399Y-86268526D01*
X154597066Y-86281643D01*
X154653936Y-86319642D01*
X154677952Y-86333508D01*
X154684526Y-86340082D01*
X154692868Y-86345656D01*
X154774343Y-86427131D01*
X154779916Y-86435472D01*
X154786492Y-86442048D01*
X154800359Y-86466067D01*
X154838356Y-86522933D01*
X154851471Y-86554597D01*
X154863241Y-86574982D01*
X154869332Y-86597716D01*
X154882450Y-86629384D01*
X154895793Y-86696468D01*
X154902970Y-86723251D01*
X154903878Y-86737116D01*
X154905168Y-86743598D01*
X154907758Y-86796311D01*
X154908000Y-86800000D01*
X154908000Y-87400000D01*
X154907758Y-87403691D01*
X154905168Y-87456401D01*
X154903878Y-87462882D01*
X154902970Y-87476749D01*
X154895792Y-87503533D01*
X154882450Y-87570615D01*
X154869333Y-87602280D01*
X154863241Y-87625018D01*
X154851470Y-87645405D01*
X154838356Y-87677066D01*
X154800363Y-87733925D01*
X154786492Y-87757952D01*
X154779914Y-87764529D01*
X154774343Y-87772868D01*
X154692868Y-87854343D01*
X154684529Y-87859914D01*
X154677952Y-87866492D01*
X154653925Y-87880363D01*
X154597066Y-87918356D01*
X154565405Y-87931470D01*
X154545018Y-87943241D01*
X154522280Y-87949333D01*
X154490615Y-87962450D01*
X154423526Y-87975794D01*
X154396749Y-87982970D01*
X154387455Y-87982970D01*
X154377612Y-87984928D01*
X154262388Y-87984928D01*
X154252545Y-87982970D01*
X154243251Y-87982970D01*
X154216474Y-87975795D01*
X154149384Y-87962450D01*
X154117716Y-87949332D01*
X154094982Y-87943241D01*
X154074597Y-87931471D01*
X154042933Y-87918356D01*
X153986067Y-87880359D01*
X153962048Y-87866492D01*
X153955472Y-87859916D01*
X153947131Y-87854343D01*
X153865656Y-87772868D01*
X153860082Y-87764526D01*
X153853508Y-87757952D01*
X153839642Y-87733936D01*
X153801643Y-87677066D01*
X153788526Y-87645399D01*
X153776759Y-87625018D01*
X153770668Y-87602287D01*
X153757549Y-87570615D01*
X153744203Y-87503519D01*
X153737030Y-87476749D01*
X153736121Y-87462889D01*
X153734831Y-87456401D01*
X153732241Y-87403686D01*
X153732000Y-87400000D01*
X153732000Y-86800000D01*
X153732241Y-86796316D01*
X153734831Y-86743598D01*
X153736121Y-86737108D01*
X153737030Y-86723251D01*
X153744202Y-86696483D01*
X153757549Y-86629384D01*
X153770669Y-86597709D01*
X153776759Y-86574982D01*
X153788524Y-86554603D01*
X153801643Y-86522933D01*
X153839646Y-86466056D01*
X153853508Y-86442048D01*
X153860080Y-86435475D01*
X153865656Y-86427131D01*
X153947131Y-86345656D01*
X153955475Y-86340080D01*
X153962048Y-86333508D01*
X153986056Y-86319646D01*
X154042933Y-86281643D01*
X154074603Y-86268524D01*
X154094982Y-86256759D01*
X154117709Y-86250669D01*
X154149384Y-86237549D01*
X154216480Y-86224203D01*
X154243251Y-86217030D01*
X154252544Y-86217030D01*
X154262388Y-86215072D01*
X154377612Y-86215072D01*
X154387456Y-86217030D01*
G37*
M02*
