%TF.GenerationSoftware,KiCad,Pcbnew,9.0.3*%
%TF.CreationDate,2025-07-22T22:17:19-05:00*%
%TF.ProjectId,openoshi-lightboard,6f70656e-6f73-4686-992d-6c6967687462,rev?*%
%TF.SameCoordinates,Original*%
%TF.FileFunction,Copper,L2,Bot*%
%TF.FilePolarity,Positive*%
%FSLAX46Y46*%
G04 Gerber Fmt 4.6, Leading zero omitted, Abs format (unit mm)*
G04 Created by KiCad (PCBNEW 9.0.3) date 2025-07-22 22:17:19*
%MOMM*%
%LPD*%
G01*
G04 APERTURE LIST*
G04 Aperture macros list*
%AMRotRect*
0 Rectangle, with rotation*
0 The origin of the aperture is its center*
0 $1 length*
0 $2 width*
0 $3 Rotation angle, in degrees counterclockwise*
0 Add horizontal line*
21,1,$1,$2,0,0,$3*%
G04 Aperture macros list end*
%TA.AperFunction,ComponentPad*%
%ADD10RotRect,0.914400X0.914400X135.000000*%
%TD*%
%TA.AperFunction,HeatsinkPad*%
%ADD11O,1.100000X1.700000*%
%TD*%
%TA.AperFunction,ComponentPad*%
%ADD12RotRect,0.914400X0.914400X225.000000*%
%TD*%
%TA.AperFunction,SMDPad,CuDef*%
%ADD13R,8.000000X4.000000*%
%TD*%
%TA.AperFunction,ViaPad*%
%ADD14C,0.600000*%
%TD*%
%TA.AperFunction,ViaPad*%
%ADD15C,0.450000*%
%TD*%
%TA.AperFunction,Conductor*%
%ADD16C,0.500000*%
%TD*%
%TA.AperFunction,Conductor*%
%ADD17C,0.150000*%
%TD*%
G04 APERTURE END LIST*
D10*
%TO.P,SW2,3*%
%TO.N,N/C*%
X141666312Y-110996944D03*
%TO.P,SW2,4*%
X139053057Y-108383689D03*
%TD*%
D11*
%TO.P,J1,S1,SHIELD*%
%TO.N,GND*%
X154320000Y-90900000D03*
X154320000Y-87100000D03*
X145680000Y-90900000D03*
X145680000Y-87100000D03*
%TD*%
D12*
%TO.P,SW1,3*%
%TO.N,N/C*%
X160996944Y-108333689D03*
%TO.P,SW1,4*%
X158383689Y-110946944D03*
%TD*%
D13*
%TO.P,TP4,1,1*%
%TO.N,GND*%
X146600000Y-105300000D03*
%TD*%
%TO.P,TP3,1,1*%
%TO.N,+BATT*%
X146600000Y-94700000D03*
%TD*%
D14*
%TO.N,GND*%
X139650000Y-93487500D03*
X149150000Y-108750000D03*
X150200000Y-112950000D03*
X139500000Y-106900000D03*
X157100000Y-91350000D03*
X153950000Y-108750000D03*
X146700000Y-108750000D03*
X139650000Y-97250000D03*
X154300000Y-100900000D03*
X151700000Y-94600000D03*
X159050000Y-91300000D03*
X163150000Y-100050000D03*
X158600000Y-103400000D03*
X157050000Y-110400000D03*
X143250000Y-102450000D03*
X148750000Y-87650000D03*
X141600000Y-89837500D03*
X145200000Y-102500000D03*
X136400000Y-100050000D03*
X151450000Y-87650000D03*
X151900000Y-96750000D03*
X151550000Y-108750000D03*
X156675001Y-96788172D03*
%TO.N,+BATT*%
X139500000Y-99250000D03*
X139500000Y-98550000D03*
X138750000Y-98550000D03*
X139700000Y-94437500D03*
X138750000Y-99250000D03*
X153325000Y-98325000D03*
D15*
%TO.N,Net-(U1-PD1)*%
X158700000Y-100600000D03*
X159850000Y-97550000D03*
%TD*%
D16*
%TO.N,+BATT*%
X139500000Y-98550000D02*
X140650000Y-98550000D01*
X146600000Y-94700000D02*
X146337500Y-94437500D01*
X146337500Y-94437500D02*
X139700000Y-94437500D01*
X146600000Y-94700000D02*
X148500000Y-94700000D01*
X152125000Y-98325000D02*
X153325000Y-98325000D01*
X148500000Y-94700000D02*
X152125000Y-98325000D01*
X140650000Y-98550000D02*
X144500000Y-94700000D01*
X144500000Y-94700000D02*
X146600000Y-94700000D01*
D17*
%TO.N,Net-(U1-PD1)*%
X159850000Y-99450000D02*
X159850000Y-97550000D01*
X158700000Y-100600000D02*
X159850000Y-99450000D01*
%TD*%
%TA.AperFunction,Conductor*%
%TO.N,GND*%
G36*
X150366230Y-85205105D02*
G01*
X151085717Y-85240452D01*
X151091719Y-85240895D01*
X151808600Y-85311501D01*
X151814612Y-85312243D01*
X152527156Y-85417939D01*
X152533141Y-85418979D01*
X153239608Y-85559503D01*
X153245512Y-85560828D01*
X153729924Y-85682167D01*
X153790169Y-85717550D01*
X153821722Y-85779889D01*
X153814564Y-85849391D01*
X153770966Y-85903990D01*
X153768683Y-85905552D01*
X153650664Y-85984410D01*
X153650660Y-85984413D01*
X153504413Y-86130660D01*
X153504410Y-86130664D01*
X153389505Y-86302631D01*
X153389500Y-86302641D01*
X153310350Y-86493725D01*
X153310348Y-86493733D01*
X153270000Y-86696579D01*
X153270000Y-86850000D01*
X154020000Y-86850000D01*
X154020000Y-87350000D01*
X153270000Y-87350000D01*
X153270000Y-87503420D01*
X153310348Y-87706266D01*
X153310350Y-87706274D01*
X153389500Y-87897358D01*
X153389505Y-87897368D01*
X153504410Y-88069335D01*
X153504413Y-88069339D01*
X153650660Y-88215586D01*
X153650664Y-88215589D01*
X153822631Y-88330494D01*
X153822641Y-88330499D01*
X154013723Y-88409648D01*
X154013725Y-88409649D01*
X154070000Y-88420842D01*
X154070000Y-87566988D01*
X154079940Y-87584205D01*
X154135795Y-87640060D01*
X154204204Y-87679556D01*
X154280504Y-87700000D01*
X154359496Y-87700000D01*
X154435796Y-87679556D01*
X154504205Y-87640060D01*
X154560060Y-87584205D01*
X154570000Y-87566988D01*
X154570000Y-88420842D01*
X154626274Y-88409649D01*
X154626276Y-88409648D01*
X154817358Y-88330499D01*
X154817368Y-88330494D01*
X154989335Y-88215589D01*
X154989339Y-88215586D01*
X155135586Y-88069339D01*
X155135589Y-88069335D01*
X155250494Y-87897368D01*
X155250499Y-87897358D01*
X155329649Y-87706274D01*
X155329651Y-87706266D01*
X155369999Y-87503420D01*
X155370000Y-87503417D01*
X155370000Y-87350000D01*
X154620000Y-87350000D01*
X154620000Y-86850000D01*
X155370000Y-86850000D01*
X155370000Y-86696583D01*
X155369999Y-86696579D01*
X155329651Y-86493733D01*
X155329650Y-86493729D01*
X155294134Y-86407986D01*
X155286665Y-86338516D01*
X155317940Y-86276037D01*
X155378028Y-86240384D01*
X155447853Y-86242877D01*
X155456134Y-86245965D01*
X155994561Y-86468990D01*
X156000104Y-86471446D01*
X156611265Y-86760504D01*
X156651283Y-86779431D01*
X156656719Y-86782168D01*
X157291959Y-87121711D01*
X157297249Y-87124707D01*
X157915108Y-87495038D01*
X157920202Y-87498264D01*
X158519135Y-87898458D01*
X158524111Y-87901962D01*
X159102682Y-88331059D01*
X159107480Y-88334804D01*
X159664279Y-88791758D01*
X159668887Y-88795733D01*
X160202602Y-89279463D01*
X160207010Y-89283660D01*
X160716339Y-89792989D01*
X160720536Y-89797397D01*
X161204266Y-90331112D01*
X161208241Y-90335720D01*
X161665195Y-90892519D01*
X161668940Y-90897317D01*
X162098037Y-91475888D01*
X162101541Y-91480864D01*
X162204127Y-91634395D01*
X162458833Y-92015589D01*
X162501720Y-92079773D01*
X162504968Y-92084902D01*
X162659339Y-92342454D01*
X162875288Y-92702744D01*
X162878288Y-92708040D01*
X163217831Y-93343280D01*
X163220568Y-93348716D01*
X163528548Y-93999885D01*
X163531014Y-94005449D01*
X163806666Y-94670931D01*
X163808856Y-94676610D01*
X164051510Y-95354784D01*
X164053420Y-95360563D01*
X164262520Y-96049873D01*
X164264143Y-96055738D01*
X164439167Y-96754470D01*
X164440500Y-96760409D01*
X164581019Y-97466852D01*
X164582060Y-97472848D01*
X164687754Y-98185373D01*
X164688499Y-98191414D01*
X164759101Y-98908246D01*
X164759549Y-98914316D01*
X164794894Y-99633769D01*
X164795043Y-99639853D01*
X164795043Y-100360146D01*
X164794894Y-100366230D01*
X164759549Y-101085683D01*
X164759101Y-101091753D01*
X164688499Y-101808585D01*
X164687754Y-101814626D01*
X164582060Y-102527151D01*
X164581019Y-102533147D01*
X164440500Y-103239590D01*
X164439167Y-103245529D01*
X164264143Y-103944261D01*
X164262520Y-103950126D01*
X164053420Y-104639436D01*
X164051510Y-104645215D01*
X163808856Y-105323389D01*
X163806666Y-105329068D01*
X163531014Y-105994550D01*
X163528548Y-106000114D01*
X163220568Y-106651283D01*
X163217831Y-106656719D01*
X162878288Y-107291959D01*
X162875288Y-107297255D01*
X162504976Y-107915083D01*
X162501720Y-107920225D01*
X162330147Y-108177001D01*
X162276535Y-108221806D01*
X162207210Y-108230513D01*
X162144182Y-108200358D01*
X162114251Y-108159622D01*
X162068899Y-108060316D01*
X162068896Y-108060311D01*
X162031283Y-108013635D01*
X162031276Y-108013627D01*
X161317007Y-107299361D01*
X161317000Y-107299354D01*
X161270317Y-107261734D01*
X161248882Y-107251945D01*
X161139399Y-107201945D01*
X161139401Y-107201945D01*
X160996944Y-107181464D01*
X160854487Y-107201945D01*
X160723571Y-107261733D01*
X160723566Y-107261736D01*
X160676890Y-107299349D01*
X160676882Y-107299356D01*
X159962616Y-108013625D01*
X159962610Y-108013631D01*
X159962609Y-108013633D01*
X159943799Y-108036974D01*
X159924988Y-108060317D01*
X159924987Y-108060319D01*
X159865200Y-108191232D01*
X159844719Y-108333689D01*
X159865200Y-108476145D01*
X159924988Y-108607061D01*
X159924991Y-108607066D01*
X159962604Y-108653742D01*
X159962611Y-108653750D01*
X160413983Y-109105120D01*
X160676888Y-109368024D01*
X160723571Y-109405644D01*
X160854487Y-109465432D01*
X160854486Y-109465432D01*
X160874968Y-109468376D01*
X160996944Y-109485914D01*
X161085389Y-109473197D01*
X161154545Y-109483140D01*
X161207349Y-109528895D01*
X161227034Y-109595934D01*
X161207350Y-109662974D01*
X161194912Y-109679208D01*
X160720536Y-110202602D01*
X160716339Y-110207010D01*
X160207010Y-110716339D01*
X160202602Y-110720536D01*
X159728434Y-111150296D01*
X159665542Y-111180732D01*
X159596179Y-111172333D01*
X159542367Y-111127768D01*
X159521192Y-111061184D01*
X159522422Y-111040782D01*
X159535914Y-110946944D01*
X159515432Y-110804487D01*
X159455644Y-110673571D01*
X159455641Y-110673566D01*
X159418028Y-110626890D01*
X159418021Y-110626882D01*
X158703752Y-109912616D01*
X158703745Y-109912609D01*
X158657062Y-109874989D01*
X158635627Y-109865200D01*
X158526144Y-109815200D01*
X158526146Y-109815200D01*
X158383689Y-109794719D01*
X158241232Y-109815200D01*
X158110316Y-109874988D01*
X158110311Y-109874991D01*
X158063635Y-109912604D01*
X158063627Y-109912611D01*
X157349361Y-110626880D01*
X157349355Y-110626886D01*
X157349354Y-110626888D01*
X157330544Y-110650229D01*
X157311733Y-110673572D01*
X157311732Y-110673574D01*
X157251945Y-110804487D01*
X157231464Y-110946944D01*
X157251945Y-111089400D01*
X157311733Y-111220316D01*
X157311736Y-111220321D01*
X157349349Y-111266997D01*
X157349356Y-111267005D01*
X157749486Y-111667133D01*
X158063633Y-111981279D01*
X158110316Y-112018899D01*
X158110320Y-112018900D01*
X158110322Y-112018902D01*
X158224371Y-112070987D01*
X158277175Y-112116742D01*
X158296860Y-112183781D01*
X158277175Y-112250820D01*
X158241751Y-112286883D01*
X157920226Y-112501720D01*
X157915084Y-112504976D01*
X157297255Y-112875288D01*
X157291959Y-112878288D01*
X156656719Y-113217831D01*
X156651283Y-113220568D01*
X156000114Y-113528548D01*
X155994550Y-113531014D01*
X155329068Y-113806666D01*
X155323389Y-113808856D01*
X154645215Y-114051510D01*
X154639436Y-114053420D01*
X153950126Y-114262520D01*
X153944261Y-114264143D01*
X153245529Y-114439167D01*
X153239590Y-114440500D01*
X152533147Y-114581019D01*
X152527151Y-114582060D01*
X151814626Y-114687754D01*
X151808585Y-114688499D01*
X151091753Y-114759101D01*
X151085683Y-114759549D01*
X150366231Y-114794894D01*
X150360147Y-114795043D01*
X149639853Y-114795043D01*
X149633769Y-114794894D01*
X148914316Y-114759549D01*
X148908246Y-114759101D01*
X148191414Y-114688499D01*
X148185373Y-114687754D01*
X147472848Y-114582060D01*
X147466852Y-114581019D01*
X146760409Y-114440500D01*
X146754470Y-114439167D01*
X146055738Y-114264143D01*
X146049873Y-114262520D01*
X145360563Y-114053420D01*
X145354784Y-114051510D01*
X144676610Y-113808856D01*
X144670931Y-113806666D01*
X144005449Y-113531014D01*
X143999885Y-113528548D01*
X143348716Y-113220568D01*
X143343280Y-113217831D01*
X142708040Y-112878288D01*
X142702744Y-112875288D01*
X142489570Y-112747516D01*
X142084902Y-112504968D01*
X142079787Y-112501728D01*
X141822997Y-112330147D01*
X141778192Y-112276535D01*
X141769485Y-112207210D01*
X141799640Y-112144182D01*
X141840369Y-112114255D01*
X141939685Y-112068899D01*
X141986368Y-112031281D01*
X142700647Y-111317000D01*
X142738267Y-111270317D01*
X142798055Y-111139401D01*
X142818537Y-110996944D01*
X142798055Y-110854487D01*
X142738267Y-110723571D01*
X142738264Y-110723566D01*
X142700651Y-110676890D01*
X142700644Y-110676882D01*
X141986375Y-109962616D01*
X141986368Y-109962609D01*
X141939685Y-109924989D01*
X141912592Y-109912616D01*
X141808767Y-109865200D01*
X141808769Y-109865200D01*
X141666312Y-109844719D01*
X141523855Y-109865200D01*
X141392939Y-109924988D01*
X141392934Y-109924991D01*
X141346258Y-109962604D01*
X141346250Y-109962611D01*
X140631984Y-110676880D01*
X140631978Y-110676886D01*
X140631977Y-110676888D01*
X140613167Y-110700229D01*
X140594356Y-110723572D01*
X140594355Y-110723574D01*
X140534568Y-110854487D01*
X140514087Y-110996944D01*
X140526803Y-111085388D01*
X140516859Y-111154547D01*
X140471104Y-111207351D01*
X140404064Y-111227035D01*
X140337025Y-111207350D01*
X140320792Y-111194913D01*
X139797397Y-110720536D01*
X139792989Y-110716339D01*
X139283660Y-110207010D01*
X139279463Y-110202602D01*
X138849703Y-109728434D01*
X138819267Y-109665542D01*
X138827666Y-109596179D01*
X138872231Y-109542367D01*
X138938815Y-109521192D01*
X138959221Y-109522422D01*
X139053057Y-109535914D01*
X139195514Y-109515432D01*
X139326430Y-109455644D01*
X139373113Y-109418026D01*
X140087392Y-108703745D01*
X140125012Y-108657062D01*
X140184800Y-108526146D01*
X140205282Y-108383689D01*
X140184800Y-108241232D01*
X140125012Y-108110316D01*
X140125009Y-108110311D01*
X140087396Y-108063635D01*
X140087389Y-108063627D01*
X139373120Y-107349361D01*
X139373113Y-107349354D01*
X139371239Y-107347844D01*
X142100000Y-107347844D01*
X142106401Y-107407372D01*
X142106403Y-107407379D01*
X142156645Y-107542086D01*
X142156649Y-107542093D01*
X142242809Y-107657187D01*
X142242812Y-107657190D01*
X142357906Y-107743350D01*
X142357913Y-107743354D01*
X142492620Y-107793596D01*
X142492627Y-107793598D01*
X142552155Y-107799999D01*
X142552172Y-107800000D01*
X146350000Y-107800000D01*
X146850000Y-107800000D01*
X150647828Y-107800000D01*
X150647844Y-107799999D01*
X150707372Y-107793598D01*
X150707379Y-107793596D01*
X150842086Y-107743354D01*
X150842093Y-107743350D01*
X150957187Y-107657190D01*
X150957190Y-107657187D01*
X151043350Y-107542093D01*
X151043354Y-107542086D01*
X151093596Y-107407379D01*
X151093598Y-107407372D01*
X151099999Y-107347844D01*
X151100000Y-107347827D01*
X151100000Y-105550000D01*
X146850000Y-105550000D01*
X146850000Y-107800000D01*
X146350000Y-107800000D01*
X146350000Y-105550000D01*
X142100000Y-105550000D01*
X142100000Y-107347844D01*
X139371239Y-107347844D01*
X139326430Y-107311734D01*
X139299337Y-107299361D01*
X139195512Y-107251945D01*
X139195514Y-107251945D01*
X139053057Y-107231464D01*
X138910600Y-107251945D01*
X138779684Y-107311733D01*
X138779679Y-107311736D01*
X138733003Y-107349349D01*
X138732995Y-107349356D01*
X138018729Y-108063625D01*
X138018723Y-108063631D01*
X138018722Y-108063633D01*
X137999912Y-108086974D01*
X137981101Y-108110317D01*
X137981100Y-108110319D01*
X137929013Y-108224373D01*
X137883258Y-108277177D01*
X137816219Y-108296861D01*
X137749179Y-108277176D01*
X137713117Y-108241752D01*
X137625296Y-108110319D01*
X137498264Y-107920202D01*
X137495038Y-107915108D01*
X137124707Y-107297249D01*
X137121711Y-107291959D01*
X137105556Y-107261736D01*
X136782167Y-106656717D01*
X136779431Y-106651283D01*
X136471451Y-106000114D01*
X136468985Y-105994550D01*
X136283227Y-105546091D01*
X136193333Y-105329068D01*
X136191143Y-105323389D01*
X135948489Y-104645215D01*
X135946579Y-104639436D01*
X135737479Y-103950126D01*
X135735856Y-103944261D01*
X135562492Y-103252155D01*
X142100000Y-103252155D01*
X142100000Y-105050000D01*
X146350000Y-105050000D01*
X146850000Y-105050000D01*
X151100000Y-105050000D01*
X151100000Y-103252172D01*
X151099999Y-103252155D01*
X151093598Y-103192627D01*
X151093596Y-103192620D01*
X151043354Y-103057913D01*
X151043350Y-103057906D01*
X150957190Y-102942812D01*
X150957187Y-102942809D01*
X150842093Y-102856649D01*
X150842086Y-102856645D01*
X150707379Y-102806403D01*
X150707372Y-102806401D01*
X150647844Y-102800000D01*
X146850000Y-102800000D01*
X146850000Y-105050000D01*
X146350000Y-105050000D01*
X146350000Y-102800000D01*
X142552155Y-102800000D01*
X142492627Y-102806401D01*
X142492620Y-102806403D01*
X142357913Y-102856645D01*
X142357906Y-102856649D01*
X142242812Y-102942809D01*
X142242809Y-102942812D01*
X142156649Y-103057906D01*
X142156645Y-103057913D01*
X142106403Y-103192620D01*
X142106401Y-103192627D01*
X142100000Y-103252155D01*
X135562492Y-103252155D01*
X135560830Y-103245520D01*
X135559499Y-103239590D01*
X135550156Y-103192620D01*
X135418979Y-102533141D01*
X135417939Y-102527151D01*
X135312245Y-101814626D01*
X135311500Y-101808585D01*
X135240895Y-101091719D01*
X135240452Y-101085717D01*
X135220101Y-100671457D01*
X157974499Y-100671457D01*
X158002379Y-100811614D01*
X158002381Y-100811620D01*
X158057069Y-100943650D01*
X158057074Y-100943659D01*
X158136467Y-101062478D01*
X158136470Y-101062482D01*
X158237517Y-101163529D01*
X158237521Y-101163532D01*
X158356340Y-101242925D01*
X158356346Y-101242928D01*
X158356347Y-101242929D01*
X158488380Y-101297619D01*
X158488384Y-101297619D01*
X158488385Y-101297620D01*
X158628542Y-101325500D01*
X158628545Y-101325500D01*
X158771457Y-101325500D01*
X158865751Y-101306742D01*
X158911620Y-101297619D01*
X159043653Y-101242929D01*
X159162479Y-101163532D01*
X159263532Y-101062479D01*
X159342929Y-100943653D01*
X159397619Y-100811620D01*
X159413959Y-100729471D01*
X159446341Y-100667564D01*
X159447834Y-100666044D01*
X160310515Y-99803365D01*
X160378588Y-99685459D01*
X160386281Y-99672135D01*
X160425500Y-99525766D01*
X160425500Y-98032181D01*
X160445185Y-97965142D01*
X160446360Y-97963347D01*
X160492929Y-97893653D01*
X160547619Y-97761620D01*
X160559237Y-97703213D01*
X160575500Y-97621457D01*
X160575500Y-97478542D01*
X160547620Y-97338385D01*
X160547619Y-97338384D01*
X160547619Y-97338380D01*
X160505318Y-97236258D01*
X160492930Y-97206349D01*
X160492925Y-97206340D01*
X160413532Y-97087521D01*
X160413529Y-97087517D01*
X160312482Y-96986470D01*
X160312478Y-96986467D01*
X160193659Y-96907074D01*
X160193650Y-96907069D01*
X160061620Y-96852381D01*
X160061614Y-96852379D01*
X159921457Y-96824500D01*
X159921455Y-96824500D01*
X159778545Y-96824500D01*
X159778543Y-96824500D01*
X159638385Y-96852379D01*
X159638379Y-96852381D01*
X159506349Y-96907069D01*
X159506340Y-96907074D01*
X159387521Y-96986467D01*
X159387517Y-96986470D01*
X159286470Y-97087517D01*
X159286467Y-97087521D01*
X159207074Y-97206340D01*
X159207069Y-97206349D01*
X159152381Y-97338379D01*
X159152379Y-97338385D01*
X159124500Y-97478542D01*
X159124500Y-97478545D01*
X159124500Y-97621455D01*
X159124500Y-97621457D01*
X159124499Y-97621457D01*
X159152379Y-97761614D01*
X159152381Y-97761620D01*
X159207069Y-97893650D01*
X159207070Y-97893652D01*
X159207071Y-97893653D01*
X159253602Y-97963292D01*
X159274480Y-98029967D01*
X159274500Y-98032181D01*
X159274500Y-99160257D01*
X159254815Y-99227296D01*
X159238181Y-99247938D01*
X158634014Y-99852104D01*
X158572691Y-99885589D01*
X158570525Y-99886040D01*
X158488385Y-99902379D01*
X158488381Y-99902380D01*
X158356349Y-99957069D01*
X158356340Y-99957074D01*
X158237521Y-100036467D01*
X158237517Y-100036470D01*
X158136470Y-100137517D01*
X158136467Y-100137521D01*
X158057074Y-100256340D01*
X158057069Y-100256349D01*
X158002381Y-100388379D01*
X158002379Y-100388385D01*
X157974500Y-100528542D01*
X157974500Y-100528545D01*
X157974500Y-100671455D01*
X157974500Y-100671457D01*
X157974499Y-100671457D01*
X135220101Y-100671457D01*
X135205106Y-100366230D01*
X135204957Y-100360146D01*
X135204957Y-99639853D01*
X135205106Y-99633769D01*
X135220928Y-99311706D01*
X135240452Y-98914279D01*
X135240895Y-98908283D01*
X135298442Y-98324000D01*
X137894500Y-98324000D01*
X137894500Y-99476000D01*
X137894501Y-99476009D01*
X137906052Y-99583450D01*
X137906054Y-99583462D01*
X137917260Y-99634972D01*
X137951383Y-99737497D01*
X137951386Y-99737503D01*
X138029171Y-99858537D01*
X138029179Y-99858548D01*
X138074923Y-99911340D01*
X138074926Y-99911343D01*
X138074930Y-99911347D01*
X138183664Y-100005567D01*
X138183667Y-100005568D01*
X138183668Y-100005569D01*
X138277925Y-100048616D01*
X138314541Y-100065338D01*
X138381580Y-100085023D01*
X138381584Y-100085024D01*
X138524000Y-100105500D01*
X138524003Y-100105500D01*
X139725990Y-100105500D01*
X139726000Y-100105500D01*
X139833456Y-100093947D01*
X139884967Y-100082741D01*
X139919197Y-100071347D01*
X139987497Y-100048616D01*
X139987501Y-100048613D01*
X139987504Y-100048613D01*
X140108543Y-99970825D01*
X140161347Y-99925070D01*
X140255567Y-99816336D01*
X140315338Y-99685459D01*
X140335023Y-99618420D01*
X140335024Y-99618416D01*
X140355500Y-99476000D01*
X140355500Y-99424500D01*
X140375185Y-99357461D01*
X140427989Y-99311706D01*
X140479500Y-99300500D01*
X140723920Y-99300500D01*
X140821462Y-99281096D01*
X140868913Y-99271658D01*
X141005495Y-99215084D01*
X141071235Y-99171158D01*
X141128416Y-99132952D01*
X143024548Y-97236817D01*
X143085871Y-97203333D01*
X143112229Y-97200499D01*
X149887769Y-97200499D01*
X149954808Y-97220184D01*
X149975450Y-97236818D01*
X151646580Y-98907948D01*
X151646584Y-98907951D01*
X151769498Y-98990080D01*
X151769511Y-98990087D01*
X151876469Y-99034390D01*
X151906087Y-99046658D01*
X151906091Y-99046658D01*
X151906092Y-99046659D01*
X152051079Y-99075500D01*
X152051082Y-99075500D01*
X152198917Y-99075500D01*
X153020396Y-99075500D01*
X153067844Y-99084937D01*
X153091503Y-99094737D01*
X153091508Y-99094738D01*
X153091511Y-99094739D01*
X153246153Y-99125499D01*
X153246156Y-99125500D01*
X153246158Y-99125500D01*
X153403844Y-99125500D01*
X153403845Y-99125499D01*
X153558497Y-99094737D01*
X153704179Y-99034394D01*
X153835289Y-98946789D01*
X153946789Y-98835289D01*
X154034394Y-98704179D01*
X154094737Y-98558497D01*
X154125500Y-98403842D01*
X154125500Y-98246158D01*
X154125500Y-98246155D01*
X154125499Y-98246153D01*
X154112655Y-98181582D01*
X154094737Y-98091503D01*
X154041630Y-97963290D01*
X154034397Y-97945827D01*
X154034390Y-97945814D01*
X153946789Y-97814711D01*
X153946786Y-97814707D01*
X153835292Y-97703213D01*
X153835288Y-97703210D01*
X153704185Y-97615609D01*
X153704172Y-97615602D01*
X153558501Y-97555264D01*
X153558489Y-97555261D01*
X153403845Y-97524500D01*
X153403842Y-97524500D01*
X153246158Y-97524500D01*
X153246155Y-97524500D01*
X153091511Y-97555260D01*
X153091506Y-97555262D01*
X153091504Y-97555262D01*
X153091503Y-97555263D01*
X153067844Y-97565062D01*
X153020396Y-97574500D01*
X152487229Y-97574500D01*
X152420190Y-97554815D01*
X152399548Y-97538181D01*
X151136818Y-96275451D01*
X151103333Y-96214128D01*
X151100499Y-96187770D01*
X151100499Y-92652129D01*
X151100498Y-92652123D01*
X151100497Y-92652116D01*
X151094091Y-92592517D01*
X151043796Y-92457669D01*
X151043795Y-92457668D01*
X151043793Y-92457664D01*
X150957547Y-92342455D01*
X150957544Y-92342452D01*
X150842335Y-92256206D01*
X150842328Y-92256202D01*
X150707482Y-92205908D01*
X150707483Y-92205908D01*
X150647883Y-92199501D01*
X150647881Y-92199500D01*
X150647873Y-92199500D01*
X150647865Y-92199500D01*
X146464788Y-92199500D01*
X146397749Y-92179815D01*
X146351994Y-92127011D01*
X146342050Y-92057853D01*
X146371075Y-91994297D01*
X146377107Y-91987819D01*
X146495586Y-91869339D01*
X146495589Y-91869335D01*
X146610494Y-91697368D01*
X146610499Y-91697358D01*
X146689649Y-91506274D01*
X146689651Y-91506266D01*
X146729999Y-91303420D01*
X146730000Y-91303417D01*
X146730000Y-91150000D01*
X145980000Y-91150000D01*
X145980000Y-90650000D01*
X146730000Y-90650000D01*
X146730000Y-90496583D01*
X146729999Y-90496579D01*
X153270000Y-90496579D01*
X153270000Y-90650000D01*
X154020000Y-90650000D01*
X154020000Y-91150000D01*
X153270000Y-91150000D01*
X153270000Y-91303420D01*
X153310348Y-91506266D01*
X153310350Y-91506274D01*
X153389500Y-91697358D01*
X153389505Y-91697368D01*
X153504410Y-91869335D01*
X153504413Y-91869339D01*
X153650660Y-92015586D01*
X153650664Y-92015589D01*
X153822631Y-92130494D01*
X153822641Y-92130499D01*
X154013723Y-92209648D01*
X154013725Y-92209649D01*
X154070000Y-92220842D01*
X154070000Y-91366988D01*
X154079940Y-91384205D01*
X154135795Y-91440060D01*
X154204204Y-91479556D01*
X154280504Y-91500000D01*
X154359496Y-91500000D01*
X154435796Y-91479556D01*
X154504205Y-91440060D01*
X154560060Y-91384205D01*
X154570000Y-91366988D01*
X154570000Y-92220842D01*
X154626274Y-92209649D01*
X154626276Y-92209648D01*
X154817358Y-92130499D01*
X154817368Y-92130494D01*
X154989335Y-92015589D01*
X154989339Y-92015586D01*
X155135586Y-91869339D01*
X155135589Y-91869335D01*
X155250494Y-91697368D01*
X155250499Y-91697358D01*
X155329649Y-91506274D01*
X155329651Y-91506266D01*
X155369999Y-91303420D01*
X155370000Y-91303417D01*
X155370000Y-91150000D01*
X154620000Y-91150000D01*
X154620000Y-90650000D01*
X155370000Y-90650000D01*
X155370000Y-90496583D01*
X155369999Y-90496579D01*
X155329651Y-90293733D01*
X155329649Y-90293725D01*
X155250499Y-90102641D01*
X155250494Y-90102631D01*
X155135589Y-89930664D01*
X155135586Y-89930660D01*
X154989339Y-89784413D01*
X154989335Y-89784410D01*
X154817368Y-89669505D01*
X154817358Y-89669500D01*
X154626272Y-89590349D01*
X154626267Y-89590347D01*
X154570000Y-89579155D01*
X154570000Y-90433011D01*
X154560060Y-90415795D01*
X154504205Y-90359940D01*
X154435796Y-90320444D01*
X154359496Y-90300000D01*
X154280504Y-90300000D01*
X154204204Y-90320444D01*
X154135795Y-90359940D01*
X154079940Y-90415795D01*
X154070000Y-90433011D01*
X154070000Y-89579156D01*
X154069999Y-89579155D01*
X154013732Y-89590347D01*
X154013727Y-89590349D01*
X153822641Y-89669500D01*
X153822631Y-89669505D01*
X153650664Y-89784410D01*
X153650660Y-89784413D01*
X153504413Y-89930660D01*
X153504410Y-89930664D01*
X153389505Y-90102631D01*
X153389500Y-90102641D01*
X153310350Y-90293725D01*
X153310348Y-90293733D01*
X153270000Y-90496579D01*
X146729999Y-90496579D01*
X146689651Y-90293733D01*
X146689649Y-90293725D01*
X146610499Y-90102641D01*
X146610494Y-90102631D01*
X146495589Y-89930664D01*
X146495586Y-89930660D01*
X146349339Y-89784413D01*
X146349335Y-89784410D01*
X146177368Y-89669505D01*
X146177358Y-89669500D01*
X145986272Y-89590349D01*
X145986267Y-89590347D01*
X145930000Y-89579155D01*
X145930000Y-90433011D01*
X145920060Y-90415795D01*
X145864205Y-90359940D01*
X145795796Y-90320444D01*
X145719496Y-90300000D01*
X145640504Y-90300000D01*
X145564204Y-90320444D01*
X145495795Y-90359940D01*
X145439940Y-90415795D01*
X145430000Y-90433011D01*
X145430000Y-89579156D01*
X145429999Y-89579155D01*
X145373732Y-89590347D01*
X145373727Y-89590349D01*
X145182641Y-89669500D01*
X145182631Y-89669505D01*
X145010664Y-89784410D01*
X145010660Y-89784413D01*
X144864413Y-89930660D01*
X144864410Y-89930664D01*
X144749505Y-90102631D01*
X144749500Y-90102641D01*
X144670350Y-90293725D01*
X144670348Y-90293733D01*
X144630000Y-90496579D01*
X144630000Y-90650000D01*
X145380000Y-90650000D01*
X145380000Y-91150000D01*
X144630000Y-91150000D01*
X144630000Y-91303420D01*
X144670348Y-91506266D01*
X144670350Y-91506274D01*
X144749500Y-91697358D01*
X144749505Y-91697368D01*
X144864410Y-91869335D01*
X144864413Y-91869339D01*
X144982893Y-91987819D01*
X145016378Y-92049142D01*
X145011394Y-92118834D01*
X144969522Y-92174767D01*
X144904058Y-92199184D01*
X144895212Y-92199500D01*
X142552129Y-92199500D01*
X142552123Y-92199501D01*
X142492516Y-92205908D01*
X142357671Y-92256202D01*
X142357664Y-92256206D01*
X142242455Y-92342452D01*
X142242452Y-92342455D01*
X142156206Y-92457664D01*
X142156202Y-92457671D01*
X142105908Y-92592517D01*
X142099501Y-92652116D01*
X142099501Y-92652123D01*
X142099500Y-92652135D01*
X142099500Y-93563000D01*
X142079815Y-93630039D01*
X142027011Y-93675794D01*
X141975500Y-93687000D01*
X140004604Y-93687000D01*
X139957155Y-93677562D01*
X139933497Y-93667763D01*
X139933493Y-93667762D01*
X139933488Y-93667760D01*
X139778845Y-93637000D01*
X139778842Y-93637000D01*
X139621158Y-93637000D01*
X139621155Y-93637000D01*
X139466510Y-93667761D01*
X139466498Y-93667764D01*
X139320827Y-93728102D01*
X139320814Y-93728109D01*
X139189711Y-93815710D01*
X139189707Y-93815713D01*
X139078213Y-93927207D01*
X139078210Y-93927211D01*
X138990609Y-94058314D01*
X138990602Y-94058327D01*
X138930264Y-94203998D01*
X138930261Y-94204010D01*
X138899500Y-94358653D01*
X138899500Y-94516346D01*
X138930261Y-94670989D01*
X138930264Y-94671001D01*
X138990602Y-94816672D01*
X138990609Y-94816685D01*
X139078210Y-94947788D01*
X139078213Y-94947792D01*
X139189707Y-95059286D01*
X139189711Y-95059289D01*
X139320814Y-95146890D01*
X139320827Y-95146897D01*
X139420060Y-95188000D01*
X139466503Y-95207237D01*
X139583172Y-95230444D01*
X139621153Y-95237999D01*
X139621156Y-95238000D01*
X139621158Y-95238000D01*
X139778844Y-95238000D01*
X139778845Y-95237999D01*
X139855152Y-95222820D01*
X139933488Y-95207239D01*
X139933489Y-95207238D01*
X139933497Y-95207237D01*
X139957155Y-95197437D01*
X140004604Y-95188000D01*
X141975501Y-95188000D01*
X142042540Y-95207685D01*
X142088295Y-95260489D01*
X142099501Y-95312000D01*
X142099500Y-95987768D01*
X142079815Y-96054808D01*
X142063181Y-96075449D01*
X140375451Y-97763181D01*
X140348523Y-97777884D01*
X140322705Y-97794477D01*
X140316504Y-97795368D01*
X140314128Y-97796666D01*
X140287770Y-97799500D01*
X140104406Y-97799500D01*
X140052894Y-97788294D01*
X139972072Y-97751383D01*
X139935462Y-97734663D01*
X139868417Y-97714976D01*
X139806347Y-97706052D01*
X139726000Y-97694500D01*
X138524000Y-97694500D01*
X138523991Y-97694500D01*
X138523990Y-97694501D01*
X138416549Y-97706052D01*
X138416537Y-97706054D01*
X138365027Y-97717260D01*
X138262502Y-97751383D01*
X138262496Y-97751386D01*
X138141462Y-97829171D01*
X138141451Y-97829179D01*
X138088659Y-97874923D01*
X137994433Y-97983664D01*
X137994430Y-97983668D01*
X137934664Y-98114534D01*
X137914976Y-98181582D01*
X137905692Y-98246155D01*
X137894500Y-98324000D01*
X135298442Y-98324000D01*
X135311502Y-98191394D01*
X135312245Y-98185373D01*
X135312808Y-98181584D01*
X135417940Y-97472836D01*
X135418980Y-97466852D01*
X135432176Y-97400511D01*
X135559504Y-96760382D01*
X135560826Y-96754496D01*
X135735859Y-96055726D01*
X135737479Y-96049873D01*
X135740738Y-96039131D01*
X135946585Y-95360544D01*
X135948482Y-95354804D01*
X136191151Y-94676588D01*
X136193324Y-94670952D01*
X136468996Y-94005423D01*
X136471439Y-93999910D01*
X136779440Y-93348697D01*
X136782158Y-93343298D01*
X137121724Y-92708015D01*
X137124697Y-92702767D01*
X137495049Y-92084872D01*
X137498251Y-92079815D01*
X137898474Y-91480840D01*
X137901945Y-91475911D01*
X138331071Y-90897301D01*
X138334791Y-90892534D01*
X138791769Y-90335706D01*
X138795720Y-90331126D01*
X139279481Y-89797377D01*
X139283640Y-89793009D01*
X139793009Y-89283640D01*
X139797377Y-89279481D01*
X140331126Y-88795720D01*
X140335706Y-88791769D01*
X140892534Y-88334791D01*
X140897301Y-88331071D01*
X141475911Y-87901945D01*
X141480840Y-87898474D01*
X142079815Y-87498251D01*
X142084872Y-87495049D01*
X142702767Y-87124697D01*
X142708015Y-87121724D01*
X143343298Y-86782158D01*
X143348697Y-86779440D01*
X143999910Y-86471439D01*
X144005423Y-86468996D01*
X144543854Y-86245970D01*
X144613320Y-86238502D01*
X144675800Y-86269777D01*
X144711452Y-86329866D01*
X144708958Y-86399691D01*
X144705865Y-86407984D01*
X144670351Y-86493721D01*
X144670348Y-86493733D01*
X144630000Y-86696579D01*
X144630000Y-86850000D01*
X145380000Y-86850000D01*
X145380000Y-87350000D01*
X144630000Y-87350000D01*
X144630000Y-87503420D01*
X144670348Y-87706266D01*
X144670350Y-87706274D01*
X144749500Y-87897358D01*
X144749505Y-87897368D01*
X144864410Y-88069335D01*
X144864413Y-88069339D01*
X145010660Y-88215586D01*
X145010664Y-88215589D01*
X145182631Y-88330494D01*
X145182641Y-88330499D01*
X145373723Y-88409648D01*
X145373725Y-88409649D01*
X145430000Y-88420842D01*
X145430000Y-87566988D01*
X145439940Y-87584205D01*
X145495795Y-87640060D01*
X145564204Y-87679556D01*
X145640504Y-87700000D01*
X145719496Y-87700000D01*
X145795796Y-87679556D01*
X145864205Y-87640060D01*
X145920060Y-87584205D01*
X145930000Y-87566988D01*
X145930000Y-88420842D01*
X145986274Y-88409649D01*
X145986276Y-88409648D01*
X146177358Y-88330499D01*
X146177368Y-88330494D01*
X146349335Y-88215589D01*
X146349339Y-88215586D01*
X146495586Y-88069339D01*
X146495589Y-88069335D01*
X146610494Y-87897368D01*
X146610499Y-87897358D01*
X146689649Y-87706274D01*
X146689651Y-87706266D01*
X146729999Y-87503420D01*
X146730000Y-87503417D01*
X146730000Y-87350000D01*
X145980000Y-87350000D01*
X145980000Y-86850000D01*
X146730000Y-86850000D01*
X146730000Y-86696583D01*
X146729999Y-86696579D01*
X146689651Y-86493733D01*
X146689649Y-86493725D01*
X146610499Y-86302641D01*
X146610494Y-86302631D01*
X146495589Y-86130664D01*
X146495586Y-86130660D01*
X146349339Y-85984413D01*
X146349335Y-85984410D01*
X146231316Y-85905552D01*
X146186511Y-85851940D01*
X146177804Y-85782615D01*
X146207958Y-85719587D01*
X146267402Y-85682868D01*
X146269987Y-85682189D01*
X146754496Y-85560826D01*
X146760382Y-85559504D01*
X147466865Y-85418977D01*
X147472836Y-85417940D01*
X148185392Y-85312242D01*
X148191394Y-85311502D01*
X148908283Y-85240895D01*
X148914279Y-85240452D01*
X149633769Y-85205105D01*
X149639853Y-85204957D01*
X150360147Y-85204957D01*
X150366230Y-85205105D01*
G37*
%TD.AperFunction*%
%TD*%
%TA.AperFunction,Conductor*%
%TO.N,+BATT*%
G36*
X139793039Y-98219685D02*
G01*
X139838794Y-98272489D01*
X139850000Y-98324000D01*
X139850000Y-99476000D01*
X139830315Y-99543039D01*
X139777511Y-99588794D01*
X139726000Y-99600000D01*
X138524000Y-99600000D01*
X138456961Y-99580315D01*
X138411206Y-99527511D01*
X138400000Y-99476000D01*
X138400000Y-98324000D01*
X138419685Y-98256961D01*
X138472489Y-98211206D01*
X138524000Y-98200000D01*
X139726000Y-98200000D01*
X139793039Y-98219685D01*
G37*
%TD.AperFunction*%
%TD*%
M02*
