M48
; DRILL file {KiCad 9.0.3} date 2025-07-22T22:17:23-0500
; FORMAT={-:-/ absolute / metric / decimal}
; #@! TF.CreationDate,2025-07-22T22:17:23-05:00
; #@! TF.GenerationSoftware,Kicad,Pcbnew,9.0.3
; #@! TF.FileFunction,Plated,1,2,PTH
FMAT,2
METRIC
; #@! TA.AperFunction,Plated,PTH,ViaDrill
T1C0.300
; #@! TA.AperFunction,Plated,PTH,ComponentDrill
T2C0.559
; #@! TA.AperFunction,Plated,PTH,ComponentDrill
T3C0.600
%
G90
G05
T1
X136.4Y-100.05
X138.75Y-98.55
X138.75Y-99.25
X139.5Y-98.55
X139.5Y-99.25
X139.5Y-106.9
X139.65Y-93.487
X139.65Y-97.25
X139.7Y-94.438
X141.6Y-89.837
X143.25Y-102.45
X145.2Y-102.5
X146.7Y-108.75
X148.75Y-87.65
X149.15Y-108.75
X150.2Y-112.95
X151.45Y-87.65
X151.55Y-108.75
X151.7Y-94.6
X151.9Y-96.75
X153.325Y-98.325
X153.95Y-108.75
X154.3Y-100.9
X156.675Y-96.788
X157.05Y-110.4
X157.1Y-91.35
X158.6Y-103.4
X158.7Y-100.6
X159.05Y-91.3
X159.85Y-97.55
X163.15Y-100.05
T2
X139.053Y-108.384
X141.666Y-110.997
X158.384Y-110.947
X160.997Y-108.334
T3
G00X145.68Y-87.4
M15
G01X145.68Y-86.8
M16
G05
G00X145.68Y-91.2
M15
G01X145.68Y-90.6
M16
G05
G00X154.32Y-87.4
M15
G01X154.32Y-86.8
M16
G05
G00X154.32Y-91.2
M15
G01X154.32Y-90.6
M16
G05
M30
