%TF.GenerationSoftware,KiCad,Pcbnew,9.0.3*%
%TF.CreationDate,2025-07-22T22:17:19-05:00*%
%TF.ProjectId,openoshi-lightboard,6f70656e-6f73-4686-992d-6c6967687462,rev?*%
%TF.SameCoordinates,Original*%
%TF.FileFunction,Soldermask,Bot*%
%TF.FilePolarity,Negative*%
%FSLAX46Y46*%
G04 Gerber Fmt 4.6, Leading zero omitted, Abs format (unit mm)*
G04 Created by KiCad (PCBNEW 9.0.3) date 2025-07-22 22:17:19*
%MOMM*%
%LPD*%
G01*
G04 APERTURE LIST*
G04 APERTURE END LIST*
G36*
X141680854Y-110315258D02*
G01*
X141693182Y-110323496D01*
X142339760Y-110970074D01*
X142347998Y-110982402D01*
X142350890Y-110996944D01*
X142347998Y-111011486D01*
X142339760Y-111023814D01*
X141693182Y-111670392D01*
X141680854Y-111678630D01*
X141666312Y-111681522D01*
X141651770Y-111678630D01*
X141639442Y-111670392D01*
X140992864Y-111023814D01*
X140984626Y-111011486D01*
X140981734Y-110996944D01*
X140984626Y-110982402D01*
X140992864Y-110970074D01*
X141046344Y-110916594D01*
X141635962Y-110326975D01*
X141635965Y-110326972D01*
X141639442Y-110323496D01*
X141651770Y-110315258D01*
X141666312Y-110312366D01*
X141680854Y-110315258D01*
G37*
G36*
X158398231Y-110265258D02*
G01*
X158410559Y-110273496D01*
X159057137Y-110920074D01*
X159065375Y-110932402D01*
X159068267Y-110946944D01*
X159065375Y-110961486D01*
X159057137Y-110973814D01*
X158410559Y-111620392D01*
X158398231Y-111628630D01*
X158383689Y-111631522D01*
X158369147Y-111628630D01*
X158356819Y-111620392D01*
X157710241Y-110973814D01*
X157702003Y-110961486D01*
X157699111Y-110946944D01*
X157702003Y-110932402D01*
X157710241Y-110920074D01*
X157713721Y-110916594D01*
X158353339Y-110276975D01*
X158353342Y-110276972D01*
X158356819Y-110273496D01*
X158369147Y-110265258D01*
X158383689Y-110262366D01*
X158398231Y-110265258D01*
G37*
G36*
X139067599Y-107702003D02*
G01*
X139079927Y-107710241D01*
X139726505Y-108356819D01*
X139734743Y-108369147D01*
X139737635Y-108383689D01*
X139734743Y-108398231D01*
X139726505Y-108410559D01*
X139079927Y-109057137D01*
X139067599Y-109065375D01*
X139053057Y-109068267D01*
X139038515Y-109065375D01*
X139026187Y-109057137D01*
X138379609Y-108410559D01*
X138371371Y-108398231D01*
X138368479Y-108383689D01*
X138371371Y-108369147D01*
X138379609Y-108356819D01*
X138433089Y-108303339D01*
X139022707Y-107713720D01*
X139022710Y-107713717D01*
X139026187Y-107710241D01*
X139038515Y-107702003D01*
X139053057Y-107699111D01*
X139067599Y-107702003D01*
G37*
G36*
X161011486Y-107652003D02*
G01*
X161023814Y-107660241D01*
X161670392Y-108306819D01*
X161678630Y-108319147D01*
X161681522Y-108333689D01*
X161678630Y-108348231D01*
X161670392Y-108360559D01*
X161023814Y-109007137D01*
X161011486Y-109015375D01*
X160996944Y-109018267D01*
X160982402Y-109015375D01*
X160970074Y-109007137D01*
X160323496Y-108360559D01*
X160315258Y-108348231D01*
X160312366Y-108333689D01*
X160315258Y-108319147D01*
X160323496Y-108306819D01*
X160326976Y-108303339D01*
X160966594Y-107663720D01*
X160966597Y-107663717D01*
X160970074Y-107660241D01*
X160982402Y-107652003D01*
X160996944Y-107649111D01*
X161011486Y-107652003D01*
G37*
G36*
X150614542Y-103264893D02*
G01*
X150626870Y-103273130D01*
X150635107Y-103285458D01*
X150638000Y-103300000D01*
X150638000Y-107300000D01*
X150635107Y-107314542D01*
X150626870Y-107326870D01*
X150614542Y-107335107D01*
X150600000Y-107338000D01*
X142600000Y-107338000D01*
X142585458Y-107335107D01*
X142573130Y-107326870D01*
X142564893Y-107314542D01*
X142562000Y-107300000D01*
X142562000Y-103300000D01*
X142564893Y-103285458D01*
X142573130Y-103273130D01*
X142585458Y-103264893D01*
X142600000Y-103262000D01*
X150600000Y-103262000D01*
X150614542Y-103264893D01*
G37*
G36*
X150614542Y-92664893D02*
G01*
X150626870Y-92673130D01*
X150635107Y-92685458D01*
X150638000Y-92700000D01*
X150638000Y-96700000D01*
X150635107Y-96714542D01*
X150626870Y-96726870D01*
X150614542Y-96735107D01*
X150600000Y-96738000D01*
X142600000Y-96738000D01*
X142585458Y-96735107D01*
X142573130Y-96726870D01*
X142564893Y-96714542D01*
X142562000Y-96700000D01*
X142562000Y-92700000D01*
X142564893Y-92685458D01*
X142573130Y-92673130D01*
X142585458Y-92664893D01*
X142600000Y-92662000D01*
X150600000Y-92662000D01*
X150614542Y-92664893D01*
G37*
G36*
X145747456Y-90017030D02*
G01*
X145756749Y-90017030D01*
X145783520Y-90024203D01*
X145850615Y-90037549D01*
X145882287Y-90050668D01*
X145905018Y-90056759D01*
X145925399Y-90068526D01*
X145957066Y-90081643D01*
X146013936Y-90119642D01*
X146037952Y-90133508D01*
X146044526Y-90140082D01*
X146052868Y-90145656D01*
X146134343Y-90227131D01*
X146139916Y-90235472D01*
X146146492Y-90242048D01*
X146160359Y-90266067D01*
X146198356Y-90322933D01*
X146211471Y-90354597D01*
X146223241Y-90374982D01*
X146229332Y-90397716D01*
X146242450Y-90429384D01*
X146255793Y-90496468D01*
X146262970Y-90523251D01*
X146263878Y-90537116D01*
X146265168Y-90543598D01*
X146267758Y-90596311D01*
X146268000Y-90600000D01*
X146268000Y-91200000D01*
X146267758Y-91203691D01*
X146265168Y-91256401D01*
X146263878Y-91262882D01*
X146262970Y-91276749D01*
X146255792Y-91303533D01*
X146242450Y-91370615D01*
X146229333Y-91402280D01*
X146223241Y-91425018D01*
X146211470Y-91445405D01*
X146198356Y-91477066D01*
X146160363Y-91533925D01*
X146146492Y-91557952D01*
X146139914Y-91564529D01*
X146134343Y-91572868D01*
X146052868Y-91654343D01*
X146044529Y-91659914D01*
X146037952Y-91666492D01*
X146013925Y-91680363D01*
X145957066Y-91718356D01*
X145925405Y-91731470D01*
X145905018Y-91743241D01*
X145882280Y-91749333D01*
X145850615Y-91762450D01*
X145783526Y-91775794D01*
X145756749Y-91782970D01*
X145747455Y-91782970D01*
X145737612Y-91784928D01*
X145622388Y-91784928D01*
X145612545Y-91782970D01*
X145603251Y-91782970D01*
X145576474Y-91775795D01*
X145509384Y-91762450D01*
X145477716Y-91749332D01*
X145454982Y-91743241D01*
X145434597Y-91731471D01*
X145402933Y-91718356D01*
X145346067Y-91680359D01*
X145322048Y-91666492D01*
X145315472Y-91659916D01*
X145307131Y-91654343D01*
X145225656Y-91572868D01*
X145220082Y-91564526D01*
X145213508Y-91557952D01*
X145199642Y-91533936D01*
X145161643Y-91477066D01*
X145148526Y-91445399D01*
X145136759Y-91425018D01*
X145130668Y-91402287D01*
X145117549Y-91370615D01*
X145104203Y-91303519D01*
X145097030Y-91276749D01*
X145096121Y-91262889D01*
X145094831Y-91256401D01*
X145092241Y-91203686D01*
X145092000Y-91200000D01*
X145092000Y-90600000D01*
X145092241Y-90596316D01*
X145094831Y-90543598D01*
X145096121Y-90537108D01*
X145097030Y-90523251D01*
X145104202Y-90496483D01*
X145117549Y-90429384D01*
X145130669Y-90397709D01*
X145136759Y-90374982D01*
X145148524Y-90354603D01*
X145161643Y-90322933D01*
X145199646Y-90266056D01*
X145213508Y-90242048D01*
X145220080Y-90235475D01*
X145225656Y-90227131D01*
X145307131Y-90145656D01*
X145315475Y-90140080D01*
X145322048Y-90133508D01*
X145346056Y-90119646D01*
X145402933Y-90081643D01*
X145434603Y-90068524D01*
X145454982Y-90056759D01*
X145477709Y-90050669D01*
X145509384Y-90037549D01*
X145576480Y-90024203D01*
X145603251Y-90017030D01*
X145612544Y-90017030D01*
X145622388Y-90015072D01*
X145737612Y-90015072D01*
X145747456Y-90017030D01*
G37*
G36*
X154387456Y-90017030D02*
G01*
X154396749Y-90017030D01*
X154423520Y-90024203D01*
X154490615Y-90037549D01*
X154522287Y-90050668D01*
X154545018Y-90056759D01*
X154565399Y-90068526D01*
X154597066Y-90081643D01*
X154653936Y-90119642D01*
X154677952Y-90133508D01*
X154684526Y-90140082D01*
X154692868Y-90145656D01*
X154774343Y-90227131D01*
X154779916Y-90235472D01*
X154786492Y-90242048D01*
X154800359Y-90266067D01*
X154838356Y-90322933D01*
X154851471Y-90354597D01*
X154863241Y-90374982D01*
X154869332Y-90397716D01*
X154882450Y-90429384D01*
X154895793Y-90496468D01*
X154902970Y-90523251D01*
X154903878Y-90537116D01*
X154905168Y-90543598D01*
X154907758Y-90596311D01*
X154908000Y-90600000D01*
X154908000Y-91200000D01*
X154907758Y-91203691D01*
X154905168Y-91256401D01*
X154903878Y-91262882D01*
X154902970Y-91276749D01*
X154895792Y-91303533D01*
X154882450Y-91370615D01*
X154869333Y-91402280D01*
X154863241Y-91425018D01*
X154851470Y-91445405D01*
X154838356Y-91477066D01*
X154800363Y-91533925D01*
X154786492Y-91557952D01*
X154779914Y-91564529D01*
X154774343Y-91572868D01*
X154692868Y-91654343D01*
X154684529Y-91659914D01*
X154677952Y-91666492D01*
X154653925Y-91680363D01*
X154597066Y-91718356D01*
X154565405Y-91731470D01*
X154545018Y-91743241D01*
X154522280Y-91749333D01*
X154490615Y-91762450D01*
X154423526Y-91775794D01*
X154396749Y-91782970D01*
X154387455Y-91782970D01*
X154377612Y-91784928D01*
X154262388Y-91784928D01*
X154252545Y-91782970D01*
X154243251Y-91782970D01*
X154216474Y-91775795D01*
X154149384Y-91762450D01*
X154117716Y-91749332D01*
X154094982Y-91743241D01*
X154074597Y-91731471D01*
X154042933Y-91718356D01*
X153986067Y-91680359D01*
X153962048Y-91666492D01*
X153955472Y-91659916D01*
X153947131Y-91654343D01*
X153865656Y-91572868D01*
X153860082Y-91564526D01*
X153853508Y-91557952D01*
X153839642Y-91533936D01*
X153801643Y-91477066D01*
X153788526Y-91445399D01*
X153776759Y-91425018D01*
X153770668Y-91402287D01*
X153757549Y-91370615D01*
X153744203Y-91303519D01*
X153737030Y-91276749D01*
X153736121Y-91262889D01*
X153734831Y-91256401D01*
X153732241Y-91203686D01*
X153732000Y-91200000D01*
X153732000Y-90600000D01*
X153732241Y-90596316D01*
X153734831Y-90543598D01*
X153736121Y-90537108D01*
X153737030Y-90523251D01*
X153744202Y-90496483D01*
X153757549Y-90429384D01*
X153770669Y-90397709D01*
X153776759Y-90374982D01*
X153788524Y-90354603D01*
X153801643Y-90322933D01*
X153839646Y-90266056D01*
X153853508Y-90242048D01*
X153860080Y-90235475D01*
X153865656Y-90227131D01*
X153947131Y-90145656D01*
X153955475Y-90140080D01*
X153962048Y-90133508D01*
X153986056Y-90119646D01*
X154042933Y-90081643D01*
X154074603Y-90068524D01*
X154094982Y-90056759D01*
X154117709Y-90050669D01*
X154149384Y-90037549D01*
X154216480Y-90024203D01*
X154243251Y-90017030D01*
X154252544Y-90017030D01*
X154262388Y-90015072D01*
X154377612Y-90015072D01*
X154387456Y-90017030D01*
G37*
G36*
X145747456Y-86217030D02*
G01*
X145756749Y-86217030D01*
X145783520Y-86224203D01*
X145850615Y-86237549D01*
X145882287Y-86250668D01*
X145905018Y-86256759D01*
X145925399Y-86268526D01*
X145957066Y-86281643D01*
X146013936Y-86319642D01*
X146037952Y-86333508D01*
X146044526Y-86340082D01*
X146052868Y-86345656D01*
X146134343Y-86427131D01*
X146139916Y-86435472D01*
X146146492Y-86442048D01*
X146160359Y-86466067D01*
X146198356Y-86522933D01*
X146211471Y-86554597D01*
X146223241Y-86574982D01*
X146229332Y-86597716D01*
X146242450Y-86629384D01*
X146255793Y-86696468D01*
X146262970Y-86723251D01*
X146263878Y-86737116D01*
X146265168Y-86743598D01*
X146267758Y-86796311D01*
X146268000Y-86800000D01*
X146268000Y-87400000D01*
X146267758Y-87403691D01*
X146265168Y-87456401D01*
X146263878Y-87462882D01*
X146262970Y-87476749D01*
X146255792Y-87503533D01*
X146242450Y-87570615D01*
X146229333Y-87602280D01*
X146223241Y-87625018D01*
X146211470Y-87645405D01*
X146198356Y-87677066D01*
X146160363Y-87733925D01*
X146146492Y-87757952D01*
X146139914Y-87764529D01*
X146134343Y-87772868D01*
X146052868Y-87854343D01*
X146044529Y-87859914D01*
X146037952Y-87866492D01*
X146013925Y-87880363D01*
X145957066Y-87918356D01*
X145925405Y-87931470D01*
X145905018Y-87943241D01*
X145882280Y-87949333D01*
X145850615Y-87962450D01*
X145783526Y-87975794D01*
X145756749Y-87982970D01*
X145747455Y-87982970D01*
X145737612Y-87984928D01*
X145622388Y-87984928D01*
X145612545Y-87982970D01*
X145603251Y-87982970D01*
X145576474Y-87975795D01*
X145509384Y-87962450D01*
X145477716Y-87949332D01*
X145454982Y-87943241D01*
X145434597Y-87931471D01*
X145402933Y-87918356D01*
X145346067Y-87880359D01*
X145322048Y-87866492D01*
X145315472Y-87859916D01*
X145307131Y-87854343D01*
X145225656Y-87772868D01*
X145220082Y-87764526D01*
X145213508Y-87757952D01*
X145199642Y-87733936D01*
X145161643Y-87677066D01*
X145148526Y-87645399D01*
X145136759Y-87625018D01*
X145130668Y-87602287D01*
X145117549Y-87570615D01*
X145104203Y-87503519D01*
X145097030Y-87476749D01*
X145096121Y-87462889D01*
X145094831Y-87456401D01*
X145092241Y-87403686D01*
X145092000Y-87400000D01*
X145092000Y-86800000D01*
X145092241Y-86796316D01*
X145094831Y-86743598D01*
X145096121Y-86737108D01*
X145097030Y-86723251D01*
X145104202Y-86696483D01*
X145117549Y-86629384D01*
X145130669Y-86597709D01*
X145136759Y-86574982D01*
X145148524Y-86554603D01*
X145161643Y-86522933D01*
X145199646Y-86466056D01*
X145213508Y-86442048D01*
X145220080Y-86435475D01*
X145225656Y-86427131D01*
X145307131Y-86345656D01*
X145315475Y-86340080D01*
X145322048Y-86333508D01*
X145346056Y-86319646D01*
X145402933Y-86281643D01*
X145434603Y-86268524D01*
X145454982Y-86256759D01*
X145477709Y-86250669D01*
X145509384Y-86237549D01*
X145576480Y-86224203D01*
X145603251Y-86217030D01*
X145612544Y-86217030D01*
X145622388Y-86215072D01*
X145737612Y-86215072D01*
X145747456Y-86217030D01*
G37*
G36*
X154387456Y-86217030D02*
G01*
X154396749Y-86217030D01*
X154423520Y-86224203D01*
X154490615Y-86237549D01*
X154522287Y-86250668D01*
X154545018Y-86256759D01*
X154565399Y-86268526D01*
X154597066Y-86281643D01*
X154653936Y-86319642D01*
X154677952Y-86333508D01*
X154684526Y-86340082D01*
X154692868Y-86345656D01*
X154774343Y-86427131D01*
X154779916Y-86435472D01*
X154786492Y-86442048D01*
X154800359Y-86466067D01*
X154838356Y-86522933D01*
X154851471Y-86554597D01*
X154863241Y-86574982D01*
X154869332Y-86597716D01*
X154882450Y-86629384D01*
X154895793Y-86696468D01*
X154902970Y-86723251D01*
X154903878Y-86737116D01*
X154905168Y-86743598D01*
X154907758Y-86796311D01*
X154908000Y-86800000D01*
X154908000Y-87400000D01*
X154907758Y-87403691D01*
X154905168Y-87456401D01*
X154903878Y-87462882D01*
X154902970Y-87476749D01*
X154895792Y-87503533D01*
X154882450Y-87570615D01*
X154869333Y-87602280D01*
X154863241Y-87625018D01*
X154851470Y-87645405D01*
X154838356Y-87677066D01*
X154800363Y-87733925D01*
X154786492Y-87757952D01*
X154779914Y-87764529D01*
X154774343Y-87772868D01*
X154692868Y-87854343D01*
X154684529Y-87859914D01*
X154677952Y-87866492D01*
X154653925Y-87880363D01*
X154597066Y-87918356D01*
X154565405Y-87931470D01*
X154545018Y-87943241D01*
X154522280Y-87949333D01*
X154490615Y-87962450D01*
X154423526Y-87975794D01*
X154396749Y-87982970D01*
X154387455Y-87982970D01*
X154377612Y-87984928D01*
X154262388Y-87984928D01*
X154252545Y-87982970D01*
X154243251Y-87982970D01*
X154216474Y-87975795D01*
X154149384Y-87962450D01*
X154117716Y-87949332D01*
X154094982Y-87943241D01*
X154074597Y-87931471D01*
X154042933Y-87918356D01*
X153986067Y-87880359D01*
X153962048Y-87866492D01*
X153955472Y-87859916D01*
X153947131Y-87854343D01*
X153865656Y-87772868D01*
X153860082Y-87764526D01*
X153853508Y-87757952D01*
X153839642Y-87733936D01*
X153801643Y-87677066D01*
X153788526Y-87645399D01*
X153776759Y-87625018D01*
X153770668Y-87602287D01*
X153757549Y-87570615D01*
X153744203Y-87503519D01*
X153737030Y-87476749D01*
X153736121Y-87462889D01*
X153734831Y-87456401D01*
X153732241Y-87403686D01*
X153732000Y-87400000D01*
X153732000Y-86800000D01*
X153732241Y-86796316D01*
X153734831Y-86743598D01*
X153736121Y-86737108D01*
X153737030Y-86723251D01*
X153744202Y-86696483D01*
X153757549Y-86629384D01*
X153770669Y-86597709D01*
X153776759Y-86574982D01*
X153788524Y-86554603D01*
X153801643Y-86522933D01*
X153839646Y-86466056D01*
X153853508Y-86442048D01*
X153860080Y-86435475D01*
X153865656Y-86427131D01*
X153947131Y-86345656D01*
X153955475Y-86340080D01*
X153962048Y-86333508D01*
X153986056Y-86319646D01*
X154042933Y-86281643D01*
X154074603Y-86268524D01*
X154094982Y-86256759D01*
X154117709Y-86250669D01*
X154149384Y-86237549D01*
X154216480Y-86224203D01*
X154243251Y-86217030D01*
X154252544Y-86217030D01*
X154262388Y-86215072D01*
X154377612Y-86215072D01*
X154387456Y-86217030D01*
G37*
M02*
