%TF.GenerationSoftware,KiCad,Pcbnew,9.0.3*%
%TF.CreationDate,2025-07-22T22:17:19-05:00*%
%TF.ProjectId,openoshi-lightboard,6f70656e-6f73-4686-992d-6c6967687462,rev?*%
%TF.SameCoordinates,Original*%
%TF.FileFunction,Legend,Top*%
%TF.FilePolarity,Positive*%
%FSLAX46Y46*%
G04 Gerber Fmt 4.6, Leading zero omitted, Abs format (unit mm)*
G04 Created by KiCad (PCBNEW 9.0.3) date 2025-07-22 22:17:19*
%MOMM*%
%LPD*%
G01*
G04 APERTURE LIST*
%ADD10C,0.150000*%
%ADD11C,0.120000*%
%ADD12C,0.152400*%
G04 APERTURE END LIST*
D10*
X142388095Y-102554819D02*
X142388095Y-103364342D01*
X142388095Y-103364342D02*
X142435714Y-103459580D01*
X142435714Y-103459580D02*
X142483333Y-103507200D01*
X142483333Y-103507200D02*
X142578571Y-103554819D01*
X142578571Y-103554819D02*
X142769047Y-103554819D01*
X142769047Y-103554819D02*
X142864285Y-103507200D01*
X142864285Y-103507200D02*
X142911904Y-103459580D01*
X142911904Y-103459580D02*
X142959523Y-103364342D01*
X142959523Y-103364342D02*
X142959523Y-102554819D01*
X143388095Y-102650057D02*
X143435714Y-102602438D01*
X143435714Y-102602438D02*
X143530952Y-102554819D01*
X143530952Y-102554819D02*
X143769047Y-102554819D01*
X143769047Y-102554819D02*
X143864285Y-102602438D01*
X143864285Y-102602438D02*
X143911904Y-102650057D01*
X143911904Y-102650057D02*
X143959523Y-102745295D01*
X143959523Y-102745295D02*
X143959523Y-102840533D01*
X143959523Y-102840533D02*
X143911904Y-102983390D01*
X143911904Y-102983390D02*
X143340476Y-103554819D01*
X143340476Y-103554819D02*
X143959523Y-103554819D01*
X138654819Y-93611904D02*
X139464342Y-93611904D01*
X139464342Y-93611904D02*
X139559580Y-93564285D01*
X139559580Y-93564285D02*
X139607200Y-93516666D01*
X139607200Y-93516666D02*
X139654819Y-93421428D01*
X139654819Y-93421428D02*
X139654819Y-93230952D01*
X139654819Y-93230952D02*
X139607200Y-93135714D01*
X139607200Y-93135714D02*
X139559580Y-93088095D01*
X139559580Y-93088095D02*
X139464342Y-93040476D01*
X139464342Y-93040476D02*
X138654819Y-93040476D01*
X138654819Y-92659523D02*
X138654819Y-92040476D01*
X138654819Y-92040476D02*
X139035771Y-92373809D01*
X139035771Y-92373809D02*
X139035771Y-92230952D01*
X139035771Y-92230952D02*
X139083390Y-92135714D01*
X139083390Y-92135714D02*
X139131009Y-92088095D01*
X139131009Y-92088095D02*
X139226247Y-92040476D01*
X139226247Y-92040476D02*
X139464342Y-92040476D01*
X139464342Y-92040476D02*
X139559580Y-92088095D01*
X139559580Y-92088095D02*
X139607200Y-92135714D01*
X139607200Y-92135714D02*
X139654819Y-92230952D01*
X139654819Y-92230952D02*
X139654819Y-92516666D01*
X139654819Y-92516666D02*
X139607200Y-92611904D01*
X139607200Y-92611904D02*
X139559580Y-92659523D01*
X155759422Y-93736918D02*
X155658407Y-93770590D01*
X155658407Y-93770590D02*
X155557392Y-93871605D01*
X155557392Y-93871605D02*
X155490048Y-94006292D01*
X155490048Y-94006292D02*
X155490048Y-94140979D01*
X155490048Y-94140979D02*
X155523720Y-94241994D01*
X155523720Y-94241994D02*
X155624735Y-94410353D01*
X155624735Y-94410353D02*
X155725751Y-94511368D01*
X155725751Y-94511368D02*
X155894109Y-94612383D01*
X155894109Y-94612383D02*
X155995125Y-94646055D01*
X155995125Y-94646055D02*
X156129812Y-94646055D01*
X156129812Y-94646055D02*
X156264499Y-94578712D01*
X156264499Y-94578712D02*
X156331842Y-94511368D01*
X156331842Y-94511368D02*
X156399186Y-94376681D01*
X156399186Y-94376681D02*
X156399186Y-94309338D01*
X156399186Y-94309338D02*
X156163483Y-94073635D01*
X156163483Y-94073635D02*
X156028796Y-94208322D01*
X156769575Y-94073635D02*
X156062468Y-93366528D01*
X156062468Y-93366528D02*
X157173636Y-93669574D01*
X157173636Y-93669574D02*
X156466529Y-92962467D01*
X157510353Y-93332857D02*
X156803247Y-92625750D01*
X156803247Y-92625750D02*
X156971605Y-92457391D01*
X156971605Y-92457391D02*
X157106292Y-92390048D01*
X157106292Y-92390048D02*
X157240979Y-92390048D01*
X157240979Y-92390048D02*
X157341995Y-92423719D01*
X157341995Y-92423719D02*
X157510353Y-92524735D01*
X157510353Y-92524735D02*
X157611369Y-92625750D01*
X157611369Y-92625750D02*
X157712384Y-92794109D01*
X157712384Y-92794109D02*
X157746056Y-92895124D01*
X157746056Y-92895124D02*
X157746056Y-93029811D01*
X157746056Y-93029811D02*
X157678712Y-93164498D01*
X157678712Y-93164498D02*
X157510353Y-93332857D01*
X154659580Y-96916666D02*
X154707200Y-96964285D01*
X154707200Y-96964285D02*
X154754819Y-97107142D01*
X154754819Y-97107142D02*
X154754819Y-97202380D01*
X154754819Y-97202380D02*
X154707200Y-97345237D01*
X154707200Y-97345237D02*
X154611961Y-97440475D01*
X154611961Y-97440475D02*
X154516723Y-97488094D01*
X154516723Y-97488094D02*
X154326247Y-97535713D01*
X154326247Y-97535713D02*
X154183390Y-97535713D01*
X154183390Y-97535713D02*
X153992914Y-97488094D01*
X153992914Y-97488094D02*
X153897676Y-97440475D01*
X153897676Y-97440475D02*
X153802438Y-97345237D01*
X153802438Y-97345237D02*
X153754819Y-97202380D01*
X153754819Y-97202380D02*
X153754819Y-97107142D01*
X153754819Y-97107142D02*
X153802438Y-96964285D01*
X153802438Y-96964285D02*
X153850057Y-96916666D01*
X153754819Y-96583332D02*
X153754819Y-95964285D01*
X153754819Y-95964285D02*
X154135771Y-96297618D01*
X154135771Y-96297618D02*
X154135771Y-96154761D01*
X154135771Y-96154761D02*
X154183390Y-96059523D01*
X154183390Y-96059523D02*
X154231009Y-96011904D01*
X154231009Y-96011904D02*
X154326247Y-95964285D01*
X154326247Y-95964285D02*
X154564342Y-95964285D01*
X154564342Y-95964285D02*
X154659580Y-96011904D01*
X154659580Y-96011904D02*
X154707200Y-96059523D01*
X154707200Y-96059523D02*
X154754819Y-96154761D01*
X154754819Y-96154761D02*
X154754819Y-96440475D01*
X154754819Y-96440475D02*
X154707200Y-96535713D01*
X154707200Y-96535713D02*
X154659580Y-96583332D01*
X153033333Y-110554819D02*
X152700000Y-110078628D01*
X152461905Y-110554819D02*
X152461905Y-109554819D01*
X152461905Y-109554819D02*
X152842857Y-109554819D01*
X152842857Y-109554819D02*
X152938095Y-109602438D01*
X152938095Y-109602438D02*
X152985714Y-109650057D01*
X152985714Y-109650057D02*
X153033333Y-109745295D01*
X153033333Y-109745295D02*
X153033333Y-109888152D01*
X153033333Y-109888152D02*
X152985714Y-109983390D01*
X152985714Y-109983390D02*
X152938095Y-110031009D01*
X152938095Y-110031009D02*
X152842857Y-110078628D01*
X152842857Y-110078628D02*
X152461905Y-110078628D01*
X153938095Y-109554819D02*
X153461905Y-109554819D01*
X153461905Y-109554819D02*
X153414286Y-110031009D01*
X153414286Y-110031009D02*
X153461905Y-109983390D01*
X153461905Y-109983390D02*
X153557143Y-109935771D01*
X153557143Y-109935771D02*
X153795238Y-109935771D01*
X153795238Y-109935771D02*
X153890476Y-109983390D01*
X153890476Y-109983390D02*
X153938095Y-110031009D01*
X153938095Y-110031009D02*
X153985714Y-110126247D01*
X153985714Y-110126247D02*
X153985714Y-110364342D01*
X153985714Y-110364342D02*
X153938095Y-110459580D01*
X153938095Y-110459580D02*
X153890476Y-110507200D01*
X153890476Y-110507200D02*
X153795238Y-110554819D01*
X153795238Y-110554819D02*
X153557143Y-110554819D01*
X153557143Y-110554819D02*
X153461905Y-110507200D01*
X153461905Y-110507200D02*
X153414286Y-110459580D01*
X141548349Y-106616034D02*
X141615692Y-106750721D01*
X141615692Y-106750721D02*
X141784051Y-106919079D01*
X141784051Y-106919079D02*
X141885066Y-106952751D01*
X141885066Y-106952751D02*
X141952410Y-106952751D01*
X141952410Y-106952751D02*
X142053425Y-106919079D01*
X142053425Y-106919079D02*
X142120769Y-106851736D01*
X142120769Y-106851736D02*
X142154440Y-106750721D01*
X142154440Y-106750721D02*
X142154440Y-106683377D01*
X142154440Y-106683377D02*
X142120769Y-106582362D01*
X142120769Y-106582362D02*
X142019753Y-106414003D01*
X142019753Y-106414003D02*
X141986082Y-106312988D01*
X141986082Y-106312988D02*
X141986082Y-106245644D01*
X141986082Y-106245644D02*
X142019753Y-106144629D01*
X142019753Y-106144629D02*
X142087097Y-106077286D01*
X142087097Y-106077286D02*
X142188112Y-106043614D01*
X142188112Y-106043614D02*
X142255456Y-106043614D01*
X142255456Y-106043614D02*
X142356471Y-106077286D01*
X142356471Y-106077286D02*
X142524830Y-106245644D01*
X142524830Y-106245644D02*
X142592173Y-106380331D01*
X142861547Y-106582362D02*
X142322799Y-107457828D01*
X142322799Y-107457828D02*
X142962563Y-107087438D01*
X142962563Y-107087438D02*
X142592173Y-107727202D01*
X142592173Y-107727202D02*
X143467639Y-107188454D01*
X143635997Y-107491499D02*
X143703341Y-107491499D01*
X143703341Y-107491499D02*
X143804356Y-107525171D01*
X143804356Y-107525171D02*
X143972715Y-107693530D01*
X143972715Y-107693530D02*
X144006387Y-107794545D01*
X144006387Y-107794545D02*
X144006387Y-107861888D01*
X144006387Y-107861888D02*
X143972715Y-107962904D01*
X143972715Y-107962904D02*
X143905371Y-108030247D01*
X143905371Y-108030247D02*
X143770684Y-108097591D01*
X143770684Y-108097591D02*
X142962562Y-108097591D01*
X142962562Y-108097591D02*
X143400295Y-108535323D01*
X139579580Y-98166666D02*
X139627200Y-98214285D01*
X139627200Y-98214285D02*
X139674819Y-98357142D01*
X139674819Y-98357142D02*
X139674819Y-98452380D01*
X139674819Y-98452380D02*
X139627200Y-98595237D01*
X139627200Y-98595237D02*
X139531961Y-98690475D01*
X139531961Y-98690475D02*
X139436723Y-98738094D01*
X139436723Y-98738094D02*
X139246247Y-98785713D01*
X139246247Y-98785713D02*
X139103390Y-98785713D01*
X139103390Y-98785713D02*
X138912914Y-98738094D01*
X138912914Y-98738094D02*
X138817676Y-98690475D01*
X138817676Y-98690475D02*
X138722438Y-98595237D01*
X138722438Y-98595237D02*
X138674819Y-98452380D01*
X138674819Y-98452380D02*
X138674819Y-98357142D01*
X138674819Y-98357142D02*
X138722438Y-98214285D01*
X138722438Y-98214285D02*
X138770057Y-98166666D01*
X139674819Y-97214285D02*
X139674819Y-97785713D01*
X139674819Y-97499999D02*
X138674819Y-97499999D01*
X138674819Y-97499999D02*
X138817676Y-97595237D01*
X138817676Y-97595237D02*
X138912914Y-97690475D01*
X138912914Y-97690475D02*
X138960533Y-97785713D01*
X141757142Y-90054819D02*
X141423809Y-89578628D01*
X141185714Y-90054819D02*
X141185714Y-89054819D01*
X141185714Y-89054819D02*
X141566666Y-89054819D01*
X141566666Y-89054819D02*
X141661904Y-89102438D01*
X141661904Y-89102438D02*
X141709523Y-89150057D01*
X141709523Y-89150057D02*
X141757142Y-89245295D01*
X141757142Y-89245295D02*
X141757142Y-89388152D01*
X141757142Y-89388152D02*
X141709523Y-89483390D01*
X141709523Y-89483390D02*
X141661904Y-89531009D01*
X141661904Y-89531009D02*
X141566666Y-89578628D01*
X141566666Y-89578628D02*
X141185714Y-89578628D01*
X142709523Y-90054819D02*
X142138095Y-90054819D01*
X142423809Y-90054819D02*
X142423809Y-89054819D01*
X142423809Y-89054819D02*
X142328571Y-89197676D01*
X142328571Y-89197676D02*
X142233333Y-89292914D01*
X142233333Y-89292914D02*
X142138095Y-89340533D01*
X143328571Y-89054819D02*
X143423809Y-89054819D01*
X143423809Y-89054819D02*
X143519047Y-89102438D01*
X143519047Y-89102438D02*
X143566666Y-89150057D01*
X143566666Y-89150057D02*
X143614285Y-89245295D01*
X143614285Y-89245295D02*
X143661904Y-89435771D01*
X143661904Y-89435771D02*
X143661904Y-89673866D01*
X143661904Y-89673866D02*
X143614285Y-89864342D01*
X143614285Y-89864342D02*
X143566666Y-89959580D01*
X143566666Y-89959580D02*
X143519047Y-90007200D01*
X143519047Y-90007200D02*
X143423809Y-90054819D01*
X143423809Y-90054819D02*
X143328571Y-90054819D01*
X143328571Y-90054819D02*
X143233333Y-90007200D01*
X143233333Y-90007200D02*
X143185714Y-89959580D01*
X143185714Y-89959580D02*
X143138095Y-89864342D01*
X143138095Y-89864342D02*
X143090476Y-89673866D01*
X143090476Y-89673866D02*
X143090476Y-89435771D01*
X143090476Y-89435771D02*
X143138095Y-89245295D01*
X143138095Y-89245295D02*
X143185714Y-89150057D01*
X143185714Y-89150057D02*
X143233333Y-89102438D01*
X143233333Y-89102438D02*
X143328571Y-89054819D01*
X156743094Y-96282772D02*
X156877781Y-96215429D01*
X156877781Y-96215429D02*
X157046140Y-96047070D01*
X157046140Y-96047070D02*
X157079812Y-95946055D01*
X157079812Y-95946055D02*
X157079812Y-95878711D01*
X157079812Y-95878711D02*
X157046140Y-95777696D01*
X157046140Y-95777696D02*
X156978797Y-95710353D01*
X156978797Y-95710353D02*
X156877781Y-95676681D01*
X156877781Y-95676681D02*
X156810438Y-95676681D01*
X156810438Y-95676681D02*
X156709423Y-95710353D01*
X156709423Y-95710353D02*
X156541064Y-95811368D01*
X156541064Y-95811368D02*
X156440049Y-95845040D01*
X156440049Y-95845040D02*
X156372705Y-95845040D01*
X156372705Y-95845040D02*
X156271690Y-95811368D01*
X156271690Y-95811368D02*
X156204346Y-95744024D01*
X156204346Y-95744024D02*
X156170675Y-95643009D01*
X156170675Y-95643009D02*
X156170675Y-95575666D01*
X156170675Y-95575666D02*
X156204346Y-95474650D01*
X156204346Y-95474650D02*
X156372705Y-95306292D01*
X156372705Y-95306292D02*
X156507392Y-95238948D01*
X156709423Y-94969574D02*
X157584888Y-95508322D01*
X157584888Y-95508322D02*
X157214499Y-94868559D01*
X157214499Y-94868559D02*
X157854262Y-95238948D01*
X157854262Y-95238948D02*
X157315514Y-94363482D01*
X158291995Y-94801215D02*
X157584888Y-94094109D01*
X158056292Y-93622704D02*
X158190979Y-93488017D01*
X158190979Y-93488017D02*
X158291995Y-93454346D01*
X158291995Y-93454346D02*
X158426682Y-93454346D01*
X158426682Y-93454346D02*
X158595040Y-93555361D01*
X158595040Y-93555361D02*
X158830743Y-93791063D01*
X158830743Y-93791063D02*
X158931758Y-93959422D01*
X158931758Y-93959422D02*
X158931758Y-94094109D01*
X158931758Y-94094109D02*
X158898086Y-94195124D01*
X158898086Y-94195124D02*
X158763399Y-94329811D01*
X158763399Y-94329811D02*
X158662384Y-94363483D01*
X158662384Y-94363483D02*
X158527697Y-94363483D01*
X158527697Y-94363483D02*
X158359338Y-94262468D01*
X158359338Y-94262468D02*
X158123636Y-94026765D01*
X158123636Y-94026765D02*
X158022621Y-93858407D01*
X158022621Y-93858407D02*
X158022621Y-93723720D01*
X158022621Y-93723720D02*
X158056292Y-93622704D01*
X150333333Y-88670180D02*
X150333333Y-87955895D01*
X150333333Y-87955895D02*
X150380952Y-87813038D01*
X150380952Y-87813038D02*
X150476190Y-87717800D01*
X150476190Y-87717800D02*
X150619047Y-87670180D01*
X150619047Y-87670180D02*
X150714285Y-87670180D01*
X149333333Y-87670180D02*
X149904761Y-87670180D01*
X149619047Y-87670180D02*
X149619047Y-88670180D01*
X149619047Y-88670180D02*
X149714285Y-88527323D01*
X149714285Y-88527323D02*
X149809523Y-88432085D01*
X149809523Y-88432085D02*
X149904761Y-88384466D01*
X152704819Y-93966666D02*
X152228628Y-94299999D01*
X152704819Y-94538094D02*
X151704819Y-94538094D01*
X151704819Y-94538094D02*
X151704819Y-94157142D01*
X151704819Y-94157142D02*
X151752438Y-94061904D01*
X151752438Y-94061904D02*
X151800057Y-94014285D01*
X151800057Y-94014285D02*
X151895295Y-93966666D01*
X151895295Y-93966666D02*
X152038152Y-93966666D01*
X152038152Y-93966666D02*
X152133390Y-94014285D01*
X152133390Y-94014285D02*
X152181009Y-94061904D01*
X152181009Y-94061904D02*
X152228628Y-94157142D01*
X152228628Y-94157142D02*
X152228628Y-94538094D01*
X151704819Y-93633332D02*
X151704819Y-93014285D01*
X151704819Y-93014285D02*
X152085771Y-93347618D01*
X152085771Y-93347618D02*
X152085771Y-93204761D01*
X152085771Y-93204761D02*
X152133390Y-93109523D01*
X152133390Y-93109523D02*
X152181009Y-93061904D01*
X152181009Y-93061904D02*
X152276247Y-93014285D01*
X152276247Y-93014285D02*
X152514342Y-93014285D01*
X152514342Y-93014285D02*
X152609580Y-93061904D01*
X152609580Y-93061904D02*
X152657200Y-93109523D01*
X152657200Y-93109523D02*
X152704819Y-93204761D01*
X152704819Y-93204761D02*
X152704819Y-93490475D01*
X152704819Y-93490475D02*
X152657200Y-93585713D01*
X152657200Y-93585713D02*
X152609580Y-93633332D01*
X156595125Y-108580742D02*
X156729812Y-108513399D01*
X156729812Y-108513399D02*
X156898170Y-108345040D01*
X156898170Y-108345040D02*
X156931842Y-108244025D01*
X156931842Y-108244025D02*
X156931842Y-108176681D01*
X156931842Y-108176681D02*
X156898170Y-108075666D01*
X156898170Y-108075666D02*
X156830827Y-108008322D01*
X156830827Y-108008322D02*
X156729812Y-107974651D01*
X156729812Y-107974651D02*
X156662468Y-107974651D01*
X156662468Y-107974651D02*
X156561453Y-108008322D01*
X156561453Y-108008322D02*
X156393094Y-108109338D01*
X156393094Y-108109338D02*
X156292079Y-108143009D01*
X156292079Y-108143009D02*
X156224735Y-108143009D01*
X156224735Y-108143009D02*
X156123720Y-108109338D01*
X156123720Y-108109338D02*
X156056377Y-108041994D01*
X156056377Y-108041994D02*
X156022705Y-107940979D01*
X156022705Y-107940979D02*
X156022705Y-107873635D01*
X156022705Y-107873635D02*
X156056377Y-107772620D01*
X156056377Y-107772620D02*
X156224735Y-107604261D01*
X156224735Y-107604261D02*
X156359422Y-107536918D01*
X156561453Y-107267544D02*
X157436919Y-107806292D01*
X157436919Y-107806292D02*
X157066529Y-107166528D01*
X157066529Y-107166528D02*
X157706293Y-107536918D01*
X157706293Y-107536918D02*
X157167545Y-106661452D01*
X158514414Y-106728796D02*
X158110353Y-107132857D01*
X158312384Y-106930826D02*
X157605277Y-106223720D01*
X157605277Y-106223720D02*
X157638949Y-106392078D01*
X157638949Y-106392078D02*
X157638949Y-106526765D01*
X157638949Y-106526765D02*
X157605277Y-106627781D01*
X145854761Y-112050057D02*
X145759523Y-112002438D01*
X145759523Y-112002438D02*
X145664285Y-111907200D01*
X145664285Y-111907200D02*
X145521428Y-111764342D01*
X145521428Y-111764342D02*
X145426190Y-111716723D01*
X145426190Y-111716723D02*
X145330952Y-111716723D01*
X145378571Y-111954819D02*
X145283333Y-111907200D01*
X145283333Y-111907200D02*
X145188095Y-111811961D01*
X145188095Y-111811961D02*
X145140476Y-111621485D01*
X145140476Y-111621485D02*
X145140476Y-111288152D01*
X145140476Y-111288152D02*
X145188095Y-111097676D01*
X145188095Y-111097676D02*
X145283333Y-111002438D01*
X145283333Y-111002438D02*
X145378571Y-110954819D01*
X145378571Y-110954819D02*
X145569047Y-110954819D01*
X145569047Y-110954819D02*
X145664285Y-111002438D01*
X145664285Y-111002438D02*
X145759523Y-111097676D01*
X145759523Y-111097676D02*
X145807142Y-111288152D01*
X145807142Y-111288152D02*
X145807142Y-111621485D01*
X145807142Y-111621485D02*
X145759523Y-111811961D01*
X145759523Y-111811961D02*
X145664285Y-111907200D01*
X145664285Y-111907200D02*
X145569047Y-111954819D01*
X145569047Y-111954819D02*
X145378571Y-111954819D01*
X146664285Y-111288152D02*
X146664285Y-111954819D01*
X146426190Y-110907200D02*
X146188095Y-111621485D01*
X146188095Y-111621485D02*
X146807142Y-111621485D01*
X150633333Y-110554819D02*
X150300000Y-110078628D01*
X150061905Y-110554819D02*
X150061905Y-109554819D01*
X150061905Y-109554819D02*
X150442857Y-109554819D01*
X150442857Y-109554819D02*
X150538095Y-109602438D01*
X150538095Y-109602438D02*
X150585714Y-109650057D01*
X150585714Y-109650057D02*
X150633333Y-109745295D01*
X150633333Y-109745295D02*
X150633333Y-109888152D01*
X150633333Y-109888152D02*
X150585714Y-109983390D01*
X150585714Y-109983390D02*
X150538095Y-110031009D01*
X150538095Y-110031009D02*
X150442857Y-110078628D01*
X150442857Y-110078628D02*
X150061905Y-110078628D01*
X151490476Y-109554819D02*
X151300000Y-109554819D01*
X151300000Y-109554819D02*
X151204762Y-109602438D01*
X151204762Y-109602438D02*
X151157143Y-109650057D01*
X151157143Y-109650057D02*
X151061905Y-109792914D01*
X151061905Y-109792914D02*
X151014286Y-109983390D01*
X151014286Y-109983390D02*
X151014286Y-110364342D01*
X151014286Y-110364342D02*
X151061905Y-110459580D01*
X151061905Y-110459580D02*
X151109524Y-110507200D01*
X151109524Y-110507200D02*
X151204762Y-110554819D01*
X151204762Y-110554819D02*
X151395238Y-110554819D01*
X151395238Y-110554819D02*
X151490476Y-110507200D01*
X151490476Y-110507200D02*
X151538095Y-110459580D01*
X151538095Y-110459580D02*
X151585714Y-110364342D01*
X151585714Y-110364342D02*
X151585714Y-110126247D01*
X151585714Y-110126247D02*
X151538095Y-110031009D01*
X151538095Y-110031009D02*
X151490476Y-109983390D01*
X151490476Y-109983390D02*
X151395238Y-109935771D01*
X151395238Y-109935771D02*
X151204762Y-109935771D01*
X151204762Y-109935771D02*
X151109524Y-109983390D01*
X151109524Y-109983390D02*
X151061905Y-110031009D01*
X151061905Y-110031009D02*
X151014286Y-110126247D01*
X150704761Y-112050057D02*
X150609523Y-112002438D01*
X150609523Y-112002438D02*
X150514285Y-111907200D01*
X150514285Y-111907200D02*
X150371428Y-111764342D01*
X150371428Y-111764342D02*
X150276190Y-111716723D01*
X150276190Y-111716723D02*
X150180952Y-111716723D01*
X150228571Y-111954819D02*
X150133333Y-111907200D01*
X150133333Y-111907200D02*
X150038095Y-111811961D01*
X150038095Y-111811961D02*
X149990476Y-111621485D01*
X149990476Y-111621485D02*
X149990476Y-111288152D01*
X149990476Y-111288152D02*
X150038095Y-111097676D01*
X150038095Y-111097676D02*
X150133333Y-111002438D01*
X150133333Y-111002438D02*
X150228571Y-110954819D01*
X150228571Y-110954819D02*
X150419047Y-110954819D01*
X150419047Y-110954819D02*
X150514285Y-111002438D01*
X150514285Y-111002438D02*
X150609523Y-111097676D01*
X150609523Y-111097676D02*
X150657142Y-111288152D01*
X150657142Y-111288152D02*
X150657142Y-111621485D01*
X150657142Y-111621485D02*
X150609523Y-111811961D01*
X150609523Y-111811961D02*
X150514285Y-111907200D01*
X150514285Y-111907200D02*
X150419047Y-111954819D01*
X150419047Y-111954819D02*
X150228571Y-111954819D01*
X151038095Y-111050057D02*
X151085714Y-111002438D01*
X151085714Y-111002438D02*
X151180952Y-110954819D01*
X151180952Y-110954819D02*
X151419047Y-110954819D01*
X151419047Y-110954819D02*
X151514285Y-111002438D01*
X151514285Y-111002438D02*
X151561904Y-111050057D01*
X151561904Y-111050057D02*
X151609523Y-111145295D01*
X151609523Y-111145295D02*
X151609523Y-111240533D01*
X151609523Y-111240533D02*
X151561904Y-111383390D01*
X151561904Y-111383390D02*
X150990476Y-111954819D01*
X150990476Y-111954819D02*
X151609523Y-111954819D01*
X138004819Y-102066666D02*
X138004819Y-102542856D01*
X138004819Y-102542856D02*
X137004819Y-102542856D01*
X138004819Y-101209523D02*
X138004819Y-101780951D01*
X138004819Y-101495237D02*
X137004819Y-101495237D01*
X137004819Y-101495237D02*
X137147676Y-101590475D01*
X137147676Y-101590475D02*
X137242914Y-101685713D01*
X137242914Y-101685713D02*
X137290533Y-101780951D01*
X142983333Y-104909580D02*
X142935714Y-104957200D01*
X142935714Y-104957200D02*
X142792857Y-105004819D01*
X142792857Y-105004819D02*
X142697619Y-105004819D01*
X142697619Y-105004819D02*
X142554762Y-104957200D01*
X142554762Y-104957200D02*
X142459524Y-104861961D01*
X142459524Y-104861961D02*
X142411905Y-104766723D01*
X142411905Y-104766723D02*
X142364286Y-104576247D01*
X142364286Y-104576247D02*
X142364286Y-104433390D01*
X142364286Y-104433390D02*
X142411905Y-104242914D01*
X142411905Y-104242914D02*
X142459524Y-104147676D01*
X142459524Y-104147676D02*
X142554762Y-104052438D01*
X142554762Y-104052438D02*
X142697619Y-104004819D01*
X142697619Y-104004819D02*
X142792857Y-104004819D01*
X142792857Y-104004819D02*
X142935714Y-104052438D01*
X142935714Y-104052438D02*
X142983333Y-104100057D01*
X143364286Y-104100057D02*
X143411905Y-104052438D01*
X143411905Y-104052438D02*
X143507143Y-104004819D01*
X143507143Y-104004819D02*
X143745238Y-104004819D01*
X143745238Y-104004819D02*
X143840476Y-104052438D01*
X143840476Y-104052438D02*
X143888095Y-104100057D01*
X143888095Y-104100057D02*
X143935714Y-104195295D01*
X143935714Y-104195295D02*
X143935714Y-104290533D01*
X143935714Y-104290533D02*
X143888095Y-104433390D01*
X143888095Y-104433390D02*
X143316667Y-105004819D01*
X143316667Y-105004819D02*
X143935714Y-105004819D01*
X145733333Y-96404819D02*
X145400000Y-95928628D01*
X145161905Y-96404819D02*
X145161905Y-95404819D01*
X145161905Y-95404819D02*
X145542857Y-95404819D01*
X145542857Y-95404819D02*
X145638095Y-95452438D01*
X145638095Y-95452438D02*
X145685714Y-95500057D01*
X145685714Y-95500057D02*
X145733333Y-95595295D01*
X145733333Y-95595295D02*
X145733333Y-95738152D01*
X145733333Y-95738152D02*
X145685714Y-95833390D01*
X145685714Y-95833390D02*
X145638095Y-95881009D01*
X145638095Y-95881009D02*
X145542857Y-95928628D01*
X145542857Y-95928628D02*
X145161905Y-95928628D01*
X146685714Y-96404819D02*
X146114286Y-96404819D01*
X146400000Y-96404819D02*
X146400000Y-95404819D01*
X146400000Y-95404819D02*
X146304762Y-95547676D01*
X146304762Y-95547676D02*
X146209524Y-95642914D01*
X146209524Y-95642914D02*
X146114286Y-95690533D01*
X161804819Y-96016666D02*
X161328628Y-96349999D01*
X161804819Y-96588094D02*
X160804819Y-96588094D01*
X160804819Y-96588094D02*
X160804819Y-96207142D01*
X160804819Y-96207142D02*
X160852438Y-96111904D01*
X160852438Y-96111904D02*
X160900057Y-96064285D01*
X160900057Y-96064285D02*
X160995295Y-96016666D01*
X160995295Y-96016666D02*
X161138152Y-96016666D01*
X161138152Y-96016666D02*
X161233390Y-96064285D01*
X161233390Y-96064285D02*
X161281009Y-96111904D01*
X161281009Y-96111904D02*
X161328628Y-96207142D01*
X161328628Y-96207142D02*
X161328628Y-96588094D01*
X161804819Y-95540475D02*
X161804819Y-95349999D01*
X161804819Y-95349999D02*
X161757200Y-95254761D01*
X161757200Y-95254761D02*
X161709580Y-95207142D01*
X161709580Y-95207142D02*
X161566723Y-95111904D01*
X161566723Y-95111904D02*
X161376247Y-95064285D01*
X161376247Y-95064285D02*
X160995295Y-95064285D01*
X160995295Y-95064285D02*
X160900057Y-95111904D01*
X160900057Y-95111904D02*
X160852438Y-95159523D01*
X160852438Y-95159523D02*
X160804819Y-95254761D01*
X160804819Y-95254761D02*
X160804819Y-95445237D01*
X160804819Y-95445237D02*
X160852438Y-95540475D01*
X160852438Y-95540475D02*
X160900057Y-95588094D01*
X160900057Y-95588094D02*
X160995295Y-95635713D01*
X160995295Y-95635713D02*
X161233390Y-95635713D01*
X161233390Y-95635713D02*
X161328628Y-95588094D01*
X161328628Y-95588094D02*
X161376247Y-95540475D01*
X161376247Y-95540475D02*
X161423866Y-95445237D01*
X161423866Y-95445237D02*
X161423866Y-95254761D01*
X161423866Y-95254761D02*
X161376247Y-95159523D01*
X161376247Y-95159523D02*
X161328628Y-95111904D01*
X161328628Y-95111904D02*
X161233390Y-95064285D01*
X148233333Y-110554819D02*
X147900000Y-110078628D01*
X147661905Y-110554819D02*
X147661905Y-109554819D01*
X147661905Y-109554819D02*
X148042857Y-109554819D01*
X148042857Y-109554819D02*
X148138095Y-109602438D01*
X148138095Y-109602438D02*
X148185714Y-109650057D01*
X148185714Y-109650057D02*
X148233333Y-109745295D01*
X148233333Y-109745295D02*
X148233333Y-109888152D01*
X148233333Y-109888152D02*
X148185714Y-109983390D01*
X148185714Y-109983390D02*
X148138095Y-110031009D01*
X148138095Y-110031009D02*
X148042857Y-110078628D01*
X148042857Y-110078628D02*
X147661905Y-110078628D01*
X148566667Y-109554819D02*
X149233333Y-109554819D01*
X149233333Y-109554819D02*
X148804762Y-110554819D01*
X148054819Y-93966666D02*
X147578628Y-94299999D01*
X148054819Y-94538094D02*
X147054819Y-94538094D01*
X147054819Y-94538094D02*
X147054819Y-94157142D01*
X147054819Y-94157142D02*
X147102438Y-94061904D01*
X147102438Y-94061904D02*
X147150057Y-94014285D01*
X147150057Y-94014285D02*
X147245295Y-93966666D01*
X147245295Y-93966666D02*
X147388152Y-93966666D01*
X147388152Y-93966666D02*
X147483390Y-94014285D01*
X147483390Y-94014285D02*
X147531009Y-94061904D01*
X147531009Y-94061904D02*
X147578628Y-94157142D01*
X147578628Y-94157142D02*
X147578628Y-94538094D01*
X147388152Y-93109523D02*
X148054819Y-93109523D01*
X147007200Y-93347618D02*
X147721485Y-93585713D01*
X147721485Y-93585713D02*
X147721485Y-92966666D01*
X148304761Y-112050057D02*
X148209523Y-112002438D01*
X148209523Y-112002438D02*
X148114285Y-111907200D01*
X148114285Y-111907200D02*
X147971428Y-111764342D01*
X147971428Y-111764342D02*
X147876190Y-111716723D01*
X147876190Y-111716723D02*
X147780952Y-111716723D01*
X147828571Y-111954819D02*
X147733333Y-111907200D01*
X147733333Y-111907200D02*
X147638095Y-111811961D01*
X147638095Y-111811961D02*
X147590476Y-111621485D01*
X147590476Y-111621485D02*
X147590476Y-111288152D01*
X147590476Y-111288152D02*
X147638095Y-111097676D01*
X147638095Y-111097676D02*
X147733333Y-111002438D01*
X147733333Y-111002438D02*
X147828571Y-110954819D01*
X147828571Y-110954819D02*
X148019047Y-110954819D01*
X148019047Y-110954819D02*
X148114285Y-111002438D01*
X148114285Y-111002438D02*
X148209523Y-111097676D01*
X148209523Y-111097676D02*
X148257142Y-111288152D01*
X148257142Y-111288152D02*
X148257142Y-111621485D01*
X148257142Y-111621485D02*
X148209523Y-111811961D01*
X148209523Y-111811961D02*
X148114285Y-111907200D01*
X148114285Y-111907200D02*
X148019047Y-111954819D01*
X148019047Y-111954819D02*
X147828571Y-111954819D01*
X148590476Y-110954819D02*
X149209523Y-110954819D01*
X149209523Y-110954819D02*
X148876190Y-111335771D01*
X148876190Y-111335771D02*
X149019047Y-111335771D01*
X149019047Y-111335771D02*
X149114285Y-111383390D01*
X149114285Y-111383390D02*
X149161904Y-111431009D01*
X149161904Y-111431009D02*
X149209523Y-111526247D01*
X149209523Y-111526247D02*
X149209523Y-111764342D01*
X149209523Y-111764342D02*
X149161904Y-111859580D01*
X149161904Y-111859580D02*
X149114285Y-111907200D01*
X149114285Y-111907200D02*
X149019047Y-111954819D01*
X149019047Y-111954819D02*
X148733333Y-111954819D01*
X148733333Y-111954819D02*
X148638095Y-111907200D01*
X148638095Y-111907200D02*
X148590476Y-111859580D01*
X145783333Y-110554819D02*
X145450000Y-110078628D01*
X145211905Y-110554819D02*
X145211905Y-109554819D01*
X145211905Y-109554819D02*
X145592857Y-109554819D01*
X145592857Y-109554819D02*
X145688095Y-109602438D01*
X145688095Y-109602438D02*
X145735714Y-109650057D01*
X145735714Y-109650057D02*
X145783333Y-109745295D01*
X145783333Y-109745295D02*
X145783333Y-109888152D01*
X145783333Y-109888152D02*
X145735714Y-109983390D01*
X145735714Y-109983390D02*
X145688095Y-110031009D01*
X145688095Y-110031009D02*
X145592857Y-110078628D01*
X145592857Y-110078628D02*
X145211905Y-110078628D01*
X146354762Y-109983390D02*
X146259524Y-109935771D01*
X146259524Y-109935771D02*
X146211905Y-109888152D01*
X146211905Y-109888152D02*
X146164286Y-109792914D01*
X146164286Y-109792914D02*
X146164286Y-109745295D01*
X146164286Y-109745295D02*
X146211905Y-109650057D01*
X146211905Y-109650057D02*
X146259524Y-109602438D01*
X146259524Y-109602438D02*
X146354762Y-109554819D01*
X146354762Y-109554819D02*
X146545238Y-109554819D01*
X146545238Y-109554819D02*
X146640476Y-109602438D01*
X146640476Y-109602438D02*
X146688095Y-109650057D01*
X146688095Y-109650057D02*
X146735714Y-109745295D01*
X146735714Y-109745295D02*
X146735714Y-109792914D01*
X146735714Y-109792914D02*
X146688095Y-109888152D01*
X146688095Y-109888152D02*
X146640476Y-109935771D01*
X146640476Y-109935771D02*
X146545238Y-109983390D01*
X146545238Y-109983390D02*
X146354762Y-109983390D01*
X146354762Y-109983390D02*
X146259524Y-110031009D01*
X146259524Y-110031009D02*
X146211905Y-110078628D01*
X146211905Y-110078628D02*
X146164286Y-110173866D01*
X146164286Y-110173866D02*
X146164286Y-110364342D01*
X146164286Y-110364342D02*
X146211905Y-110459580D01*
X146211905Y-110459580D02*
X146259524Y-110507200D01*
X146259524Y-110507200D02*
X146354762Y-110554819D01*
X146354762Y-110554819D02*
X146545238Y-110554819D01*
X146545238Y-110554819D02*
X146640476Y-110507200D01*
X146640476Y-110507200D02*
X146688095Y-110459580D01*
X146688095Y-110459580D02*
X146735714Y-110364342D01*
X146735714Y-110364342D02*
X146735714Y-110173866D01*
X146735714Y-110173866D02*
X146688095Y-110078628D01*
X146688095Y-110078628D02*
X146640476Y-110031009D01*
X146640476Y-110031009D02*
X146545238Y-109983390D01*
X143233333Y-96404819D02*
X142900000Y-95928628D01*
X142661905Y-96404819D02*
X142661905Y-95404819D01*
X142661905Y-95404819D02*
X143042857Y-95404819D01*
X143042857Y-95404819D02*
X143138095Y-95452438D01*
X143138095Y-95452438D02*
X143185714Y-95500057D01*
X143185714Y-95500057D02*
X143233333Y-95595295D01*
X143233333Y-95595295D02*
X143233333Y-95738152D01*
X143233333Y-95738152D02*
X143185714Y-95833390D01*
X143185714Y-95833390D02*
X143138095Y-95881009D01*
X143138095Y-95881009D02*
X143042857Y-95928628D01*
X143042857Y-95928628D02*
X142661905Y-95928628D01*
X143614286Y-95500057D02*
X143661905Y-95452438D01*
X143661905Y-95452438D02*
X143757143Y-95404819D01*
X143757143Y-95404819D02*
X143995238Y-95404819D01*
X143995238Y-95404819D02*
X144090476Y-95452438D01*
X144090476Y-95452438D02*
X144138095Y-95500057D01*
X144138095Y-95500057D02*
X144185714Y-95595295D01*
X144185714Y-95595295D02*
X144185714Y-95690533D01*
X144185714Y-95690533D02*
X144138095Y-95833390D01*
X144138095Y-95833390D02*
X143566667Y-96404819D01*
X143566667Y-96404819D02*
X144185714Y-96404819D01*
X153104761Y-112050057D02*
X153009523Y-112002438D01*
X153009523Y-112002438D02*
X152914285Y-111907200D01*
X152914285Y-111907200D02*
X152771428Y-111764342D01*
X152771428Y-111764342D02*
X152676190Y-111716723D01*
X152676190Y-111716723D02*
X152580952Y-111716723D01*
X152628571Y-111954819D02*
X152533333Y-111907200D01*
X152533333Y-111907200D02*
X152438095Y-111811961D01*
X152438095Y-111811961D02*
X152390476Y-111621485D01*
X152390476Y-111621485D02*
X152390476Y-111288152D01*
X152390476Y-111288152D02*
X152438095Y-111097676D01*
X152438095Y-111097676D02*
X152533333Y-111002438D01*
X152533333Y-111002438D02*
X152628571Y-110954819D01*
X152628571Y-110954819D02*
X152819047Y-110954819D01*
X152819047Y-110954819D02*
X152914285Y-111002438D01*
X152914285Y-111002438D02*
X153009523Y-111097676D01*
X153009523Y-111097676D02*
X153057142Y-111288152D01*
X153057142Y-111288152D02*
X153057142Y-111621485D01*
X153057142Y-111621485D02*
X153009523Y-111811961D01*
X153009523Y-111811961D02*
X152914285Y-111907200D01*
X152914285Y-111907200D02*
X152819047Y-111954819D01*
X152819047Y-111954819D02*
X152628571Y-111954819D01*
X154009523Y-111954819D02*
X153438095Y-111954819D01*
X153723809Y-111954819D02*
X153723809Y-110954819D01*
X153723809Y-110954819D02*
X153628571Y-111097676D01*
X153628571Y-111097676D02*
X153533333Y-111192914D01*
X153533333Y-111192914D02*
X153438095Y-111240533D01*
X159604819Y-99761904D02*
X160414342Y-99761904D01*
X160414342Y-99761904D02*
X160509580Y-99714285D01*
X160509580Y-99714285D02*
X160557200Y-99666666D01*
X160557200Y-99666666D02*
X160604819Y-99571428D01*
X160604819Y-99571428D02*
X160604819Y-99380952D01*
X160604819Y-99380952D02*
X160557200Y-99285714D01*
X160557200Y-99285714D02*
X160509580Y-99238095D01*
X160509580Y-99238095D02*
X160414342Y-99190476D01*
X160414342Y-99190476D02*
X159604819Y-99190476D01*
X160604819Y-98190476D02*
X160604819Y-98761904D01*
X160604819Y-98476190D02*
X159604819Y-98476190D01*
X159604819Y-98476190D02*
X159747676Y-98571428D01*
X159747676Y-98571428D02*
X159842914Y-98666666D01*
X159842914Y-98666666D02*
X159890533Y-98761904D01*
D11*
%TO.C,U2*%
X141690000Y-100200000D02*
X141690000Y-99400000D01*
X141690000Y-100200000D02*
X141690000Y-101000000D01*
X144810000Y-100200000D02*
X144810000Y-99400000D01*
X144810000Y-100200000D02*
X144810000Y-101000000D01*
X141740000Y-101500000D02*
X141410000Y-101740000D01*
X141410000Y-101260000D01*
X141740000Y-101500000D01*
G36*
X141740000Y-101500000D02*
G01*
X141410000Y-101740000D01*
X141410000Y-101260000D01*
X141740000Y-101500000D01*
G37*
%TO.C,U3*%
X142050000Y-91927500D02*
X141250000Y-91927500D01*
X142050000Y-91927500D02*
X142850000Y-91927500D01*
X142050000Y-95047500D02*
X141250000Y-95047500D01*
X142050000Y-95047500D02*
X142850000Y-95047500D01*
X140750000Y-91977500D02*
X140510000Y-91647500D01*
X140990000Y-91647500D01*
X140750000Y-91977500D01*
G36*
X140750000Y-91977500D02*
G01*
X140510000Y-91647500D01*
X140990000Y-91647500D01*
X140750000Y-91977500D01*
G37*
%TO.C,TP2*%
X158750000Y-91300000D02*
G75*
G02*
X157350000Y-91300000I-700000J0D01*
G01*
X157350000Y-91300000D02*
G75*
G02*
X158750000Y-91300000I700000J0D01*
G01*
%TO.C,C3*%
X153790000Y-99290580D02*
X153790000Y-99009420D01*
X154810000Y-99290580D02*
X154810000Y-99009420D01*
%TO.C,R5*%
X152290000Y-104572936D02*
X152290000Y-106027064D01*
X154110000Y-104572936D02*
X154110000Y-106027064D01*
D12*
%TO.C,SW2*%
X138599554Y-110211172D02*
X139838829Y-111450447D01*
X138945981Y-109864744D02*
X138599554Y-110211172D01*
X139225478Y-109651702D02*
X140398299Y-110824523D01*
X139838829Y-111450447D02*
X140185257Y-111104020D01*
X140577905Y-110644918D02*
X139405083Y-109472096D01*
D11*
%TO.C,C1*%
X140140000Y-98140580D02*
X140140000Y-97859420D01*
X141160000Y-98140580D02*
X141160000Y-97859420D01*
%TO.C,R10*%
X142637258Y-90465000D02*
X142162742Y-90465000D01*
X142637258Y-91510000D02*
X142162742Y-91510000D01*
%TO.C,TP1*%
X160550000Y-93100000D02*
G75*
G02*
X159150000Y-93100000I-700000J0D01*
G01*
X159150000Y-93100000D02*
G75*
G02*
X160550000Y-93100000I700000J0D01*
G01*
%TO.C,J1*%
X145330000Y-88150000D02*
X145330000Y-89850000D01*
X154670000Y-88150000D02*
X154670000Y-89850000D01*
%TO.C,R3*%
X150227500Y-94037258D02*
X150227500Y-93562742D01*
X151272500Y-94037258D02*
X151272500Y-93562742D01*
D12*
%TO.C,SW1*%
X159651702Y-110774523D02*
X160824523Y-109601702D01*
X159864744Y-111054020D02*
X160211172Y-111400447D01*
X160211172Y-111400447D02*
X161450447Y-110161172D01*
X160644918Y-109422096D02*
X159472096Y-110594918D01*
X161450447Y-110161172D02*
X161104020Y-109814744D01*
D11*
%TO.C,Q4*%
X145340000Y-109210000D02*
X145340000Y-108050000D01*
X146560000Y-108050000D02*
X146560000Y-109210000D01*
X146560000Y-109210000D02*
X145340000Y-109210000D01*
%TO.C,R6*%
X149890000Y-104572936D02*
X149890000Y-106027064D01*
X151710000Y-104572936D02*
X151710000Y-106027064D01*
%TO.C,D1*%
X147245000Y-102295413D02*
X147245000Y-97200000D01*
X147795000Y-102800000D02*
X147250000Y-102300000D01*
X147795000Y-102800000D02*
X152745000Y-102800000D01*
X152745000Y-97200000D02*
X147250000Y-97200000D01*
X152745000Y-102800000D02*
X152745000Y-97200000D01*
%TO.C,Q2*%
X150190000Y-109210000D02*
X150190000Y-108050000D01*
X151410000Y-108050000D02*
X151410000Y-109210000D01*
X151410000Y-109210000D02*
X150190000Y-109210000D01*
%TO.C,L1*%
X138440000Y-101297936D02*
X138440000Y-102502064D01*
X141160000Y-101297936D02*
X141160000Y-102502064D01*
%TO.C,C2*%
X145390000Y-100909420D02*
X145390000Y-101190580D01*
X146410000Y-100909420D02*
X146410000Y-101190580D01*
%TO.C,R1*%
X145377500Y-98187258D02*
X145377500Y-97712742D01*
X146422500Y-98187258D02*
X146422500Y-97712742D01*
%TO.C,R9*%
X159327500Y-96087258D02*
X159327500Y-95612742D01*
X160372500Y-96087258D02*
X160372500Y-95612742D01*
%TO.C,R7*%
X147490000Y-104572936D02*
X147490000Y-106027064D01*
X149310000Y-104572936D02*
X149310000Y-106027064D01*
%TO.C,R4*%
X148677500Y-94037258D02*
X148677500Y-93562742D01*
X149722500Y-94037258D02*
X149722500Y-93562742D01*
%TO.C,Q3*%
X147790000Y-109210000D02*
X147790000Y-108050000D01*
X149010000Y-108050000D02*
X149010000Y-109210000D01*
X149010000Y-109210000D02*
X147790000Y-109210000D01*
%TO.C,R8*%
X145040000Y-104572936D02*
X145040000Y-106027064D01*
X146860000Y-104572936D02*
X146860000Y-106027064D01*
%TO.C,R2*%
X143637258Y-96677500D02*
X143162742Y-96677500D01*
X143637258Y-97722500D02*
X143162742Y-97722500D01*
%TO.C,Q1*%
X152590000Y-109210000D02*
X152590000Y-108050000D01*
X153810000Y-108050000D02*
X153810000Y-109210000D01*
X153810000Y-109210000D02*
X152590000Y-109210000D01*
%TO.C,U1*%
X155640000Y-97540000D02*
X156090000Y-97540000D01*
X155640000Y-97990000D02*
X155640000Y-97540000D01*
X155640000Y-100310000D02*
X155640000Y-100760000D01*
X155640000Y-100760000D02*
X156090000Y-100760000D01*
X158410000Y-97540000D02*
X158620000Y-97540000D01*
X158860000Y-97990000D02*
X158860000Y-97840000D01*
X158860000Y-100310000D02*
X158860000Y-100760000D01*
X158860000Y-100760000D02*
X158410000Y-100760000D01*
X159190000Y-97780000D02*
X158860000Y-97540000D01*
X159190000Y-97300000D01*
X159190000Y-97780000D01*
G36*
X159190000Y-97780000D02*
G01*
X158860000Y-97540000D01*
X159190000Y-97300000D01*
X159190000Y-97780000D01*
G37*
%TD*%
M02*
